<mxfile host="65bd71144e">
    <diagram id="d7Brc5XMYvm7eEnD8fm6" name="Page-1">
        <mxGraphModel dx="835" dy="516" grid="1" gridSize="10" guides="1" tooltips="1" connect="1" arrows="1" fold="1" page="1" pageScale="1" pageWidth="827" pageHeight="1169" math="0" shadow="0">
            <root>
                <mxCell id="0"/>
                <mxCell id="1" parent="0"/>
                <mxCell id="8" value="" style="shape=image;imageAspect=0;aspect=fixed;verticalLabelPosition=bottom;verticalAlign=top;fontSize=11;fontColor=#FFFFFF;image=data:image/png,iVBORw0KGgoAAAANSUhEUgAAAaAAAAIICAYAAAAokTpHAAAAAXNSR0IArs4c6QAAIABJREFUeF6MndvSbVdVtr/87sUDy3uwrDJKUMoTJYigKNxKAlUGg16CUUGJ4VIkiZqQQPBIcXNoldegBwT38lcblWfW8z2r9bmyqlZ9c45N76239rb3bb2PMcd45qMf/egPHj7498wzzzz83//93/VtPs//+feDH9wOuT7/v//3/27HsG/+cj7nub05h/P+93//9zr2h37oh67+OHe20R6faWs6nPNnv21gm+2cc2b7tD199ByPzf14O37AF/P9d37ndx4+9rGPPfLLP/zDPzy8/vrrN39w/Pydc6bNGS/b8QPb6tt+r0/mPNqtn+s7xs245u///M//XDbhc/6Cgfqzx/V4zrPd+N5/7Udijy0c17Zme+OzHcP5HPvDP/zD1zgn9vW/Yzz7O+4f/dEffXjxxRcfPvvZz96wP+f8yZ/8ycO777778J//+Z9Xuz5vthHX6fuTn/zkw5e//OVH5//1X//1w2uvvfbw/vvv3861z5xrxsvE+kd+5Eeu8YDJ+T6f+e7jyQP71DlKHoEh50aPm2O2XLetzs/yhfPf+Wsb5vP4DFwTc8d5y9exlTg0H2bftIl/wLTzwL6fvtyW+8Y2zoVT5vjPfOYzD88999zlI3A2fPCXf/mXVxNzTPMcn5jD4EDnnmPrdsYebDd3EnfHjL4Zz8YX9pM5D1z4XPvRvMAx9G3OggfNBey/2viFX/iFH0DYHNzg3zLmAzEywUMsFiAAhrMdvH7u+TauYMTJOJL9dvrmbLZNQAigwUiSWbAMCmwcUirg/vEf//HhjTfeeEQ2jJt2xze0R1v2MX43uQMAkgnRZjtJh09OMcOfgAtyxmeAucliki2xbMTpwsXjtn0mRbffseAHE4/j6v0kskHv5KZ/BIJYOP7G4E/+5E8+fPGLX3z4zd/8zRvs55w//uM/vgTov//7vx8VQMRnts+Y5j8CZPEcAXr11Vcf/v3f//2JgsjJXN+Cm9k+IjTjoKgyppyjxVbzxnhzUbflYs/1mGyrCauFovdB6JvQeAwlMWxz/x0nbYIz/GqBmPNdlBYHxgsFsgXOIgEf0N7k6PDBxBqc4WuTP33gl03EJ9YeM/lvTqUPj7dijI8sDrON9rwfX7Rdb3dcvL081KKyx87xV4GIAJkY52Ard4NkgtmUso7FaJ9XcbKBABsiMUna2ZAYAdwqIQd+xgQRebs/43yqZyrN+f5bv/Vb1wyIfgs4fNbgNmncppPIFYhjQGymXfpu8hsAjUkT1QJpgZrP458BP753BewkMF42EXScaKMEQ3K2sjIROglLhi4csJ2xM0uYc9w/foU0wB1+nRnQF77whSvW9vEI0Le+9a3bDGgrLqatOX8E6OWXX350PgL0/e9//6qWTdIQJeOz6FhsKaAgE/DMmLHXMa3/LD4nki+2TvExBow58qn5a6HdYuf8tU8sCrXZuUV/xjdxhnTLc8UHGHWM8HdnSSNA5YOZAU2siaG5oORNLJqfjAN/uBgmP+0/xmT+wGf2uQs9cM9xcAvcRAwRbwtqz3W8zaUeH9sdy8s3swSHkQzAFVYD5gqgFdhmGG0yEAtPE8ZGAgwHjTbsSAbkZRcTFed7TICrwkPgOd/gnW2bAP393//9w1/91V9dGGI8EINttx9MNKdjLMLEwIRjgAFgA5l2N1LaEsGJZzIxeRsfbr/EYtvBxLbNPnPSUSRgR0FtTDrWiB7FQ7G24Q0sMP4f//Efv2ZAFqA55itf+crDt7/97Yf/+I//uM1gfC6zkxGg559//lqCc3+zLPPnf/7nD//1X//1qDruGO0Tj20+08dGLq44W4DYDnxS0jNZuOgwN5B/W//Gj7Hh+NP3tOncqoi4LT5jk4Wbtin8Wui4QC2plyOMKfvL/RmX5gP8MnYMH7AE1yKDGVUF3raY21iVYHx8p90PwwflduPEItb8RHQ7ftturJZLixFz+6MYIkAONJ20IimQN+LztHWrfB1ojKKfDVxNQleeBb3BjqMJAKTkJC65cr4V3YJLxXMCnBN/2ijgNn86KfHNbOsMlH2ujuubDRDY5NghJIx3xjP9nYSE40xSjf18t69McAan+96SnjGY7IyT4gdiKdYMeOxGMCqwPvcnfuInrhkQS3C0UwEyRpxsI2DMgOyjKVJmCY4ZEDaYBCoixnpnn61UKyzOjYqcv7tCx5eNnXFRv5qQtn1gB+yXQ/z91O+Wl9jkcZNzs2/6Q+RmNuw8cHtdNXFOtQB1fs55U6T80i/90hMrIiNAno2QF9sMxWM2XjwuxuJrfcawxbWzHMd643XEn763GRu+LqZcOGx8sPFRY3ybARl8JVI6siEGG/tRzToSpTa5TFsTYMhvIywPwCThCq2B5hyTP2SGnXx3m60UCJaX27gJwbOpWfP9xje+8eimDQfVYnIiLYuL20ZstsRu4m4k4ziYKPoZfzRBLBzGBPbahn6uaFhQTNithCuObmfDHMJnn5PwjTeYm+s1xpBtm2tAcxOCrwFNHyNAswQ313C2fMAnP/ZjP3bNgH7v937vcj/HIkBzvoVlE0ryiJxkSdTxMDY2knE+OW8ROQgOwoLk3De+bexP4lYyq6CVbB0f+irm5xgL81bkOH9mJaQ803PAQTmvxa0LYrfLOEaA5pow15XH9lmCe/PNN29L2BZecsT5V05AHIczG4sS+qkoaXwqDm534ySPGx/Z5pPYnHiKMTnvbzjcrgFtygWIrcwEnm0mIYPL5F4SKVnbIQz+FKQS6RwHGNjXyhhbTHwbqLHL9o0ADeAsSgDOzt2I0v6bz600XNF2vAQccq4/TYib6Bj4G0mYaIilbTDxbTEuOE14tqc+LaE6DgatbbYfwZ8Jp2MpRnus989nZkBDLv7nu+BK4hazqbY9A8LeIaWZAc0dc03U6cdE5Sp29lHAmTgq1KfiYZvZth3nNH7fRM37tuPwbTmihFhC4vu9OLtt2uuy+mwnN8EBx3o8zQHiQUFcPtswNe399m//9o0P5vv4lSU4i1zja1vAHzghl3rTQXFrvvC5FbdyhnkK/5lPnLvmUGx2ztm3+OgeFzEpMB6umxBolNmIAeLAl2iaSCa6E/HX4XbsiXixx4kJCVC9mpgAEFWdwVghmGMdiEfO0W3o088swX30ox99VPF897vfva35ArRtjA58CZ3gmtw5vuDt9gJii5HBY1J12wV4RaQJYgJym02ukg+xaJW/tW/7NlH3zKXCWB+zfm5M0Kex2hkQ7XATwsyesKtr8tPeCNCnPvWp6yYE/5tlGe6CMwFunz0rMZbwHaLifY77fGZMFia2b+Ji/zmPW4i4iDAWPdZNSLo64irbM1a3Oe04v4vJ2jbnQnLYwHcXDcWG+c84m/6Ihc+ZzxODz33uc0/cFTsCNMWGRXXaR1BcOGy56utZFg/HlP4tHBXVtu1jy09tx7lZnxeP7XfDnTmAzzce/sVf/MVLgLbgettGjptgQP4GFce1asOYVr51XsFNIhoU23R1Sx4T9jYLaiK6jal4etcLgGMMLCEY1AaS+8dX+N8E4W0Omrdvic62juMESJNRweSKpQTn2NU+j5H2t4vOxHHDH21CABaJkov7mwRmzZ+YbEsKTUIIY2ZAXoKjrz/6oz96eO+9964ZjAs1YkYsp+9f//Vfv/0OiHEgQHMTA307HzoroQ8fCxlDZvjWpO1kt5B4e0WpmGy7XSEoSd/I5IOCzflqbBjfzt3G31jz7LI8YIzbJh8H7spVm+iBAZOoz6sf4IPZPv9nqRQ+2C4B2K9jo2en9M3MxrM7X8IAj7Zl2vX1oY07jPfGZ+MhcwG2bbzc405cUCG/4XEEiOqgItRBGqgn0vBgbPimlASEgBvIHSznAwjOaWVDcnkq3urLQNuEdbb5B2iAhWtAXuabJbj5HRDJ5alx/VU7WuE4eCVcwLottTQRseFpZNS4n+LtWDSO+NIkSBz91yJgsgAvbsfkxHhbpDiJTFLcTtqkKaEjfrWFGdD8yND+GwGau+AQIPvYP+bjNmx+iGoBmrvguIuu+WOhJS8a6xYorpZLbtO+Vwyca55hmWCdY8SuS0EnQcCfFTfaNLeY/LcCyHZUqGpjxa+cQ2zKbWAannA7xWpJH0FAgOiTu+Dmep/xVh4gNtvslJzc/Mi2+cu4thjfKwBmnB6zxapi4gLJY3Bh0/wxh3mf+cF5dd2EsKlWFdNAsAEAzwmwEYwJ1US8AajGlnxcLW4OgNSoGOd4T82bRCY/+m71P3bOEtzc9cIFyQEcv3yGHFzVbMFwIjj5NrIhBp5V+TN22wfTpqshE7wFweKHn5qkW5GxEYpJzGLo2Bof+Krtlzw20M62JpCxap9gF/EvKdOW/TcC9MILLzxxF9xcA5oZkG9CoD1X2X4Sgv3tH6Lah8aohX7a7kXmiozz8OTrLbc57x7B2HfOj9q45Y7z0zE2h5Q4t9gT1xKZCdZYol/amu++A87t+Vh8Z47a+M8+mf3wAefNDGhuShoBmmN727z9bT8yBv8lh21HiR+ucQG/8UvzyELTHDRm8TNiav/Y/ra3CQ8cToF44z4LEAm1dUQn94ToHsCsoI8UMNN2JxIB25ZvDDKqBpJ59rkSNim6bwfOolRwcA63YVuA/CQE/Ico47PTrMVJQEXt6gtftBraBPxkswFGewY3cTHIDEIn+D1BbXJYlPjcpQQDtyJaDBLbLSE7c+NcL2NYZE1E7nc+W4C8b+6Ce+eddy5S6awAf01/83+W4LgLjr56F9yp4LglpvLCcfPsgWKEczxGi9VWIJiUGgdivuG25L/FuaJnP5Krm5C5bZOf49tjKrzwgvlqPttv2FDi3DjKuDO5DwaYAfUuuFlubT45HvbPZr/9bo7oY7S2ZTeE3WOrrzfROQld82ZryzExHuxPc5mL+2dmCc7K2yCcgHIK3kaEG4m5nxp92neqUDjf5A0Qu82OtnMtXhUD2vBdL9POAGAEiNsufZ5Bb3I24CBkBLPC4u9zTAmHdjtGV5cVoBPxsJ3k3GJgQcW/Htvm6wLbMdyIzwWCceFYmdAaT8bugqKVp/dZjOYz14B6FxxLcDyKBztNFtMuS3AWoDl2ZkCzBDe/AyqJlxBMIm7fQo7v7H/7wiR3EqDmcHPdhQhtlNiKg8amYjTfjZP6f+ObbcZrn7lPuMbbnIv2fQsXbAEfxZJtnX3bXXCsiJDTFEEULc6/DQfkeePLdvuuM9gZ+6k43QqSzRb3O235UsYWG7YZY8VV85yxXP589tlnr2fBmXAMmpK+qwATIIPpfjr33xrYvgseJ9YGcJLAQXLlMOc7MK6GSni0UdGc734YKcdxDYg+Tn5s4tbHgGdL8A10iBFjN5gqTBakjWRKND7ffrPNjrN9WF+zz6T6iIE/+K3Mh9lmuzbM2neOcfG2xR+Bmx+Sbr8Dmrvg5hrQPMnAFXRnCfM7oD6KZ/rvXXAlUPw8Y+wMtb52vMDB5j9IZ8s397eRiOO45bRzsn03p7aZ1Ak/m61wkMftPlw0sb0Fi/NkjnGbtcUc42IFfz6tIJ1YE0fssA86juYkvm1sT4WJuecUK2OhXI3/ioNymkXGMS9XGtvmDPuVc64ZkMnLBMpgLB7ej4Ps5BJoA2jg2PGuRkpoAMYOsjPoY/5O8voGAlTcwTM4Kxgea4m7t13OfgTIpETgOhMhCQBDCb3AsIgC4I1wCgz7qVVSY719N4CaLJ3leExuq2BrUeGEaJslN2OqwuP+wYHXmVvBVXwq4LMEN09C6E0IfhjpRpL02RkQx7IENzchsG1i4+UbxrZVyxQ8zc8S2yYGPqY4Nck4fib15r9J3m1vBFVfTdz7swfzjO3b+m0fxZ/x4aV7/FZceiwbD/YmhbGVvPbvAtnuh5F6qdZFhXnPotZcLf9sRUNtbtvNJca7xc0ciUB0mW+L5+bb8vypiLotwW1JDvFv1Tad2mm0gRMAm7ebVEtCm1pu1U/JDNCytuiLwixzAYY51mIHgElw+rMYYNdMuecmBAsuP0R1slD9OPj2QY+tIJlEbNf4jv+0YUK18NDmVl210nEc8G3BuBUFJo6TkGE/fvZ1oFZOBmmJojGvPewHC8aEcWXczjngAfu5C257GCnPgjN+fLvttHdPgGYJjpsYKvLkEUXURrT1nfPMccOvtLnFexOLU573/OJzi/1WUHrMbsMk7Nwwxk/nOraIRc9zHpLfW3HIccaWiyN/nmO2n2UMH/TZkGNPbxigf4Srv1+a9i0494R+i3Pz3hxzyq0WMz6ugrKJtY9xHBlL+73yfW5CmI6dSPcUzR2XVC1iJheEyGraxN0SDgHcwGchK5jnzhcq0gbahAMperwmY7c77cxNCB//+MdvAjbbvATnAJhQsMEJ7rYbzK2KgVDdhgm7ItZ97Q+b3K7F2AlQ/58AXCGrIDapiC9YaZIYTyYHx80k7FdtmMiNLbc5GCzh+RqQ4zAzoO985zvXNZytKOK2WJ6EcO8aUBPbBILdJlaLd4UGv0COLgjtz4q7CxTPOuzPEvJWIDTnsW8TuNnWqp6xebtnXxR7zRHbhl1wiouQEqd97+KtMeF7/WoRoiD1zS48CaGFIUKz+cV+ddw749l8TRwrUBuHmAOMI+KCT8uBzmNzvn3bz83djauu2G83IRR4dsq279i4XnxW8G0VEmAscZlw6kRX6naCZzKAFzsNLgPPQal9Qyyf/vSn1x+i8vTbzW73XYK1PYgzbRjoEHQrncblFAdiZpBamE3Cjq9vkjABbAJgYNqnG+F4bE30xqjCOceboEx4+M7VpEXOfqAdtjEmXwMyWfQmBMZrspv+t9cxzLFTFfcmBMYK0eCrznS2ZLaAmEAg7AqJY79hq+3V7/eIvAWKicz7iu1NZN0vuL93nOPf4xxvz45OxStYcdxL1OYV3gdE4TNx6wzIcXB+bjOaLZ8rBvVn42zhoT0XJcWS87r80XyxXypKFaAKYM8l327XgEogJQIbvpGkA1Oi5VxmWh60DbeRJkILUwXDjjAZuEqlP0DogLifjfwgqtnnR/HMeZ4BQQInR9snJABtGCit3LHJBGGgbHEpCLHNbW0E41mRxedeEpjwCrqSlnHTqpvvkI5FcSOEHkeMsccFhGejxYv9MOf4UTz28wjQvJBubkIw6dVunoTADIg2fBv2luglFmJ2mtk4pva7jz/5bfryakTzznlg3NqnW9vOa8ePWBlH5RDHgXwvqTnG5RDj0EUpNntGYqHxW3lrA9yA3Rbu+TzLtL/8y7/86E3PXAOauyXrA8e9HLQRtn3PfnzJSkjz+B4flOMtrha/LXfKwY4l++x3F571q8fy6FlwWxIYDF7+cacEyg4H5BYMH+ftNbYJcAIk/Y2w9DcmFRb3XdJxYAAnvrCz/DTsOYfbsH3XiwPli5DbeGnbgkS7JkqLjwFm0HQMTR6PuW1zrG/geHSvvmaym3BtNrEESttbxUcy2VZjcAO2xzyffaEZ3FB8eKZUPMw+SMtk4PcBeazcBcdNBCZDL5X4h6jOBz+Kp/4y+SAsWzwrBp4RWxB8XMXF/is+m4dtE7+eBB3/89cFzUa+jjt9bXyxkSzb7EsXnbZ9PhsnW9zdr21xPByTaWOemF4B4oV0PMEcPulKQDFfPnVsXVTYj86tipXHY7FwftmvxrDbtd1t01y54fVefG9iNQ8jPRHBRixNZIsFg/MxHqQTciMyV0oeHO0VALab9jwTM0jryAK9fSAEnroP4OZZcEMys39AxsNIm3xbgtQei5uJYdpmJnQ6xqRVH5vsNwBZgHzshgMDvn0aH034An0rKmx3Y198uCrreI0rEhni8Iyod5dtWJlrQLyQzv3wQ1RmQOCDcfIG1lmC+8QnPnF7IR22sQTH6xiYgZjUTzGdPjYCo2/2uZBp0VI8ev989t14JXITWGOOzY7PhpMSbuPb+DuOxtKJk+YYX1f2GIwBk2tzFqEittjg/n2DE3zgGM41IL8R1ThprCmQbKvznbgyLouERZ52LEK22eP0LMV87TiWP7DPvvfxzn3bZR3Al8bGdWyvAVmJ26EDYsLcBOLDkNN2m6Sd4nY7mA2UFpUmxAnQDn77c9JT8XAXHKTARUcHoUAzMByITlm3itF3z3ja7eWA+mwTLRMAyV5xon3ahsSJpbd73wZ2x8KAbtyMI8es/nR7FpwTDvGz/bQRjnExn/0wUovvLMHN+4C6BNfEHQHiSQjuz7dhuwDwmPG/+634lGwsDi0WKkLNyZOoWayIV31nv5aoPaM04ZeEKLKIbfFFn+zfZmjGiZfYt2fAzbEuOjwDpO+Kb7mN/uYv7wPybeV+NBc5QhzGfttVUSa2+N+rOv5pwbRXbip2SvT+fsof+5v2iy9zm3PHx9F+t5nDbzxwehhpCaQEUHGaBp0cBlVJZwOok5IAbIlgABFgVz7c2YQ9kO1pzbugnOMNKCfeXAOaKbfvegFwWzXRQBAAwG5B8fj9+UTetsuCY7EzuZUIALeBZoDYBsd6KzaozDZSmnP9TCzaYlyNp+Nm/xEnj/tEDq2EwQmYxB76nr8k0+mFdLMEN4/i4ZXaPI6JtvjtGdeA5nUMTvqpir/+9a9ft2F7JjZj8E8EWLrBNuI0Y5rrCrx6vtgqbrcZf3ECZk18+Aqf2D4Tl9tybIpLx5fY9rcl5OhGktjR/sxH5gvGMn8tKsWNzzGRWmA8dsTNed4nIUwffiFdOfKeDS6kWAq3+E88XbCfihWwZF9ueW1b8FkLYLikPGJeLm+5IDDv08cTXMJt2AQBMBjgbsifO8gKhlXbQPRUkn63anz2EXj6qjNwkm/BdZsAuHd0kQxNKgfBCTrHTcUzS3C0ycMHZ32f9q36FtoK7Hy3uEDUFjcS29dmtvYBmMWnydx4VjDthxYAp4IAsgLMTTiDDn/PX4seuJhzTUzGi9s3qXjGZpGh0uTY2oUNkJSFkx+izvKKfTIPI+Vp2IxlxGhmPCT94GGuIc37gOYmhAoQvwOy76fvOb/XMGcM5EljR5LPOc0bk5bjthFFc8rkBQ9gn31hrjDmttzkWGOUttx291cg2L8VVbbBJG2bjQXH3/1uolXeMLfwbEiwOnbMishf/MVf3B6CSvt+jhtj83lg3CsejrMx6ryrGDi3SvbGI/HlfHMRYuci0YJlkS6uyhUVMc7FL7ffAc0GX8wvMWOAAW6Q0rEHSQJ530ZKOM3GmXTYbicZUOxvtYUtntEYZDjB9tGWhQ9fUPFw3tjT9wFVIObcbUYFeZY4PS78h38giApXgVVQYj/AMsh9rJPNMcFW+ws/bcB0giMsJq22w5gt2MWTiewG3g9ujiCmJDkC4QT3+VtiMZ4RkHkSwpCL//FCurkJYeI5fc1fPmOTf4hqAujTsC2e/kx+mXDmM3dVVVQ4t8vZFiYTtMnDGKRfxuFZmsfh82tLi6wSoI8nNs1pnwO/tB3bwL6NL8w1Fg4KSHPZ7Gf7qaCiL9r1+4DA/NwF54LU/uQYxuXcsS3mnjnGhbxzpxgi5s6j9lH/mhvMn+UM2rQOYEu3bXzqMdsPt9uwt2qkHTjYBpsTGtIsICA9B7oks90mXVA7AB04yxM4kmURq72J0MJl4fA4DcqZAc01IOycMVmAtsevVxSbzCbo8Z1nOwYloMceE0QFYvPZbDNAvUyFHyxGJqTG0qDeAG4B4rMFoO1VaOnb55xIkLHaL54NW5xLMj132phnuc2z4HgSAv3OTQhzG/YIgZcviQu45FlwMwPi3Pk7AvTaa689vP/++0+8knvsQDxNcogcJDT7fEEaP3oJjzF53NhmYnIxY6GeY70E5Ng4F5wvG+EUSxS3MyaWL42DOb5VvvMbjDZP2w885sdxcYNI88nFXpdtiasLsbHBPvQMiDxmCc7j4TPnOl/pxznLGPlBPcd7lcU8yzjINQt9babtOYYxm4Oce+XnLc4t8locF3t8v/U5S3Ce/rvBEpmN96AtVCYfnOsq0UF3spkEG/QmVSuYrotzoW+Os7CWBGmHIAF4bKzqf/7zn79eyW2hHMDNlLtidkoYk40T2mTDdkjJlb1FpOIGQDim5HuqigGdY2+/WWQs4E7+JhCxN7htrxPPfmiBYdtM9k1w/G37toLGJOe+EKcRkG0GxE0I8ySEIYYmOW0N9p5//vlHb0Qd3zAD8htRjWvbP/Fm3OROY0nuICQlGpOF83Y+N3cHF36p3pxrPFYcGKvbKVdgX3FBW+CCmIIN46ZjLgE61tgClswhxo3HWrzTnn05NjC77H5+iNprwjyKx2JlYm7cicmMj9kOPIqfsBtscBy2utj2zIjYe6wVGcfINmMP2HBB9bRCwMWDxZK+b0I0T8N20KpoNrZgIiCdAVlYELdpl+pn2sEoG4RgOGGcmHYm5xvA2OFk6nhwjMFk8aO9aWuWU+Z47nyah5FyDWi2ewZk0SvY6HMb8xZ8C4WLA1dQFn3bX+IpaJrEgN/r/3OOl2NNBIDbguuqhhhZBJvoBuS0A9mZtLb4tDDhOwQAWZfUNmJx9We88iSELsFxG/a8EdVxhBgYx+BgnpgxNyEY22+99dZtBmRBb5Lj62l3bISAICRX6k1mx4k4eFsxY1yeSNHkaNJxTImDxR18VERM6NhTTNlOFy3ECQzDFxZhn2t8cA6FBv40j3AMfnWRNH63kM1n7oLzDSl+EkILQfxDTDcSB0dg1rawiuScNXe7PY+lfFROQMSIGTztPAUrLeDwN/2Zuxxf88lsv/mCp2EDeDfgCqNAwjF1oo32WiYCBGgAHcYweCc3+5pofHf7JCYDNalsIudtDpYBD0ghZG5CwC8DCF5Ih0PrPwimQmpQjM2s8Xv8AGH+jhjOMQ2wx1FiczJucTKhs9/XN0hWFwT+THwYC8nQY+xf4tKK2wRIDExi3kZ/FpYthsY07YO/Ejl99WGkbJ+bEN5+++1HNxx4vOBu4sRNCNg0ffd9QBZbYlhV1gXHAAAgAElEQVRi8DhNsiagCsc9UnfOYi8YNynMZ+9H4MGX40L/Lkgc/9Ox5hNiYbya2Jw7jrOPwSfYSE6BM8en3OM8J4/xR/nA/vaS/Gyfdvt+MOwyH9k/mzh4W0Vv9sELXoa3ABRPzb9pg9zw2C1E8JD5vLG0Pmxcbfw7ho/4gjeiVj1bzdBAifuUAAbmBrYGpE4CXE5U20CSUFGZTCF92wBZkEx2Tp1H5enzJ+h++CCBo+KhOmmCNEHxM9vHbqbPJCJj8V8SwcCwb0g8E4oB089jr0nH5EK/Tp6Cuv4+xanjdzuMhXOLgc3+EpOFhfNJJK4FGX9OGj7T5viYa0DMgPALT0KYIoBrfRMv/zB12uMa0Je+9KXbcGY7P0T1kxQmBi24TAjsYxZc4oH0Kmbb9+LSMS5RmIRtX31toqwYbOJA7CE/Y9b2kSOd/XQM5gNjhVw3roj1/AX7vK67WKafaQfhwlYEYdqYJ6P0mjAPJ8aeLb7mJ+zCl/YxOCYeLL85b7HVvGCCN/Zd0JDb5RhfZ2pM/L0Fof3fPHacn8hFZkAFYRu0gtFgyYXKwlPNHlPVLGmYFLzPnz2gOR5nuK8t8IiV27IQNqFc+c25fhQPIPIPz0i6BnoDhAXI/ZCkJXzASPKSRE7CiluLCAffn+nLfgSYJgFv6/m0YSHbkoPkwe9eZtpErOIEueBrY9HYqmAX+HN+Z+hzzizBvfDCC9djVoyTuQb0zW9+8/ZWWmZSkAJ4m/PnGhBLcLTBDOh73/ve7TdH2FQiNjZMFOCXPAMT9TnCVMJuf5xPTCxK9Ntcv5eTJ8Iq2fk4L4U6f+uTTVSJQbFn/nGRYyz5GHOf8VkBxCby2XfBzb7JSQpSrkuz3Xnq3Pb2aRd7p2/nOLMdXyPqrJj8Jzfsl/lsXnLM3Ze5ADEaG71MXq0oN2/cgO+fKAr8QrqSmZcY3GkFoCB1QmwdU0U0KAZmBRCwuS8Gip1bVe6+SGCTvImwQLTtkygz5fZNCFwDmuq2Trf9EAa2IzgVqgLIwgU4aRdwAjZsxQcVMle19vNWFWGHi46TbzZCaowsbIgEf9u/k9Nt2598LkGQkF0yMqnYtgr0tDtPQpibEBAg/Mpt2DPjsS8siNP2017JPT9EdZw9IzdOOGa2cdMDxYer5RZNxaFj6XzxeSX35ocJzfta+NGX4+Lj247j67Ftud/4u9jYxMm5zrHgoEtXbtuc5/x3f4yDJXkKGQTojTfeuIaG8M65Ls5rr0WSHyK3bwqd2oEt0xccYT/Tt3Pe/F3Rt8jO5y6Vu7/mftvacINPbrw1z4JzItZ4K9Y9MNWpAMBVlcmSzybZAt8DslgV+HOeKyn34wScNgywtu+xuj+A66dhz7mueLhTDTDOOSUUg6dCYdHGJ6525lxEh3PtW2IImCsiJr17QAEg9dsp9rYbsNt32ziJQbG1xb8E7/5IAOMBEcD3TjwXKiVJjuOHqEMu/jczoHkf0AhQ71JzkvND1JdeeunR+fPbEH6Iat869yoexHwr2Dh2uw5Ax46583P77FgUHyV7t+9YmzRLZORkucZ46z7jBGy0vxNnwAkWIhPmNkb3YXzUrjluiHnemjs3Jbmg9O+ALHz015hshQDcQdw9Q8GvtFM+A/flL86jbduGDS7gzcvlAtsAN7qQbExOeLna8RIcA3bmdCAbEZW0OKZLS7RVQG/Gu2J3Oyfi8HIK/Xg8dvgmLpvTKlB+GOkcP8nfh5F2xkXASQi+E2yOP1WkWwHQ5DHJW4AABwCavz72EUN+8IW27X8nbpPYpAkRWzQ2INMGfTjBN7zhg5OAVPDcv0mRAoTYGY8QJDOg/g6IF9LNXXC+YxA80tZcA5olOL+QbnzEEhzXgLy8Yh+2YHPymjzY3t8POabGCduNs+LIJIU/iku2uyCqHzeid9v3PvvcLT4WifqGHC93bJzlY8xHJmF4zcWdeYSbEMDAnDsC5DeiGiuNH36o+ONb35yx5W55szzQvLUIesy2q7Eh3tv22k+8ygnlGXjiantmQAaVA7CRTTspUblzd+zj/LkkvwGsoPTADYgJNrdEEpwKk9Wc6w8G8iYg2NSbEFiCe/PNNx/9uPAEDAPZJOyZ0nzmwqeJGZB76W0jG1fEJuyNUJpsAJG+7Od7ICpOLAiulk7isiUg22oD4CV29rWrwU0MjS3Ixdifc/gdEDMg8Dl3wfEwUou8q9Rpizei+hqQBYg3qhqH9OF2PS62T/te9+cmBnLABNS8oj3HY8tV/Fbyd9stihrXTcg2Utp8UGEoifa7bTEX1H7HmxzbuGfDeZfMOWZ7EkJvwy6fWQRaDLpYwjcWT8dua3eL/8YRzinjglxon8b4id83oSIG5UML3iVAVsOTqtmoDYB2mEm84mGHmGRMBO7LFaaBbSE0Ybr6BXSuwmnbx7mCMXHhqPk7x9z75XOTbnN6fQixuMpEjPCH71YrMJxA+JU4FKyNWcm4sbCf6h+OrYC1OHFCMdatgHFFtI2pBGdyKYmMrRQikHULHp8/n2c/Y+QmhO1JCCNA/JB0+h1imvN8dxozIP8OaPrw6xhKHnx3cpeoGAMXhrc2wE593FiXZJtvbsexdjHXPHYbznl/bk5sGHWsS8guyOCsDRs+r+2R0+YVCxd+p6/yjzHvH6JOuyzJU5BuIrKRsv1iHikezM2dWZmrGt977WC3+feeMH4YLNmfFpvy9/X9ueee+wEdurrCIA+6ILunhpxfZ5Q82sYGnopKQc1+E02TgHFwjJ1k8q0AWf39w7M5bvw1U+7XX3/9dhNChch+MKlUTCo48x0ytXj4uhAAt88MRPuWcZ1EwiTopCUBS3ht2+N2km7EtBFJCc1jPpFdq2ViigBtdlR8+G4BmpsQZn3fOfDVr371mgHNDAZfzg0H0wf9jA9GgOZ1DL4Ne9rhSQhzvpPdAroRlv23XTx38dIYFm/2qePXvNnyerYZC/YN8TEetzH2uPnO7MK4tLh4DGzfOMk58GGEyva1P+LpwtZ944vtJgR+B1TcI+q02TvYypP11Qknm0997Gm/x7bF26JoET7Nsjced98bN18xmN8BGTie7p9OcsMmJgO8QlLCcoBapRgABRt9t/IxmH1MEw1Bme38TgTS3qolE1YBN3bOlHsEaP7Rtv1j4G6JavLCDpLjdHz3e9bUsRPbzgIM+AJ2E1Ef3zgXD3x3spW8OoYKzokUt8LBbSHafh6cZ18b0fl8HkbK07DBKdeAuIZjsTCm5vxPfvKTj64BTRv+IapxZnyabPlsMt2O3WYrG6EwRtvtHCweXKgVH1txUMz4e3PfhYGJ0Fyy5blFEBxUgI2z2WeBo1DdxtOYmHfo18dM26clOGZAJusKEO3PX+wk/+2706z2hJtTXp8wYcwZI43FqXBtPtm3G+e7j8s/vJCu1UUNOA1gI6YTQFvt0EfJqaLjgFQkKnQlYPdh8po2+6NUnEMfXv6a4w04qmBeSIeNFhSA26SnHydPAelxuRqZ7b4OVAA1cRxHZk+evtd/jGsTFYvx5mf35bF3JuI+S1RbH8VYyan4cGy38SEYmx29CYFY9WnYxIG+wfDMgOaNqL4JwQLkJTzn1FZZWiBKSo7T5kMXJc0Z48e5aoKnb7fdmJd8LOSMzePy+fRbAerx5KzH4HZ8/Byzzdjpyw8ote0+pzxYrOCj8aF/F4iQ8DBSFyWbsDrfWxyYxM0nYI7Y2zbEy5jZ4rHltTkSrioumnPmyk0MN2x4nDefIECzYauSHRATwUYCHnAHasDZwad+21aJqUlF5XuaLtKPncCxW7Xt4BL47UkIFiAH3+TmZPa4WM8HvIyJir1CgU8tSG7DQrdVlptIbqSAjRsZbIRkXLiP2sD4WtX7OMe1ZHLCxNOSw9jZCg9j3I/i8bh4EsL8jqd3dxrD/A5oeyHd3IbNEl6LkuYE+CEGjjnnnkTLOCrRmRhNMoz1NPPcSHTDieNnMtsExIK34Yr9FQXnGedxDLHwEldnRRzrWZ5jbR9wQ5D3c/7pd0Bzy/38azFq/DqeHk851uRuTu0SHsedji8O7DefU0y03epB413es80bBm4zIDtnS4ZWGnXU9p12mPqaLEsadcg2sIKMIE77859f6xYs23gqYP6+jXXaGMBtb0SdH55VICs6/k6QSDAECBEtoRObDQwbyDcQGzhuZ7afqtT6gWML2E0A6nPGAAYa362NTYAqQveWVWx/Rc6J5qKFV3L3d0AI0NyGbT/QP+1NlT1LcF/+8pefeCHdq6++er0R1X2XpDciKXlAbhseTOQVOch5/GLcnPLlhKMTqZxEpvhFBBvL5iSFmPPFHFDR4LgRjXlkErFx7C16LjItOo7PhhP65aYk/xCVghSMuI/mmWPvsbTosP9ot6IFh9g/YMHLeMbMVqRyfm3dOMJYs/CcRMzxveXc9iy4NuzB0oiP2ZznpAEIdaSdYWBswGx/m4BYxGijQCAJsckiRpsN2Gyf413xEPCZcn/jG9+4gd2BmL584diAM4nf8x/LJU7CTaBMCv5sn7iNLotBak3WTVgtpvdIhOOMGQtNtwP+TeCMj2LBQrUJlO0llvU/208CND9Efe+99253wdHn+NE/gp7bsHkdg/uYu+DmfUAzA7I4n/Kodzn1HI9p2+dcM56N8Xu53BmX/bqdt43DuWBf2F6LjPFC3pZQjZ/OYLCrArfhoxjbCpRpb+IA9ipSp9cx+C64+sC8WAHiWOLVPD8RO34zl5HPzTH7nvY5z5hxvBu7xt+iVY73GGz/zS++CcFq7RNLGjiuye6qykD30wEMmgagwNkIyrYgJkyT7VzaIuAGIQ7zUgogA/gNPo/i4ZfPiAvPgqvYOLiM2WLgoAMgj43EJAE2u3wevrJgtV3iZUJyDOmzhF1RxU4XECaK+q7APoHUYreJUMGMT4htSYR+wAL4LCHNcfyuCAGamxBsg29C2Ozn2O1RPGOnBcjivxUizFCcK8TMQsz4NyxZzCsmxNNkWFI5kQ45VyIzJ5iotz56J6fjfsJOMejxcb7jbWzequ1nnrk1X2GgIOW8DUsW2Tn/aXfB+Zb55sC01VkF8dx8z7bTzHXaLw6cpyZ/x8Sca77wWBuTCvHGK44JttGXlzVvr+RuNVECOBlUo0/r4z7OAzDpebsHbZLcKpU62knCOHgrYp1voSyJeswzLp6E0Gc/TcWDk5sY96oH7N6qTSc0vrMIlQAsGvWd29qqEAOIzz6O9kxSEOFmh493km0YKlBPcd/O3YoKxtpHIhGXFkBghf1+GrZjx6N4/EbU+m2O52nYvgaEAPlRPC5KiB0zKcjJvjVGjPftmC3+m1+3mf6W98S6bfg72GwOEf+NbIs1C2PJ3sfa752JbkI627ZZEP15Fsb55aL6ZY5jBsQdl/wsY4oNnuk27biwtx8808FGF5xbTm9C5BzqbNdCZ5/Sztjm2XbzeuOGDQedPJjvzQdP8C8/RIVAn/YIe5NhE8HgYyAA08m1CUaBW6NboUAcnnYyOALSv63wWxlxvitU7Jhjn/bDM1cnAPgkLhafEwn3Lrw5DoBWFAxW+wFCdnI7Se0TMEAyNOkMPLcLSLe4mrzcV+PmwsJjs+i2H8fPwkOF7eLi9JpuC9C0hwBxGza+fOWVV65nwY0Azb/5yyuTwfb0y++A5hqQc2UuTPsakLFpXxJztpkQTJQmFhNZ/egYbvH0ErH9RT5uFXfzvPi1KBI/j6Nk1ZkeWCU2+NEcwDHYYmKbzy5ANq4oltyeRc02mFTn+Lkp6bnnnnv0LLhZEZlb7sdvzIAgeZ+/FSC2ifiTk/hvi4exUl6wL1sEECf7zjzB2L0fG41Zx8Ac4PPp22J8nTd3wQGg3lHlBPdArJ4GmwnMAYUQGMg2CIPMTvQ5Pq/Ae2Jgmm7b8QUmZGuhIKE9ZZzjhpR4/wdiMBcdB3CMfc6d/9vjOyoMBXTFyiTjwJaI8Avnl2gMNPdJm5xPzDpraeK3jYqRRcfE4zEYHxvQOc+4My5Kgt03Y+hjmTimuDbZjoB88YtfvIoN/5tH8Xz729++rgHN8X2FOrnDbdi9CWGq4hEgfoiKz12YQda2B1/jD9/95Hg3Dys8/v5oYLpbywLkXDNZckxnkiUxjjM2wJXHTI65veaFZy/GTcdsfE3sawNjcvvMUMwzFnFiwnFzLkVCf5Yx2xEg+AFeoE9s6ndynVzjPMeNvN8KDnjHPnBOGEfON/ppPm72cqzjUSw1dha09nH5/GMf+9j1Q1REApCc1mkL5Dq0wCWAJjnPMOxUD8xkbSBtQlN1NdAMcNvgzySJiakXgWefKx6C8Xd/93eXANEPd984WK12HFz7x4JTEako2IfY39hU8DnHVdTY5id5uy3EmW0FtMFu0ensBkH2WEm0jou4tJI3zgx6xmgC87HGCzGhCPEPkfHdXAMaAZonIThheCX3PA17Zj68wdavmR/MfOQjH3n41V/91esuOON2MDI3IcxddCaxCoUJwf7mOHzbIsnicSJe49Dk3VmQ+wIDJRYLC4LpbRVMn1+C77XY5oeLje5zruOb/vi0lb8LKuxsrrgYQHxM/PP585///DUDwq+zbQrSWZL3b46c1xsh298WIOdii1q34/7t5+bJlr/07fGbHxAreLocQ9/t17ljW+c4F+e3JyE4kDTWyqdBKjFtCePOSfyS50lRSaQCHDtob7PLs4SC3wAtOOjLlQ/jYgkOewHcLK/gi/641e3j4yaqQVBCLclDUJxTcTP5tFJyvySrgdI2N0zcE6Gtra1NQL0lS8mGNknAjXBoj5jx/hyTLERj7DlB6ZcnIfg27Dl3ZkBzFxy/A7IQmPznd0TzSu7f/d3ffSRA3IQwMyhiTBt8N+EYR8yuXEA4fiZlY8zXE7Zign45jllDr0OUyE7FgLdjH+e2EDSRteo3xtxm+3Xet3j0zIbYW0ydG8S+POTjxyaEeo6bz/5ZBvt5IyoCRGwqgsXm9OVCAH/BY+YBryi5fcfJmHBfzN62a/UVI3OJ+ycnHdtiZMMk3PWoWOSHqBUbd+hkMKHQoAFjR0MICIUH5KRrRVSS2xzhqqRiY+EiqXmxkgnOwobDuBvKa/HY58evAxgexUNQ7o3FSYkw2Q8OIvHwzJTZignMSWmBwR6Dj3hsf9lWUobQCjqLDb5zX5wHebYdg73Yqwgx3o342FaCcwIYvx6HccLx2/uApn//Dqhi5hneiN88C44nIWC7H0bqsbsoI5/cPp89I28emcw9PveD//k7/prZnC+g24eugl3lWuCcp+YFC6ljOWNA5GpbceeYN2YWHucPuXuvLXOF/ca5zRfjt2IAH/SmJH6ICqbqJ/e75Wfzyb7iTaub2NjvjvPY7RmzebmcVJuNRWNoy/Vu8zh77k2E5mGkvOPeKmzQleQ2IWkHFY0ShUnQ++zsEsT0gV0kCw5in4nHNrHd5xsYJIqJddp2xbzNgHgBVSs+E7Dt7viaTK1aAZUFhTGzz6CpqBqoTlbIjgSrYHmWWFAW/J2G2z4TUEkKG1wRtZhoX44ZdvnGGcfXGPPY53PJCjt5EgK3YYPBuQuOa0D2zSypza3XxHtsGQHa7oLbfojaXLKv8QUC57dizhgokorzxhKfmdQ53+IMhskt571xVWLxisAJfyanfm5OM56TCDEeF3vMopidzN9ZJp3Y+GYAzzqNAY/dsbQYeNY57XNXrMdvPrD//N4m7HexTozhHON8uxzgWRDiAn/DNy4iKg4bL/j48nm/OzZuy3jeOKv5fHshXROhAmQlLKlsVcW9a0jbbMvrgoDJhHWqkju1xZbORAyesZ/9TRhXW/RPhdO74AZUrPnSpoEMIEx+FrQSJLYDQovrBkzso82O0QJlMFjY/fQIi52FvPG2j7Z2aceJaZHZCgMLsWPHsS4MnNit1MGR8Wc/e+z+TGLMNRw/DZvt3ITgV3LPvllSm+tG2DECNEtw2xtRR4B4koJ97THUny1AvN94qSiYOCva+MPbwVf7d9xc9FkonU+Oo/HZmZ4xgGg0HthywoNtnfa6JG9e2jDsMUDa7pP8M96dF/wOyDjnJgSLDAJh8nWuNl/st84+K17E0rk+x5hn3H59Rl8+xrbhF4qd2mN8VHCcp1sBcvE8T0Lw+qaNLwEUYAV+qxac0apqjvM6pAkGJ2+ktQkRDnM153OxiSoDx1jo3L8J3cf40Rtz/FRYCBB+qiAWvPZnK9j57il/CaK+L1AAUY9jvCaZrQLabD3FqVWP+zBpTkyY1ZGomw98/hwHXipWBvm07Tbte28Hoy46XBV7f2dAjHNex/Duu+/enoQwd7uZWKaNaZPfAc0SnP3p1zFAhk5Kk8a0a/JkhYIlLJMNGCiZFs/2DcTKtm2ZlLE5b0+EQoxMZo1bSdZxJFctNMaw+zU3VCwsYLVlvrMMD742e+nXWDGnEZfB3tyowm3YY9f4kWtA5h8XGM5RyH0TCAuNb3SZdod3uMOTMYAZx6Kk73F4BmU8UUzMfsbqXAdnjlXj0OOJS3XlsodXcgPKAqVJYuBsgLTRJZUGvEGu2DmJ7LzNCYDLxxU4roIAoSsIi437gERd8cx5BpxncAaPBbOk6MBznC9E2jbE04BrwmJzgce4IZUKzZbgHkOFcPNTRaVkYEHxsSZOx/uecHfZaL6XiH0tb/rmGOMcvxiHM5t54YUXrgvM2DbH8TTsuQlhsDb/uROO4yZ2s+QzMyD/Dmj2cxs2z4KDfLbqeOxBtPF989PY6D6f48/Noc6gTn003sWD/YSQ2qfdD9YbexMy8XTOFDd8N1bBDbMh+uA3W+CQdp2fjJ92Odb5BI5m3yzBjQCxBDw280ZUiw5cUdF1vpqk7QfzsW8gYEkPrBBL8ORYMsbaVJxsvFE+5RhjYIujjzP/uKC5/OxXclv957MVqw1igMHF+QYGDiFwvT3RAChpmZAKRPdhQCMsBKuBpXJoErivOhdAeM13zmcJbi46Qgg42/4CJAac9+M3/tr2HlcwlahNxBv5MBaqXguaC4Ziwf4y4CyC/lzx9E0gTnT6KdZKBsabcdJY+ZrWHIfdFVn7jeOmLc+A3CcCNKKDbfYh4x0B4hqQz7cA4XOS0bMTx8Az5Aq4x32aBZXgPGbnKvZ421YIIURb7psHTLT+7JhSUJmQTJDg1HlObs22zmCx3asqnOucnON8w8G9Qgdc4F9izFj7dPzhA64BGde+hmOxqp8Qqml/bGTma3HhGGb/nvkgVhYNY6C83Hx3rnC9Eb6ucNi37QMfV6z8naL+9jRsk8eW/AzOg+CzAWyhcNXO5xKkiWGb8jnxXFVZWCxutaXBA4wVCtthQSDpZpsfvTFjp+LhNmwSCJudxCTURhYGNsnVGNB22zSISzgb4Ex2HG8fW4gtChazioGJy0RkoiVxDPrGwD5yPHwOx5g4nDj4bfYDcsbhawQ+znHzs+DsPwuQf4RagpxKe2ZAvBEV3wxG/CgeSAYcYYPx6vyp/0zWJZwSwj0SMpF4qbSYMAm3gCgnmBecS8S7bYEnY895WuyRLwjElq/G0sR9Cgdfh+oSlsWtfW85M+2zJE9b478RoCk2wD4FuMdGzMF1xd7nMo7ZZiGreJhDmmO2oTjaONzbbkLxwVPzHSvnqDmhxY1ztX54dBOCHe1GOqATGblKZr0a8NM2lbDJDaMApokCASgJmbwaDE+TmwzMkEpgBMlKX8HbngXnmxBIzIqsRRGgYKPHgcg7QQGrk56qp7/0d8VsYiFe7HclO+3SXxP5JCynarxE56KmQN/EBzuNow3k7LfwQNbGm5fq6B+bXFg49ryQbsjF4+cmhLmJwIUSa+nEdX5H5BfSgTNuw+aFdMTVBEMcPBYLVJeVbLdj33wwOTjXIHDOZbweH2015rTjwpR4VBC3vHCelWvovznv4tZE5v5sJ/2yrTHv8yHBDjOkCh0Ywl8IEHaN3b4JwX7FFosLOUA+29fFRwsOfGRuIRblG8ZFvM0p5L9XKFz40Kbz0PFq8Wc8OEZ8foIT5hrQbOxygkWmgDL4CIrJZwPtCZwVN5zHdoJUMLZfE67J3Q4EBAQCgOGUbcbihJ0p97wPiLFMoL773e9eFQ8+nD58vQG/tHJooCwSJgDA0CXFgoixmNDcZ4FksGKvQW3AlNCcOOyr6PocC7kTkaTCd7R7EitjwgWMCQsc44etrQ2zkNPpjagjQO+88851F1uXkYnxtDGkxvuATPwzA5onIfBDVO/zLbqOo8dVorEwmRwaqxYRxmmPLV6KAce47ZagXESYAJvfmzg6Puxv0cQx2OTCAoy5X3LexZbJs3xjrmCsztlp53Of+9zDPB3ffMASnPN5iynEb1GwOHW2Djdt3GtstHi1D8zR9hG5BKZcHJgjt9gVBxVa60iv3V75zrPg2pBPbMJuogF5VH0xyIO0oDk4VB4Gett1UtCXCc7iQ4XoYDbJ5tx7lZsdyrOfxgam9QacK1IT37RhANm3jAc/OMj2AzPKXpx2AlvsaHcj2/YP8BpXj8H7ShDY3O1NFkTBpHGqdk0IFs/aiN8ANwQ7QsB5rnwpECrI4AwB6u+A+kZUbkAAW9PHCMnMgEaAuAsOX/MkhPfff//RY/jtI+wERy1EaIvt+NG5ZTw4F4mNcVGSZF+FD9+0yNiEwiRnv5cIiROYAIO2s7lfrJO3p/ylLXIcPzEOuMK2WRA6Pp83sZ5Xcs+zIbFzcpPXs8BJJX3nXsWiXDj7wUJ5aysWjQ9zbG3AXrbbDmPOnGTe3fKavPT5W5HiMV775yYEFK+JanIssBw0OsLpFRDAZdXFYIPHADMBFbwlRkBTcjHIK1yAsqB223bgnO8p93wfEP7TP/3Tw+uvv/5IxGgTv3r8tYOxcWwrOoRrtntm5arMidICgPYNTo/ZNtb/W1tOIAO5eDAWLKrExOdusW7yN6EgLotfx4VNvTDt6hzsYM8IyIsvvgLCDUwAACAASURBVHjdBef4jwDNbdg8Dds44fPEaM6fmxB6DWhuw/7a1772MALE8SZYsFvSsa2IpnMRUrUwF8P20UYKjbMFzYJF/pqA2q+J0th2H7RDPxUQY8fFZQsdyKyiUexwHYO2jCUTuePScTjG2Dt8wMOJp81py+8Hc5zqi23JtL6sz4yR+mK+c9NC89gCYwx5puO8bi67LwtruQX721bj4bjdbkJwMmzON4l4gB/msx3pO1CaxFu/DpwH2MGaxCyITjjfIWWnOPAVUYvw9vRbrgH5AqcD0+TnOyDeqlxvm7Zaodj2rSrdSHkTkyafgXcvFlscALYJqyJkX7pocL8mtwqF8TLHdUpvsvLYWolvWOdcHsUzMyD/myW4ESAeJupxGqPchm0Bmv1+FE/9jO8qNk5kktbk7XYqRODChLOJBeMo5hrP+syxvMcBzr+TsG25a//Sd8/fuMH9bUulxYJtZ18JvP3g29OjeOZhpBY7cs/Lw/jXYmgcmEO2HO+Kypx7WmUpd1e83D74wi4v/TvmbtM+d/6WQ3rclc/zQ9Q6hkQw6Epq7IMgN5B03wm0JWUTrPeZ+KrE9OUbEEp4JyWvmDnx5zOVwlQ8cw0IsRm/IUAb4Jzw7tuJRFDqX2Ji0bSI1MaT6DmZDAATjNvyMfdE6LTPbXlWh1hApC5E7IMSj7HgPo3NTXjsY2a7TXr7jDbmSQieAdHnPA0bAZp2fHfQLPfxAjIE6PQsOK4BecwliC67bPFhfFs7zZ8S93Y9sXHfCK75VwyZfIz9Cus98SpJUajYJ7aD/cXd0zikucDxtNc+mqdjj2dAc76X4GjPObtdx6nf+U7uzPcWihYMFyabQGztg/utIDnlYoXaRbH3OQ61p0XM1dfTHkba6qRJCwhtRImXoPpYVyJOwA2cFruSUIF0b8peJ1o0S3SMwcm7AW4E6I033rj9ynrO84/EnKRPIx2PzSSxAXBLoALB4C8YGreCsaLs701G230CvIuarVo3SZkMSLAKjsmuVe12h6FjjY0bofI6BpbgKkCzBOfZxez3Az35HdD2Qrq5Ddt3wc25FRL6ow/jb/b5hgXi27iXHLZ4PS3+9LvFxbmyEZHz2XiYtnyzU+0mpiZvC0zbNU7ms5eUjDfjs+dsPvS1aNvU1RGW5Hn6Or8D4g3JbpvPnml2v3OQfrtU55w22c92xg9Hbzg/Yabc3FmXMXTKVfeLPY6lsXDLax7FY6LcFM0EYCBYkEriFRYTqQNb8TJZWnxqo4nGwGLwdpqFtA6kfwLo2ZUDMxcduetl2mMG5KffQirYQyAruCXqOa6zHcbhu/Nm27aUgZ1ut3GqTQZzk7/xaRwM/gqQQcc+X/A94WsjpA0nLUj6nXFtSyrFZIXRT8P2sSzBzbPgsMl45lgexYMAkR+zBDfXgEaAPFt2Wx5HZ0GbUJXANsJr4eHYuM36xbnT/DSxWYDchj/jJxcTbgPsOkeKR/zYAtPjI5Ymeec9nzsja74jZhYEEyq287tAbniZPJ2bkliC823Yzhe323E5t+czvzljTC5+LLgmf/fFWBtPF3CbkMFvp6Jgy9UTJ2z23OLmu+BK4iWsOs7EYyHiuI2YSk4G0EZMBkMFiIQ1yNq+A0Bbnt6apJ5Gun4WHEIwM6C33nrr9ugUbHEFYfAWiBDNnOenHTex2GfRYKz2/QYCC/LstyhauNzeBm7HtQJa4SvBbFhx3Gojse14iWHb6/GMpeRSQjIZjV9GgOaFdNwFRzsIEDMgC6qXsLcnIcwYBiMjQPMoHleqJk37AHwZT/V/404sm3eNTfPYWLUgbyLUfH1a2ybYTYg6Gz5V15tImZ/MBVu+mdvKa9MnS8TODcdm2i+Zmw+mTQuQYzVtekZp0abwZNblGeIm7vi7bRgLLkTKxfa3i5xNqMy324xy4532V06nTS5j3F5IV1C2oa26OQHdCeZ2SvCQv51pgw1u2wfYONYkUyLiO7MI3ywAqHBkCZH92P3xj3/84Wd/9mdvt12O3f/8z//88Ld/+7e3W35PAlvCBLBOchPB9FmwNHE2ABSI9vlJHO1bV5gF+eZbx6vtb4JlHDl+rvy63cS8idYmSq2CnZRu32OaY3gaNjchEB+ehDAzoIqlcYoAzU0IHn9vQjglJnG3P9h2EvlpqxWycbCJhv1BXxWcLX6n/DTBux3Hu2JTgqNtn7Pl/YZp51f5AV/0Zx7YSZ5v/dpm2zLH/sqv/MrDz/3cz93iPBzzL//yLxcfcJ5J3nZvPqpYm5ccLz73LzjweVvsHcNyTm20mJ80oDhpLLax3gRtluC25KxYGGA41UsJFaPNCCcQ+31rcZcmSm4nEdoA13MNNpy6LYWY5C1AM+af/umffvipn/qpq2lEdm6r/dd//debAAG8XnTHnoqKSdtxmO29OYQ2fDHTAC/peCwGkkFnor6X+Lb7hBfHHFtKahsu+jutjagsPIxrE6a2b79PzLYK27dp37sLjvcB0QZxcME1AnT6ISrvA+qsrEnO0g2xqQBtxGPy3gqBjcBod8vdLVdLZhUM4mIiRWScjx3vVvQUS83V4sH2YifbJr4sZXkM5RNz3MY1HcvP/MzPXHzg+MwM99/+7d8u8yd+5sqeb05yTlpAvPzufDauHYfmjtvactEYOOHG+C7OrBPNLce83ES/zzz77LPX74CczCXvfj8pIU7fBKGBbzCsogYyfTtpC84e7+Uj2vW2TYC838FlLK1IK2gGHMJVEuaY2r9VNAaLAXBK6I0M8AvneJpdABeIzE5tm5Oy4GqcbGcrpOLD2GiStE/O7fbGz8WDk/AG/PkV9jPPXGZ7eeHew0hHgPw+HwoEv6XyngDNkxCGoBz/xmbarM/rE/aXtJoHLRS2dn3MRsjYtxF3iX7Lm40Ai8viA+zZTya65h77fFu+x+I7Fo29Dc8UKRvn+Xg4hFclEAu/HBHxMbG3jY69wt98H/t6bYljtlia+O13x6VxKyY33iiGySNzXn3Y/q/v80PUE0EUwATPTmpydDrvpCBoBZMNK8Fw7EldXcEbPF4+sr1uv6JmEZ7PrkDHxgm8QW6Sxk4TiMfpzw4eVZIJHOBOX/zi3slesWFMjHmL25yzLQdwrEFmPLgvJ28T5R7Q8TP2bbMQx/Ekbthl+ywenaX1TakdC0nj2PhRPLZj3oj6rW996/ZDVJ8DKczfuSD9/PPPX69jsI/6KJ7Z5+sOjq8JxT73m4vnmO126sbBY2hRsAmYxwJmmp9bvhpzW7HmONnGkqY5wiTZ/KmQ0A7YsG97A4wL7pLrhnGOoR3j2Hw3Ngzm8GFnyPbLqTgAk85lFwFjH/uK99qyCWz7dSztQ9taIamvN745iaHtv3zNXXBOTkCwEd2JHEi2zXA6NflbuCxsJuenAR1Q8ncAUrLbiB/hsGBZcOxgk12fgszSkVWfc/23Yy0p+Pzpz3fD9TbMCgmANWk5cfHh/N1u6XS8LAwV7YKuOGiSVHxNZvcEaBO2TXg4bhNL8MSsaMbI+n/tbtvzJIO5CYH3AXH8K6+8cr2Se2ZAYMy4xp4RIL+OAb/xKB5uw/Y4SxyNMf6ySLuY2ETH+NuIyLb7fLZvMTIfOPfKE85hE455xeO36HT7Kc7mjOY4eYkQzH4LDf05jvfwRI4xk7JvWd7jGPKtxZ4LYsejRG1x2bisXMNYmv8bx5gXKhqNre19mgBtOrHhz3x+wwgvpOvOElATdxuggYDzIPYtQASiM5EmlIWrjnLC+CKjSWerFAGlCbqfS+QO/pwP0PlthhNvI5WTDytW2D7btzVg+9RxI2aujNxnb+fexvdEhfLBMlX9bl9sPtxIb2uD4+7NgIwl+7hiRUzx373+8DnFCGOYJTi/kI42Zgb03nvvPXz/+9+//e4HgnNbfiMq9s3fmQHNNSBu47ZtJgMTl9t11T3nchzEU3+z/YTp+qZE2O9bTnYb57goqDh438YxFoLiuG1ZVIwRZip+TYLjvOHGuDIfkWsUq8TBT1kgFhbl2kocKkz2YUl7m9FUvBAg2q3PjIONs43RLebOy/YNL5cXyyuNuYub2+sYTGQlSjfQxhtMg5AgFJhb9VQjbYMFyP3hfLYZhG5vq4CbJHy3zZ6J2D++cWKOP/1+B7CWJJz8BqbF1JXQBpwtDgazE8Bjqv+24zxWE8Ip1k7exs0J0Ipu9nlJ02RpsBd/m+CZrCFoZsSt5sAT+DEe/T4g9zsC5GtAxRdj42nYL7/88hNLcLwPqNgzTvjcHNwEYjvWx/nzFlPIteLV2c+GNQj9ZC8+3Za4jJcPW2kbp+RfCxPzBOM9iULxAk49U/YMmvGCGWzwbdPN823sm899XnnQ+VMBMI8wHgtQseBctrhtImhe8kyxRUdxVQ4ufzzBff4hqndW3QyaDswVAwFngAUzASypmhQsBhUrV4LTFuv8dgR9Qujsw87OuDaCg8SoABx8+qR9+8MJaR92JrMFsuJgsN4jFvsSv9M+bRrIJvATSdV3tHdKevfjsRGL06xsI7vGo+RbcbJNEIXvFCzmjK+x1UTBbdif+cxnLrdy7NyGPa9j4GGkbsPnI0A8DRu/8EbUWYJzQdB8AXf3yIZ9vktyq5YrYidMGHc+x7aZ0Evubtf7nNNbEVDSbDFSW8hFY6a2M1PBR8adRYy+y3PgZxMCi66LKR/b2NqHtZv89izDQteYWhTMd55VbTE3XowrsGa+xJ+OF/lTrtj6Kk7KabX7uga0TdtOpAzYGiAnq5OIKgJj57xNlAACxOfvJjSccPsh0wdLRHYSQW8/7Zs+fBuuk2b65caD8RFAwamugjx+xmDyxQ+cy/enAdT+wA8WGfvaSWVbLQ4FlgHZQgISrwDgayevj/XY7uGlhUB9yNhKRO63+4wzg93k4/OLs7kG9IUvfOHRNaAZ7zwLbm5C4IekYGMEB4zM3z6MlH79OyDjsOSxCTn+Nga3nPC2kgMxdJ4YC+DA1zmJo4Wu/molXR7Ajo7LRFUxcJvYhR/nL7nvPBgbXRi2fb9aun4ynrcCi+NN1OTl2NDXbBNfbkji2GnHIkbsyznOaec85zNuF7snbrD/NzFwvMoNHG+OmG3d3pj3eH93Hl7ncQ0I5xZsOMNkcRqIg+526lAbxJv4qFxIsg2gJhTsRTyYOruq4nhXGATb55ckTbhODhJyquAhGgPIYuOLlRVUwGNhJqglXFfW045nUfZvBcJ2VZT83Z/dNzGx/7YkKdmb9FotATyTqW/i2ECMX+wHi799O9uNARcBxLfC6WPo495t2HMNyAI0OMBX0/Z8HhvmJgTfBTf75nUM/A7IfnIu2E5sLQGZUFqI0BbHbOJm8pjPFRBwWbK1gJXAIcZTHll8Kv6OcXPFvAF+WiS57eLEr91mXMWIxcE3MZXQ3TYiwrVl+hk8UJCYqB2PEnAJHRGYPshxONHx3fLJNxnVL/Zlc9OYms8UVLbV/TmGtNViknFVK1xQXDnv3wEBpFb6BINOfFHfTrEzcaADbhBznm+RPJHctt2Vytg7gkD/3JkCUHACVVLba8WObSTw7AeccxGZdgmql3to2z50peKA9a40Hzd98BuDOcczjFPl1EQ3oZkcsM3jM1AqjhaaklzBWyEhiYgXtxK3oCmAS3KOGZhyUmBHE5fzjAmTcAkRAWIJjnZ5EgJkAHkbC4gQP0R1Ao8AcQ2oomIsW5DAswsoV7+OmePiSrYi1PZN7MZYL7KbgIlx86j2YEfFlD5LZN5ukTamfI4xchIofIstXe0wt1UcbM92rdI5biF1HjY/aLO5vuXqJujkD7w57VmgPIaKIN9tkwsN+nOhax8QR+edY3sqQDaOv/2kgN8B0agPrqEQLkJVQcHxJMm0CZECfBxmccAJJS8Tn8HGuSVKHgpoFad/yBzbsYeqlSACqoqQx+ybELABQuo1qQmmCcEiybgtKA0+IuWxuvItqOozx/B0rEUCQJ36KAGUBIihsUG8Ti/M8jkmyHvxR2iMK7Dl5VknIaTqdo3D2e43ojqZeR3DFCD4pjNdCpVPfepTD74JYWy49zBSxs/z/mwfuOTHrvS5EQ0YbcHTwgSfuXDyTMhtW9iI6UbUxovPISYmehdh2GZ8lwcqbLbDhI5ItJiBh2gX/zj/PPtxgYLd5Lz9T5yeVhCaD8FjiyDnJlxSe70yYdEhZ13QYls5m+/OG/wJb7YwKM86vhvfWAcYgwuER1iZa0Czk7VfTvBgGlADuo5kgNOJicDVNolioSi4rbxOLAZvm3DQ7DNAAL/F5l7l0T4B39iGsNC+16E5bku22ea14Iot9ni67XhwvomZ/Rs5GHiOjSthYmPSYZuJ3TExKRiwTmKDDRzMsV5qs4/dDqBnf/cZ6E4ek6hnEmAGX833scPFQ4lpjpnbqHsNaI5jBsSTEEzC+HnaHpzMEtxLL730xLPgvv71r1+3cVsUwQ6x8EyjFTbHsJ2YmqAdJ/DohDepQXQVYY5h/xYbtjVOFYcKG8s7JkLiYF4h3hUf47t2M16EyFxhXHk8+L9E6dzyZ+fv2Ebe8k4o5xH+I94uXLyP8SMqYNfnme9asOKH5njzwZg1zhwLxrPhu/HZ+LKC5GOMhVt+chMCxnICIN8M2UjO23AEik3Ae32pVZNBTb92lAMFoXRQkB3n0SbB9fb53PYBG8TGMRUj//bHlavFsMBwleOxWpxPoCOxTQoONkLm4zz2kgrfPX4DzCRfIXKsm8C2yePtOZx3mq0Yd5zbogOxxD4vk5Q0THyzjwLLZDXbeR/QLMG5jREgngU3545Qec2fGfYQ0W/8xm/cXsmN7SzBzbMDx16Tg5daIVH8w3fjykUUOWUhgAQ5t7iDcCx6FjX3Zdz4s+NjrGBbceVrvc4l5y/58mGIDaxuGJ92KKjByMSFcWFjl+PKgYzL+Gdc9vt8nksALM8bp+Yp8tzxIxYsKztWPs5LyPaZ+QJSp02LpQXdccSP9IXvwag5mm3GmuNgP3W7Cwkf9+iNqDjcSsoFNhvWasGAMtGUREgIqlAH6kR4OBigAVKvVxM8Vw6AsMnUPg12+rLzTJCuFPzZQAHw9Gsw4CeLYIUD8uA8z0xpG7I4iU0Jx8F39eRYVWS22G3iYpAbI7TnsZpUHW+LmMFtnJkMipUuG4MHx6VE5WSdfeCC3wH1SQj8EHVIxneK0S7YHmH6xCc+cS3B2V/zQ1ReSOcYgBPHzBiF6OjTFarztMJlAagf8GuLN2zwHWMnsmHczk/Hd7Yb214eK4ESCwuAfeR8tHDbv+YucGgczHldvnRezDksw1Xc4JrmeXNz7GGpdM5xwe2cJTYUxcaf/dm8ZbwuFsx5Fa/GiLi7nQpTOWr66l1+pzx2/9hugXPsbrH++Z//+ethpDWk1Yg79bF2kgcIyHCCg4GScrxBXnJx+9hpwoGwCYoHOeeWjLDH4OVc24ON9G/QABiSxM5m3BVKVxImXITGYLHvSOQKWuNhwSixWAQM8BKYwbfZ1XhVFBpHSHETD4uLfeNjaw/7HLsbcD/4zU7JgwTyeEhan0tfXAOad73438yA5pXcvI5h+oFsuPNp7JtKeJ4FNwLk4obfAc0SnDFIPGy3r/sRf/BIEcJ4jCUXAFu+Nj+JF217OdN4fFocaYfcq+C1YCon0L7PRxCMqcZ9wwpjmX0WUvOCcxQRYHmW41zglpNsp2fQ2y3szfUKDONr7Iizxw8HuNggps1lt4sN9F2OtEgY8y5iyiHgD57zeR6jMWdM3jA1NyGYWFzRNvhOHCeXO/e1DITCAeQ8k06rZAjC5EsbBk/FAfscTAdtc66JsAlqwDdppu8hHp4N5kp2S1g7334lOe0XhNMvqDNI2r7Fh+CXmOYYE4yJzyD2Azw9/pJVE6vk4O8QkuPTa172vcdzT3RMNraPSpYkmTYcH2yfbSQQbfVRPLT71a9+9eHtt9++4u1XMINxCh0eRjo/RCVm85fbsC1AJgSwbr9i07Q9y30ugmi7xFWcGQ/4Ybb5Gm8LsBZLT+OEHk/svSQKQXr1w7ioYHpJynm75ZH5xe0bE70c4NcztGg05jYi934XBJ5hNZ/BN74kFysg7XuO952j+LG5bF865s4r+6PbjVX4d/pAxMFiNcGxIb/BcvkYX3mM123YDg4dWCVLZjaCTnCMv1dBSyZNQJa7mlwbEeIk2+a7nKzMrhgYFwGwiDnRPM11cAAEVe9GvBYI+5Nqq0LomZTHbnBCppzbWQ6+LfgcK9p2RWpgsd0FgatZJ78LEAuGjzGx4TdIkOOc4LQDDhgrY5q/GzE9AvQzz1zE79/n9NoQ7TlB8HXfB4R9fiOqE3lwQFxnjF2C41jfhl1Sa+7gm5Kkib5k0pzccGA/GT/41fiw708kY+zTttstLshZ2+oC0aTsPPVnx665N/0hArRrTjEOsMXEbdzDHwi1ixj7A981T/x9E5361/nr3DKZgwvyqtf/3GeFohxYvHicjY952jMtuKM8RV6ZC8y3tH/lMo/imZNsRJWYQHaQW7VgUfAUdbZ3Ka7k4OACEgJSsqIflJXbsEkC2m7iQmKAysEvMHyukwxQAXSDgURugpBg2GWS6BhPZNCZlhOSz9i82Uu7JjALb2eMBt9GKB2rY29gesz2C/1x7CZy3seYbIuLjVaC7LPoVgT9/XQNiJsQZgY0/6Y9CyU3OYzwze+AuAaEnU/7ISptNtmpQl0QbSQPGTiuJpJTnNoW/i9Zl7Aa5xas3U/MOc4Y9dhcYNCnY+hxQHQeu/HRvDZXGfMnLJlgPT7y2Ntc3VdI4VYL6b2is3Fz8QbuNh52my0aKl60SaHmIuokquYo+37jz3Kf8fDI9/MkBNQRMmjFYfXaiKJK1+8bQFwd89kAYYAlDk89DcwCz84ykHxNyAJkcXNFapHgXIsU/ZyE2YTiz/jIguDPM07spm0DHnvZR+VXAXUs6J9lCiczn52M3WagGYAGu5OnBQDjaQIbrBU5bKa/At82AWyLg+ODYLQtMDbnz6N45mnY80pu4xEB4mnWjRt5MX3MNaA/+IM/eLQE59cxGFOnmDi+xL2YKPYan60Y2JZuPE4LEKLYgoaxOsfMC1t+bBziWBOTk3CVG2yDiw7zQAsFEx9jqhBhB9vNC+ZJBMdk7Wt3Lqwqts1R49HY4Dgvl2IDf50f27kc5xx1LOANj9OcsRVAPbY5e+prw831KB471gSyqagJj2NNZB4wQfIsyPsLfH+n7YoMgzXQxibu1ivQsY0ZyrQHuAq2znYcZPrwtulrLjpDDJxvcQUUJqw5rxUjoncic1c+BZqJp/2QhCaIHoMwbOeyj/Od7AWihQR75xj7xUskTtI518tmToKNqIwVx9OzTCewiyonvCvuCpBzgbvgmAF1vZ+YMwOaR/GYTLkJwW9EPRUC+AycVIzq0/rKObCJ3ZZnzSuP3bgoWbrv5p6Jtm2YjIzfjXNKcOUNY3v2wTsTC66ddeY157gYZT/jM7fBQdsYzBnOh2mba7huqz6hbeep2/G55l4XvOaO+mrjipM/4TF82FxvvuKPp8XHNjh2tyU4C4iTpkrmfQ5YhcgkXbB4Ka+g39qvuAGQky0bGdtxDngVuQnP+D0DMVm70p7tri4Zm8nC4LNNBKhES7/2QX1dG08C1iQgSU3eFZlNtEw4FSB/98zVQPX57tsJZRIwfool2nU7xKfE+DQMzHmDTW5CmBmQ2+CNqDzNetobgplrPpDH2DdtnJbgtkfxNAf4XmIzttzflq/4pbPyCkTzfotZsef8K142YTD5EAPacP6Ua8BSyb/j3fABHtofuUibLkrMC9hMO9h2ImbnCbHxuc3ZCkZz1kLHuYy7hSh2g4/Z3wLY7W8CZVxQaOMrz97MaZsob1h0oW1ccv51DcgDtrNtmI9x0hDkkowD4es+FoiCpwlhwp7PXR/uOvUcY1DZptoHWRgcDlyT1cmGiCI6fPcsi2rCQel4AaITsqTu2UOB4iRtPwWufQlJe60a35kASwobSZSQ3C/YMKgd45PQWESarO3Pyc+spEWOCan9F3O9BkTMfBs2BdbYxh1xxKk3IXC+n4ZtH83+iguxhAToj7YoHkzuzkm3T8xazdr3bcdC1JibwDoO55/bNKeYQLd8dTyL71P+kPMuii3gkJ230Y996v7MU9hfbnGcwKxJeiN+/OI8LwY5ZvM1x3q5z772uXCw22mRAP6IBdcy8ZX58ZR7PdY8tQnxI7/4jagOvg8qKVZFmyBVze27QbmBnOB60AzGYtLEK9g2Ww06A812EhDGjrg4gCexMNkDgm5rMhVExII1WAuagf80kWi/Fab6x23fqpQPHnh4Iu8mk2PLuFhumv62SnhLDNsCDpoEYK9x9x2RtM25xNmEgs08jHT7Ieq8jmFmPU1y5w23YXsJbvrtEpxt8tJHSWcTA5NCxcPxNrZLat5n0iTGEGrFzDm45eiGfd+s4XaJh21rDm6cBIacW4xhE4leu93GbluMNfpHOIv1ztwpDrCDAsqchd34Aj8W785tP0cR0bAvLUyN+8av5T2Ps6LR3DzpxL2ZV3Fzw//8Dsgd8rmJ0E69n8+QgZ1dQBs0rlgcBPoi2D6O9mozQBiwAQLa9Jjc9mz3FLGBKohqR31CVWJgYVcT2eM9+a/2TxudNZUMTU4ej0kGANfPBuXT4u32emzHWjLzDRMmYgtXE8SkYOw1tthin9Ku4+njvP/ekxB4FA/n8kPUGR+/n/IbUU3QfhJCcdaYdma6CQlxd1HgOLSN4mLL71Nb9FXBNhm7vY1Iiy1spRixr0p4GwFucQZnEKHP22zf+jHOiuOKlP1CbrrQIs+ae+anYsH57P5dNJUHzKmOocXR25u7tmHjqXLzfDf/Nh9tj3Nr9adnQCV8TjbQDHIc0W0NLCBjyayB82BKDKfZlInH4HYlbNXdCIxjC5AGqyJyAnb9wThPftyWRbpMUKIxWW0C4+Tf0Wo9PwAAIABJREFUiA7/etrs8ZS4DZoNxBaN0zjdxiZy7dOJbvBzrosGY6rkwXf8DA6LBWPOr+Q27nsbNkk4lem0z1Lc/J2HkX7pS1+6PQlhjmUJbq4h2U9jizE+fd4eVa99+J6xGJMlRgjAZFYs2K8Wpy1nTqTk2H9YAaodxl4FcGu//VhYus83P7UCJ+bFNEWp827ro5g12ZcP57uXzIh5se3tzSWOtWCbP+AFj8u5Xt/ynXGc+KC5C8edfOI+yw2Mj1hcM1ME6F7w2VchsgNPRATAPD2rQNUZJBTt+3imwgUAhOBzKiwmHpNOCcHfm5D2Re0k8TmnFUh9ZJ+bBGjHCVWxqs8cmy0ZLFyN4wYyE4VFo4SxEVuTewN//V8iuIetVl/YsM2G2NbrkDMOChCPgUfx9GGk80PUmQH5d0A+b+yfhJqZ0LyOoQLED1F5EsJG6ia9E5GUmDin8TKetng7L4v/xuIUv+bnlg9bbk17no1iy4Yz48053zG1DfxH/y5UjB/aKRZsi/fh73LYyf8tFIqZ5o+FwHxBDCw0G99s/FQbOubZ38LX+WffFm8nLt/sQLycezcBuhdcN7aJxSYUdk4HA1CruhWVEykBCJzhmxMMPJ/vqhmnFXQGtcl/swsh9Nhcyc52r+2XOAou+3DsoGKyHRWZLWFNYhULx/HUfxP3XqKdxIexmGjAQ4uAe200qW0zn4krfqLQcT8WZLYjGCXXvg+IfkaA5hrQ/A6IseAr+h5bPANyzPsonmLFxLYluZN3+jOp+PhNBO7FfauiIYiS0oaFEs0Ws9qO38AzeNlydOvzZEdXNBzr00zJeDH2Nz9aNG3zbO8Mxzns8ypgYAdfuFCHQ7ysV5/5e2PpOJ6EgxztfuK6YcDbzE/1X3mgRfTl4+0mBCeHSc9ku5GBwecBAYyS9ja4kmqF0cRiMTQJlHDGLlc9fLcQARgTGonOtNfC6eP8QzHb5Ge5GYQFGVWNCbs/GDRQS1ZO6JKRhY1+N/8Q58a7AtHkb3xMuiUa2vZFacd7Iy8D3H273znPv6nhM3G2TSRlhYfYzg9R531A/SEqj+JBgJyg/AZttnkG5PH4LjgLCJ9pb5s9235jBGLf8rJxaBwhN+dmhcA33mzE6diYCB2n8kAJz8KwxcQ8Q1vbzBVusU1zHOKw8YbHhM0WHraR3777dfZNfvMmZs+w8eN245JXIsgPtsEzjklz9SQ4YKGCBp58XvPS51RQLBpbfp40Yctb7rB7hBXeiIpRm5I7kQmaiXYjqa3q7HG0YYNaBZ0ICHsNHAjAQT4JmMdEGxB0k81BNAg7g5s2t4A1+CZ5k4jPL3AMEo/PSbv582kCVDBWzDbSNyk4plv/9i37WQ5xrDcMbYB3H5BFiwuTSAmbfY6Bj3+aAPE7IOJB3wjJENJcA5qHkRq7MwN67bXXrhfSVRycK5BQ41oMmbx8fttubvl7PzdXNvLvNbeT0BH35pLztsuiGw84Xo5ZsYG/OiP2mGgLsXpEhLreZoEjP7fZFfYzRuPQ4944iFy/d5z3nTjD+dlZcXMZnz0t7+AX+9hF+InHK17bcea1y6e+C86OMrCcxBvgCjY64W4nJyuOd+I+TcxKeE5O27w51v2gwA7aJmSzrRWNKzWP1yJkUtic7ySZ8zwjaeUyvvMMyv0Axk3YDAL7yeLmeHZWNOeXBD3egrKiAxEbJ56dtHr18SabCkXJEF9vVS7jc9IyphIXY6M/bsOeGZD9NzchvPPOO49eOubXvBNPBKi3YXMN6Hvf+94jYSqBNH7YWzw2P42Je/HayIW2XDwZj26vBWJxPt+xpYRsQmxOe9yNSW3ZiK480PaaC7XFPAFGW6T4HK8SMWa2FWsVj/qb/Z65N69q/3z3TzTII68qlZdrh/dzvm0AD8S8KzfG4IfJ12rHdc69u+BOTnBnJ5XmGM8qmhgFEucUnCWN6dM/QvVU10CiP2xwsgMmg6r9t0LCDldZftxGA+4+XCUB0JKBATxtsQw351YoaM++2QSp4zNB+PMm6ra/YNuEZ7MFMdiqQ8fQRYgTBRtbsLgvz6hs1/jQsfLMcc73PrC4PQ179vEkBJ4FR8LyF/tGgOYmBL+OYfryG1GdG8aMBYCYMwbewIs/wcp2ndG+MSGZGDtTbx674DrlAbHZsOMiwNWzxaS5alvNARWTCtLGFxWUErNzzfYjPu7D7dMuuemKnnO2bc0751N9j+/mGPOnOcRYZnvzv4RvGzYON1fYJuduObTCWE43FuuDywaehOCKu+TMiTX65Oh2amIvEE4GM9CTaJTcSdTaaNvtYCpnAEdAq/ImQ8/oTCIFEKQEydEGf5vc/ZGpz/fswbZYvHx8AVFygHhOQmSbTY72XYFtnzsuW6xJqmLMSVf8uO8SmNsp0Rl3+Gj68TUoxktM5kkGL7744kN/iPrKK69cd8HxQ1RXh/ZxfweEfV6CKx6IRQl4juP6EgLk35ptpGZh3Ahoix34rZ9Lko3zqWgoETqHNwHa8oS83MZw4gzO8bUGt7MJBDcwOZ4c51wBM/CMc9Z+IIbgefrffkR+ImZzKkUI2LSoc6u+fd3fftV3p0LC/OX8dG7x2Xlku/BZOQMbjAHz4O11DNOYq6wS/0YCFYE61STtAfi4zfACdiO/jVwMkl7wagUO8GojtlWYaBsfWRiaqBaKzfENpkFr0GObfwUN6ZxIjP0mCydsSc7fbTdJ1b8boD4MSTjOW3w9HoCNbSc8WHgpKOxLCgbHEr+0TbbPXXA8Ddv4ZglucNWqlOOmnxGMvhF19iNA8zBSbOwsxLaXZCEJE5qFryRScSoxbPhxbFvsWCRMZPjW9vG5eWBxNAltQsa2Fmses3Ma+yBQ80OxURH0seYa+9S4qcDCNc1NxMoCj/0uIPG7Z2VgzMchQGyz3xh3iz4LSvFSvvZ3x27bvnG/c9y5u3HIrf1ZgvNAAHgFyEFrcvR7BePDiFkF5UTiFawZKETTd9kbvJzH+ObvnAeITSpOqibN2MWxnZpCKF46q9ha8PA7S4ic7/Z9O/a0dbrjrklvsHlWtwmOgV3BZF8B15jaLya7JrttgTScbE3aDYfdBgawke9NIo+9vwuhTV8DMiHzLDh+eDrnz5OWeQICfc4S3DyM9N4PUetj+8gFCPZXVGe7i0WLzUlo2O5c3USI/Jg2fcNNSdcCUiKjD8ZCntiG4rAEX3Ll3I1gLY7mh/mMOFTIKl5eDt6KLPLA/IjNznf4gvbwAefXNxatLXb0QX4b654FWeSKh8a5xfgmnObw8nvHwvm131znuJgDrhmQ1aqVk4mHwFjRuv+kfCzxFWib0QaLScXnOmm9pGLSmc+eqXCcCb7Oo49trARuADdE45sEEBFXQ1QqtrXi7MTePtseC5yTpO1bjEx2BYHHyAwYQnX7tNdqtwBzcs3nJmtJjPYgig1rJDR9edrv2Dm2tNN4OxE9TuI6+z/ykY88WoID61/5ylduvwPy3U8m7Ol37qL7tV/7tYff//3fv/tKbhOsiwy3XawQk4pUi40SaAnIQlDy4TtEZ8J3ux53Cao5VRwgGB1HRYHjSsL+zjHz19zjwnKORxDMIXOOfd+C1eM6+Yz2vOKCHYwPfHsm5tjWxy3ILOT+zBtzt6KUnMVu+3rsoA+wUxEl74xT48yfnbfNccZGn2DoFtsRIAbQip6GbYy3GWgmQY5v1THHlxRoo4RvsrRImdiwl5kPr0e28BSY7KMdC5aTzio9n6cPxkXgXTVRkeKfCnEBYGAQHB/jmBTc9ruLAX92PEpQrkhdOdnPBtVGMN5vX+FPxmTx2gimZLKRjUFbAjG50qdvSrAdJtDxKTE1FrZnwU0fFiDnQ2+GmfNnBtSbEOZZcH/2Z3/24Nu4GYuJivfXOBYVq8a2ZGN/VWB8roXX55ScnCOOe4XGsWhcaR8xom8XiC5wsIF2yhMWhOn3JB4c5xlvec24sKCZk/quKtoAX9wReS+fLDqIH7Y39ziWJV/sMlbMIV0pcTynD4tcfepYUTQXQxYQ8L+1034dGz7Tx3UZZG7DtqMrMAVcO3DwnChV8QadRHACb06yopp8GIyTo04y2C1oJuR7TqwwjMC5UqAdV3iuvBgP4PWMqaAHWJxTMfF2xlyRY4wGqUnC2+tXtzXnWIydOAaUCdTE5iSe4xFQC5VFjc8WKJZVN2xSSc55xKMEZFJuBU7i+hzGeBKg+SHqN7/5zetRPBAliQiJzvY5/xOf+MTDSy+9dLvdeo578803H772ta9dAkS/jhdjt63EqNWpE9nE7NhsRNL8dP8di/Mee2kT/xXDzisTMee7kCK3+GtBMTa2PHe/Jk9jkBnunE+ByrGb8FoIbIvHbLwwPgrq2Ud+G8dg1LxgAm+8Lcj0QW6Sk+DBfjJ/YCe+da47n8yX5okeXy5ynB2L8q/bMWaNh2eeffbZ62nYBoKTt2RS0GE4nVkQDAgnGAHgXCdkBc/tWfycFD5/gjN3MjkB6nQLR4nK4xg7advnACrIlX0ABVCy7Mg4XdXRr8E62+YYQG8gIQr8JUlKUga3x20QOfk7fd/8io1NnLHTMzULkvt2keF4nsgFPOKPYsJjB2P43ILkRLHI4UOPCxu5DbvPgvPvgDjWVbGLjU9/+tOPBGj64zZsZkAWCOeD49tixPnkAq+FiMnOObMVI85vZvYmV4jNuMAO2+NcIV7GlskS+yxIYMexds65eHKezXmsPmAD+VmbLDy1h34taOYn2uS6scVmjpvvFKgWEdo1HxFvcw+Ysrh4HCzNuuDAv/QHdvCb42McVBg2zjDPG4eOj3FgbNm31gcL+C2e/BB1DtwG6ZNKem4cMjHxAACTOuRXUqJtk0LFzMlA5TB/qXBK8HYQTnbFAsGV6HtNqVWQL/5hN76zDRC0RazkYGGgwmkCsVzEBfASN6DFp61+C0hihK32g8FYAmesxGFLLo/V+/l8ilHJAewwFsZ8Tds/+NW6SYl+mTm5Ap5zSVITDONxUvEsOG7DxgfzO6DvfOc71wymMXbxxjWg+SGqE51nwfFKbsYDbsAqyU6MiK1jZpFqspvcTCImOxdMJg7jCp+ZOIsHk+FJ6BA4C6ZtLqcUP/OdmNU3xpcLOc6xb22H/cJnL9ExTrBmHsEfxHZwNr8N8yzYtrCE1iLO2HBe8Zk+wZbjb9yaW+Fw57DPd/zcv3kcnzouHb/9t+HPWNtE0Di7fojq9cNeo7EIbJ835TPZM2hI1KThZAE0FR2+WwhJQAuHiZ3tDkQ/c7yJDxssooiC3y/v26LHXwDQtjJOk5X97AAbDBaDVsklfAujwdVlKYOU4M+5rmxINleTBor97yR0MhSYjrXHaMJukVDRcnVfEYMkwQPv5zGZMEuBxJoQvrY37fWHqIyPa0AjQO3Xds3sm0fxGMtzDWiW4GYJzz4zqRLDuQ5kQivR95pg8WORbbHgtowZY8050ZnlSTDcbsnLuWeMkFuMhzi6IJhzTaIem7ln4weKkDnHfdCehQK7LHglUtpxX2ybY2cGxLUgL5vaN3OuZ4YdMzHBZ+Yi+sK/5rwKSvMGG4w3F/TOVc/CmnPYY99vGuAYtm/n4DPPPffc7RpQr1E42D6pASjIOc9B91LNRkYlngrS7Kff6c+3vwLSBtrVFGRaxzAuAmPyqg21e74z+zIpYysgMtHjG3xGmxYTxoHNXhop6ACsk8VJ7v32jwG3gQrb7XOAj884zyJLHyYxJ5VFreLDGBxrk7jbMam5r9neGNomEh7MGBez794M6L333nuYGUyJC0EajPcmBPA2AvTqq69e59vGxsEYm/Zoe0QJ7JiUHPeSkONdYuO8Fm741TPGE5kVZ84tE53brFg21vatBdI55fwwJvFPsTHft9/vGQPEpGMi94xVE6o5Br6wsG6+A4POuxZrzZMWo/6O3zdx8Xg8BnO2/WnM2LceRznF4zA2scucR5s3PM4MqITi75zgQbpDjrXzGUQJaxOegsCEQz9u247wjGWrZjout+dkcZBabfU4J7wF1kKCw2nLArSRBAkzfXUZlCWlAqOCvglQY0bQAS8CWpsQFLZXQBp/xucYmARa5Tue+MqgLuYYh8fYYwxyV+2+M9JYc3J4PDyM9LOf/extCW3O43dAIwSOETMsYjcCxAvp7NcuwUFCLubs75KCMeIk33xfksdXJR1ssC9p29cxyCPnZonEbbW9LbYm2I0k25cxuPEPRalzfMvPU2FLfxaUaasFmO2aPuf//CQD3/J07DmOAmIbC/vAJDnpFag5z9xhDrA4b/laUbANzqPyhnHmHK7/K6xb+/aludhFz3UXHGCo0ScgAbYmcYnMF8c2kcOhJa4K2OyHzO0wwOSHQho0jMcBgqj466C6D1+jAiSAZs5BGAyEOb/TV+w1iRIYHutiEffyGQnk60u0dyLjDwO0VlPEn37sBye0feUYNXktfC5CTJbYsBFwxcX4tJh55mOMEB/ifkoE20ayze+AeB2D8wEB4nUM06YvPDPmEbC5C+7ll1++Tsc33IQwMyDHztftIDHG6+qb27MZP7FqzlkYTBqOuQkAW7r03nZcoTt3NqIzHmyf4+o4VoCcK5s4kuMl4S1n55jZzrImWLD/6AM+qQh1jF4CxRfEas6lvwogvoYnnKvOM8dqPrsIxTfmBBcYLhbsO/dlnFkAyZfywD0d2HIdfWgeM0bwfWGAGRDJQlCreA52BaIVUp1pQJUccAZBrwKbJJzQs71VGv1gj53rfRZDANqE8xgNSJOhhdPB8zG+7kNgsMWJR0K64sEXjkmrWOy30DWGJ/DNdpN0K6n6oNWYfUYimnD82bFC4EpkjouT3m3j2/Zd0iLJfR3AwkrsaJv25hrOCBAzILb3WXCcR7Jy3My4eBSPx28Bsl/nPIqO+r/XEZzYjnHzkX4rTvYpeHGem1jBVcnKmPXn9lmxsWi06HCOY1fJ08dssxiL3oxj4uBtts9cY67q2JxT8JZzxmPyjADMUayUwMsD5Llz0bMnzrdobzxxEnXHumNsm116NcdtsbeoNI7kpDH0BPf5d0Du3AGrCFQInABODCe5A+RE2ojDTrGY0A/VbkWRasFEtpEkATcBAmonvWc0VFdUN4CY6sTkUQFokABxhdA+NzGU+J2kJ8Jv27bBor/Z6lg1eSxm9f+Gi5JjQWkyMkHizxOoHVe3QUybjI617caXE8f5z8NIR4Dssz/8wz98+Ju/+ZurkgY/HgszCASo7wN66623rvcBvf/++zdidOwsyhsOXMgYa1TL+MOzG/vTsXHOgYUtZ5xvH4Zotj6aTx6zY1IOMbnbXrZbROiD4/Bl+YK4jQ3Fna8bznEVueYjeU87zIb5S45XxOwj55nxSgx97tjEdSx4yWROf2DjXuzZZx60SDGm8vApvx0752VjXa654u9nwc0Bnsaa6E5EZGdtZFHw2EA76cMQDYB1ReDbbUmiVreeXTBFLgk1GWwbgOUck8V8ZiltqxYgCIJqAp8+fOOHbXLwvb1V8UmM6mf3i00GMIltojNgPDb7ygSG/7HJQOZ844X+LRpODn9uIVHcNfYkxeB5SwqT0OxHQLgG5Kdhz7G8knsEaP7hQ/84edrhYaTchk3ffSU3bdhO/FafeoZkobAomATYTjvFstvwMc6rUw4Vv8TOoulcrkDa5pK8OaY5Z2yB1WLCeLJfGSMxBtdeLreg2f5icNryrHfa8lKpx9DVj2mr+eUcwT6wYRw4Z/HN09p3fhcL9idC1Lx1rB2Pipv5wKJTwSrnXvZ5Ca7q2cZKWDakMxwPyteC5hxXGxh1T4DsLM9+PCALnWdyJjeTlBMH57p6xEaPg/3+ZfWcy9h9vvv1DMbjJeD42ctUJhQDw2JaUDheTVgnvm2+F1PaMxkZVI6/K0rsddsWM5+3CUdJzdgoTjzO6aOCw+sMOM4CzjYEaMYwAtTXMUy7f/qnf/rw9ttv34oNfN/knfNnCY4X0jHWvpLbPrKfIRr+OlcqJPjU+DJh0q7z2kJRG1pAVZA8s3A/xRYCYaxQtRsnxaivQ1lMTOrOC9p0LJrj5oUNo/gQMTRm3a+xMv70dRn7twJU/jFeOkbHw4KDfzeecc6bT6afU05WCLCpwtI83QRly+XGy/hgH3Zft2FbaW87nnnmOm8TlhJTCacB2qp/G2IANclcJVUobAe2zl9Ip4ldcJno+GzA9vOMi7bpr4mFL00K9y7q4Tv6d7XrRPZFx00EDCKTvQFqIGxgI26Ou31WAG7gKxY24rF9xkFjUOBCAvYLx8w+fNQL6iVOkwnncw63Yc8bUT3e+R3Qu+++e/sdj8mAWfAc75sQPLYKkLHVgmD2bdcOK8S+TtCZJbY3nzd/mbjIMUjV51f8iWOLAMiPXKDN5uuW685j8NDZrsfQXDDh+/qfbfTyGXnjvop547DF2Ozjd4FePSI25j58alvwKRidYzor7eyFQpX2wIqLi3IXfjrFEL87/hVgt2Heuucv2+HY3Pw4DyNtMmwBrqpZmEigEsM22B5jgnQFZjIq0XnAJbP57qm2+zMAnmar+wQcOJ0qm4u2rM2eKgu2O5GclC4APMP5/5S9ya42y1V1fdz8BAguAtExwuAGDUqbDnAtVJJBmEsAJJAM3AsgURhTdJAAu8tFQMPQ5dd8dMbW2MMr93v+Ix29z86MjGKtueZcERmZeYHXBO/fAMgkXecbZPaNyaqC7+CrH9yW8eF+eQyM+QoG102/TeBP542fksiFjWJ7/fPSB++CqwCxBMeN5ScS5IN0fROCBajYK1GT/XpsiOvlDwsINjAZ2Q6OHeLBBFd7fspXV/knPiE2K27gwv5+SnybzBYrFeli1rYw1qm3nAW573z5Cdt4Fy72R4AQJce1x9k4RIDKD06iuObapOLYKxfQ30swiqEnzFx1gmdj4WrLYv/mty3BNcMwkV5kb8LCGBUkGruWEJ7E5RKaBvrlMC+XlbQMGtdVNXYmst8GEH/zL8+WdOzYwCSBU+o4T9sB3cq4v74WsTNAW6dBw++W6Q1bynGcoLzI6fLPEwGVQAxI+8GidPn6yX6AnvF5vBbDCmMJy8sUK2sBsu0mQPsi6gSItjzLRcRW354DYgmO/nMPiDcpVAjcVslnZS1A4LBYQbiuJMJ2uoQZcXgiMHNCSbpkU/5wnb15X/zYDo31cpHx4plJsYDAYhcLJH13ElKMeLbLKgH9xuZe9q9o4z9j0TZzDFCfeYzzTlQci8ZhhaN/m5vaRvttHPY3/PlRfDaeyx+vvvlBVDvuKlwQGlgGhwXKyyEXMRiArqPOuv52IGKQCs4ToG181+3gNQlbHPbbQDQYLUq1CX93Sg3oHBi0UaKybTuGArH14S9fZ0A2wHvv7gqgy76rxwJ7BQHXGcg95oBwuY9wSh0WlieyJ6t1oDxtw95zQN/5zndeu+DwPZmvM/rZbJ9juO4B7U0IexVPbf5EGuDbPu+M0vHTWLK/sYuTpF7b2YVFyzakXJPOJ7IrEV3XrYxjrzFZobINPTsxhkzcnuGU8Kmr9dCny072zSV+xHiTUtv0yV5gnc1N7ge8AObME+2nxcF8fvG2j5VXjKOrTsdjOaacUu55PYjag80KHQAGE4M3WJ4E5VMdKUhxgknIv68gcACViExgHYOJ+uoH03A/9d6MwAFhZ5YIW67AcLZmYfMUHII3MGnTSQK/GwQmTAfBk42we21D/9ymA6z+KGm0bdvCmLLI0aZnvdd1XON1eWOGtnfeKwC7h/Pbv/3bn20XnIOtS3DGlzNTL8EZr7yKZzOg9pfrKxKNpdqPHZT4vgJS4riIhT46YbC/TehX7BcTxbPPF4/28TujbHfU5/egzRtXGROxOQObkgCXo8oftEMdxlzt5jiBB7xUZz/Zt+aZHW8y4Hrh1v8/YnEtydFmOcDY8ljx/XW+NrzscmG23PXOtjwH9KmZg4nFzqpylpRo/CIjB7hV9InonMXYyVcQtN1LVCFwE4WD1iBdGU+zvZS1491O3SA2uVzCYaA00EzUtq8BfQnQZSPb3H1sm7ZJExSTwlN9V1LTYHT/jb+LmCpWl7BDBvjKa/PGV/vszLvbsCm7GdDeBccMqMRKub2KZUtwfRNC7wEZe152sR+fsmeu5brLrqunBGebuZ2nWPL1+MT/XmSDnV3nhQXHGWTre7clwAoRdVaALAie4VY0fGvA58xtu95btR2jYMarDoyjcdn6d94+L//wd1c0Vg+8dokGdRqb7tMV4+Wli4fcVpOcxsGnRMpjfbWFAHlt1hmyHXKpcSss8C7hcp1u6wLqVZ8HbQA+iRj3TwpiE49JiT6XCPc3O14AFe3b+b3OweTAM9B2vOvjAPXKlEzI1HMBucdKGgD0In3X61lCMXGNt0CkLmzuYGgw9e+2Zz9e5LHznvlcImnfE9i7DgFiEwLjmADtHpBnMLYJ5RCgPYhq+/EmhP/93/99G3ptyri4/+hxXgnG2vRuq8anY8fCgM85ZgwbL8Y447tiovijXScVTpyu+yX2mXngavcSOeOq8es6moi0fscH/UTIrtkMDya3zOULx2zHgA19/IlbnFx4rMbIlRxcMYfIlqPsg0t03O7lr9qKxKCz/bcP0pkgIDwAeBmnwuBgoZECEJI1IVyOWF0lCAdGA9MgwjA2mtt4mgmV1C4bNODJRjDuEwFgD8bVt47bXjzUdpEH0/yKyiUABqn79+RLBwd+u4SBfvVcSb6JAbapMBhjF6bcXgPB+MJ/tiUEwvgdgCYiZ8oI0D5IZ0z86Z/+6UuAvv/977+Wh8BnnyvaEtzXvva11ye5K0C8DdvBXnLcNYzB5daecbN2eR6Nfl4iZb/W9xagEtlF2uYI+6p2NRYuEXKMdpZHjNg/xcWFdyciFznuGAkeAsw1nU3T53IIIsmKB0mnsYAvGh+MYdcYo7adfU/b2MczpkuA6ttLANwHxohNaPt27WwxAAAgAElEQVQjYblE7WlGVP9ZTPHfa2zcA6ooAAQHkZXOoDcg7FyTjgndQVEwmXA+MoYdRF+85dHTeYPh2u3isXRcgNQBz1hoD9Go8JpIPM6LFAyggtIOu8pdYlCwtA6D8bq3ZWK4fOQ2+W0Medbp48ZQhdHnLExcX59efiOQLCoVV5cB5+DpehB1ZSZAW4KbABlD/v7LbLZNDNuE8M1vfvNlYvq+JbgJELvgGjMWD/fXY59N14Y3hxBvl7+p8yI52u/2bouMY/bigfqdMhUDt99koAJUcSgOPNNxYnfZ0xug+sYUsGO+6e8L4xarjcU495Iv42pMQPwQsu3KbKRcUbzaZvz2rLnjKJ7cNkm0fQduKi7m4/rUsWgfO8nxfds3bD29DfsjwjRInpxGGTpG4DA46scABlqdYiA4IBmcjbGyl+HcT65zOQe1nUJ9Bnuv9xZpBzRGpj7X4TYY71PWYnuTCZkoWr+BYns7c6qNAXmDDoIu4BxY1OWsxyRE1lfxB6gOCPvpI8AbP5TrjMhBcREUx+jr/kWA/C641eNX8TB2bOtEhA/S7R6Q20SAeBt2CdBBzzKviQdcWRRKPh8RZkkLO5soLxvZHxUkzjUO/Td14uOPcNP67BeuI2bLL+DUdvID6Z7VVyCpy/itf+ibZ/C+jpnwZsD4rQJpIagfL35yAuv++L6UyzjhYLxPiYnj2bxjbDf+zEPGCr697Gh/GwvE/pf2IOqVBV1EZJUsITUzMCn1nP+GPG0oOlqitxNsHGcOCIad7bFQh4XKY/Fv7OKlDk9ZHQwe75NDTYgONq7lui4V1NYmEwukAWiC8ZibAFxBYfCapN2P2tTY4NxTguA2HfQNFpMGbVdkyIhNpE4srv476cE2ngHtbdh9FxxfRO02aoKOb8LMd3wR1TayAJXoG5hNGrCtSQqSq838d387ropF/OBkoEljSbLxeBHuhRmPn3E4Hi3GFQX7q4SLneADZj34Gx/b/xChSdR9Qqw8VvPSfrM0Ot/bxk4kzA9PsUNf7Av60kQdvDcxdhyWD2z3iwfabvvp2Lvitviq7815b3HJq3gwtAF4ddKOeAJkH3YkSJ+uLSALOgIJsjGBOZA8xet4TNom5I7BorJ2CELGtDZ245GXUBbMrq/gKPGWUEzYjNm25FhJ5wJd2yp4Smo+fwGp4G3f3QcDz7/dp2ZoJaAn4vJMdfV9aqm1iVTFm/Nga5/k3rvgeg9oM6Atwe1t1mALm+zh1AkQdfg5IOr3Elz9ZaHF39essfHoe4LEmH33JEAmggoPS80mYePSycUlYlciehER/ewDtu5/hdo8QNvYgLIXjjlG30jwSqL4z/wAH3Lt2iu/rb5hYJxgvPUNKfTf3MTvbjzxjLH9vGa+VzyvnGPuEj78fMUs3HadgxeL5S/CE05s3t6G7azxEpZ24omkIG3fV6Csjdr2Ki4F+to3uBk4orNzNlgzBgdWlZi2/G8JkvYGMna+QIDNdFZPQUqgMAYIBuI1udD3AtjT7Yq2AYgPTOoG2pXp2OdOGChbezRJaABcRLJrSlC2OYHPOOvvit7KDWero28kbrA3mAh8233H9kE6BMg2/uM//uPXJgQ+yb2+eKZqfHgbNn3eLjg+x+Bx1Kf1DTbrrNrJjcnYJIPPem2JqMLmcTtmn8ThSgjLF1fy8cQpjn1juETs643TdwSXT7SvPvwGkbcNkhrGa8FYm955eOHXPsO2xjTYdIJgIqesV1vcF/jHCQBjaZ3YyDM8Y87naWO4gdMc96778ouTO8efx/YDccjnGDjhbKwOdyZEpW3IhrpIz8JgA+Jkjrn+i4hwvNdkW84BM+P4I1UYvsJlsNGGsyBEZ9d7JmTS5je2WRuA1sRnIkI0qJ+/HSQmioLYQfskBl479tjor5OApzpMXk++tt3tTwPR9u+spEA37orBtcUSqbF79Q3bm2Bb7noOaGUmQN/+9rff7URzzBCwmwltBuTngHZ9t2HbX/h1NrFoVBgcjxWgi9TcRkmUusGmMWA/mUztV8cr/SpWnWRagGjLKxaXuPgYY3EfsBX9Bb/2afvP347Np5i0/RiLZ08VMO4FVwTsq/raHElM+HpfC4f18y/Y8+KA+sy86nNwHGPy2MoFxLTtVl5wnHoM+PyNi7785S+/vYz0yk7duJ12kYQJ1R2q0w1wk4EH5voNRBOXr6X8RTyMi2y5y1p1kgPHgWnAk2XtPGvAFlQH+OXAju9aajM5rB3KOJgvPzjjLcgqegWv7WtSox7P4JosmCQahO6zhQ4SL9k8CSAkTb/3t2fbxWADo0Rmn+5aluB4Doj6eA7In+QuOSy4+B7QdsF5zLwLbjMo96mkU3+ZQEumznqf6mxcmADrEz/j1riv4BjrFw4ch9Rb3DphMK4un9mvTWRavjNT2rm+HWb8M8b+69h02551b2xtl+XF9m9+Myfydwmd4/V7RQSfMhaLB36gLgQPIcAnvcbYon3HXPFG3z3Tu/qJL2ab15Ilu+BsdKuXG7pEwcRRwoJATTgQd0HbNh2IBicD4BhG4d7A/nZm6uwasgJQBqT7zqzIzuG3xWltOhvx1NYBuGvtGPrsGQn1G7TMmgC3sxPbi+C0wy/iIcsBUCxLbiZnu1rADNiSpdu1vypE+9tLoJc44bPe03FS4sA1EYAvMlAwZlKw0JhMjcMdf7oHtBnQ3gXHg6ib6XT7/a4fprgHVAH68z//87d7SLQLntZ3jw8cYCu2+PK3cd24s30tkvZfk03s47pcT4W7iUwFwnYFQ+DAbRML+HBle4+mYuey1Ml1vd5ljSX7Bs7w+cYU4zff+V2AxJaJvT6EDy3uxI19Yx9w/Eo2iBn37Ymj8UH9btvaJjtO/bW/Bal4cVLhcTKO4ux1D8gHr4zUwc5gq5ifEifXwbUmcxO2idSgMIAtjAiGBWDHTGYWEPpqEXNgr03EyX2xcQtgC4jFwWO0DVYGYTI5XuRs0G+MzU4a/NTbpKJ9xp4NAoLJglWipv/FRu1lnCAIDaoGpO3XvlXoHChOQjju/hGE+Hd1eQl3x/tJbvqyTQj7HtAECMKCYLDTjk+YfuEXfuHd27B3nFfx+G3Y2MHLs/S7swZ8BT4gbtvXdi2BUq/teWXe2IhxGwO+1r+NK/fPmDGGu/GANoxjMOx+GxclNMSfpM7CXtLF7/AFse7Ey/yytrzDDbutP2y7floFAWskqsSk4xxfglVwzH1jjpPEbTy+Pwxnf5EE9eKKHbNPjCPEptxl39a+cIM5nd9NnN62YTNok6yFwgYrqZjcm3ERrCZbD9YZyhOpW+EBJP1ce3wegX7tb99Ew5EY04Tfj9dhWI+D8ivLu8BGNIDd/zZgLO6Az+ApyTuTArSeKfVVQADD2TMAss9MKBVIgN0sqzO0gtck58QFO/vf9sW72RyUJjbXSZLhBAgCMOBNgPMXtsavV0BBMAjQtmH7OaBdsxnQdsFtCY2+k6l7mz4Pou4ekPHsXXAVUezPOCxIFsgt/zWjb5ZtO5c0LqHwje4nkqmoXLYs/toPsv9myLRpH9ifFoLiBFuQlPH3rmdZdr/LbfTf3ETcXvYjkTV5Gr+7hiUl8OaNDhVWxkzfyq3lYAvCfq8NP2/kephJYyvzg4XCAmK8WTSMB/PhEx6MC7Bmcd351ePk/u1NCJ46XgHtzjv78o4RrjPp0tmWswE8IAPOjiEDIeBKYB78ZUT3A2IzYEuQ19sBdl/gp3/6p99mVjPmd7/73c/+6q/+6pUV0yc7C/Fzfx10jNf/AjKCcn1zdlOnGmy0XR+auPEPdmjbq8N4aH8tPFdWDMmvHosY4OP6rpnbB86YPFOFNEw67u/qZqdiZzcmHgetcdBNCIx9AvQv//IvrxkQNvaOSIJqicnP//zPv2ZABOHq2Nuwv/Wtb72udwKELUqasxukZoIgQfHsy7FkX2FP8GMRxy8mGRMjv51dcz3nsK9nDhY5CIdHFhgj4+F68OsEqImb+1kuop0dJ+mgLn/BGEyZQ4gT+8oizzI7fbQIbqv++IA2Vu9//Md/vHy9OjpL+YhXOeexIGwV4bVjbGN/CyQc0ZiqMJgDOjvptdRp+7s+C6XtueNux7H9WoIzgHAgjbQiZ28GGwHdLLrBhqGdlXT6Z1JzcOEI2to5skcHD9czaDurpOQsCoMD5M12PK5f//VffwEO2yBAAxyZh+3WjMC29FgMTMgU8l59zZCpx7Y2WBys9hflAZKzNIv2fgNybAi47BtEAIDVb+4nZRCnlfX29YqgSakEWwH00luDBPuRABVPHvfGs3tAmwGNXNwnBGh2mYhcCduOjWy7DXtjZhs2b0K4iIG+IQ69yQ02vNwDYbk+49OCRP2IGMJUAbD4VJSMadvOQvrEBca28QAmfB7bOzmgbROycWl/8RtsIH7GDrZzcmicFLPmyf3+1V/91beEFFsuIZ2vPfNGSJxINVF0XHRWi7/gu3KMy7uP5pjiwBwBdsCB6zPHNyltzF6+MD6pn2OvvydAdIYM1YTY4K8AlQxM4nWYl7tcjwOjoDapddaD0/vKDYDswQPkJ/XG0JdgYmgEyE5hBuSxQt4OXo/D9q2YAFz6CQlh17XD9U8BaTLCRl5GcMBDFiYWj89kQiBYlOrHJxA2azPB0AbjslCaTOn3FQiX37w+72SEPq4eX7f6+R6Qd8Ht+N4Ft00IWwbD17YDmFud1xdR+zmGzh6w+frm+wWQoMnH/iEJcNyYULCpMWHywacIt2crYO1KDpq4NTHBrk1gsD3nnRA6Fsw7EJdJutl6EwlvMKKvJmHKX0nqk6hhw/27+lkRoX5mQH/3d3/3Wqqvz+xj+mIxIfFgnO6vRcEC3ITfnNM4doxTznYyrs3r4AAsgpVqw6UFxp/j9i1ptABdDbRSq+oFTBsK59rIJeLWUULYeYuGg8dA2W+v+QNaZ3s7dgHefQIEK4ehqWuvZ/mZn/mZtyfhPeVeGWf0FR/G5VlDAcHfnv2ULEwu1/UWJ+xTQjLB258lqSYDxsL12wFqAuoYSij2kcsWKyYSB7Az5/Wh9wBX1m0UTxbRzYD2QbqRiwljr+LZJoS9iqczUmZZq8ffA/L1myVvFxybGEgMKFMh53zjoXg2aTkeuN4Ywe7YjlhtG/aj+2W/9bcz+sY0sellQ4/jSiwZCz6nHyZJsH7htMfcJ8ZrexhrxjZl7Uvqgg9I7ja+f//3f39tOIFLWW50PfCi+w8m8adJnnLErW3wUfxeXFBOazLj+pycON4co+WMS5TcBu1jg7fvAX0kFs42EIRmXga/nW2ycxnPGDo4A4DOVzicdTibMukaVIBt7fI8EO1eRG3AcH43phEgSGdrvrsHVJG10Nhmdobb5Xrswr8GcqfmdraB8zQuH3eW1fLU6+yKYyYCB3BtaMEtmVCvM6IS3dUnC1DFyX+DZQcKduRf24t6ZxMvwRmHvIx0AmQBK77Zhs2DqPQLAfJzQA1elkQvUjEx1Y+2rzPOElBJFoJpvJXYm7A8kdGOG7fuF9hlbMW+j9suxI7HUuHwtY5D+9xjdfnixrZw3DrWqPdpBrQluCYYTQIvkb8wz+yDPsM7ux7hs8+LjdqyCQ/ly/H2I1zRMdSOnzqPDanvhek9iOqAKkDsEH5bYHqMyhuYJrwrMJphGLw1TokFQEA8FivA6iWgktdFSvQXctqU+td+7ddeAuSMZ0twf/mXf/nuJYQXAVrQGqTN6kw29NuCZkfS92YytjcgdtBXPAAPtn7LUL70pXczAfvJ/XB9rsv1QLBc1wQBXDTrpO6KLNcbj2TTXnJsoHBdcb9+/b//9/9er+LxB+nWL15G6g/SGVss963dPQe07wG5X8uK9yqefZDuiYzAtWMIe18JWwXsEhhjif40udnxK/FpnHimZHJ3v4tN6rhi2KTasTzxQYWgGDIfladMvlzHsSaciI9t5rjeb8+AVm4rIEtImQFVPC6/tx8Il+PGiaDtiQ9oxxxgjqzfjfvGqn1pHyB89rvH80V0w755+81zQADVCurM0ORlUbpIxEalkwZvCaHEaAP1nAF4BcScYQFa+eueQccD4C4A79jq3U3HCtAA99d//ddvTzYDhhIgdVQ8cTL2rxhdgfkEkstHJe2SfLNb/23S+8hnFjsLoknHfnOQXaAsvkwkDjIfB3PNCq9gs3BZDFf3BGhLcCMXt7UZ0N4F509yeyYHiU+IECCPjVfxbAZkwnD7l692zMtstANBXfjAHz7H7+sYQupExQRY3zVGTLQXHxiv1NUVA3DZ5Tj7yva58Gg8lLuefP4kjPTZcVw7eBPCzrEkPz7wOLiP2/g0vupHryBcs8qL/Nc+fcSe5WL7p1xgvzr2Kefxux3XWb62n8DlO5tPgOpYA8bLHhx3RwAf5aqEVtGVXblmG9fATNQFtcFUwm+WYqNeGYJ3vRAUdpptA+DYor22yXgs4JcAI0AEu8ubcO0cA4TrOWYA9hrXV58VTL1nRyBdAftUF2O6xlFb2p5NSp5ErgB3nSVD/H8lMcaZx2fCZhNCP8fAg6hbguNa7M4mmP3dd8HRvy3BbQbkbdwmnWIcMrHfG1u25SUs9ocTQfp9LetdPihRFhvG6c5diUfjAy5oPBQvG0NxYpIzlzh+GQfJZzmOdk3U5TDKWJh9bCsifixjY9yKyATIdrgExPzmPvg3dThh27ElQU6ywXzbuZKTiw8d18SC+2eOdyLTCUBjqmJkznr7zRdRGawzK4uPHdhB+O8ncBS0JUkGzKAakDYIoHQdAKNk9SSA7TMBQTt+kI2y17bLf/u3f3tNuRs4a7cB3huMV1/pL2Dav35wa38baM1ULxC6bw7YZkkN0gusxcFFimDJhG//GWu04Sk+19U+LnuCWc9iFUfUhX1IPMAN/bsEaOf+6I/+6O1B1F3ztotnW0k/X6ZcOWZA3ANiLN6E4D7gTwtmkxPKMIa17W2+TzOQ+reCdCU79m8f0i45mrgqFBat1Umigz2ubPjJv27H/nJdFpT9Bk/mnWLCswzzxxORNh64J+wdjQiQ+wYXdHZurnQS5HjFR7anN3Mw1mLkSciMAQtIE1PjwBzapMlxeMWrEx9zG79fb0IwOVjtPTsoeN1BT6ftpJaBeAyWCo//vsit9VPGGYEDdAO14w1gO7qAIaDc3rXrhQfPrmzjzchf+tKrGnbEGOwADFIyELiGNz0QVJ8iFgdsibricAEcm/Jvl0tsk/2mDsozFq5D3G2PBtz+5ronksFHJRKPcWW6ucGEwk7FlWnArB4vwdmOew7on//5n19vQnB99JUxIkC/+7u/+06Y+jZsxtIxN8HAvjtOn401X18SoRzHLXIVH9pxv0hALwxhG/xoDnHcd5ydoRoHlG1d5h5jo343Lj0r2G8n054pedmK9u1fY7tYJyE1zuGDzmDhkyfb2A4WRpN/ucI8at52klkuuETCvjSebXd+X2Jke/WaC3vv/MsMyAprR5Sk7WSD384xkEpWFRUrpAdZMJi8TKKdNiM4JlYAeDnzEsMSDP2qAI3Mvve9772m3AZchRaAWoAamA4mZ7QQjwFWUNXGvt6A6OyIIHV9nlFVQOsrE9yFkwoZQXj117hokNgfJjzXY/sxO7lE7uqD2+NlpL4HtGs2A9o9IN6GDc7ahy3B/eIv/uLbJgTO8xyQNyGYjCsIXbLyK5jqR4L8KUZKAhWq1udEwisBjQvqaUxfZGUbm4Qr4I7tJiLmBIsw9Tmj37H+je/LAxZm2nTb3cFH270HNDtuGzZvRsEO+PZafXAyddnTvlo//KIA26oYqBBg/3KDed8x7L40Xi/b26bmf5e9+vT2QbqKRoO+F1PeBnIdzRx6roa/wFJSMzggTco4mKvSFhkEiwBHnEwAjLVk/HTTkTchAPpdf4nAFegm/+u3Hci4LHYXOFbusr/BdomYQeossYAzgRgXl+CYYOxPynopq2ReAfR5B7P76mBnVtJ2GbuzYsrwKp7tgjNp8jmG3QOy2LlPK78ZEC8jdblh5M/+7M/e3qbdgK2YO+G4tmfb7i5rrDP+4soC0XafiAtMd/Z5ic1FOpcA2Q+Ov5a9MNZjiIsTNi9dc95ibAIv/zHbxLaefeK7JSm8iofkcgK0hLSzrKfYIw5sR3PbZUvjylzwkS8rLv378qN9fmHIfrrw3LEVW6/42xKcidHC4wtMBjbAk8IZ/A7Szpo8iJKpB31lJrSxf71MBci8E4W6vVS3cgjQRf4VRQSIvsz5uwe05RUHEwJQUHsGVIdxfcmt9wN2/trAAOAZ+5NfOP8EjrZ/iYD7/iR02NbEQMBfolRbXViwjR1ACIlnvV6G8/2e+tm4Wp+3BLdX8XgTwq7x94B4DT8ZqeNnLyPdDMj3gHZ9BajB+CRAO+6dWC5X0mq8PpGCE4iPiBF/eYmp8XrF78UPV7n6+KOk1WWfBI54fdpJ56Rl/XHMNB6KKeN4v9fGXte0XbG2D5uSzH/7XYHlGLinfewEpojXisHla3gHTFdU6uurLfpjGxPL9att9hEOinX+fhMgKrbRHOAFCuW9hNMOFPwX4T2B0sRfB9VAnvmYTJwJOeAAi9so2C4wrIwFCED4yedm37YBQMLGVxBZnLnW5Gby6fWXvy4i+GgW1v7a760f+zmwLt8UyJc/L7H5FGHRV/vOdV/BcYk0CQhk+3QPyM8BTXgQBbe/Pm0G5W3Y9NNLcA5IY9N9NgGVKBBR+uwk4UomKW8iMbHZ1lxvsua6i0g+JUDXWI0d4tf1OP583ASKLy+Mti5j15zlWUrHBpe4zcYAmxAqQEs23C9mUfVTRamciS/8b7eF41vau+LbGHN5xkj/iJ/W+ZEAteyn4huRXLl3M6CSbh3/BD4TjAdkB1xi1PpcxkRBR2u41m9AWlwQIpOx67zAbqB5fNcS3ARogIMMDFyC/BIbB57JoKJhQkD0LEQlfdupYzYRYb+CizJXEnAJ2tW+fdNALGE4wE10bd94uXxtMvaMhz43WVp51vZNRB/NgPYuuC3BlTj8OZDuggNLfRccdq4AWXhMCCy11C7GzuVf+8e2voijfsN2TkztB2P9aTyXQF2C+iRAJveWsX2KZ2LcmHLcrK4rCb3iorxGPyZAvJwYPPFcoOv2ow7U79le+aExgUBQJ0uytbmFpPx4+dt9tG12nFWWp/ip7TsGbAS+ywMr/1rW9DbsJ5IH5DiiIDQxukwJy51yHTYkwGlfHKjXHvhrW6xFzW27jwYXoGQ8DcgCbg73NuxmEnaqHel+YVsD0oAtMDyddz1cX0K6EgkIxTOuEtWTABhQBdkltJc/L1vQb4vBJaCuj9+M/RIUbNR+O2Fg7Gvbb0Kw7fYc0Le//e23TQglVvq9+w4swbmMvwdU7DdrLVlgB2ZetvMlQL3eY3+69mkmQixQR8ddMbEoXdeYXC9BaWy0Pl9jccKHYNvXMcvFLtgbHikvlefcZxLa1QUfeBs2u+A89saz4462KzqMh2V7j89LjAgsvODxmxOcNJXXzO/uB/byhKAxWTxc/jXmiomXAEE2Jh0C1OLw1NhHwmUgYKySQYWq6nr9zbGChzYwMqLgbbevqd/nz27w2zONOou/ve+fwLwEyORWm7lfDQj6ZFBxrH0y8RjEANGzhJJECdCgsBC0jfrN9TyJRQnF19QHV30NFv99Ba/JxmU9LvxTHKz80yaELcFZgEwIqxsS8oOoHjsCtG3c7VdnVOCCPl/CzrGeu8rS3nVNcXXh9cLeRdKOU+PBpOjM2skG15aIn1ZDrvLrExzm/oEzPhxI3yxAtGtMXnhc/+fjjelJgHgukLGCt9rfbcInFzd2h23LkjzAdY0LymNLBNHju3Cw/uG7YqhxWZFx+fKLcfLaBedBXyCqABTkBm3Js2TXugi2C/gAqoOxgR383i3k+pzdWRBXLyT0kTMYkwGHUydAXfNdeTvZwutZ0kUIkI5JknIGiQPc9XRW08AyAThInS3VR08iar+4HbJExr1ytOsxlFyudkzi9l3JBrs1q70IbNeaHDzebSLgVTzuzzYh/P3f//3rKXREzj4Ax9ereHbOn+R2vNnfzZSdOJgIWCJ5EiHq/4gUqA+8uKxJ3G00dhyH2LBtm9AZq2Pe520XcNKZuDHbeoofymIv10XcX+RoPHgzSwWDXXDUNf/5XXD2LX11nNl+1wzFx+ANJ5YVCM+WLND4kPE7Ls0t9aExgi2vfpbjbVPqcBxji1d7FaAG/JPy+bgzyTZUcXsSkyqqB1VgecbWAZrs6csF4hIzbdhJDrgd9xcQcX73/TdgEaqKKaSMCALW63qD97JfA7tjM7lc9jJpdBbcBMFtfUqo7AvI1YFk8oEIGwTYx/1wQBkbtOeM2/hrWf8N0fhNCBaYPYi6GdAEaNc9PY+x41/72tfedsFRBx+k+5//+Z/G69t7BEsG2MJJCziCbJ5EyEFePPic8dnYtehdvNDyxmbjENx4+bwc8gOG+eyzN9u4z545mUxtr+J45bobsgJKorp6KPuOLPNi3iakfi7QcVJO8TknGSZ5bOG4oJ4mDbuuj2Y4pttG49b4csLmeLp845i8kpHrGgTsTaT8JoQCis6UHByYP1Dh50/9X0Rp9a+ImHgu0WKAFor9dp0ONJNbDWGFNpgrgnbArhngvvKVr7x7Gzb7/iFK+uPswTa6+mJA+TpmdAQDIEP8nmwPwAv8ld//1Gd/X2Ri4bLPC7yPrq34u2/0xe1YFHotGHF7l2Dav7a3Ewp864xyZfkcQ78HxKt4RjJ8kdQzBXzVL6LSV96E8P3vf//VJffRJIpvOYa9jG3PYh2bFWmusX1tj/oUMYKsS5QmGcco9Zi87EcI0rHrti//f+RDj5M+I2z2J3X4nokFEP4ggTYHtU8ra7/v721KGh/43ZDelGRxt6CYy/Cf7em49qzGY+NVTNRlAWo81o+NiWt1wtipDjQuzTOt268XUP8AACAASURBVFi/uO/tOSAbwKTsjLngbccMGhOpv7pnYD4B3GUsCg5Cjl97/ms8L4dBQv4XQDso3AcyBL6IakHge0BXn0sezmD2m4zLpAPxdN23QGsA2zbU1z7Rn5KfM6KPyphwqZsAukBIYBMsDQx84GTFfSnhGaPFK7YsyZkcIVZvVnCfdi2bEPo2bJ4D4mulYMaktXNbwtsXUfc5Bv/nV/F4XMYeWLZNnZ02mOtnY4LrbCfbucfBnUmz/rqE0/aF0Iun+tFtwCHg3TMPx75J27bnd0Vkx42Ji3ecBD/VYxs0xvwgKr4wH7j82vestckh/njaMefx7FqLoRPYL+oD+mZ8mettL/OUj1/8cgkQtmWM78a+JTirfTPKywElvwuYdqgBA1A8U+B6r7dyzJ11BmCRwTkEsDMxwA6wab/E5P66j5Tbv30bNmu+vH4d8qbvH5EHQLnGcWUkznptT/vCzm9f7GOTD+Vss5bFvpS92kRMbK8ngDaDMom37SYCJhoCjw0mkFg/x1wiABMkAcY494D6JgTehr0luLXTxAfbTMAmQHsXnO3EEpxnQPYXwd91fHztsXrWQxyZ9C0+FjgLge1sPDkpACdtwz6+fOcEB5w7eWnbFqQu0X2UpLid1ekltn6dGIwYwxY71wXejely3s55RQQB4rnAj+LtI5+U4+iv8eFExXxGm00KwVmP278W+0swwAD9qaA3/q97Z8b7Wxtf+cpX3l5G6kB9AuglNg5gOxKj+Zrr+hKVjWGy9CAvwABkCAjwX8aCfEyGGNmZEcG8Y7wLzlkbU26u8Zj329Np+mzbYrtuWthYmDl4c4XJpz6yrTwDrc0hamcklPHN+dVfsbjIw+My0eAP+/NJfAx6k2lBa0LCtgQk/aU/3pBgIrRP3d/93j2gfZDuehPCngPie0CrmywUW6+NLcFd94D+9m//9vUqHn8RdWPr7Jw6Lfr0vba3WNkujsdmx8YC56gfW2PPErz9Ql/oPzFGbDj5qvhcCQzjre+pt9xkrBsjXp1YGQi69nnCWxPw/Q2OmhiyBMf5jXl8sGTDGLPAWwzAqxMGc5WTdPpP8mPfl0+ctNOekwZEhKXDljGPwhWXD91Oudn+se+MuZevdw8IQ9CwL6h4mHx9jmscjFZkZ64GmQF2EU9JBVBVze1MtkkyHguKwe+2PevBIRWiff/j6R4QdTUgyYyeRNYkDxA/BShnI9T7lPUANvxziV9JfuNuUFyAugLLNqWtBjV9ss1NENRRkvFxt+3gWL/Jdh3sFiP7yHXut5fgbJctwf3DP/zDSzB8/R5MnegQF/vNc0DGGl9E3feAdhwyq+1NFBULRG/9vK43xsCdbY3NOGacux9OmjjeNi88V1iMOROUyZ++eIXC2HOGb59TH+JJW73fQzniwziwSBQH5kDqdLKw35sBffWrX313T3hLcBUgx/XwsWst0BYACzl+8OqH49cxX+6+YrN+x3YtS/zvXy8J2pbgvT6pXnC+Mfr2N19EZcqK4V1R1Y3BmiD4XYcbKFy3fxlkgWkRoi8Mtn3z4JkloOqeNTQjwMmellfNGzxr6ynjGbkQ8IzNgfsR2Ew4kCfH5hOesmc2VHG4gv4SGwOJOuxjA9s+QSCv4DcOPF6TgtuwH7nWGarvzVwzvdW78gY/Cc+OedmFMRLwG4eXBWpr6q0AYcttQtgMiBkKmSj2oX4/iGqb+jkgZ8zGu4kOHF33DS4Cb9zQtpMVx51Jz2TrPjvePE6L1UeJVRMICI3rnZTSTycrjKn1+Hr8jD8df8aQhcwcRd1e+muiY25zbPFcICsua49t2JA9+LS93S/E5RJa7MUsxPaoeFwxV2FxHzhH//jXuCEpKDcwNuxoPFy/Xbdj8DUe3wOy4tnpNo5VtI4qgTjroBPOHgEdoOnArJoYocLVYMARPHS2816iucBlwsXonVGs35sB9ZPcfg7IfTMhI04eA/bFBs7G9pv2PQ7A7wyx4CixPP3dzNFgIih+ACyf73D0tc2EICqPDx9cQWNSxDcmxPrXREh5C1tF7iIvJyAmgLXlV/GYgDcDmgDtcwyMw6QJOWz27bdh0z7PAfE5B2fFJjUnGNR/4RcBrzA4PhurYMXJWbNrOKDLlxDWZX/6YgzRVnmkx7GlhexJAEpuK9fMmvilLElcceG6GpfGJNdVINfO7hNuRQR+RID2OYbOshunxLixblvwGW94YP+OC1YGDLZv/kghdje2ygX48hJJ28TlLMYVNLdZe19c/sILb8M2ACjsTgDAp4GZPCwoZCYmnwtIdgQGKSgdULRRErLq75yDF5KwMWxQG3pllz1vzR8CZQbE9esnAuS1Zzu0dqEPFqX99rp7v/1iEFU4XB/2MTBtD4KopEwfK3rYw0CzT0wmrpN+mEjsf4iDvjGbMLZct/HItfabM2kLigUEG/s6+4Y2eBPC09uwdw+HehELngnacV5G+vu///vvNiGwBMf1+A0icrIGNlY/YkE52rTf7RP7itlTkwR84QSDNu3Hxok5wG06kXwivGb49H//emmr+HqRlBKf8ojHZl7xMixj45ht2NhyHNO2++DElF1wXLO49duwEQ3bx0LOceO0/OVYom3KsCTreKeM+dR1WhgQOZ/fb/OE+2ter2jbjhVbj2+29PLxuwdRG/QuXLKxsysMkATGMKhLMv5mR4WvgcXflMOYGxCfD3ZgzkE8uY5R/ZlhL8G5r6t3WQZBgzj0E7xr11NuZ6/YBxteogrBOwslIO3QEshHdjVJmIwMJAuOiZk+kp0TeCVy6rUQ43NwYoAC6gY7WHDWapx9JJgWsfWDZYod9yz2Cfy7xsIFbvgg3bJb249dcAtaEwd1kDRsBsQuOOPe74IjXuxXMIbQQLQsKfM3PnEGbZIqgXPOdmVcTpRMbiX1+s348NKVRQW8Yav6suLG+SYb2LACVk7hb+zEGBBwYo0+ut6SKXYBV1cc7Nj1JgR2wXnlAns5sbA/jSfz1+Unc21/V7wqtMWJr7fIeykbuxlH+MJcbk6oNlTgVtcbrrcEZ7Kk0oKz5F9S4m8rrMHA9b7OoK/Y2BHU6QF7iQCDWFndDxsRMPVfbNCbu+vjZkJzymZAT9//8INhV7BbACAPxlAip7++L8csATI3Odq29uUFVgcq/rGv6bsD1XanrWZ12NP3RtxHgtnkZrIhWOgTyYGFu0FQIcTGiMuuhQhMOA1yC5YfRLWt2ITANmyWQ+gfWfzqYhecidvfA7oI3j4gCaGfvQdAWfuKa/CDcdJYdVzW35AkGLQNsK9j1UJg3LtNC5OTJ/vLWGxsWiDKH77/Yr8z/sWuRWjHnXg82aJ1VRjXD98DQmS8C87iC3apx/g2rj1WcwbjtlAbJxZ8xmh/VWyMzWLAyZz9a26xT6l7ffO4ipPG8mssX/7yl/+PAKQii01Vzlk+g6i4dHAmFyvtZSCDgyAo0bhdA/p64HXt4XQMC/F7NuTgAZRci+H64BkzoJELfV1Zr/9WBC6BsKNK7CUf+mnQ2qZu7xIpZ1sNCuxUcO1vbHYlDbWd/YrwOECcPHC8s1H3xYJhf7r/O474UT/EY/s6OEuuG9sEiHfBmez2MtK/+7u/e1t/p54JErhbe30bNrZhBrRdcyU9bHrFUxMPY4slNuO1WMK+9Nf48TmLgcft8p21XFhDPHyuMwlzSrmj8YHvLUqUMUEbF8wmyxuNE2OapKBJkW3h5bmV2yyZhBT88TZsOK9JMfaEJxiXY86x0uQUX1uoHNOdTdVW4MCYM0+YuxkDnFzOqT2Np8ZW/Yy93rZhO4DdCV/oQa8xBuGMzmrqgOK3icVZH+2TeXQwGMOApC3PJDwToV+A08pOfyy+JV7AQdD7cwz0j3fBGaiAwGRgkr4Ct8RuYQV0BVfbqe2dcay/79Ze9RojwOIyzfhK4hYFC05JzcnHR4JXsriIyL53YDV4Sya2JeRkbJhkJ0C/8zu/83rvn8fMJgQ+yX0tG64fE6Atwe0ekO3ibdjYee06HsAQ/S0GwKFJrDOnYqB2NE45Z+ztt58PoY+1d0WqHNB2LqxyDWMAHyUv+8pYbUx11rI+k9jYDiVc6jdHuZ0rGdr5CdC+B+QZNAK0Mbl/5tG233EgEnCsk1CLAvFMX+3Hi4fN67aHE3N+G5v2z1Ni2Bj8lDa8xfIeRG2jdZYHY+K5FNDZjQWIYDRITEhPDkI82hZGsTq73waQs4yr/w6uAo9r11eefDZgeRec+wf4Cgzq8nmLiwnW5AMQAeb8VXLyGLCrA8rZskXC/mrgX2RlUr1EyWReAWb8Frfa3v65cGhfGjMmKWYNHY8Du/YCZ/0cA+OZAP3TP/3TawaEfb28R+KzNyl8/etf/+wb3/jGqwn6uGdD9iDq//7v/74jJpOPfbrjkDYzCPpvAbI/LGAX2dif4M52QODA25WcXZi4+MHJEn4gViFOkoHiyDZpvDrOTORrz7NoxrdjkLaTBsZ4YZh+tjw8CdaYAZEAr99+E0L9Z25xDNaH9omJ3LHla2jHMe64dn3m4eLItqBO27gcTcxU7Mxj5iIff4tN3wNqRx1A1yCu8zayO1ZB6LUlK4sXpNO6MQBGBQgmLgeCsyEUnnar2BXP1Xm9jNSvX6ctC4yBVgByrtlSMyKDqSTVOi9i8fUAgnLN/gzs+vyy1QVKgw6xucQCDJj47Dv6YtK7stzV7WUXfNuxgKNiy/ZmG3ZfxYMA7UFSBzFih++5B+RdcCvvzzF0NtCZuWf7u5a/m+FuPM6OTdYlONsV/7hMSd/x4XaNCex4zeIqSm3fMybj02Jl/5kf7EePhePM4uxn99V2usTujRzz1dRyWHfBrV12xXZMF6FXUNwuglqfOxlxksG1T7Og+q0+e+Lq2qcYqy/cjvnCScC7fu+DdA7ei9Co9ALpRVI2rAkI0kM46hQPjoF1QO5DB+9X8Kycp460abKzIFG247GAsQnBa8F8gtfgN3E68Dx+C4nX+ek3/TGwcGKX0hyoFpiKjYMCW/vfi/BNliaBCwsliYolWPAygutx+aut9tX+r5BWbK6EoiS49tmE0G3Y2wW354A2g9l/u7ldW6++YWNvQvjmN7/5tl175SxA9IXxligvYbBIQUIbo7fsl/Qdh9gTDDgOGq9r37HzFIP4o5xhHNXnCJs5pb5qzBjfF984rowRhIhrzEUmQX5zrbEER1zi7yX5XcM2bO4JPwkduHG7xr77S6yTpNr3jHvlOV6fmz8an8Uv7db35sYnDij2XK52sDC9+yJqhcYqyUU2mgdg0Pi31ymfOtVrq+yX4bzu6n6yfn0FtYPQAncFUJ2xMp4B7e+NDQFqYF1ZI2TuLKbBxlIOgOusbuV5Gr+kYmA3w6lIGRQWz9q+QlMfmixtx6tcgeixIUrYsYC+SImlEs9CCEbqcZLjJR+Lj0ntizyI6j6aEPZ7+PulX/ql1/eAHCv9IqrjaeUgS/ze2OosEVtfuy9L0he52S4QWWObNuzXy24dyyUSFjXa8yYRjrl+x5R/f4QzcO/4d5yAwSvh5JqO8RLIlfVzgeYDPlBpDNve+La81zIVlavvjvmKqus3H2G/T82C8JlF3dc49i/+L+dgI+L+ZVc+SEfhEo7BVHD4XInLJFvir/Pbph1noTC5YMSC5gKnZxPty6eI2UHpV/FgTN8DehIyCAZHcq2Jn3454ym51UeX3SAwkwJ2u0Sx468ffd51OtANPtvL/mpw2RYeR6+vP52dXiJq4SsZOWC8Y5J+7l9mQGxCoD9+F5xtPH95NyUPovpt2KuXzzHwQTrE0wRi/9Lu2nLAXjeeKxz4w0TXhAB/YHvX4diyn4oF+/SJjOpP+uZxWSzsUxPfk+h0XP17dTSJ84qP22h7FS7bdb89A6oAmf/sY+O3PGcbcq6rAj6+Nknceo+38f9UjzF3xQs+xv4kChcubD/zCHajLWzwigF/kM4GfsoQDZCLAK2uBrkDzoNy5zxIk1rL+JxnFb3GBA/JuM8VNweCDU29/gAVouIP0lVQHNwdQ4nEIHUQGaSuzw4GhCWeS/jtk4K0AXaJWPtGvxl7MVHiMLHS7/qhpGCwm9C6VEBA4mu33QzQNuO6/ftFX0ZafGAXHkTtDMibEIxT7Efwe3m1tmUMTkwQwwa/iR57mOBKdsZ+MYd93B/j+fq9ss2wmz0bbxcGPKZLgBqvV0y47/5tHrM/zF/01wks49qxTwmQMVf82W8X3i+/4jPPhj1LehK04uiJJ6i/s2PHtNt44mUfd7xyrbXlNQPqBQZsg+UiqQ78MgR1WonbOTv/AoWPUV+dgTNppw8ict6ZiBXZhNCsfe+C+6mf+qm3jHdtf/e73/1s3wPCeRCRid6B4cC3YFWsHHAlBMZW0vioDhPS0yziiVTsp/qg57Af/rmw0GzqacmjBFWcNpv0PUCXvZYNuLYifQnQxrDngPY2bN7lZj8jZsus9/+W4NiGTT+4B7RX8fQ/+80E11gzxsB9icxl7AvXVf9zjTPgXcsSGTHjf+13Y7U+89jcrhOZy6893zb4G3tZwCx+Pc5sqOJoHJAsYxfq29+I0ew/PvA2bJbk52vPksGHuYW6HB/tE2VIdrD5xXm0V86q3coZ+LTcYUxcm4Tq5wsDF85/wK8IECeqcD5ugJqILlW8pnPukEmodXkw79Qy32RvVgTYTPgXMEuiT7O9LhNcn2OYAG3N91rSqAM6DfZ5znmr51VnScWAAjQFIccNqgZ963HwmXhquws39NE+LvDtqxKgl0wu4nG9xacDypmrgV+R5NzanQD9xm/8xtv3gMD2BOjb3/722/03B6DvZfhlpBYDBIhNDNTr/teWTjRWF+2YyBx7Le9zV6JwkfzauWZhFuz2vTg33p5Ey3WABeOW6+q3C4s9dvFAeYQ+X7Myb+e+xgoh84FKBAsBgg86dvPSFyFnfOFYRMzot4X4iRssLhbsazXEuDZ+Lr5+wrD7dMXnuxmWX0Z6XVhDFRAVgYvkLoHqgPp3Aep+eN+9geS+PRnMQLyCymDCUACaKfe1C64BfmUirq+isDYQnyvTKYgcZG67IKzIlXRKxgRNyazXmSAu/3Z8FhULu/vnoHoisR1/IhP64fPdnm2yg9TByq7bPaAJkN8Ft/PsgvNzQASzM9wJUGdAK+cZkAW6gm6yqYBsLP5gnQWuRGS7XpgoXk08Tbwu3+N/6mmi4PqwT6/Bfvi0qwYcr0hfnHPhxTvYKu77+0o8wYf76n74XgsCBLbXfx5EdXuO3dVFbBnLLuNrXda4Mb+tTJNb+7ztl8ONhZ1rIoBtSeiqCfXrU+y63bf++nMMzuTqgCtQDDILgTOoObnbjGsA2mobBTfX9V/K0X9ExIb3jdySno1+AYdlPL+MdHVsXDx4dgW8SQGwlXwMFBzvQCxZu3yDynVfsy3O8y+ED7BKSiX0S2ieyMnY2HXegfYRedGGfWyiesKhSakC5WAtMbb/fhecAwkB4ouoDULamABtG7aX4HbOAoRvjNP63OO0H0hSTEzF3hW7Lm97lPh6b9K4vYinseu+GoPvst7P33BtXyNSjhnEoDi3fy+ypPzKPa1u1EbGwSVO9MVj6stIvQ3bK0DEVWccjjcnfBdRG7fGusWhQlLheUoWPCZjviJ3+b8zscZa4/kH7M4SHJ17Iv2CvA65AgZHAupruvtEOBex+foS1NqH5AhsRGJlLUB2lEmgQHcbc9I15bYANetoMDFzolwDtGSw63mbtx1rgW8SYJF4EhRA5sC4lr16/RcloPX1I8JpPQ5W4+jCgEnJ2Cl+AXqJhbE7cCCp1eFt2LatZ0AmgPpsu+D2PaBtQjA5b1nmz//8z98+yd1ABBPYrqSw8iQK+/ciL9dJPRdx1a7GrbNc13H5wuMz7hxHxm3LOD4csx/Vhf/r7/6NT59my+CTMVqsLh5Y/Z3JdRPCBAg+oI6L3Du+/d0Ewba5BMx+bczTVx8H9/UNHOm4c1nj7KrPsWPfODYbL+/6sFfxPGVTnwJYya/EYtAyEJzojMftuA47EYA08CwSXAvRE7Qu09+ur86xQVfX0+vXefDsIiY7s9mCicSitHoQU8r4Wi/DXGRiu10+QMActACphAGQrozOZS8s+DwzYco1GbmC/gqW+oS/HbBr48ILOGvWbEywCWHk4v8mQLsHxGc6rhuzq8fPAbn/fhD1Ig/sw3iY6bgO2izhgDHGbVG0uKwuC0zL1Z/u05PAN+bdF2OPti+f0o+nuDU5Fu/Yi3YhX3OKY6cYsE2o6wnrlKUOL8kjIizBWTSMdc90LqG1Pe0fuKxxg385/qmZsbHXcVZs+pxWhQk72LflwPqbNt5ibjMglnkApyu0Eexsg8KDNgCsgj5+gfTpugKOIGv7foHiNS2EdJoRNehsMK/t7vi17ZJdcCW1As2ZQh13EQHBbxtiN0TpCkwAaSA4yHqtA7UBcWUxLXO1U984u1353uRuUDWramBUdExcDpILrw7YktT+vj5It2v4HtBeRtrdYe7v3pDAg6i2TXfB2bYWBS/TGLMQnGPHyQH3Jnx/1L66CBpScwwYP+4/tqr9bG/3zRgoqZb03Y8ngXojLH2cjnptfxMcMeSVB9vnEjPuG1G34wUcw5dLSPdFVOrfcT8XWB+XD7vcefnOPmRsTuYcG2vfM7v64xIn29t+YIzU/0W5oX56avOtn3sVjx3RDhk8ONqDLOHtby/n+HoMcpHxBdKPQPckhhgRUrvIzYHt8SKCBJ4zhB3zEhzj5k0IJQbqIpOtHSxCLuMZD2Phe0T725m3yQqb+ibpZfsLUC5X0iuRGIjFA2XdhhOLEhrjM0HYLiXNip3xgbB5B5NJs217hrRyjGUvE+VzDLbLH//xH7+2YTP7NDacLOweEktwtlVfxVNiuUi0S62IkJMoY6B11v/YoP7x+EsY5gaP2b62nS2mF+avYxX0+qr4cH9L6k4+ETp/9LJ8xv1pxmmRKRf67/VpCekey6B/w8b3vve9z/ZJ7vKZ+QHuusSF+GWM9W+5s/6Cl/CJY4jfFV6XMX/Xto5N8/4V9z12lXnZwbvgIIuP1M6GNDkZ3CZDCwWDw6idNTwJ4Y6X7OoICGV1ErgAo8DBadTRumx499+v4oEMEKDVgXgQhM1GDADfF6M//GuCcNDTr/4LWHfcYlafUP8FwI8AUzD7b5MP/WgfyKbs75IZZFEC8VivhMT+sXjWJhALgeNM14Rw3QNaXZ4BOanZb78aiXtA13NAf/EXf/G6BwR2LpLCZ9jDfz8JEngBg1eM0pZ9QBv1b4nXcf5EYtRFXyhnfxYrtrux6fabFJoEr35jAziD/tieFnCfN2Zct6/FfsNPP8fANuwlGxdu8TvjdrzbrrbL6oRPSD6v6+ljObX+sA/Mc77O15jLapNLoFp/E7Ve8/Y9oF0IURRMDjiL0wXMq5O+3kRnMNVwrtsgdIZ1EWnXLR1kFhwC230wYTcI9/dHTz5XVC0i9L+EU0cDQgPtIhNnPdRtMNdHJWmD3WXdnwb3RyTUsdovzijrb9ujvjRw7StjoVgzbnc999GuciYV2/iHf/iHP/vN3/zNF7mY/P05BoiK+0H2AUtwvIyUtnkVD88BOQ6Mu9pyfmUX5s55NrBzJD30ibE40IuhkqNJpna3nRwTF6ZoxwmdbWg/0qZnP4152rB9rgTFY63w0Cd/wdY4vDDfY122ww97XdMeRHVyzNvxK6iITwWv9/rgYMoXJ/h7bTohMfY/4pnyWgWDdi+RbhyZh8wp9rkTgtVtfL/8u3tAzt5L9gbaJR6utCRC8JAlumMWHEDoLJXBdUkF5xuUNqIDtMLHOH28u798zs5au2zDNuC868Wf0C6ISyztMy+V7I5BSIa+7N9PzXJMMAbS2vQGhGanFqOPSL8zqbYHJmpbz1BqD3D3kSgZP7QJZjaubYGeKICBy5fgGQL0OFd+S3C/9Vu/9fK1fTgB+sd//MfPuAe0c9cs9tqGvbLdhk0/TNYmHdrG1hATQgMGbHuTGz7gX5MHYy8hUJdtwu/LlqvzIloLiYmxggKmGVs3WZhPuBaceNwWlC7/+zr6Ambov2PL47XNStQrt3tA1xdR52vHWQXBfcIHxoETBsbpJMF2g9OaeFS4yt3uE3HptmoTylzYsG382/zpxOYdPhAgAqqE5QYvJ1BZyb4dRkhwjIOgGdPleJTfy2oOONdX4rNzyIzteIBJcBsA7guAYyzs+wdwJo0L1E+g8H0bxrlMmt8litXttyA7KzLhdDwOWpN5l3Ys1ASpcVFMVLgMvAoZsxKTu8Wn5QtiJ0smcdfn/lOf27Dvm1F3EwL18kXUbYtfnSRVDaz5jeeA3Pe//du/fW3D3gzISQV1VXB8r8m4MeGQUHjsFRowUKEyCdh/YJ+YcCzVZ0/E0+PFvUUE/zgJNXeYKJ342W7UZ1/zgljXZQx3zJyzPx3D5hpi4noziu8J0x9E2i+tXR3XbtZd43hElLlXhX8s/BUQ+4lzTRptK/xlHvTsxoL5Tjw+fzNN8ce1CH37R3uv892E4MouIvnoWIGHKOy4iafgp06D38cMBAOSzGkD8c1ED/gSNxOz63ObPk75foCKNd9tw8ahiMns6NnbBXiOsc5r+7HsYjE0cRZYDhx82DYvIqg9ASHgMXHZb0/kY3yYDKmX8/ULQVdxA/z1h4PChNYEBWzsXydJJS365U0IxgMzoH2QjuPgz39PgPZJbr+MdG0hQLveSYKDHmLD5/S98cH1tbWx4t+2qa/FBiWzJpPGU+1+xUwJizKeMTrWPd5i1n2/eIDyXvlwOSceiKmxRl+Ne7jK9oVfzGlOSPGdt2ETo44Dx5PPe9y19/42p/k319Vn2A1/2++NA8cP9dWvnoFdyah1w3UY303WXrbfJoQZt6+n/yJK50G5w3aSSdMk1EzOhGYAM9iCygaGLBEKjMGAL0c346FNX4NwUt/upOVWOAAAIABJREFUC2zbJZnM7LYlOL8Lzv2CoEoM2AHb1Ln0xZmQx9AluIqU7eAMEHG0rZ2lVFQIKgdpheAam8cHMZhc6V/rMogd/CUJ/01wMg78t3aXYUI6toNJzcG03yzB+YN0K48ArU5mnyaTtbPlv10/AfqDP/iD1/AYEw+iImAmBmKBca2vEB7/ennX900QjycCq01Xfsd8f8y+KZE5ltc/7EU9jnu35bE7Hn3Pg35cy8JNXsCKE5dyBmWwCR8NdBLi/pqPKnT4oljl+vX5WpLfYxlLNnx/0IRM/x3D2Me+NG7xDzixrz0e4rsC88TlFR7HiPsMBsr3FpdLZOvDa5yve0CXijIIEyq/LRAMAsAxCAiAeqx+JRR3tAAzQZjsrnoJqi4bmJARFQugx0VZkyhObsbjJTj6ZiMb1HVQsyNIhyBvxuLpuoF6kbGJnf64PhNnA+8SLwOf+twu9ikZmlCNGWxRYHPcCYXtaqzZThepgA8nVlxjgi+xPX2Se9uweRDVz5w1q54A7Tmg3/u933unr9uE8K1vfeuzCZAFxwmPM1vGhN/wSz9AZyEz0fi47UYZYwCCI37WJ8TbQlLCNxZIBCjj/lNHOcV+sx9MhG6zdbuNxtolVGCw3FSitH/cpse7Pl4PopKQFvvY2HheO26rcb32fF/Mgmm7UIak4B3wPv/Ds88KmG+LOE6xL+1eyYl9cHG8+cfxvb6+/PzlL3/5tQnBilfAPilujxcQXhZz1gjB2KAVgYLbxEj/Vo/vx3iZz1NyHEQbV/u0Z3IhqHCKAUffr+eAaMeA6Fgd2DvX2Umn/AaZCZx+G3TURxsGvYPe166vXjc3UdVuJUXOl9QcJBX8KwHoDeT2u4QFyTSQnV1SxsG0erGvz88GP/RDP/TahLDZrvG9bdh///d//8ps/VyJxXJ18jJSBAjb+HtADeTGjWcX/W0RhdRMvpAY47pmSMan23b8mBiJNycxJm3jrPjytcZtE8jrOuKu9vFxxMoYoE0nOCVKYxablnAt6BZI6n/ahr3ngBwzrgcbeiZIP91ffOtj+Gf3IYlVk/7TrNT+Me84BmnPtqMscblz/l0bUt74hocRHPP4Cw9bgrP4GNQeHOCxI016zuhNPC7j+gjctm3FtCj592UEByYAxXlWf5MWYLBYOXARDfoK4JjaswS37wHZ6CYuO7Ri4XIsqxiY2BoSMSgZowFlANIW1zbAHRQlJCcgFRuDDPs8JSINKNrx8k+z3ct27WuFyIHAQ7vOgI21YsMBsXNsQvA27JXhe0B7joctvfOVCXDl+CCdZ0Ab0/U9oF0L9rAJgXotszoGSI6wsePySgQuEjS+wJ8x73sltpOFiD6VrClj2zu2IT/7qePz3+WfEink6GXrio65yHxRvmrS8hQrPJjuWXYT0otb8ZnH3jgun9IHx2Pjz3FgrgEr5oz63s+yXW342it5tK0p63qupOBld7+Kh6zQJFCneWAmRpx4AcUCgNHsdDpsMF8k6GyzBFxnuh+MZ2W6POfxuA6LHHXxICr92Ph59YYDzjYzAEuu1ItwOLB3zssgANRBjCDZ9vUd5Q3WArVkbVL1LK4+7jhtyxKes+sGv+2AbUtsxQOCfwkKZMmYvZ4OUa2Mj9OuP8ltWyNAW0KDrLnv4x2LW8JjCc4E6u8B0ZaXPopDfOB1fcQJAnjy9RNZmRic6GD/a+aI3Uukn2rb/sMPtG+RqB8dA7TRmTFk53E6JsFXSdE4Bwe05/GsHP8bX7b/2vbb8SH57oLzyoWx7bhqH8AC/e0SGec743E9TiTKE1fSsGub/OJ72mfpsoIMNxF3TiqtEbTrichLgExIzuQvR5uELnEy8dtAOILgqegYLAy8IHYZt0PdZCJuw8ZgbB4jxqM/O8cN34KvX0BcP//t3/7tddMRorAtHSAEhUmt2zANGpxOeYvRNX2nrYKSbMsgAZAlwsu+vr4i6EwIfxDI9aHtQjv718ujxoj9YsC7HZN27YvAEAAWsPWb7dQs4WL7CchexdMHUa/PMYCt1c3S7WZQ24b9u7/7u2/hsbqv54AcP/YPNqfvBD427MyyieBTYmDcg5Md6/JvhduE0fi3vx2TT8mIx2lRu9owR4BZ/HzVg1BRl+1XjrPwXTGyuoxvxwozVz8HVAEqB1ngnNxa4C9bri1zi0ncMYI4NjFoTBcb5V18f8Uoddsu+Kg8WlFFTF3/CyNbgitpulMmcBTuArgBZ6DPeM4QAamzkQpdiZu/nUGYRA2giouBSpsOFLft3wCKY7t2gPvqV7/6tty2dnny+Sl7xBHuh4nEDrQTaX9t+LPiFgECrGO2z9y+7fpEELSLrS6x5lrGUfExSRFg+AjRcRmTgftr27gtcNCyFh38xhJXZ+GInUlw109AeBec48BvQmAMSwqGbeNmvmIbtv3pXXAVaexpv3WnHXU1HmsDE5CTkctWbnc2rRgR75QzZjwGkxUYs0h6edFx77imf0+zHcchsW8eujDEmBCtbuDw/QmPoSSMHUrm8AE4ZUl+vsaWHq8TheKOOOkSIn1G9Ezsxl2TkPLOJTTmQQTMduQa6macxpjj0v4ol/G37fHCk2dAl9FcaYUCoxmMFilnWRY5EwvLfh6cndPjBfvKAiSDFAf4etoqoOhbx0c5xMVfQFxZdsHtpmMzqkscAHZtCqnYXgSZbYxdKjDN+J7sbqGgf67f43dfL7tWZBiTAVm7lshMaA6Q9qNtlYxcDz6r/RmP1+stZIiXP8nt/rIN259juPrBq3i6C84zIDCJHy0uZJcWbK/P287gEh+WmK8YwJa+v1Pc+ToTR4+7L8VkyaizCRPklYwWR8YEfqkgIDjFtutyW/jfti7ZOmbACDbxkjy25zmg/c2qBdi7BPyKG46tvHGMn5784ISDPloInjiY69xuY5AxPHFlNcA8bcHy/d+XPfYgKg0DEguExaCqbedwrpmIgegy14B8zAP1zMVOJCsAGHO4d3KZmD17og6OMQ6yAEiqWTJLcFy389v3PwECFJ1e4wgC9MrUVo/bpK6VZUyI5zUdN9gsXPYjxx2M9o376QC3z+l7EwS374BZndiwxIlP6eMVVBBrycd4cIC5DX57g0l9sDLUhU83A9q74JbdWoB4GemW7tyO/cmM6Otf//prCc62Zhv297///VfC5KfiwZ0J4okU7RuuA7/42HiuEJhk+ttEgW16zG35+idRsDjSP2xGXYybMZtXHKMdS7G8v68M/moHXHg8xbUTBY+DRP26B8Q94RKtr7f4Ni46Ricp8J1nSZQ3hlrHR8Ln2L18DQ6o33H7RbDl8dkGbwnLBKggsXo5I/hIgEoS1ElDDuaLdJyZGDAG45UFATivk3c2YqOV1Cx0/V1HM+X2ss4ynr/8y7/8gU9QNNswOeD02vNysh+mfKqjdnkK1ALM4KaOii4AvNq48GCwux9PRPYkZk1AbM8nAqvglnhMmBVAzvWT3BxnE8JmQPYDSRv/sguOL6Jij82A/uzP/uz1Kh7bkqTryT7OeruRY9fYh46VYqy+MHm77UsEKi62Y7HmOHa9l1hc5G/Cwp++9qPfFiAndeYz7O1kqokofSgnYQeO+3tA+GJ8sIS0iSh+4jiJ5JVMWRQszsRil+mMEWPL4lQeNa8bz9iHdrEN5e1v25U+X7zX2H03y+znGCwOBU3VzH97gM40DVbX59kJhvUgGqRXhrUyBOWTkEAM1L2/7XTaMXH6mMXZD6ICuGU8BhxBsPZ8c9fBSAZkgJuI7DAIwf9SF/+akH3OvrRtDcxLBC+CL1lc4lMyqs+ajBjsH2Gr46Av13H71lkuQWbiMe6w+QRo94D2pmOP2c8B0Qa74IwpL8EZk9uqv3fBbRfdNdanRA+y4V4qS4Cr2/cd3ZZjDqx5LPyuPyAy19XEkXj6KHFozPvvK9aN47fM+PMPzxVTtl3HfOHdGxPAW23hpJQ6LMSNXcr0QdSVIyG1qM1P1Af+llg2Php3Xu1oXONXuKoC0YTGODAnNq6Jk/Ki+dE+sc2LCffR3P8OU/skNyB3I23QgevK+tsDuETE5OGOXIZoWcBbkYRcXQfAA3QGwBWs7msdtH6uvqd3wS27BQCUdTA326iTTQTYpFNq28pBaqA5wByoV/ZSUrAYXECyfT4lPj5Pv7Gp8UIfbO9PkYqvKWbABWNBGCCYa3ZXv/NJ7u2Cc/27B7QP0k0AuMZjAl+8DXv3gDzWPgdUe5bkSjgswe648XJhwXUTGxchYcuS7cbVpV7bHWIxgZYQEWmwZ1s1XrFTy1RsLmEriTchbbJZIjbewA/x6Q0RYMrteQlu18xm3oZdsQZP+LB9v8SEsleyajvaz+C9ccjYm4RZdOGtbgap6FC3RZM+IL62dcfOeL40ATJ5VvkMgifguHM4b41zX4P6m5FehipB2SnOKjrIGsLAK0lTpwHXYGKsAG99d8bDOLcNGwFy3wlqH2uQGjRXOfrkwOtYLuK6SN6+M7lht7ZfwnkSoLZlkHt8tGM/4f+2vb/rz+LSPrSvjEXj5SMMOJg2A/qN3/iN1zZsC9BexbPPMewekIXMSyprDwFiCY7+8D2gPch6EZEJpjihf0+JiutzvHrMTYJMDpcfnEA1Xkosbt9ln8rRR8fIE8FRd2PVeDZZGmfE6K7tPZmdM0e8EaI++W0CtwBxbb8PtvGwBHf55PJBOdX86biwUK6MN6A8cYz5w1iwrSskJL7Yw8lhBfPip9rVHOB4eotZ3gVX4LiTBcdlNMoYdF0HtQDReTu5QO6AASFt+AYzAy8BNiCp4xov9fm+i8sxA/KGgQnQtl1eQWgiMYk4Oyyx+pouy9i2gK72a9DXzgC8YLCPyYAtOu7nBSTb2XU9ZegOqEuAKmyIUrHnwIJkSiy2kTEF8brvFiCPf0twfA8IG29saxNyQoD2Se59EdV98ye567tLcOy3i2Bsh6dYNeY67sarY8kCewk/4zUO6i/6h/8p2/oanxeBFW8X9jtDIM5p3zHn5KbiWn6wDz2W9Yldsa6bXXCOIePFdrjiuX41ySPYnjA0vov16+8nMbdfG8/mImxW39pP16SG8+aEt11wDrYC+umcneMyHTT1Odt2AHSwl/B42ui2LjA1MLzEYBFrORu2Gfv+3jNAP/ETP/EinAXssuH//M///Oxf//Vf30xWwjWAANeuJ4PpuOgr4LSNKy6uz0DkmoqTAQz5FuCMzfcXbKf6/IncnUlVvEwW1O16Szj83VmChQYxgMAIpivYjAFjaT71NmzHgXfB2Teua9dvBjQB4nMM1OEZkAMd//vGcn0JXkx0tluJ0eTv2LIfjBELscWQMs6CL9/ZTq7XwlxOuUTFZS7O8TH716Jl23UZyQmxryk/GFceD8kGsfGzP/uzn/34j//420PIKzs+WFK6336Wq3FcvrxIfde4b8adN13h74rRJWaN5cZm+eri6QpJORjxufwJlt+E35sQdvAirydjmQD5TWdKpKsDIF+iYdGpES4Coy4TgI8VRG8D3jco8iGlLg36PJnMyvzoj/7oZ/tkM+DdGLet9r//+79fx54A4z42M6DPkAhE6nIFQcn66e8KUIPgScBsq7ZtjJjcLoJpYBuYJZOrHffD+Gi/SzQWnfarZGuc7LrNgPgkt0meD9Lti6gWb78XbuW3jXsC9NFzQK73ibwbvJAeNuGe0GzamDVBNGG4ztWnxv8TYT2RyxMZllvgA2LGM7Big2vNA0/4wfee+UDc/eSM45LfbsvJwergesr82I/92Gc/8iM/8rZcvDJbYv2v//qvNy64+LQ+oX/YDjyTxJX/dnx9uT5ohz1rK7dRfzu2rgT6iqHLThU8X2fONy+93oRQlW1QdDBPQHjqQEFR4rpU1wBzEHAcYTCBWOAshAVrSWfnLZh1uAXnCkica0DXFk9TWGxhAaJ/JgJnP/VPhcZkbrBjM9sDAoMQ6Kcz3QL2EhsD0kFXW9dWT2R8idvqwle2jTec1D/gwDb1s0nFcnfBUR/3gCxAnKOO1bvPMXzta1979yqelfM27P3NcuGnAp7YuETGvvN5+9LEU9sYN/a723zyvf2NT1y/MWhf1n+tx1yA0LsPFy+UP+xTi4Z5jvikLLHr/uAjZqfux1Oyy3HHnZME492+t3DDN93lSHnG64TO7TnGnrigcVe7Xxx4xX1joGLKWC5teMXz7gEVOCW+Ov2jjlTdXfe1VEDHLlFwpwGIy79T0tw8NBA8wymxFtz87XLOEAgKshMrO2NlnAC3ZbDfRwArAXun4gVAB5QB+JEAtZ6KiIPT9XzK/yYwROO6nvZ8g7iCYB/Xd+6HycpBZ9zUPxcW+B4QD6Jyjd+EYAxga3zMB+n6Nmw+x7AMuQJRsnYyAmH3MyG75tqm61j9lM+MEydIzMJ7fX1T+2MXH6f/Ptd6Hfu1Rf1nwjNpNo6djK7cMHbd27KQmCyv+DcWTbRemqM+xuG/a+PLXlfsWgAt9vTnIv36wGVqw/3tBMQ87f6A8Y9wdcWv+a+i+yZAJbxPgbcKabJqVmdBeyK1j4ShAum/TWIsS/i8QWqSsvMLXq7huKfzBCcCxFqsM2yceQVI67aDLUg+vn58tORiX+A3sr3a3n69Mqqukzf5cBA+YcDjxhcc27/tmzHxKRyakDw22vGMx311MoPgGQ/U2yU4+s09oM2ASlrzDW82uN4Ft7Y3A/qLv/iL1xKNbcJ4S06QAoSzNve/7yv0vtFFLLVBs+b6sP5t/BTTtis2NDFSv0nNx3Z9l98cj0+xT5kKLn3weTDxEV4tgggKMVgbGj/4B4HjnPvlOMPfXVJ9ijPixXxl+xY/+OOj8uVqi1UTgOucY9S2adxjv3Kjx/oDAoTDn2YrJQh3+ElcXObKdioYDtCn8u7H2jXx+JwDu30nO3cQUY+vs2hANhYlZ6KQU+1XkTMQTc4WiD63UkH8iMgum7pug8OB9uTDp0B/AqyFwmSKmNr2BPE7YOp+ZH1d/xojbdeCyvidkXGe/vhVPOBidf7RH/3R2zbsHSchgHjo+x5E3duw2YaNz9iEsDchONkyYYADlmzA9dpy4kOd9uflB+xq/DYRqF9LLhCZEwewdYnLJfoWA5+/lqBM4O63iRAfVwwrntjWPjbxO6P3fcTygm1g7DgePcOyTd1eOaH+u2Ye5WOP2eW7aejyQ8UEfDxx/hO+bH9jAR4x15mHmgC8znEPyAUvkXHmdHWgAdBOFLQOhJLeR0RkNTWhuA6CFaKgv+437Rds1PN0n8BBYYM6qwcYEEmnrg16HEcdjItx+PxF1gWWfWWCs08oY/IuyV0+vUBUgTBwV78z9ZJnBaNE47qKC8ravn3zerNf4xB77xhZ73ax7YuoW4KrAP3zP//z600GkPHacpm1tRnQBOj6JLffhGAflYiLG/42UdiuJiVs0qzbdq9wYGPH01MCagxdcWriA7fX6gBjaXnPLo0Ni1j5aXVcMw+uuQSFusGAhYXZZu3yRKYlatfl8XXWYx+ZvC/u5Pz6YN9bBBuvFy6MV9f5UZvl1iZQ5QTj4uKGd4kDD6KaWKueJbgay4NygxfxVGyuDlooCjyLyRy4//1iR9dPv3Ca2/J4AagJ6VL/ihJAuALCNoOw7Cja3DF2s1i4noKbui5x6DGLj8nawCfgOwbbznh4AluJhOubGRp8FlyTRfF34dG4cMDz6YoG38p7qYc6nR2vz7wJoQK0TQh7E4J3Hhkj1M02bN6EgF39Qbpig74hSn5NC+NwzPWY/W7/mGBKPJcoXJiv76/YLz8UO435y9dPHOI4cMxWtL0RpXixkLWdd2T4OUac0OCT1eGk7ZoJOZbgCvf/KSGt/SwqtFsBcl+czJRr7IsLdz1vDPC7Seo19pZ1PRb7H+DzL3/5y//XZQouoGFnQx8pJaTqAKkatmMGdLOQGYf2LkLBOQ0mdr5UgEq2NixlLQwGcr9OSr9838nlC4qdI7PiHGPy9Jn6ABKZHX03iNfnj2Y7Hn+Fg/ouf1xCfQH5Igf7Hv9ZaD5aYqEvtqNJxwFkEqN+E02JpWOyIBsHvQdEOT5It3s4DUhmT8wgtwtuD6JaGNgFxyaE2s62InEz+TWrbox5lkRZjrUtZ7CXv67Ekf5dmCqBGpMVG/riZM/YxIaOR4uG+cfEZp9wnLE58bBwGVvmPPexGxc8Y9o5ZsG8tZ4PHRKb3mBTu1dEmzDYRvYJdZv3nBhx/uJqx33F0eP2fS42wBiPxkP9/YRV94d+vNsF1wyoFTmICwR3zmrYzlk0MLjXXyFqyhmcNrgJ5BK5Gp8ygLFk5vY6NotMyQ6h2L+u28HPOBlbbeVsxjeZG2CAkDZ3/gK1wWEwXoJOn0ws9ouJzQRf0rnEwTZdPy3itAHGPFbb+BKgjtmJjwXbeGYmtn6WrEgMdm672PYqnr1mxcS3GdCW4P7nf/7n7SWSIx/GtDrmn12/T3LzOQbsMgH61re+9e5t2OBs/fRnRDZ+J330A1tA0vjGYmvR8/idwDwllrRpIjSZN4G7fA7G8L3jdL9JtvCZhebCmvvKNbYN/cOW5hd+VwQq3k8c0zF0LLbNcLDZL4K1Pl4bDSokroN7yZ4QMH7O2b+OndZrHzqxs53KkXCB+aX8bQ0o7sqh5RTw43/ffREVsnoSmjZuY5RsCJIGDYOr6Jjc6vjeKC6hm0QLWIPGxnRWBAArPA4wSIJMY9dfD4IRgFd2U+FxIGB7A4mZ3LIqsmwLngWFMTTrfcqyTH61kQOy4u5zFToD3SJxCZ+Jw5meQU19BBp+doa/umcbH+tS29pCgFwnpO/x8yaEvQ3bY58Afec73/mMXXBg1Fnw+jBR+rmf+7nPvvnNb777nhBLcDxH1LHhfwd/ycYE7WTGMWZbmwBsHxIX7F5yMyk++bgc4bYcR+YBrqFdE97OIeIVPWOOsSJGO+dZisWmcW3MFcdOto2HlgNHjHF/Lz5JsJzMdGNA48oJQmMHHJSDXEdj+7rH9HQ9yYBFrPWBSSdsFX/67X65vMeFj42Dd6/iccDh6KqkSbTk5GsMMurgXxQQQHgGYALiuJc4GhAF61W3jcz17stF5AQUZAbQu+SGGNJHL6FxjYHmjKbtFkAGIdches0+TOImg4+IwQHq6/kN2AzMBqSJqOJbYbEfLL4XGUDwnyIDSBniQRBMKCUwZ99NlHwPyNifAP3Lv/zLS4AY196MzaYHkoX9uyU4NiEwTm/D3jGTk8XadjFBgzNImnIkLNThPl8kBh6MW4imvqyP6LfJ3wRH277O5ytaTch8H6ci5bqJyZUxNm1H4tHxBjdUCC1M2GfHGGdjC3ttnBa8lePNGCZm240xe+z0i2PmOPiElZHG9mVf+xjsEyflDeLM5SrGTnawFTbw36674mpbvquPT3IXuB0YDXWqV0GwU2jIalsy8Foj5+hsRbBCRdvOOixaJlLG4w0LbscGQ6mZ5Vislu1sqo2TAQ99JSAc/BbqEqvLQwq8ZoOsygFi4qLPthNAszCXSEza1AERX+cuQH+KWOxnSNMkyfVkrxVD/32JHMdM0pAOwUEgNYB23q9lcV+3DXvfA2ITAhhjCY7neFbn6pggDQ+MkQ/SbQnO/d4La/dBupUHT8w8TJwlHxMoeARzHp+xAH5L8NTdxALc0S/a8SqF+QEMV8ixs8uaMM0h9N1joX8W24qZce1xevnb47BAmY9MuB9hzT6kX7TrT26b9yyW4KLJGP4yf+BrbLZ6nJQSm9jJvLJzFzdfouD+lbc6XscunGbRqT/sQ4/DHILvX9fyNmyDuQ0UBAaVyc/Ac7bBcQe6Mxy3V0Hr366rgQgw6BPiZpKnLS9prfyc59d2VGCs4KuP9d4rqH2/4cpqDH47DMCZMBkj/SbrM7m4PsZ6kZpF1ssWgM7ByjGDxQFYvxjoJR3boJkQ4yoG3NeSnwnjytY4zw1iB65J1eJH+xOgbcPe5xgc4CzB8UVUkoS+oYDPMfA2bOqYAH30QTonAiQD/RquCc8iYr+VXOqXiyCuRMbkUUEAGyb0J45w0mESNiGZUD/qL2Oz8JlTfL6JSTFY4m2d5jVzlY/TxvxCEsxmhGHLvAMXgVf6Q5m3bOXzpUifv8jb19n2+NIxs+vNC7aFuWbXmFeKq9VjQXQcgpFLkGjfAvvmc2/Dblb4NLAqmwFpBSWQmEYS8CZVtwEIDEIMUsHA4VVlHAwoKqYVKQsNAmByhbBWX5/7wHkeXwFFVtJAsbNNCmQyG4dnh2QiONN2W11XNmzgVvRMDBaj1ctWZgeFydjApJ6KPH5xklAhuUhrbWJzB5PtZVHEdj4G7pys4CPqoe4umfzQD/3Q28tIjUO2YW8GDIaMHQJwff/lX/7lt11wTwJknIBRSMvJg/HtRKFxZv/Y75e4mCxcDziwf01QLmtRsh0uzFkM+G2hNDZNavafOQZ7VXCMBROpcWzfPWGKeIIPSpyMkbq87G672I7X8jply6edCa0cs2XGDt7LLySoFYILb47ZYuLCiO1oIbY9dtxJnmMILL7zwR5EhdSqaAa1K3KDBSXBX4KkrhnOu6HIThEfEzWAKuBMTCVJSPuJMKvqdVQN5vVmL01ArPTFmY2dV5s6GA0W2kU4HdQECgHR+k3sBbVt+ASyjrk2wcYWuUuc7JcC1MmICdYkU8wYWx4jWOn9D8+G7H/GY3tT1knP2kOA/C64Hed7QFuCAxOQwmY9PLvDEpy3Ye96v4y0bSIy9fnqh9wa5FcM2L/87rHVY4Ig9hvfkESJ/CmuXc4ibyzV71xTUbp8V+w6rsB4hQYbeWm2wrc+ePZjzDmpYUxewqcsdSw58cYWNidUYOw7+K9cB7Z8LeQOjjvuS4xM+o1z7G7fUaaCxVif6rPPrvE6zp1Mf4nngACiB2USKeDdETueQbnD7pyJGpCXaAySkt81EOr3OjCEV6J0ABl4zjpwCCLj4Cd4GcdAxo0WuZPbAAAgAElEQVTo2gEblRg57n9tT244WngBBCArcAuuZrFNJmyHXsu4sXUzwMs/Fgj8StbnpMBiahKxzQv29h27OAnY74vYKQuubfOVNznt3J4D2hLcr/zKr7wtwe34BGjbsPcqHfpjnzH+CdDXv/71t7dhUwYB2psUjKddh329q9JxYoJgzCaIS2SueDYx4Icn0m7Z8oLbLPmU0NwG9ga/LFc7RmjLNnAstG/lhJJn49Dl6dv6gR/cf9d1iQTXWRRoj2vrK9p3cosNHbfET20FZjwrKi7sn6fxmN8YG/wCj1csnUQ0Tp8SQMbkut5in00IdLgNuCOAoGThwVpMyAx2jOm9BcXn3TkLn+sDePTJBMmxGpXrEaSrbojL4zOhotjUbRttXF6aW/1dynC/TYTui20I8Ax4QGiAPgV6/YGdfc+jIov9SkgQ2c4TMPUVfzezph9dSiwQ/Xf9Td8rcCYpbIOgGFcWOQKWQHECQt+ZAW0btoWCl5FyDwjipH7qHBa2BLddcPh39XAPyJsYnDhBYBZV7Hf5BL9YSGqjSyAdD9jQNm5se3nW9rCwl4gq0O6XxcrtXnU7EfJ4Hfdc5yTJ54ufrpBcuDYusKF9WR5aea9c0IbJvL7Efo5VfElbjgvqd3kLNH0qJ1zJkvFkPrEI7vj1BnZzb+3w0Rjxw8rAxS/8/eRP/uT/7eACp8SH0+mwFdtEatLA+XTUZEA5E+EFoBKaO4/RHQC0xY3hnSPT2gwFh3KPyxlJMyureIkRYLnPTLM97p23aO0c5GdwVYC4xsS96/p6GZxou19k02OQnEmAAHSgXYJyBYX7bzCW9O0zr5c7OC5/Uqf7698XBt0WAVTSs91KNhOgzYD6HNCf/MmfvF5G6jcZbPzcdMZni6PNgD7aho1g0g8TSfHBGB07tVvvL5hITDZPJGo7QoJPosHx+sECQn2uw+NyAtdkoZjFPyVebOj4Jc464961m5maIItdxg05uo+eGTkJbWZvXCEEO8Z9xiUvT77ZcXBAPxE24h1bULc5tvFn7io3+Rx2cBJnW5crjMdygrFWTTCH0+83AaKwT+BEk7WdUnJ2p69OGtgGZom6Hf8oEDA6xsPRDQATun+7TwXP+lXg0ZfOQgCtsw8HJIHRQHcQcK3JhP5ZHAAq5XrOAWy/EqgmvwuIYMBkVQK/yKfjvf6+BGXH3mVEn78Fm/52PD5u+znIdnz45U0FJqkrQ3TwswS3XXD+b98D+va3v/166JD68St/T4z4HhBvw8bnmwHxOQb7zGOwP3wPoHFXQsGGV0wyduOl9ZVwGhdOyi4f2kfGhvtp4qV97EcfGx/Fmct9JHhc11kR47Lge9nevPFRW46RzkKapNJP8xz2LrY5vmvqI2YkK0MSZxH2cpztaE5v4oOd3B98ZtsjuhyrXyy2FlGXNzbNl683IQBgjGWn2Nj+bZFhqlnSMQAczAW4Qd1B2knNSiwEBLKzH5ZVnkiZjKL9bJu9ucdYPDMBYE8iRP8KWC9NXoEM4Dx7w15P47KzPSNw5uTEwuUNWPp8tWdfGAuul0ByP53x1iYOCBOAA3PHvaTncgCbMZg4wZzH5B1wtM274FiCY2wWoItksBFfRO0SnF9G6jhqvxBDdts5iXAMYVP+NQmUIErWFpzWSfvOiF039msbtuslDuUOl69oXRi5hA/fG78m73LOu4zi8/dMlmiNZXjRuARTTk4hbROrZ9/rX/1j/1mcbd8mS0401r43OZhTr+suHrU9dg12dwwzNspWoOhvffDEZa7vxb9sw2ZwZP4G4OX8i/yuTrrDJreLqAuGDgIjN4OB/NmB4iCi76g4ADNxIUQlAwe3iQ+QU0eJ/SkAXR67GIgVggIOZzeTsd33m2z3ImDsAAnxd8uaIJ4AaTA5SOnPVfc1Rq41oTgom8malJ1Nm7gskFffvPnAmECArk0IexXPllGMJcZDssNzQP4cw9q/ngOyPyviJD0mOgu2ZzSNxZJCRcY+uPBAHDh2KoSfErli0tdfhF4Rch9Levi5fnVMt31zj5My27SCVaEuPh0X/EaEKnZOYl2vx+mEetd7M5Jj3v6tryl32fOyqbFD+xbBj7gfm1r8zH2cLz7tz9eDqA52G/lySMFsp5u06AiBCUlfmbONZSM5KOtQ2vIsxzOanTch2UgIVIMKYHocFghIqxsqChyEg/Yv0nVbAJLxYqvrBrDJ4Qpyxk1d7j/CSf8MrhKKr6uP65f67MKIbVGMuX4LcwPG460/34E66+lP/fXOJ+r2q3jc/p4D2j0gluAILnyPP7sJgbaZAXkTgsdDWxCIs+kKXrFjm/Eb39Y3T+RXsi3xOG4bHxYCt28MMgafb5LQa0uE5aOOleTZhHeJTXfe0f+SNv0Hn+awtXFt6oFbHNMWD/jKgmT+dd8d6/ajNzzYT26ntqntzH2endnmtOnktFx1Ybjc47+Jm7frJkC9wMFcIF5qVnFwwJcwKzYFmcFtYNig7l8B1uXDEqtJmLHR/ytrdnB5XB9NV0uiVx9ou2vzdjpAc2Zi8bB9uK4bSS4xdf8qkleCYLBSn0Hp87aRSe0KcmffV/B/NPNiDCQdTgogjLV/7dxzfz272vEJEK/icdCzC46lMS87u++bAe1dcN/4xjfehQXvgvMH7Yw7bGUyIHZY8utsxXHgzJfjJaTG6UU8xosJuAlJy5knzBGNb2PPwmrclPgbpy3rcXnWDQ6MFco2ibzavNopH/g67O2kGBuXzPF3yd0+pUzt6bjwbQDs1LorGsYr/XOybl9fce6Eu9yGvyukjjnb8O2LqB44wN+/JfhWbCBe08+rfEnqIugfUMq9N+hLX3rDmvu7g1dWY9Eq0fgcjvMMyg6pABjQLmdxuDIFOw677RggsN35vT51O+flTI5dWdA7h39+k7/9c9/wTwWANkwil+AUtBCB+3gJnQm/Y6zvL7waqyYfExj1mPx8bPdwtgtun2MwthGgJQXYmP5COKtnM6B9jqFfRPVzQPTT9rVYG29OEOzHJha9T2lB8vg7kzFmS9TFxEUqjaOKhePY9jLxVShM6sbc5UfjgoSjy10kIRfPXCKDjejX6sUPvv/YfnrZdNd4KfyKy4/wjl9sc4tZfWXxMZ9YTJ541m3AN08i3z43ts0r+M58YO54XbtNCCbDa8pasDsQ3NGqaGcUHujTAC/AIQxPxGgyqnARRNRhA3YcnsIzFgvB2udlpH7VD/ahLIB9U8vPf5hkGjgAyNN6tmBbpFxHx8I5g859wDbO3i+bOpBL6vTzEtMSlMnJfTWePkUKV9kKqjHj+i6yxQaUcwCt/AToN3/zN18vI3VdngHh34rg+rHr/UluyvSDdNixJGebWYjclomOh1eL5fodUvIMwXF/xUUTENfhBKH2b5w/lb0ExaRu338kRIypQuaxNhZtr2vTFdgxmbsO6u55c4gTR8oxPsbmf40JC9aOOxGFm1ynbd74L+nXlt1xadx9xNO0U271GIuFH0hOvQQH4RmYX6QDT1nQ1TE78SPhKMl8RFQ2sAHQttxPEw/HP1quoX22QBL4fm8adRo8FzDsoP4uqHCYfVIwe5w+Z0BDmg1K+ldycVCXzEqeDW6L97Vl1OTvui671GfGo0mzxNUdkE9kBkbxHQLEB+kY2+4B/dM//dNrE4IFyMSwOvYy0wmQP0i38hYg95X6nd06C71s63F3ptPy2LdE4PgicbEYmlxMaCtjTH6UIFhgGgdui75cmTLkW197XPahydX93HGvkhhrTnBLqr1X09lFBcR1WcArKBcPXvH65M/a9kn0i6+Lz8sZXHPFjK+3LcrP5uS2Cd5etmIGVIN04E8icxnSwvJk6ApMB2uSKsj7d8HswVOWjKYgNxAJLhOo2wJQgGn/9q3Yq4/zAJ4gKghr0ytIfQ3lrwylScPlT/cfO1zgq0C4rifxMwCxXwMKO2Cji4Qu35YgDWjKu/0dw9/G2eVr92nX7R7QluD8OYaV2TbsbULY5xQaoIjsjvMuuE+9CcEJ0Oxlsto5lm8ayMWIfVMSsjhdQo5/KjAr2/5cYm+/XAJh/z9hwhjwIxQei/mkGbSx0Nj2OGzvck8xsjrZom8/FOP43WOoOJdHNy7b1kJSXGNfl/GYwDnlmryCbc7Xz/Tt8o3FpXj33/TZNjAWLOgdz2tTFzMgBuPO1HiXMU1WT4Tq4xdQ7VjaMGBMHO0DokF5HEQGX2NATDac23RGa0BbTOhvd6mtHgPWu+YglZKE27aw2Cb+GFUB6+vt4BKTiQwfm0BMFvzGVrZhiekCZ33sMV8E4vY+woeFxeOzrbxG72y02CwOqA8B6ucYWILji6hPBM0nuREgcNZdcLbbJeolAJdxUoI9GV/JzfUUexWa9emLkCN97wyjyYD/NvkRm67n4pYLf/a1hckcwXHa6ZZ7E73Fx/0FOx8laCQOfsuC8U19HrvFwP5gxu7EsGUrnBUCixttU18TGsf7xfkXT9Ef+8X8X87BzmDKMfjmu72Kx0C6Bml1u4DSwXpwnLsAYqCUIEysvtb1dcls5/ydFgeUx+XZkIm54zTAC3wEBcGiv743tGN+aLEzIDvIDnefVn/fkG0fXFkP9boeB4FFzGO+MiGD/CJt12t7FXSQnT/5USKqqBQT+9vEYEECF7Y3YzN+KoD4leN8D4gZEOc3A+I5IMbSttaHkZE3IXD93/zN37y+B7SXmfKf8eCxPgm+Ex764Dj5SGyMr6f6iRfjp+J4CcAlbBUH6sZnjmMLwqfqavvGcvsNqZsnLNjmKdsR3GDjxqbjdr956HS2Ykm+2GXc2NPi4ri6RMXCUpzQR44Tw7RD3caGE10n6uZjsAZGL9GpFrhv9pO54Ae0YQJUcsY4HPd5V1xjXQNwoEAg1I8jm+m43l5jcBjkgASD9knkjtFgvcZB3Q4Yg5R2ECDqx9g4ziRoQSQAd56bgJfTTBYle9q4AsQBbrDXtu1HgWZQOVDqw4LR/nAAXcHmgLZPL9zZnqvXIlChMbHRP/yFkBEQ9KszIOyDAG0TCvdKd613OiFAuwe0V/HYn30TgrHULcHdPWWSsH+MNRPxE6E1my+ebL+V9X202n1lna3b1h439vO/l5+ezrtdfpef+Hv9oU8VmmKh3GZ/mJeMc/BGXz1bdHv4r2SLHzvLvISwXGEB8X1VJ3FNFhjT5XfHmTmhfjD/NMZtM3OQsXHVbdF8vYzUgLnAY3DXUT5nsoK4DTY65sAxEZR8rozOAmTHAQDatUBY8Qkqj+MSQIPF503YNq4BiDO4gQlJOpuwY5sJGzi2CeNwJnwFo/tVfxaUBWIBZ4BfdVkkDLzWQ2bm8tgS230E8Isg8HUzOouv8XVlhx0/74LzPaDV523Y3oXWrbc8iOp3wa3vXoJzsNK+Cf+aGTHGJ8IxCV/xyjFsRvnix/2pkNXX/fvJfxxvslBucDxXIJqcca3btK85bh54R3yfP9LxJETUBWZs30tUzQv2L8cbs45RxmIOs2hYBC+bYTfvujMfGU/XNnKPx3HL72LmKUl03D0JnP314nKW4DC0C7jCdsaEUIO3Iw4ejOVAusBUYNgwzoS41sHgrMlAvAJox0qAJrb9Zgrf7/RcjnsiU4PI9lr/LLTrjzOotU27lLN9668L/Aa7+4xgOMgIlCYTlwBcWHEgPmVkDiL7kjafgtk4sY89Ji+7gDu34bFeM4Uf/uEffm3D5m3Y1P2Hf/iHr00IvNHYAQZe1j+eA3oSoD6ICtF5FrT6TBoVD8bg7bP0xyQGtoxxx3EJ2UJeomgWffnNGLGdS0aXEDQOHEcWn4rU5fvrWsdxuQsfYBtwQT9L+juP7fmKgDeiWLyaRPM3fWzsO+7sd+Nj1/bzDCuLAF3i1nYvnmj8GT+2s/3R/tZW5eVi5PVBOpO91c4grEiUJEqqrtPZ7zULuJZRuN6Gs6obiBUhO4BrPIsheK76So6Mi00IDjzPkkxCJScLh/tGXc12PDbIyMTiwLj8Yl8YABfBtK8eB/3wvyb+gs/EwjivDLJidmFp43WgMw5nuU9i31kP5GMs1W7UzwzILyNd2W3D3j2gbUIY6ayNLccZ5yu3pd/dA0KAOM+74Ha9xaX2tt0aU1fC48TGxMdx6rCvTH7GN/jgX9uoyY9xAD4cYyWs2v4iKq5ZWe4VflTO2CUW64+LAJv8epzgzv13cu7jK0uCaN50rNqW9sUVW+ZbiwHXzSZgrsJmnrj867qdmIGTakA5xNzhxI3rK+L1f/9+44p+kG4dvci6wWAixfgGhJ3m3yZXE1bV1wCn873WDrUwcP/Hwe06KnhelsMRdlizU4BHxkE2hOOfprnurwFkUb4AaxLnd0XL9qvIYbdd0yVI1+Ox23YlJIPWPr+EChtV6Ax4Jyiuo0lGM9OLbCpUJmjOuU/skMI31zbsndsS3ARo73Iz8XT30jYh/MIv/MJnfJKbercJYZ9j2CYEx5JxCQ7+P8beZdeW7ai63qf8UUHiEaBkgcESomBssJEAi0exoQAS8AhQMJIv72IoAAZsKCCZWw3xDlDAZX71+bsttd1O5Dre0taaMy9jxIjo0XuMkTkzi88nYfCdTSb4tm8SN5FYCCvm/V5CugqfqyAxFl14tFih2CDG7p9jzTPOTzjLmPX+S5xKwuaPYuISwQv3zUHwhp/3veJgn1kswT5+318ECHvKBRZBc4r9V0Hu9ce1bW7yzK7xdTyfOKc4cdxfeTgBIvglCSd8lbLAMnkRXJztdXL3YZC9B3Anqc8vCApEqgIGzVIafy20BLzAp++KqMmvSyEOjCvHEqqD7X34wnGxUPTYy3eXkF3E5HE1ARiHK0aD3ILqhK9vts8zSLdB266gnMgQQ4uPfndyEF/ibgJpseG78nZc74JjjPwOaEto2ET1a4Lbbdhf/OIXP/zJn/zJR0LTJyGY8FpglJwZa0XGOekbF4w/coBt7qs4unLYgmWb+WwfVxTcHlhvG0+iYmyV+NpuhY1xWchbKBjb5pcrlyg4XAhYGLo6UuG5Crjmi7nK9jhujjd+21JcCxbHvILjXLCP+Vw+8JgbX9q64tPca79v3L1rQChrq+PLWIiCIFeIrPAQvO8aajCeBMVBKPnTh8mJPnCkx8K2viHT9lmMTLitutcWAfdYIdnOTDqOHXeJ3LZTbfhiore7krKomyQal0usEDZs2fnXEqOFACxcQnABs+JEIvAGURcpJtaL0JpELTz2vRW7RZAYNFFbgOycpx+iMgPaEprb45oQbXMTAjMgfGMBamGG/fODK/PF2NVo8eZ9Vx6CF5Nq/cRYTID413lXsmreWhRKlI2fRdDiXVHGL2z3jM+Yg5NasFU4KEwYs3EHrp2vngkZK4xv27YktqJjtsFBLkjXhuN2jaH8ZgyQD9jqv9hE+xZFC/41NnLesW7RSrv2K2NvIdd8Nx6NFYTz7XheSOcGSmgM9FLti6TsiJJDyQPnXMLWSoBzfSyf6dPEbMe1ajK4cIpJFjGAFBCeihPEvf2tQp3UgMwEi+1ewsP3XV5x0nTMgMLxgXw8pkuMiA829NFCBvJTLF2otMDgfAt5QUjsHNcmjbFQsnMs93kiwTaLrG0gDiav9XHNgHZsb8Peti718kbUPQ3br+SeDTwNe0t4JYp9n3A5ZteNJ1eOEHMTE4T9HgZcCDlmtIO/KxAlGotNBcS84Rxzf2AHQvS+J7GkHwsbBSB2TxgsOAiBH6FVAS+hu5gzGVu41h6xayFmoQJv/DUGGDNcYsyWi3c+3MRY2WYeKCc0FhYIC5jF7xKu5t57/GK+MO+By1eO7iYEjEPVbLxBwID9t6RGG+uwP8oEhIDNAXbSNJCzoRWIwdfptROBYO4vSW0iYj/tIXIGtMUNUEOsgMZVTtW/Iu0kJjCAmn59lwvi5ZnRFQvadUywBRsQVHzg6svCYMAYdPZ7CQC/W4ivY5r4JicTnxPAhOmYOlmdkMUA3y/f0MZiOQH6+te//noUj0WPZ8HxOgZyZGPdOU6qr3zlK69nwTkevQ2b5CThLRbExPFwnHoHlGMFIdC3C59eqzQmHGOTLeP0WIqHkqTjYKJ1Dhdf2Gn+wL4n/DmP8BWC6VUKCJpccNHhaxyOt3kAvtq2iQ0YWhzISfuZMdgv+NEF6yVY9Iv9FjuLs69jktPE/oqrbWH//OAfudsXtOm3Bq99rhnZP8Zcc7n8Ywy8bNo1IDu+TiH4HvzVeYXIhlhVLXImZkTGlb/3m0C6br++dvGXqscCZ4fZjp3DG1TtJH/meC+N8aQFT0Gfls5cdSBYJk9AubENCFfVYr9jm8nqKdnxgc8vGRRMBbsTtslOPNx++yqp1QdOWgtqhcRC5OIBsgFraw9sbGwjC9rqWF317RzanZjsNuw9isd5wQxoMxgwAGYtCFvC4yYEk/ZuQvj2t7/9YdeQHEeIGN8ZM8TDvrHgsp+/xMQ5W8G1cFJMFWP2v8+3CHqlgTYdG2N5n5mR+undHO+2LBYuPC/BwhfbZ14xh7HPvnLBbU4An8yWwMzsd3zwA8vJFBMsmbpP447P5G9z17xq/sQ/CAC+sEAba7QLxrHLRaexwrnOR/yFL5ufiE593QKo2jJbWDl4FQJbgqOzXgsygZiAKkYlbSoMxAQAFqhNOhvrJKI9bMCxgBXAeLbWpKINO9TtAD7AhM1rx23NR1v35x+EZzJ0BeJAWQCuKoVj6W+COhLlQqNnQAbIJXSXYLT/2bA+rlteDUZI6BpLRaoxapJdAHVsOL+E4vGQPO2Ltl1l1WafS79OZN6IOgHyuQjQlvcsvovNih/isfP9OgZ8dz2Kx8SFn8DbznMlTbVqsuWWXMiq1bxJ4yI3Y9sE5nE7D+t3iyHncDy5eZ2DTy4CdizcljFYgjX/lGTtx+aEcYKdHE/fLogZLzyGEPhRPLaF430es1CLG2NzHhAbeMX+NFcZN7RjcanfLg5irLTVot32MXbGyUwNDFZwnCvYbb56W4Ir+XdgDpDBaoB5OwljpzoJCF6rJvfDIGt4HWbh2T5fx3AbTl4cRuI8Vf+QhAEAOe+vq8jZ4WUOA6JAwC4HlLGPWJxIBoCrYsbgpKV/g999W0zpe3+ZDQJ8z/B8/lN8nNy1vTHYsfjOmLBPPCaTWytWjgMD1xIO+3pubV5bfiGd4+dXcnOtx7NWqvX1PwHaTQjGKQLENSDnigsx8qJkiS2OX7FAf8X0hUPaB8uOkc83AXIM/foaC/suAagQuq8KX4tNi5THV6Jz/1cBAsb3F1F54h736SV3cIs/WU5jdkcBYJ8y28H2FrTkILb0ssXO49KBMQEOyCP6cazLLfCox8c2+8/5yefmabHmONK+haZ68lb880PUHeBrKYDMAmOCMCl2O8bSpqv1Lp/ZAQYESWCnm4g4DwW2uNieKrQJyzMgAviROv/kcR3bx4VGE7R9gBggAK6KmmTYTrKREIiGlykMUCePfWGgtS+DgfMdU68lu38f0xmWiZVxm2QqWCUut12ho/oySVEEuNAoLvgOYdCHsYit+N/FBWN6EqDNgPY+oAmIsTKbmKVS/PAsOGOYJbidbwwa/y5yWnlDal6O6djwmbc3VuyjPXziHLVQu61iju+XoOB/z9rLJfYDnxHgFpVPfOMctljSTgXExAnewY6L5eLPmPZxrCAgFF5eajFKXjdO2ITNF5kjNF7uNc9xDnnYHPR+80V9wPmsuhQ/xgAx83icW+YEOKT5/fY6BgwGJA7ABTAnlzvy+SVDC0wrcQOpxO72XXVRgeBE2igQ3wv4lRTYZnFzlepxOXEb/CavAeNEcDXjgENIJvn62v03JtexJWFmbYwVQei6vAHdzwZiE7zEYQLdPvu4olJgO1Ev0Ju0TI47z8XVlYAczxIcz4LDh9/85jc//N3f/d3rDjtXuGCN40ZA3ITgWPaHqB4rbVwiYKzhK8ZOMXTlZ/OpOC2mSmaQrMdqfBdrxbbzquLCuZ4xdGyeybqvCwOONeO0SBSTXt41dl3EdHbnMTjmLcDI5WLZ2PS1IkTnGuPaMDeUx4qDq0CzbyxC13b4xkUAvnNR4rGV4z0OPpcHzUFv14BM2pe4GFB1ronOAytJ7LsHAjkVILRXYtv3VkZe9y6wDBo71XaV8NeGp8GdITAGlvlmq/slYT2DxF8Gbmdf9gXAq6DZf/iZfiosJQTaL4ivWJrQLkC5LfvYfTb2kH6LkEs03itiCuqnggkCMjYbq5LZvvMsuK9+9auvIXDMBOj73//+6/qfi6faw7Pg3nsSApWxq/PGhWPwL34qwV2xwNfOK7Y9kQfYxI5997MPL0zQN7aZjJpX3mdcX+Mjdo6P+adYts2ODc9ps32+rrbz2hf5a67xbNHjwg6vsjimzU1mzo7BkwBxrguAxqPiSYyb+5fvm/edmVw4cS6Vs4lPC2LnEBxlDL8eRuokuoJbIu9A24m/F6QWuguwT7aYUEzovavClZODZ0FoH3YmYCro9v3pET9rzzdcEIwSwI4reV2+RIAg653j2R7tPAk1/jHpOHGIgZORRHCbFRED++rbYvVku7e3YjPhcJzJtIlb8vfszbfLQjQXMXuM63/PguMuOMdv14B++MMfvpbg9o91f67X4Y/dkMA1IPvLNyGUECyMjAmy8uyI4qii79g5Bu6fPFxf4Ni57vxg3CYK4nFhgHZKSlcMiYWXp0rqbgchsP0WLfuJotBFzo71bL5Cay4xoZPD5bJyHbzwJNb0z7gvETJpXwU2Y4cHwFrJ/ip6jSfHibGaK8ARXIut2G68XDG7xNT5Zc54E3reiFoQlYicNFfF46qmSc13/3WlYVJ+AiN9euZgm7FvSVqRA8RdPzfhXc51okMSAMrjtWCg8muv49p3hMpTfFdKnOd26j/6u3xukjUgnHhOOgugicxLIiYf+mwb9p+T1G0W2MSFY0oAxpHb93Ue46h+cn/ssx/ACj7fXwsQ4/2wJM4AACAASURBVNhYeR0Dd0ByLm9IBUu8EXW/AzJ+9jBSbsNu8pPg/p2arwtWjBi/cUObxlwxeglFSewi4WLE2K5YVFzJF2LhmJYwr2Uvx9S2bTtFAL5ixnPxD+dSyCEwLmrMaxY5x9HbfSdbidx+aCFsbvWYHC/iuL8XjzjHiA9/na+Nb/nB59Tm8iN+xR5zdcfUY8GeBfY1ht2GbVJpkGnIgXLHfLZRTjCLQUkAkrXxdkKB5ADRr6ssQGmy6jlNGEhwx13LbSYhg9jESpCpwOn/SSCeKguDwZUSfTl4BpbHVP/RTo/p7MPjLEm0KjORGRf1tcF+kaHxAAnvuAKc8TvpHHcXJWyHHEo4JTSIkXHwO6BdA7LP/CgeExW/hOd83oi6p2HbNzyKZw8jbSycQ9hv4inBQLz2lTFX/DWnTWiQozngKuCw4YoBWOyMp9ggxvTJeX1EFueZSDsG5y22c4MTvnO7tOnZHyJkvgAPFp0Kt3kCX+Ef301qrDFWFxP2pWPivOB6UX2H6LqgahuM2X87LnLL/vWMEd+2WKg4lf+fMFited2EYMEoKZjQLBR27iUMBZ+/V6Ce2q3KmxidqBCCg782W3W1PRIZe+xEO9z98pkfI+67jzU5Gdj1l/uCSCoKTvqr3YqNiaxJ4zFeRGGifoqtt1uwDF4Ds9ixOHB+SaZ2d4y2vX35Dkv2MZODbCrcbmOfexMC9vh3QMYeRAipsgS3R/HYL70Nu6SNb50nvlhtv+xcX3fouY6N/ee862e3Ybud27YBv4FR/NtioeOx4JsMG0sXFSYztj8VnozDwtpzLl/Tnsfh3L5ygmN9M0Vx5u+9AcfjImb4hHzsXYTND7fhYtN+t086ji7DW1CNEfjU5zM285Q5tpgyH74JX5fgdpCDXwCWhK6B2oiqskHXSvcy3va47wKwhMN5tdeAWBttBxtqt30C6fR5XTvX15DenPyT27nty1YU14wGYcJmB9Bga1tPwmRyYJyupCqEJoX60SRngHOOKzP7lMRywpssmoiOvwuV4o5YkgzEoWJruyhAsH/7WILz+4DWJnfB7UkGtMFfV9r7vGfBbQnOPuJRPDvfsTauwBx/1y8zufrIPsUXxhexvAjD8eo5xM/4YhvnPYmPCae53Aq5wtUC9cKb/WmbiLELA8blwq3FjvPTNw/AUcaKsXf54frZBe0Xqx372nPMIXsKkEuML24xX9Ae59JH+dwiap4xRrHXOfukC1fBYi524fWykSU4AF7gXB09gfY90Lh9zve2J6FwsN2vQeJgGJgOPEFt1dXkchJZ4a/jvA2icNXgoFfoKhIWPALuWCAUTv4mvImlcbR/3f62G/AGodtgXI1TfWw/V1SJX8nGCdnktghe5/n4q7gwcZtcqcQ73v/3//7f2xtR7V+W4LgLjvNpn/hdb0RdH7yQjiW4K46XMDhXLmyXKIqJ5kwxYhwSu2LzPVuvnHc7PtcYcv4+xf+zcq77HX/HFX6g2sc+39jD8cab7eUc8uXKL0S7XGPSZaz2sX3keNHeVaTALRZlt335bvtbWBcv5sfyxCWElxibA5tf5puX7TwLjoEUbG7AlXYDUaEyWeCsy5irvxLf0yA515UKfbj/Vt2Qhisi98m5rZ4ICOdfy1ZN6Ce/1H+9oHn574mMGhcDnn5KKo1JScBAfC/prnYbAycJZPCeQO4YV271IXjoLMr9lmzY5/Xt4mzH9FE89OUluObKziN+XoIzbv/qr/7qo5sQTG7GGbErjuxDx8Nx4xz760lMIDfbaMzRBvGyvVc+VohMgMXylRPFjEm8WLxsdkwqAIzhmgFZcDwGj/8SC9tL/B0X9wXxF/MWjOKdtmyf89yxxm7uLLy47BKFqw3nJ+3WFxcWnvBp+81frFi8/RDVQHMHBdIFLBOCwXYRI8Tgdi5nF+R1qoXL02eOQyQgs333Nrfn2QliVh/gPMC04xCgbcMG/36jiXIF/ClwBvPsXvss+T3ds1/SIklKagXQxtKluIsQnkjlStDGzyRdXFzkZVJ+j9yYiRh3tp3tLLf5TjOOIwZryw8jdb88ioclOGJORQk+ngSIGdDOt2h0bJ3RkJfGH3HwsRWl4qr9cPx7+eocq2g0f91/SedJBHtOVwmuPjyOYtR432euCTfvOvvt2C5fXbYMU9yGDw5sk7fBG8098sIC2tjYfs7nb+NXbBk3HqfteO+cyxeXwHlbhcs2NOYf3YRgIXgKvgf+BML3xMXE1GB0EDO8s5QSG+TsCsIzIi+V7FwTlhOFRAdA/e6LgZ35eLy90MgYHGQ+MxbPWFyZmmj6+bOqIcBvv6w/T8Gxo9UX/ishXFWaY2g/OHYFIDhrlWjCcyJzvuPVxOjywPZ7FrRzEVrEo/1tv68BeTxbgvuHf/iH1++AvJ2iBnt2GzaP4nHC+3dAJQ8TVYsFYkFbPCLlKZbGScm6hEgbxMpLPk/nlnwacwu+ce54NnYm0Qqn27/w4hiS37bh4hiTfc/HTmO0GLeg2ndcd6R9/+Rix/VnIByH34tziuYrpsWQSb8FXuPgfDS+bI8LwCvHL789xbVYss/eBIhEsvFXwjupHIgqm7834Cbcgs/fq9hPYLmIxITvWY0BXjEqabPfyY6fKiIOau188g3nmHQ8ZoPKgEMcafeJ4E0W2OSL2lcs3yOKzg6b3JcANb4WwB5foBb4V4XsOBdnFiX7iM9dptv5vBGVp2HTJgLEG1GvmK4/rgHtLjj3+dd//dcfvvOd73z48Y9//BpmfVdSo/0et/j5Dky3deXjUz7Z/mK6+VRiMUae+KB4NZdcBF6SpE8LguNbm8hR5+zONWaNNxcO2Epf/n7NxDnOy+bMsBENx498pc8nQTOW+WxReprxui//fswxbpwaD2Liv+Ui++89jFw49PEuJD4SIAf7PaLwcXVaHd+Bf9T5cXdYCQXQXTMhBuUZjx1bIWhlX1t8IwGfr36xEXBeot1K1gm18zubMHBtJ9WRQXuBpPsNXPq2nddMy+fQnkHfuJv8mlQWT8ewSdQY2U9gCVK5ErcEvXP8Oxn7ucTv8fD5ug175/35n//562GkvILbxO6ZxZbwvvjFL37gd0CMjyU4nqRwESht0l4LC763YjbRmKR3/BXnxvTKOfu+7e97ZyMeTwmoMTW28LtzijFwXqtx+r6wY5J07Dsbdk6YRyxCbL8egWOe45UcO/49AWjM3xOU+sjYhT+8KtMcd/5VSJznFv6d02vR7/HuxfUtePzdsXnD6fVDVAPOJxVYT/u23UlpQw1et1enGLQGKed7tkJ/a8PXmAAg9+kTVAP4EkgHhTZ8I4OvwdB3Z0+04fY7jo4fP/nc9e/+LkLpeU34JpuJzEnc5G2CXKR5YcDb8H2ToDZWKArcK2k8IyK2++tqtKLFd5KYmCByW0Lbo3h4GCl2/tmf/dmHv//7v//okUvb59/jrK0JUN8HtOMmQN/97ndfS3jue/taZLgYAe/GAPjweR6nCbsE43hfMUG03gjiJ0UidrwnVo6BCRNi3t/OKGx3HxFUP5UTLpwzpv31o7PAhPHYItBka2zRpgtOxuJltRbCFtWKfuNuHoHHnLfMnjox4HsxhO8a/yuHfUzPc0zZZz4vhsqnjZG14YURfgfkxDTYLoIyOZQY7CAHeNv9qPIGp4RAgCCIOg67DOr1weM4fB7BY4yIVNu8SNAERZAhKwu1AeYK1ts5zwIDiXHzggN4zRY6i3GsKk6NKeN1kjqW3o8v6hMfU/CVgGjbfia5AKKJjvZavLjdJ0EhFostRFBsGhPFNTeR+EkITrTdhLCnYffNtcbhPg9/+x3QH/7hH76Gjb3+HZCxD84rZsYQxyB2jqvx0Lw0zppHjs1FIsUF4/SYjAW2+6/9B1G7nZKVBcjnPnGAcdXYzi+e9ThPXEw6fh6b+cif+W0O8cJP13VhCgnHjf7IVc634FVkdsw127Gve/PTU+7VZ+YY5wvbGyNz54URMGe/Gsvmldf2PYz0PZKB4A30EkpJ0J0TPAPC5IPjTTpOMIBVMnHAbD/nPs1ynACtchiH++8U1GDcvt0F4zGW2AhSk5zxuoK6jrFY4Df6uG54IDa2w0BxpeQkv84zwE2ajc+Fh27b+dyVRLvYj2CU5C6CK+H3GLDQ44wvChLHluP7Q1S27xoQT8NGRCEGFz27C84/RMU+HsXjF9I5t8AQ8SbfIBaTmMdMXNjmfHpPZOo3Yw+cXYVA42qcXfnUfKgAub3izZhsjtt+2nSB5xsCyh29WYA4ONfMaY5N+8Uu7lI1pojdVbCSexagfb4KikskSvR8r/A4V53v8PFTfxZK5+elFebE6kTt+VR+MgMySZVgPLV0lWAwEZgKyaXmOGLtYpBBwv6nBLAT9tnXayxuVLUeW/sxyDtuC0uTq223Yi3oaWv9WQQgQwDEEgF2ef2ZcbQv7DaoTcAlm4rQJSi2l349pvfi2r4dE5NFwe9xXMLfWLXIMAaJz9rc/y6bun2TgH8HZHxvBrQluBUc+0f7fUEYz4LbTQgm1AmQl+AsHB73FSuTNL6k4m477C/mL+GoeGFH8eR4lvgqIOYHx8vkd42HODkf7H/bdsUOwbja3vHOV7eFvR07fXBNp5zjguC6btIcg6dMyPbzUw6aC7EVH1mYKmiOQ/P3KRZur8JVP11xb+zr53LKK+YWoBKHwXY5CyOsaiYmOwyAGPQmECcedpTEndBNiu3rs+AAXZPaFQnANzAqNgYfhMOdSDx/zAAAfA4a+2uLRQ7f2L7OkHZMgVcCqzjYNovY03TahOxzL58TI4/P/tv2Lk+QQJDl/rrKwif4vbMXjjdOjI36nf6fCBEMbD93we0aEGPbX56GvfhTPW67ryns+2ZDv/Ebv/F6Jbd90iW47XMhwVhMwLZ325tb4OWpWCjmTBo/DUaJj+2oz59Ix9vLK9e4r+Od/41d4+1jiyvHkVg/YaeFj+MClk3O5sh95pUQtpf+K0rv5TFjsHh4HLTvAp72zGWOuT87b8GJ88xcVB1oO46dufLiBhcar/NYgutFTidlQVZglwAhE/91EHa+HdeZkMF1AeUiaOztVPhTAxbZ0Q7VDAGwoDJWt9PPkAkA8NgAQ0X1CVj2pYHkzyWPxqcApE0vCTgere4KzovInIQWcePGMxyLju3reIlJt7tdCPfCnQkDoVqbfs2542Ny3Octwf3+7//+B27DxlZeye0X0jEmMLfzESDfBbc29jugb33rWx/8NOxiw7ZQeffaCWM2iRtLJZyKlveT88Yt+y2ya9/xa+wrUCbajtH5xGfnm4+nn+YO3ytKxoNz1EVi89mFD3nkfsGayb8FtwssZjr4Dxsdo8YOnP60x/r8ck3Fgn4tLs1nH+Oiz7NGxt+YmHsuUXOs2L8++AHvp25CAGiIBMY+kZrF4gKUDbDiG+CX4HibnVfwWcwgL9qmv5Ifglclt5PpH0AZ7PYRAQHI3mehMDBM+LTLDwx3Dm3snJFEH/FeUnJyXOR+xa7r09hnH3psFcMmqZN3+64kc5Hj+K7t6xpHia0+7H7b4GsnJlULGYlv4uIa0PVK7i3B7UkGJsQSPk9CmAB5jFwD8u+AnC8mH48TLBgTFgDEof4sMbgY8PnkD1g1Nq9xdpvz0QLq3GuOVHBKoi4w3WaJ86lvc4LH5+3EvuLqPrpsB65b5VOAIHS0PR9Y5J0TjneF8+LJ8QOrLj5+7Rgbxo77KE7Nqe6vbZP3V4yMMbe/Y/sPu5rrb8+Cc8VggBisNa7fPeCCyBecm2wACcNdBVUUqrK1u4Bt4jmB9vl6XIf7aHt+XTdtIz4m7yv4BQeAvsgHX5i0qeJNXBY8tgMuJ1NJp3Ft4nnpDx9zjte8S3zGhP1CotMWQHyq2Gi3mLAQuv0KJ/vwrft1302W3QX3B3/wB68ZEGPZX25CmABtljMfgwX6WFt+H5CTkBfS7SYEihpwBtEx63HS4wfuvuJOMY5tXEsUJQkw57+QWHODY3w3WQsc93fFqvljIrIIbPtFXMQV/JgPHB9z1mLDUtiOWbxWcbs/7EKUKggel7FTjnPeGHN+OjZtVYBa1OEDigFuboFnOP4qJso35jALjPHgeJeber59zbHEy+0438o/FcuXLTyM1EB20C0GBWidz3eD22vktFvivZzyKQn9yS2tgKhOXZKsfS7a73y/H4ZZkR1pZ1XoOM4E7yDR1/4a/BxjcrrIHh+UiJnxcD5gxD5A7JsVCgALlUmB4/Cdlyuxm4S0iLX9J6JyMjs++MdETbJ5XODnIpmrOLH4ESeTDPvZVyI1yezY7d/TsL/+9a+//Q4I/G8JbrdhbwkOv40g/GictdGnYTMWbkJgBtTxEGfbXL+bWLHL+Vlyrz+vYyFNEw6EyyzSeVSiw9+QC/aDeYoVEz6YJy7GioUIm+orx50xwS2M2QWJBX52WMQZq/twW+AC3/rmD+LhXOklAM7zqoW5xfE27mnT/EMbcJkLQee2hY244HNzkY9zf75LECE33xlH5umKVLFAbBnTa7yf+9znXrdhO6gWkgKulYHV3caYYEz0BSIJ0OqnTtx5cwyDNNk50Sw8BiOBIGGcGCav2uck8Z1Vs9fiiv/2qJYSB8FvsPbdS2/Y6ErJomrwXxVa/WCSst9cQQF6C+Ha8czLPmksS5xuz312ic3JYwE39pyQxqGx4sSDKNnv2Lk6NcH4RpX1tx+i7hrQb//2b7/lxLbvLrh//Md/fP2QlPOZhVD87DgEaL8DMg5YguNhpFchtW20WWzQNoXJNQMqeUN+9hfbyB+34xwBgxB0scR2n2NsGAf0yTnONwufzzEfmfDcb3HJPp5MsHGvYDC/+Xodx3eM/l774KCroCUXjMltc8HHPsTdx8IpYGN90yb5s/M2y2ZGR97uuK4yuRAlTvZrc2JtWeR2LEWbhauxcVyxvVzEd9p8wwAzIIyhQwOwxGkQMzCTs1Ub8BAw2iIoTQ4Sw8nbYFfNd2xfjXzdWIATABG2uEJ3EtMuTt11gc9//vNvgJ5d//Zv//Zhz/liicQVpcfiKo8gG9zsr3BzjKsGkz7+u4iE/gGyQWTSp0+SxUlm4HDc2nHVV1GqzRZU8ACIscMVqwGOzfy9ZjEWp4mQl1uuwoaEoS3b/3Qb9mZAP/zhDz+swNg/CGTjWZ8UB70NG1/sdQy7CWHnmxDxefHOeCEc4g92/FRv8tF4atxcDJjowfiTaJeMG2vjtsRp/4KZFm4eN3HHPmPC2KvouW0THG2X5Ftwwy8WSnPetrPs6kJqy7TwAX7893//9w8rNlw4UmQWy/QLBiy09vPwzKUCc4e5FB84d4wBPl8cYG5yDMA29htn5Q/Oqx3FHf57E1vugqtoGBhupAB08vszIoHDfHuiSRqA20EWhms7xFrAri1mJXX0JTYGmYmtQQSwq4oHOIv0v/zLv7wes2JbruQnME5+E4b3W2zwlffXJ63SDGQnlT97BkLSch6CZZA1To27icrjJw7vFTj0S38lUrBIuxATfxkXxDQR2DYnDva1sPK4dn4fRkrfvI6BHx4PzyzHuaJnBrQ3otpuZkC9C64YaGVsX268JC5jhZgbZ+83OZCPbHMhgaiRux6Xj3efJVULmTkE+/y0AwtWhcgYL//4PHLRS1z41DGy6Dg/LCjFnfMCX3jWsIL0C1/4wltBMRueClJI3st/+LF84T4sDhVaYlxuMPcZ94z74k36AQ/Okxbo5s3GyW230AED5oK3a0DuxJWLk7vEUvCZlFzZ2hATaom0agnQLAitEpzkHjx3jJC0nnGZFC1M2HMR+HzyO7/zOx9+6Zd+6e1HbWvzX//1Xz/85V/+5UfT7PdmK4DFCY0NJoPZYJGgwraNTXC+d3ZiQF7E4+Jj+738ZtCUCOw7i1fjRfwtMH5Ol+3mXMTFSeb4ujomyWw3szgnre0HD07Qtclt2P4d0Prdw0g3A9o1HGY8JmzGtiW8X//1X389jNTx4XdAzKA828Tn2+Zbhv0j1xI04/I4mvzOV+fmddy1zbh5IurLv8Sb8y/RN14Ym3O5YmABaezMUTsOW7d9/nTchxHfoHDhbdvoz6SNYKy9tbOC9Fd+5Vc+ehfY+IAZEMUEvnfMymPOmStuLKdVtGjHueVipG095WnxcXG5x1GOxP4nTsIO2/nK4S3B4VBXvAShASi52Cg6sTCtTRLJIneJjc+jXQ8MUJYwragLOnePACJXFBVARM5t136IbYD75V/+5U8BbgJ0AYNqdfu63GOQuNL0NYCCZ8ddVdoTyEwg74kTvvYynsnDMw3HpaTV+HqJwftoA1HFT4iB/X+Jk/db3NYfNwZYwEyICJN/F2TCYQb0W7/1Wy8z6f96Iypx3axosy7a2Q9ReRICY93vgPYkhM2AmkMQamOLSOEfRBsic262zae89XZWC8APmPQxJv6S1CUYjOEiQZbpn1Zb1j5i5ZiBi/rnieywGXvNA7brPb4p/3msnFc+GKa2IrJY7xgw5vy54lIRwW7Ot6Be+e9Zi/1vTDzlLbEotxRbF8+Xo9uH9cBcsc9w6ic8DdtVioNPwDwYB8OGYbQJlfMbhItkLEoGe4NfQJKgO8cXlS08BJFxWGybSHa+p8ybAVHx0Ocqnu9973svcz1LAfQE1sGwnxBAkg8hg3wq1Fc7DS7t09YT6L0dnxqQ9O2qxX05Dtf2zsQKWIi0/RRfxBF7WzR4nBae95YRLFwmqi7B0ScCNLHBR2AAzO3YCdEEaEtwJovehr19zTnb4fhDRMyOEKwrz4iDcQdm6n9IgHac6yWv5ggEDW4vgnO/nVFYhC4+oX1jmeN8vLFpXBCb/TUnMMb3rnW7H+eF47PPmyW3IP3Rj370EqAKqXOts1b7qTnpdhpHF26Mi7bNEy3YytnkYbnFeXfl+lUAXBze9n0d6O2HqADuIryCq+C0Y2wUoKPSIiGdeDW4ILNDXY35ONrz7IZ2K6aAsURlgWRpxcSyPn73d3/3JUAmggnQyOWzAm+BwXafw/4KVwFYErkIoEWDffFERrRrMjIgnwjG4LIIGU/E34nnpIBs7A/bfM3ASIjaCOFA4K6GLTrFIOPrD1HZzrPgfFeVK1euQTw9CcGP4qFNC2oxYSJiKcfYIO7ON3wBKfMdPFxEX4LfMYzFJG4xLVd4HCVTbHFuFoMmpCff2B/gxXhzLEyW4Kg+MZeYkPnc/fjQePI14Z03v7EE5/hQbHDMbDK3vJeTFBIWbGJhv3Oc+zJPV9jYdwlccfLTFCaNz8VT5uI3LvBdcD3gqTKxA1zZbDtAc8AvR1yq3MrDiVNbfCz9kjy9+8b9m7hKglSE2F4R2wzoWoJbxUMAvITWmYODZPC4erkqRUi+SfRULJRwKvIGqUnNPvbsxQltXxpkxIDEc1KX5NxnBcLn2W7H7cITJNbE7sy3ZGmC2udrCW7nbAa0V3IzAyqOiHt/iIpPdxfct7/97Y+epGDxbh456Y1rz2wsCiUAf+cc54zjW4Jp7K44FL+NiQV1n+EFC4yLQI8Fv9CGfeNtxpVFkb76XDZjlD58bauiU47Z+V5G9BLcjl3hOgHaXbEUQB5vYwoJmzM53jdVgC1WWOyrCnaX8M1hztf3YuzYtkhG/I2fxp7ze9nBIvom0DyM1Ip4kQLBMLBNTAapq2ifd5FBwW0gURmUfCyU/mwCvRSYti1YBntJtJX3brvcXS+AsBUPxF47DLwSoP3pytMiUUHx9xJBichj9r7ruItUjIWC/UmMiFtJxQndYzwmH3fhgyR48iVxdCHhmNF3CXDfr2fBzQbeBzRsM6Mj2WmH649f/vKX3x5Gio/6Qrr6ziJhX5BL4PSJHC6iYJwlfRcJbre+XptcM8O+FkgmsjdS+ckTyBv/C8ctVK+8dSEHF7QY47ziteLX5ThjwW3gi5KofXpdE+auWDDY3Acr4MhC7eKJuDhWzmXjx9jxjIk8eY9Hm3dXnN+L48V1FaTa/VHR6x+iGkwG/gWcNlqiszih8IChd1kRbA/GwHkSoILf4LLTexzg6DowoLYQmCi3BMcMCIHwEpwd6/5L7BVrJx3Bxv+tXj3VboXm5HAfJqCrIiqRl7AMwALW+5wsFe/GwH1cBGkQ93PHY1J0FQvusNHFkDFlP7IE54eRbj9PQuA2bGxynIYnbsPeTQjub7NkZkCNE+O5YsuxnbHUf++J8VN83xMtZg/4rhggP8mDa5byFFdjyO07zsSHv575Pc2IONZ3jxoP+NCxL54rcOakFhy9K5aCdMXGJewdK3EpYcNPFpOKMLgD4/aP+aT5bqw/nWM7beNTsXDl1cUT5eRXPyzB2WgcYpDVqBJciajTSsBuB+xzH1ljI10tlNBwDNvthFa2F8jWT6shQLN9rbC2jyU4rgENcKt4dhdcA1tQXSJon/D5qjbcFtcDSgiXaBg8FQcXAZ7i+xwSwX+fhNWkShu+Fb7J1qKj+xvf9ut4L44WG+JziW2JzXFZDLYEt2fB9ZXcexZcH0ZKzDzOfd4L6XgYKe1zE8L1MFPjs+JkXDTGXW5xDlt0SjT2Hcf5r/PuEgXHBtvLHy0SLlK8OIfxg+/m/VV0Oaa2DcEpjhmTRZ023C+fvc/jerordsut8IdFHtvfi0fH7/PXZq/PUUTDC8WAY90YwAnmPXxTXFiIzf3efmHAYy6nvvz79EZUN3yRXY1wdYEh22aSx5nXNL5BLtD83aTh89aXb/m2HbYPUNshVBSc49kQxyNA9OklOAesSdkgEHj71UTTSgOA0Ecr1ytW2NDK+UomEgIw01+TsiJxiWoJlOS/yMAYKvBNfHy+yMcVrkm35OEYNJm8bzMgCxDt9CaEjWfx50evjG8CtLvg/Dug2T8B+s53vvN2DYj4XIlu/NC/t1VY68e2WVKzb42pp7g7Nk+EYyw/YeASnIrvJVwXZtlmfHdmxDEeP08UwGdX3l92msjBNAJkOtEagAAAIABJREFUseF3gc3Jtell4EuYGmvnm/fZ5qdzrng85YexZZ6kDfpzX5fYXLgqdqolb78DaiAvEJtwPJgC7kqQS33fU0wDc+0R5CchIsCefgMUCH9/PWPCzhIS4/G0d/752te+9lqCo40K0PqzH51MHasJkurFdhSgJnDHpsnZ8wwu29Dq773vBpHtvsZUEDpxmaVcwvZZxGZyaVXseDmm7sdYaGK57T2M9Bvf+ManZkDchr274CDqzhRmRx9Gij+4C27PknO+4EOKgFaJxhBjsHhhi8nKPv9pYu5zsa3xqF/B2RW3ixt8vmNxCY7949WMHnvZ2NxtseuCeOf7Yr/bu8Ss4/IMaPu8BNcYe8ydrVSsXFCAC47x996UAP80L91ecYIPmuP1m9uo3+sXYwisXjn76pMfoprU6vwq5wXSS/FJDt9pwkDZVzJivwHOMVZnb8Pegs8zMEjHx9KGgf005d/5W5bZbdgVoE25/e9yekmjxNDKwwC2rywoxAVi78yoon2JGMAqQZvsTB7YfZHcJb7GSv1dn7nNtl8iYj++WVuNLdvq22uGSXt+I6rt442o3AVnHI9Q+L3YZkR7EgJvRH1PgDxGX1+wQNrfjZ+P+ywSuHIWMsNGj9e48P6LLEt4F18Yw40VmGYGzved85SPJUH7ydj1DNkk689uC4yal5gBNA/5XSB9XAJEjOxPi0AF4cohsGER6HjNLxWT5tmVw/aZ/X/F0nlWnmK85tSLZ9/arQAVhE/GF3QFZkHQCtvne6bR/i/yw8EWNhOoncKx9L++TMwWWxO6iY2xVYDWJteA3KarFIOmJGFCsXj0uEt0GngL9gVw+9EA23YDvIIEoGxTY12wXYREuyb/Co77Yp+T36TQBDR5XUJ0idtlS3+ISj/f/OY3317HgO/B3Gzkov0exfOlL33pU4/i2U0IW4JjBlRhafHgPi6ytHhc/m97JTpjyhi98riE9VlEfvXVHG/R6ILiyt/3+AZ7/LfbKgTbXyK1+Lg/8tR38W7b001JLUgba8eWPs0FjmePdR76Ou6Oe4p5Y11f0ke56qmoecJDi4y25xwkPh9dA7IzKgR1yhMJtRMDz+c8gQZHtvK5qlYqf2zjYvQcV8GDyAAezu1tppCKCRDwFnDbPgG6APckGmsX4GMTZNIqBh95LIwN0JREvd9AMbm7SgE0rVyu+PuYHu8Eb6XmxGhBgZ8dy6d+3iMttwuOn0iL9luIbPteSLfXMTzdhLBnuYEdCxD2T4B2GzbXgDjWP0StGFpMXEhcMxT7lmPrLxPKk+/BWvPTJAKWOpOuIJZ4LgGywHjGaBw/cY6554lDOOap+GiBWMFzu8VPi6D1tZkwP0yHq/gd0PgAbIALk7nxY18yBvLd8a2AN07OY3NrOQX+cfx9M4s5CT+YO5pTF280Rsaj7X617xnQJSpP2+rQCs+bwv3k0f0m9hpdwkIkEKOLUErk++67oRh0B1/hAzwE22BzYHbcAMfTsLHNT8MmqDjZfTvRGqD16VnTE0B3HjaVQAyM9863jfiCdfAnEapoOPYXyRuw9UUJwsJlu0vSxUAFr7528ly/P2MmTLJj1wSIa0AeJ29E5V32fZYcsdkMiiU447oC5DhcuGE8T7nyNAN6EiMTncXe8anPXZW/R/yM08LT4scCARcgcM5321+RMD4sKJdtO5a4E9uLULuttlTYPMYtwfXp+NyE4POct83T93i0BYZxUiLHl40BsSHHGZ/Pp11zSoWoouZxPHH/xUmfmkj4h6hXJz7Bg6swOZAYD9Bc1V2GWyxop4MyAWGHxWOfvQzjpACMHR9tNiGx20HbsX4SAsGaAI1cAAD9eswmItt8AayEXmGkX44rgCu8AM6xK9FfVfJVceGvxtM2NJbXPhNLZ3dXtU3cKkImOccbH1v0IbZih+3YxAyI3wGxfQL0N3/zNx+94sEiAPb6NGza900IjqHHVFGxODjebC/ZmKAsyN1uQgT77osYuHq/xABiN56cY8Wo43XNeNlG//CIixb8WSK7hIIx+SGuFiMLrIn5whn9+TFdvB/Mvyfc6xg2A7KP+Xz50HhkbMWBi9MKO21yzIWtbfPNFuWYYstt4CPzfTnc/Ob8r61gw+N8LcE5CU38NNwO7MgSIkHfXwMUUr+MqgOuARbYiIorWAuerw9xDECpqHrM/uWzCXdt7y64VTwAeu2u4mEJ7ikRTY60acGyEDkWThATqEmd2VOT1ARk8NhGYtfY8N3Hfqpy+eSTtzCZCN0WSWFBMD6eipGLxLyN9ppsO2aJxrKqSck+aHHgmPgakM/x07BNUCb3ffYSnOPkh5E2NsTu+i3H9m07ZNy7PEsmF068zTlt8bcAEUML3UVAF+ZagFQI+f40Ky2htpjA9x6H+7xmO4iLyb5+8/jp02MG/yZy34a9YydOeyHdYl0xcV4778B1/W9ONI4q6uwzppuPPefib3NgRQTb8aMLVttfLTAXdPw774W/zYBc6VggnsBtQXoK6jUgtrm6xjCLVc/1IG2TE8AEeVXvJi32OxA43eeaGHZ306riX/zFX/zo7YSreHgdw3tCes0CDRQC0uC3Cu2sCdK14CNKF1Hiy4uo2AfZOc7GhUn3SuQL8AYjv9WyffWdY3v17QLDeDHGTH6MrWTl5F6fngFdArTbsP2vucBNCLsLzm0zA9r7hJpj9ae/E/+n2VEx1GKjbV9EZ9LHT/R7YeC9mDeOJmKLR3FeQeH7xQ/lA/v5Eg1vq5CaNy7sOFb4juMuARofIED2E3Eo9+0Yc9+1GnHdJETxsL/kgoUCPrH/iqEWJk+xdgxta/OgMXXOwSmf6pPXMXCyicJk1aSpcwt8BoPDTWolqH3n/nw70dO/Aoc2LjHhjqRWuiWynWthspPsB4LMlLtPw/YvnwGax2vRaPL6u8HH+Y6LifYiHvp2JQJgCj774gIzieHkbswvTJQ4DOrZwhKGxb+gNMF4nC52TBzgh9mPE+ESYcjV1TV9+jZsj30/RP3BD37w+iHpzoMUuuzbh5FiC4/i4Y2ojBn/uLL2zLF3Ol0CUizw3eLT/LSPjJd99rWTJ5xxfouI9unzm8OMpbGswFwFhsnN5D7f7bdYFSXnE7Z76azFbDG48/s6jC7J7xgEyDF0XjYf7K99pni0T2gLey04Pt+Fp/1TYWjRVF5pMVC+JuadCVWQHIPyyBv+rychVAltUGcXBmKJxGICoT8N1kJAfxDjRRQmI5zN8YhZA8c5/BraJLA2SvoW0e3zTQiAxdeA7GTI0OC7xMc+Y79vCrCAsJ9xXgEv2Bsf2+jxWuzxRZOl9je+JYXPwlHFtaRh34AfxGZtm7T5UZ4J0THofvflZVc/jNTkiQDtJgSI0zbhPx7F0xfSbQb0rW99603ATByOUYWBcdIXNhkDjQNtt0BwQeZ4F6Oe/WAPOHyqkktS7puYsMT43qzDGCfWxUn5yOPaWFiC5XNvJrLvPa4rP8H0zvHS+867foj6H//xHx8tyeNnY8nFYAsk+9txbLwtmF26dV8ekwXDPoQHwJFtLke6bbfR7cVJc5s+315IR7AuMDpBLEB08kQUToy10UrHTl1bl7hxXgHtRHUwCGiD0CqK4+jXCbRz3xz0k7v4Bmre/4EgLvB7AdWm3Cbfi/TtowpHCYhKxgSHTU9J0hgwfreBsJQsOoW/SMZALNhsk4FGf8S1s2F8ZhyVNC9flcBKjsadkwQMlFQ9tgoQ5/BK7t2GbfI2FrZ9M6jdhm0BWvueAV2kDs6HKf8oFdJoAvtuSGPP5ArR1R/Exf6wqDaHwFCJ29+b68UYQuqfPTSO2EA8L/Kjz6soZTzGr2c52+7+HQf7osJnTDr2e2tun47PDGjt+U5J7LagXXlTv7Uodk7ts2+Ucjyc680v4smYGRNYIy72Y+P7Hr9eHFUeeuM8z4BKeJeKmbgNZCcIxm5AVA0OtkHkgLja94yopOSE8PmAjaky/ZicadeVR8dpseLcnXe9AZEZkAVr5/h1uhaDkiB+wVZfnO3t0SzHuEKx7bS9vhtwE7FBbmCZ7FoQOO5OpkswIBvOcRKBGc9CiSGEWSIp2bjPjn+2eUaD773EC9kbO9jq27AdKx5GytOw6bdV5Wz96le/+iZAHLcZkN8HZFKAeI0FbMT+VsCQz0WOxZRj7zF5O3i1b4qzCwPOrSsuzXWTkwmQWDzZ5zhboNyeidNEzYzOuU9+GHMuZI0b+vbS5M67BAg+aCydZ+QHvuZ784QYe1zGm/kXDJmHLUKXKFz8fU0C8F8xax6x7zz2cnrH+Mlex3Ct+bo6serXiA6Yzg3uipPXzS8SqLMsCHy2o2y/g2pwkTwmZjuH/ZzPuThsx+4mBF7JvXa2j98BcVzFxonDuAoikwz+WH+ubkrOfHfiXsJggnBMbIMFHSBfSW5yoC/7lb58nInAhOZZi4HcPhxPJ7HJDh+s/WGhCesEWvv0jaCbWC1AxuGehLCnYe9JBhzvGNAnd8HxOgZs5mGkPAnB42xsIR77lrHhd+LnmHpJEnw2PvjKd9M5v9jvPMa+ErT9VsIlbsaJc92c4BwpdjpLchv9vO+dYV2C5py2r9eXeYVippwH35gPaIc3ojpO5TsLQ3nWuCYviSsF/XW35PaVVy7u6TbnPjG0MNHnVRw6bx0L4wSbLnF9FQS7CYGOIQiTj4nZjjNAGZSd6cEUVHaCA34ddwG5REp127ZMRAY8hHTd+GCneia1Ywc4P4x01bB/iNoEWz9e3jIBW9QtWgT6msWZaDnfcTBh0mYJpcRVIiDGFuqSmIXbAO45ttG2V2SeRMyC1kLnyb6C/wVyLe86vtgxX4Op3USwJyFsudW+3Qxob0TdTQSMBRwZd3uY6X6I+kd/9Edv4Zite0vmZkA73+OijRYPEEoJtAl9CdHOMWFYBCzi+NBt+Dxvd84ZZ87P+nbn+CaKq++2VTyWMIsdYgGGzEEld7AAGRp3LlKaR+VAbLrekLwluM12Kwb4FT5g/8VRjIllVgSIotTjwqcWIBcU5VRzeIXVnN3cA1OOt893QVm84U/b/4YnPwmhSe5AMGgch4EE1cYwEADOuYDRCWsAXaJmG3CmB+vK0MHFLidFnef2TNh2mMfrhw8SECoeH2eC9nq+ScaJ1aU174PE/dfCabstZFcSGXz4vTbRNwlJOxcRFC8GOwnn8x1fkwE4cR9XEpUkIAYE5rrY7ARf/y4IiJOJcTMgXsfg8e0mhAkQd8EZd4xly1if9Tugne9EJw4lpH33XX0uXrCbSvgikpKUscHxxZSrVBObfdg8Z+w73kRJ3C1oJnzsMc6eSKwkWuFwv9jNXy/Hlj/qc2JxcQ7nuqjqK7lnBwK0NjzLdJ7CHW6rvseG3pDUosCzI9p1PpmLWwAYU1ds6svGwe2VJ7CB/j1Wc8/bDAhywhCThQPiIF2k7fPYPxBw++1Hnf/koqCXmt6UMT90tKBcIFv713WFklNFsaRGspUg58Df+73fe/0QFR9tm3+Iuu2QoMdhkjcR+HrPtpsQsGt/XTn44jPHu69WXthqsjIBlmgcn8Z9xyJ+BVz7pZ0Kl8/DX8QEW5wMxmMFqr6k7drI746cMI6z+326CYG74NYWr2Qw+SJIuwWYh5E6V3gYKTMoE7PHYVF00i5+xjeEdVW+JTYLtUUav9MG4/HSJNh1G95mQiw3mLRbNF0FhknYZOfPjmFx4qWunu+x2c5iyvh3oWxxpG3/LGPbtiJCQeoCYNvJddvoAscYcD6UQ50/jf1TDnKcY2gOsN8tyi2MzQdXrpIDaImPcbvmpI/eiIqTbZzJDYW9SGTbHCSqN5MvgXOSVbA4pkK0776hgSQzUWODgekEMQh3TC9Wcx5g8fLB2uFJCCTTtnEXXEXAgDLg/RlRMFhbleC/jZ3nkCFWAJW+7etLPApsA8TxAkDGgxPV2zm2BUtxg4hiF/7x2B03jjNWWjyY4BxPfOg312LPdY3ARLAZjF9IRx+7BvS3f/u3b+IzIZrY8A+sbAa1JTi/EXXt80NUfgfkHPOMBn/0eo6PIW78ddFj/zIux4YcLmY8M7yKB8ff+yEvc4P7dfG08zxb2TnOMdroTKj54/4v/nDxyLG0CR/gOwo8uMMC5xiYWxjz9SieCdCWW036zksw7Js+tq1L7vgbfvPqUWc9xiB4dQzYby70OI0Zj5m2WpCYW8rXLSKexv721mKW4ApIk5uThYC6YVeC7EcNqfQcYM69rsGUuArmEqGdg2MaPAPaYMbubfObVCseCBW3YWP3+h7gVt16nCZXV5wXSTshuh9R6FSeIDsG3eYk9HggeZMWIHKcjQeDuoXBRaRsI3mMCQjWlSDb2meFrvstoBUjC9f2YQvHOfZOKJ6EcF0D2k0Ifh+QE5sfP679r3zlKy8BMna5BsRNDCW35liJsjNYfFGhuooM5x79GC8IQ31icrnwcpGc+cEFxRVbCgVzRbHm2BgPxNPYhtR2Djnq9vCN2/Q27DWPuNBtflx3xY4P9szA4WT/PCtZ++YO8nd/LeQuiK5cWizgBvabC5zP5suKU/mDPLFPnTf4wm3af8VD/Wne5/PrWXBzCkC2MpoYcKbFBsddxM82O9fkU2J2GxfxFEgMbn8h/43DFTVjYbDYbnBy/pNTcfrsYwZEH9vXp2Eb3AbglYwFDwH00pztYpyO0UUCBrBB5phY7Own+96Asa2QjNtrG7axPn4StCbLFcv2bUFcn8ySTaat/Ixrk+za3hLcnoa9G06cyHsW3K4B9VE8TUrPgOwTfge0a0DGbEnBFeQVLzDVfLBfiL+rcOOS/t3+RdQl7BJj7XMON5ZX0dTjO3b7v/Yz3tlEvhgv+MnLli1KwAWzIOJ14a55Mf7y6xjW37b5d0D4r3lLXoEd54rHaWzZ1n124e3ilzwtD70Rvi5ttPi9xKYaYL4pZ65P64NtoZ1P+ZYZEAG1s9yYO3Pwm0Am2ssZTngngtWSQX5W/yYf1Js+N46Bj5kNFQPHFdy0RRLQN/7Y/v7yeftW8fBDVPdNhd/lEVdU9GUxrrjwnfN6LH06uQq+CoXjdwnRFeuSDf6zQLtfgGYS8/KLE4rzSIDaX/EuiE1CPIbJs+smFrFpsqwfrgHtNx4m9S3Bff/7338ToB3bom3b+ige4sdt2PshK+RI+7RloXT72MksyMRkG54EwTE27i9idPEDoVxFzIWxiwuIf2fxfkI19hkrxWDJDb96PMUJHNAi7SJVL6uXi9yu85r3gxEf3gf0ve99722mQ0yxv8UQY8ZGfG3BMM/tfK6pX8LldogRce6KkwskFy1wyRWDCtkTj17FSsfx6r/vA7JRThCDsORzAc+CdhGaDa8jO6gSpsHopKOSYRv9Oig+xpUPYuCxcD6J3xdQsQS3Z8EBDABmkDhZLK5X0LcNkWnizB7aN/E32I0hIKdy8vKXSXaf2efEMdk08S+gXcd0LPRrsJeYn8TRQHasicH8R+Vb8rVvuB7kbbuNmhmQx70Z0ASIpZWrWlw7E6Df+I3f+Oga0Nrx+4Cw6SJx+4DPvj5TwnIV27xphetYmwidq80d51BnAba/fZuodh5CydjxvbdfcbXN7eNppaB2WVCu/IZPfE3YttgHYGzbnpbgeBip89s2NMb2q/OuOYMfjR94a8fCCT2voneJBjeJuZAlhvZz893iXHFqbrZYeOXd5z//+f9jEDXUDVzJ4oHSuINVYSJp7fBLZd8D0HtkCJAIUGcx9OsKyLY8EcK2L1G4DdsXt5kB2bkWh6vi8ZgNes9uPOOxbwFvfW+R9b7OFjpjMYBM1iWo+sYJ6gLCdhScHUfJzt851vY6idcPFV1tYx8VcK+3uAgoRn/mZ37m9TsgZkAcyxLcBGj/ueaz/cy65utt36N49jsgx/l6EgL+xteeATon1w4zeMfFsx/HgHZLRIhXCRD/2S8VL+fMUzHRdvhusTaBXeJmG4xHCxFjNbbta/vRy+2IB+e3/woBBWrFk355NiTf1z53xa5tCwLfn8S+vEabnvX6JqzLdzu2fVqsGh9j/xKW8liF69IHRKh4qS68YYKnYVcIaMCE8kTWBg3B9ZTbA+2s41RFrVMaxFfwtg0Sd2V/OasiaVsK8CtYLMFRXTMDouIx8CHLLplVAEwKJpnOcJ7AUOA4XpxjsSj5lIBtz0U0BV37Z78rsyexctLZjgqNCcM4raD5vKe2TV62i3N9DcjJyw9RJz69rZtrqBUg28A1IG5C8D4LJPbNfy0MTciIEsdXgFxJexyucNsvOYBfLHbFSUWfc68CpOTacfTc5m7ztpyw7+YrZgpeaqVPL0M552nD+O6Yjb2N00twO8/XgOY78tk5YYzumIoh+UnfHAPP8d1cg8/ZVyyU2xtXFxvY1zg6Zv1cToD7n7jCOHvdhECDnZkYuB5UycLHXfvoEMMMcAbs2cp7RNL2Ww1BoBdRmVDpw2Cv8+3A2fd02+XeB8S5V3AvIjdxADqD0eQAwRmMBbVB0XFSlRAH21g7HOeKkcXGvrrGV//73AtLTrwKkAF7ER/JSEFBWyQt43fF3DbBvl9IR1873zchNKHx/Y7bTQibAfUuuD4N2+O4iIjCpTNY43/9taCxzY5LYwdh2o6O6yJg5zo+7LarzeLFWL/8ifheeVr8cH6F6vru2QqcY/5zf5f/zC/jgz2ay2LBioiLP9pnTM13x8ZYciwbC+e78ePCw+e0oDW3mR+uPutfjjd3voeFHoftr2XYXQNyteqp0wWsGmODa4Qd4Gk4x5n8dmyTbccBkifAbrvXyDmnSVBCfA/YHFugewa0fSOJ3gVHoCG0kv0lMgVdRcFVa6uckquTxlVhQeME2Xjdrn1+AcsCYbK/gNpYNy7GmH1zHcc2FyvEv7GyeDK+4tG28ZmbEEYuxjYzoN1EYL8aV/Phfkfka0DEw6/kdvI39muPZRdyAgw5Ty/SsM+63zi5ctbHmxCZTZjMHTNj4YmYPBOoHZ0plwArCBXS8oIxuLa3JNoXIF45g6+da2DCfODY8Sgei1pvSjI+nJuOsXPMx1OEmkPo334jB8E58cF365d8d57Yl/ik3NO4X5pg+4sN98dxH9kyAWKHp06XumHwk5ElAZz1NCVrIngGRl/edomKScTiaYL19ktAL3EiqIjbjuGiY19I5zcgXssatnufGZPX8K9ZiZcxS1QQLOCqSBl8TiDH6KqKiHtJ9gKe/XYJhgHuxG11aBxYOC5B8rjcJsmHH0zetpP9xgTJt1hvBnTdhj0B2k0IEyDfqLG2wcjG1RkQfU+Avvvd774eZloS4LsxUNJxzjmBKex8PL64iKs5576vmJd8KzjG8yV6CJj9/p5djSm4u4ShRGsiBEfYz9g8xvINmLGPrmNou78L3LgQoAq6/bbjmOFe/nRuz5Zeg7JPyH/zYHnaomVeN6bK6eXyS7gqKD8NHzjvXuO6XkhXENQ4k1FnLU3sEkMTwADfuSSUbTCwup3jIQKc7+muRcfHO/gNEoHyOvIuTO9hpCagAW5LcCVgA7ACV8K1uDSIJgjvK3gYt/1jcTKAEDaIwDG8fO1Et+0X4LqtgO9tvk3AJ3HyuIihScnCuTZ6PbD9VGgZd5fgOG5LcH/3d3/3EqAnMlwbq7h/8zd/8/U6BguwZ0COlWNErtCnY8w+twnGGvvZYZEyNjnnqY9tN+H9NALkti5Sei+mxod5hXjhg0scywV8Bx+LRQvCFqk7hzvyiu0KEe2uzRWhmwH90i/90ke3XPMsuOtdQPYlPjEfNXcr6I6p87nFa/HV+HRcrH6Yqy+cOSa19cJTOfEjkvzw4f8vxLgGRAPvAeIC+lPVZNLyYApQnLx2PEBvfxIggmDb7cSS39oxeSB4DZiBTN87xu+AJ8kRoPVl8QQUT21tf4FDm/bpFbT61kR0jbmi0Om47bZPG7eCju8lGOzpXWomVI+rRYd97vFYRC5MtM3r3EuoPS6/ktuEyLPg+CHq2gGzJrkR05bgeCEdNnQJDjssCGyjeCJuJZ4WfR3T03dsoX2I5ykWJjljoWRjQvM5jiO5V3Gz7+3v2nSRmfsyhojL/vZGgBIreds8KxchUvhs37kmDKdsHz9EtXg4/0z29o9zg7EYG2AAH12x2TbzjnmxfGRfGxfNf/i0vHLpxeXbi0OMz7c3otpJBbj39XMd4sR0kuFswIFDe7G1A/ssYbSoVIhK6OxnfAXV5WQnG2u+vg1714D2OyDsuEBQoeQY/GPBuapPk+3TdBywXrMZJ0PJqUlQW0sQTlSOdXK4PWy5BOYiUZIejDUZSHT72sd45rNjescTtnV2zPb1yxLcyMVJzhtReZq1xdC+X9WNAPl8C1AJyTnE5xJgsemYlkwuAfL5Fxm5iGje2j8Wm0uI2o6PucSm+W3Sdb5ehHmJUjmAhxSbZD0e+9l5tu3+iYR9us8WIHC23PQ1oK4w8P0jAv7kk48e2dT8ao7VDouV41oetl/Z120tTJ9E/73tzkdwXpy48H4TIALsJDeYLoA6kZzcDmoB6JkO4nORnO0wUXfwrRY9w3HS2SaOuWYaBaQJ9Xr/RwVox3PR0z4xuDceCy9jKoBmi8ndxGwCYvsTgApax/oSpCcRsu9NCN1uEkUsnmZdxpDjZb+b7EsSJUSLXUVi39nfHzHSbmdAtL8luD0LzjMg9hlzPAnBr+Rev/wOyC+0I4atWqmSLyzvHDDva4gWu4qT41EsND8rdE9kA4ldsX/Cg88pCTc//N1c8NQ2vOJc6mOZ2ifYgweKM7DiOKx9sDw+2NPx+7MMCtLylq/7EJMKbkWLeJfMHVPOaXFa0W0sL8w4Hy1u7f+pcHDcnvr7iNO4CQFnueFLqUsYHgSEaeJ1cNlux1ykcxnuc23jVX0z9YZwTKi11451glhwsWdLcNx2ufOoeLgG1PFbGOwHg8r+NLgvMaJ94mKAQ1qNj/1zCVG34x6xAAAgAElEQVTFwt9bBFxi9RQrtpfgHMdirrb43KfZT0kaH3mWS5JfWDQetn93wX39619/La9gz/5yDYi1fWOKmdf+sgTH07AZQwXIbbsidNLjQ3DJcQiQvxN3jrUINW71e/fjp+ZWc+dJfK64XjMj2mPMCMBHFXJ+E2i+4PiLp7YNYWiOXcJTfnGOuR/7YHzwhS984aObivxK7pK2rwtVgBDQXrNafzylwPxUwZ7PWqyaQ4y35qzz7sKKfUG+1fdXzN/DB+e/bsO+DKrBFQonR1XPyUA7ONgBtNFu/wnoGH2RpgnPZHURYG0y+EgGJwH2+LZLBIjbsC0+tt+iQj8mRAsHx/LXicn4sKtAcZI12R0r/PGewF3xrM+fxOhKdnxT8nD8SyJO3uKhZFv8up9rFlHCM3b2KJ4J0B5Gar/tWXC7CWEzIGylbQsCj+Lhldz4rU9CsD9bJICPS1SKJ/Bzxcexbn49EZIxar8W0xcfcMwlIOyz7y5Rsl0mO8fI2DUnNNf7aB3nvTFum97jGMdlx61IqQDxPiDihGgwVs+CrhyqX3eeV4rwo8dKfjWH6LNiih+wzXlY3nvyu/n8PZwUZ7b71YafBbeDSc4CuopXkfF31kRNlg5sCQNHtE2Oc+XKZwBkosJ+g93HU13gPNrguwNZcty+awmur2NoJQBondglGNu4fRDaPvsiqhPvEkhi5sQ2iRqITkYLou21j4sHA6vJ8OT/ErfF6qcRoCZfSRU/Or4mTmYqHZfJiCch9GGkPAtu1agT17Ptbec2bB7Fg/95GKmfhOAxd+bjWF14cW7Vd47hRVgcD84aS8fPuWoyugTMvrZP+dwZVdtzLhvD7+HLbXCcuYZ2Kmb1C9xhnJsL3Q8487PgyFvfhNDr22ujxYZ59eIOzgG7xoKL14tnHLsu+T/15e3mmHLUVdA4n1sMNE5v/v/lX/7l/8M4EuuqYApSd1Ag2zg7vNWKk6wCdSUOxxhUiAbVjkHoJPWsiJsPLhCasAn+/u6c3gU3v/kd8E2gJqmXNtwP2wFxg4ftnsK/J0CfJSjYxe3YBY7jYr9dBNJkZ1xgwj4xQV1gtb9cdDQmF9FwLtd2ECGL+T6zLNMKjjZZgmMGxPb9DmgvpPPDSC1ExG7XkHYTwgTIwrD3AX3nO9/5wBtRO6aKCOMhlq36K1CXUEBQHavJyphsfpWkStKX8Fl4XFCun+HX8cF/Jn2Ln3mkn7EVDFfMsKOieD2uy3iqcGLbVdRc7wdDgPxTB+OknFBxtvCavzyeCpl5ygLlvswJcKbjY382hrapOdw+KjTGrbnkbQz8Dgiw+ncvl0o2oBdICSiGF1Qm2La3fTW0IHAC9XgD1cBGRBwgnP5EhibTHdMZEI9f56Kj2zGBeDy13WCyqDToVEDEqZWUxZR2XLVwnsHVQuMSGItjk9yxNyHih2vcxOvCkXFRUvDxFqcdR7LvGL//xTj0HXG01dvEd/zTD1F9E4JFFVKe7/afGRC/A+JY7oLb74iMAXCCULqYc6x5HNMlEvaNReGJHCocFmlj2HggllfcSkrYaEyUNJun/m4sN4d7nEWxbbLP5IsfyYPaehUmO5/ixb7jmrBFnBUR+mQsCDA5VAzgd+cu8XdMPFP2dvrpjQ5PIvQkhLYb//m6lOPhPNjn8r3zr7F4i/EECFJwA61AW4Fdg3eHOIq/JiUbewHMSVYwdtDbz4zmeqspAbcD+pn+LFIeL2Dt+4AWGF8DqtBa7ABxEwbisp8sEpCrQcBMyAJzAcrJUrFwUhroxLDLD42D/epxGhf2q8WO8VUAnZwXmbi9qx8nOxgrcdZW97NjK0D47S/+4i9e14B2GzZ5MtztnMUGHG4bj+Kx//cw0s2AtgQHGW+/Bd62Woi8QmGMlizwa8ntIjvjBV8WEy04LiJsOyZ29rWwMembF1p04T/PPmjTeCTW/lmF8+zycYnUwgMm6J+/3FVHbCxAa48Vkac3JD8tgznW5hDHt2PozzXI4eb5lXfOgUtQnIeOCX7GRuPDWDcO7Uvn5JudzIBICh4t7wC3Q5OPE5hGfd3iIq6q+AX0Drb9kKwQwJ7BVZIu0PlupxjctGnxcbAMuLUB4HYXnAn7AoFF3v7D7yYBj91LBvjSgmEAkQQXefc4H2ticQJU7C+yKZh9TgXF8XByd8Zbe9hfAmScTmC3xX77A99dle6TAO18HsXDG00r/vTh3wEZZ5cAYbfHRezJIXBGUuNTz5hMysWW/YxImtia5yZ9x7v9P/VDjMG1bwSw7W7PcTRGLGZPfFQhciGHLyuKLo6dq9hsTsBn7EPYth0+8JNRtgS3WG8/xaXzwFzavs0BxPe6tfoSEGPAuGsOXtzDsqgLhasAN4cYs23TsS2f0MfbBKe3YV+JdYH0MqDEBwAg35KegVeQuC1/dkJtuwFeYFkUTExvg//kk/Mp1ji6ydMZ0GwZ4FiCoxJ2Jbtj+H79DsCE6OQHZAYW+0kGJys+epouG7S0A8i8LFHwuPIyuRh0V1Kx/6nCLzlwPFi5hMIzjyaZMeL4muTBLH23st72954Fxwyo1bJXDvpGVMZlAaooYLvzxcuKLjwouJynxcVFCM5h56GJFSIizuDjU6Txkx9P2m7jtTxgEmqOvscBjt1Pg0Piy7H4iqVWx93tXdzTMbQ43f5dJ9yjufxsyD4JwcWRBdgc4Rm0BQO7tr/FCgLn37O5sHAeE2PiYF6EXyr2ttW4fOJpY7DCWuHi+4ur9j4gd7YBeSnrqWIsAe27B2aB8g0CgPqnqWguw00il0iRuLwwDNI3wRmQJm7GUOEkIf0sOJK4T7+9foRasmRcJAgiRaLj8x3HtB/AkTjXWq/JxOO1nzwldxVtkSxZ2V77v6LmCgqflVwBp++UtIABcIux+/S4+hk/7q9n8iZWxoyIEAP65S44Pwlh7e027P0QlSU0nrJMP/iIGZB/B7TzeRgpS3hgrYWGY7J92M6MyMndKtW5amJxwcG4fa4F7vIpdpSsLg5w3rstxulCkP2fFf/yAHF+ssd8UzGFo8ClhZxj3R/H4wPGN/9xGzY5uhj5hXTN+47zigGx6rHwTYUB+80ZYJlxVByMAePP9oJD55TjfRUf+KbcThv25dv5XAPC6O3wnSUmApPXBRoHrp8NNgyC6P3doLIjbd81UFcUrYSYFbBGDFEPOK6ETPIl2p379ArekQt+8jqvwXolpgncosd2E8eIbf430Dhn2xgbY2jyG7iQn+NZMrG9jbUx4X48E7hEo+f5GBcm2HcRjIEPJiAH29mZwkVEFkls2U0EeyPqqlsL925C+MEPfvC6BkSOMHPkxoeNYZ/3MFIEiDFsBrSnYe98x3efPdvp7A3/IkAmLWOmeWPyKQ4da8ePc7Cn7XOsq27ntdu9ZhjcBdd2991CUOxeXGOy5HzndbFTznHsTdAVaI4z1mjbvwMCExSknbGRlyb0xhI7HC8X9S0Yuzxnzr3aumJ9jcsFm7HquDUPiykL2NXH9m+14PU7oE7JLvK4Amqls1iYOJ1QNsSAwJEE38TMOQCBPq9jIB2mxCXafXfyuBoz2biqMFAvAdqU+3vf+96LlOjfVXaJ1eCyP65k3y2/zBRsUwmCceITRMqJyT77hG1PyW8QtUgwHtw2fV6VvInWNhs7xR5YMtbAK3YbN+xbXxMTCN74QbBMLowHAVqsbcseRroZELdh2x6O27Zdi/ziF7/44U/+5E9eOYn9fRacCdTxMiY8m8b/FDjgguUZ/AmOILySDpinT8fJGMZHTxhwzOl7f1lOsm8pkK78p2jB7tnnYhL7K0JsJ94Uk3AJfWLPCrirLecINnCcx+4CD9/ujah7MopjwQ9RESTzVWdfxbZ9Sh++DMA24x//MW632eL6EqBrVlKOBXuOAZh3m/T9tM8888bffh0DTjPpXsJTwrNI7DOk64tzHFOyMwA7i+GcVgpOXmy1swExATP5IBL7W1DtOKpaiwnj4BW8HtePfvSjD/uRobfZPpM8vgTYTsh99u8kSGbE1MRqnzXoJrP6qeDssW+g0AMSLdIG5ntFCv6uEBJHY8CCdbXpsRaLPhf/r20TtwXc29/YSA8tXV+7BvQHf/AHr9muE243IfAkBC9Re3bN8V/96ldfMyCPhx+i8jBT92+/4zPyCHHlO8Rq35q4wBZ943PnwJXnLpQ87goW7VYkKvDFijmDz7aN44m3iwvH3X6z8GMPBabxgJhefFBuqHDSroUNfuFp2H44MU/HZxu+doFALC3W9AMHkKvmUz6vbY6jqJvf8N0lBN6GPy0U5qSKt2NurJbnysW2h3jSz5sY7xpQq4tWRVegC2yMcadsMyk44AabP18OKlm7Uiooa6+da7HEPldGJVyrv+96QSB49pMdy7ObcLqv15gsWFYxSA0KAIedHtclHh6HfeLta6PkVfAbLCUW/Nf2bSPxs/haSFwEuMjw2CHeJo5xBrEwJgoK+9/Lrva9x+Ux+WnYTrC+EXUzoRHB/rI8Opv3eTOgP/3TP/1IwCZA3/72t9+W8OyjiizfLdgWCBdbjicxucSg+QNh+YGdJTB8/0YWP7lp5yI4+iSG5Ydes9xxtAvhFafFvcXBWIG/aA98efbgGRBjdyFkoa+4dslx589vCJCLT/8w3cJJnBwH/IiImCcZg31NfK58Np4ukW5O2pcuTH3tFFu9QtWCura076vIcBuffO5zn3v9DoggVu1M2HbAU8XiJHcgCSKEjkOqjNteETAZOSnqOFcNBhdgfyIzqzr22SeM1XfBIUCbAXEbNs43oVyVh4/zeLbdy24dD8FEmK62fQ4+9lgMRJM5NpVsTGpPbfuYAs5j5VoJmHK1hwgT62LSwLbPPAbOJXnX/ojHODRRIsRgbvt4Fpxfyb39/BB1PyTleMeZz1uC+/Vf//UPf/zHf/w6Dlu5C65PQnAC+3gwV1/ZZh/jc8HHFX/HsGJuUrrOfcK1c7rnNbcs6iXBqyjo8eYpY2KfWb1AEPwdrIENjqdwbI5YkCx2+H92fO1rX3vdBcexI2rfBYe/mLHYF26HWTpjM68xfmZLYNlCf4m+cXW154Ifu/CF4+ll88b5woOLbvO4+Zh2XuOdAFEFNaCodiuPgt0BctXidUnAUNAVUP7eCoh9DMYAoyp57/3vFVCSm79PQkX1xppvAbf1fdbiIXC3bb+2ctuYPI1228yQTOIlHfcDkPzXIKhNVIK074uPrr4hNIBDXEw2/mwg27efJWDFn7878YxLMEA/Hq8FiCrbF245xyS0a0DXEtwE6B/+4R9eSx8bx7WcN7t4I+of/uEfvi3BrR+uAfkmBJMrvnVSU4x43z4zFvxQcnK88KGLOO83GdiX2w6RPwndVdgUE8UcAuA88AzDxLhzOxuhPbC0/SU3OMa+ZCwUOvvr8dJOMVd+cgFwvR+MGRDj89KdhcLtOi9ckBNf/EDfxiv+bu7bb+yzKF3iDy6u4+gbzBZP1QSPz0Wt7X3Fktuw7QQrHQ0xCEjagboIj202lMRhH9O9q/KxE0wuBh5g6novA17wRwgct3Z2LEH2OBt4gm9wcw2IMfEoni2vtFLpxcOSQm0gWSAYQFZid+I66CYJA64kYREuOdCnBbGC6Xjy2UlpezmXCq8AJ7EYs8WDOLsosPCVvL3mfmHVCdEEBhf7OwH6xje+8fY0bMawJTi/D2jHzk9+9M/62J09X/nKVz5YgNZG34ja6tE+2PEIXcdsnJAj3sbxjokx4M8UGeQHmOSYCo/jxfgdH3MCdpBHHgexdf5dNhoDFwcUv/1u20rIV0WO/S52zH+0z1i4KclFIzch4NvmL/32ZhL6oShsnBwT5x02e6ZiDDR/KxTOI8aH7dYE+rly0HF3++Uq8gysv8bMD1E94ALvMsQJ7YRfOwZdRcfAvGYLHqAThHYZIOeu7971xljou9U8iWQRMHhN0gbu9SQEHsVjADUp7XAnOYSMvV5LLqkUFAUWdvYuJCc7Y7RAGcwlHieR4+JEdYI2WU0avUvHfgAvJYCC/sKZ8VACdCISc+Pc7XPs0wwIAdqsBJ8iZPbxzn9agvM1IATC5GUCgJxpm9mwsVTCtf9p37kLLi1cxa3HBKZatDRX6lva7xi8vYJjbDouFiELVjkKfth2z6j4XMHxbB/78dn4xDxFv+aVbbtuw/YP041Xct3jsT88Nnzh62YIE8c5Ni0AzQ3O6QqF+6//r1z2tosP3Ib3Wyu23eP65POf//z/ORka8CZ1Aw8BeLtV1SQACLzm6f58no0GIE4mA2r7AVR/L+NlBNrhr8XFdhoMdiRvQMT+OZK7XnacgQ/4rhmHxwEwPXbOsQDj5/4tEHqx16Cp4EI22FDCp6+KfxPSNpU87OMmwAXii1iKQRMgfmZsFCb7y+zkI8DrDj/6t42+C87j55Xcfh+QSYpjh78vfelLr2tA9v2uAU2A9kNWRGfnUDDYhyUQ7McPO98vKcMfxstFSvWbxwfBXYWB43QRi2P29Nljcr/OyYplCdLH1l+XjR6Li1374amwMm9wrkVztu63YrwPCGL161mImy9xFK9XXtMfMVzbLcbtG9q04Jk/vd8801zFvy4WLzFrXMwP3ofd7DfH7rjXDUIToCfSIlBV7SrhBRwrrwN3AZggVFTo38Rp0vAMxxceHTgG7zs5aHf72qcB4gCtzS3B7RW8rloRIPuqYKfNJ+B72g0pub0C32BswruvJnpt9PWQgtcibD+4TQPMicTxBiNPDngis6cEI34XxuznEsn2vQD+k4qrBY0T0X3wSu7Ndm0/d8HxQ9QSKsk7stnDSHklN3ZbgDjWxID/HE8KBM9+jdnixj4qDpo3xO6axbnAYGnnvbw1Pq/Yc259Vvw4P4q5ttv8MAlSwFEQegn4iava97UygP2069ezgDN+iMqxXUWg/4tTXRDOnn0nRxlf77AFN+7HYzR3ts8rVsa8ebJ4uo5zexXtcs9bPnIbtgMO6GqgAVRA+vwmgivMpwubNvA9cNE2bWJTvz8B1nYDMoOiycL3BXgzoOuHZ3sWnIlj7VrU234FxIKJ3SUfSOupsi0AHYNLQFxlOfku8JZgLiBDJm3LxF+x9EyAfU1Yi8MVa473DMh9Qgy0A07wibG5tnYX3J6EcL2SezchbAZE0u+vSW797jvXgIxBv5LbuMOXkKaxghB42yUYF9btR9trH0IqzmsTjUnEfTRHOMfFXAXesbc94Jr9Pa7CwPHOE2LLX3zpc40jC6z7xy5EHuwUW7T73jUgx9W+s8+7Hbvp3wIETjsbJnZrtxzgMbcoN8faX+Uq+7SxaUFxTSDMJ8YeOP6kP0SdYTaownABsQC3I5+MthCYIC9yAyQFtQHjoNlGT8Oxa9suEjBgO+uaXdfTb3n2kxOI/q+xOMBOootETKQmKKog++NKcAe/YLcAleR/mni0vRJFCaXis+O9Dt/9JrmLSErYgNs3pHBeCQm/gAEn0p4Fx6N4jOs9C24CtNuwLWqMg7zZDGgC1BfS9ZXcFRowfpGIfb39PsZVc+NdrDXnLDYlE763KscnLd7sq+LHOL0qY3xocn4iN4vHlV9gyjH20ji2mRfKKxVpY9H+uN6I6mfBmQfsa+f9FRP357t6aePK6wpQOcicXA53u1fcLXIXb5Nn5SNjhc/E7w0jvJLb5NzkNhnT2UUoJJGB/6SKkJ7B2sEbhK5c2zf7uKsOkF+kyDbfDedg4UTbzXj8QjoCDuAuwbpI0oFoohpYnoXOJj8lwe0WHE7iSyRMFBY4xuO40LYFivO9z8leXz6RomNjO2yz/dNY2o5iCUKzr5/s5Vz2bwbku+Bog2fBcQ3IROSk5GGk1yu5dw2I8+0Xz+KoVMHwJcwcb1JzYld46lPaLKGZ+Oo7/IQAFidPcXsiyxKZx9tZqjkHjtnfkuradB7y2QJEvy5+nnjGmKsgbh9vRPW1Ri/BfdYstLni49ffdb5j15nLU6FlX7lP87XjVA6hT/v7SZQsQhf/FmNvd8HRaYneSxQlrJJIA+ZbAy9jXEUZkE46HHZN7z1Y1vvpx8HbuSZ0kvWq4kx6kAy+6W3Ya5MnIZTs7U/IHdtMhk70fe6dLxVw2u0staRS0SgIaac3TtjGi1Sw1/tKJsYJcbjseQIryVABLHhti++EvAgXHLsCt93s5xrQnnxu+xCg3QVHjDjHBcF+iMpNCNi3dvwoHgtEsWB/WWjWl3+46zbsLxOD/cNYLHaMwwWEiaike5EwuWQbmgvNbc4p8Xvstr2C5LgYExc+LF6++ckzIBPuk7Dar5zLDKgC9PSG5PcKUmNlx81W36BSsYIrLt96zBWc7mNcnelSCLn9CpyxW85+4gDG+eZ/noZtxXWnFwgvYBeAJn2D3g65RKUER/8GYZN257D0YqKr89ZG++z4SviuqH7t137tw8///M9/dBPCf/7nf37453/+59ewHEzG6edElRhLFhYgiNKECSguMfG4r6rzEo4e91lkYoxcAlRi5fgmtcHKMQVwMWj/bp/jsn0lFDDhxPY5bp+2h6EJ0Ne//vWPrgHtWG5C2AzGxU19OAHqTQg730tw2NSir+Jjf3uG4O32OTliXFlcWmHzZl3is79e3r1yv+PFj5dwNU/d3lM7F3laOK4c4hxwUNyBrV5/vmx3W/YL9iIO+/urv/qrH37hF37hozcy/9d//ddHfOAi1jf9NBbNLeL9NAsyv7ZdY9uFKb5rXCw2nOtt8EJtbk5eHOMizXn6lq9egqvzq54EpE7xee7kvWrKCsn5HrzbLDFaJNjn2cwlIsyATOgA0srud3tUsH7u537u9UNF+lqy/u///u+H//7v//7oYaQNTP3wBCpAaMFuJYGt163Fl0C8l/Ttx372ZwP6vRlNycG+BhetrGxfPxsXT4R1kRyJQHzpe/ZsBoOA2V5ijQBdr2PYD1EX8z4I0jHiLji/jmH9+IeoxlsJwoJyka3j33jXFwjcRerbVxyakP25M5AWm7bTvmj/xKW4sA9aJMA59UWxYbHYPoSCz+RsY+6+LdYuaCxo+H/bfvZnf/Z10wp4Gi72qKX/+Z//eXFEb5Vv3E3Y5r6nfON8RA1Oc05dxT7bHDfGbRvYRnv4zHZbxBr38vjlW8b29hcBupaoSkgmiIIaAJQoAKEFwgEFjJCEB+VAWAw7iylYqA7ohwSyQ20PjoKE5vDeto192+7145K4A+rAMxYnmH1IkCGGJiW+Z3+FwOdfyUoiuk8nXEnliUgan+u898jCdpZcii9sfWqvOHAciVPxZwIpya49noTQZ8Htd0C7CWHtXjeBgLE9CWE/RLUArZ8KkMfWIqN3oTIGCwx+v35CccW4ZOE89efmHBzwhCnH/4pf2zauK3gmYZPZezixvRxXEjYuLh6p3S08TZrz99rnhZcsldGuxfUpNvZZC7LLX/iifOICgvPey0dwZBHxeeaY4hP+M1bhlMax2uAchB/fOHtLcHaeiWqfPW1t506MzjrsNBTbJOzfF5RMCyqD1oPDYb0Vlu21ySLZPhgrDsJmC4r7toA9EQZ200YrG+xrJeokWdt+3AuAvUjJ511A9jaPyzOFiyCefGAgG4RtA1+yHRFo4VD7PkuATBy01SLD1Zuvd1W8sN9vRDXp7n1AE6DNoIxXCJq/E6BdA9rvgEwGfRRPryM5XypIHgO+bFXbGDmPsQORvLBzYdX2e/9FMMb2FUdjxUWA272KM4uP413RsEiYz4iL/eNjr3E99Um75ga31SKyZGsBaCzqf3MDffiaOkW2MVruLiYqNs6vFoZut/zsffVfsetjHd+3YoqnYe9AJ6+d1+BZKStKbw3rF+dOIFcp/oFYHWnA2hYTHdshFq63rD+TzXUXzNox8TapLJpNxB1L5eMZHG2s7RKEfdD2Cox+b3vejw+cNIiUAWZRuNonOUgM/P8kCgVaCeiqityWi5H6xmO5xmdSYaaDj54uNF/kZoxhDzchbAnO/ts1oO9///uvu9jsIwvJtncGxJh5GvaehFA/OB7NlX3f/z4w2IUIGLTQ8LlYcJzsWxdR5E9xZn9c+WqMXeTrvj1TuETo6quY6ljgnt6KDSbMTRUw85/92Dx4yg8/8ZpzWlg6TsYj429BevFs87Hf2yd57Xw1/7QP/ED8OL+i7fhf4r/9tsW8/9FnluAugjKhVmhaBRownT1goEn9ieCfhMi2lOx6B1SXyVxpux0nQQG57yzD7TPTcv8S2cs8OBznzl9O/ot8CbKDDZEWMBYhE8cFyIIQnzoBep6Tc/sq2k9CZFs8DvsWUJvQiAn9GDMVTsesonFhyhjyzKiVnInvpxUgfgdkTIGD9bulmS3B7Y2o9hmv5J4A2Y4mOuNxRep4gAPHsgWKMWgCctVdQTZ+EXjHqyRjErO/i5NWvYydJ2M01ib4q4hx7pOXJklsd+5RWPOXPt8TZ+wwd1mkmo/DMb/ZwQe+BkRM6qtLDChqrjxwgVIewA/mlfJpeY6ZFO2WW50j2FMu6zn2b8dgHL36vB5G2gHY6ILbRlVNXY3aSNpvNeF+GzC+14EmNysrCepZXe/9v+6cI0G6XIP9rRRd+dg3JLQDSOBMBE0ehM8kQLuutl0BFxgmr6f4AEz6f282aNAY5MXFE/AvUNv3rbKIqRPMQC42LjK0QJjIngiPNnkhnW9CWPs8jHQCsmMhUGNq8dn5eyEd7wPCzwjQLlIzXrC5746ZMYC9EB5/XS2DsUvgve2JQOi7wnjxwEU29mkJEow4Bu9xSEXSGGh+NY/4vr9+XYbx64LEuVx+clxNuJxvYu/MBTuco42bz798RCyI7SU85tHtb9FCH08xMx7KGfCXRbtc1piaU4zbq0B4i+sECLJrwrfBDsiJf31ulWaBwPhWYnWWjyuZ1h4DzWMx8RdoJjP2XTMIL4EYYPSDDyGPC2CuMgCkQbSkqQA6yAZjK82C6apwL0K5tpnQnNGkDp0AACAASURBVBx8Zr+/P/X3Xnw5/8JdY1l/8r1CYx/bTvu7VbaJzEtwHjuv5OZhosaACW+3YX/5y1/+6CaE2cES3I9//OOXALnP9VMSsyjZz/VVq3j7yRgpCTwd17xxztrm2uFYFrNP15EdExMWOWTys70c63PMBbS7MXeZ3/n+xHfrt9xlzHhlxJzRotE2E6fmkPO2x5urWvhe/FZOsB+c5/jAnG37KmTFajnaeG6c3C8+9fmvR/HUCa7MWl1epHE51Q5iWcGGup33nLN92GNgu8/ObFiScxKbsApWktOzgNnsi/+ufAB2b7OkXd9gQdsGMHa53/cqHmLg5RnHxUBrleJkNTl3NuXjmphu00mPDcWIBcygw36TrZOhwGafk7ykZNvsY/y5mQpjvfBnQtr+3YSwF9L1GpDfiOox4fv1N/ysPx7FY1x7BgROHFdECHIrbowPt7vPTzOXElJFxwKAb9yW41Fhrwi0bfdNP/X1k2hdKxPEmXOwrcUgfnQh95QD+M4ihR9c2MBBxLhLaybv3hBFrpdjPaNp/hBf+9AcagGsaHmsYKic4P6cw+ZUF46Nk9trPMrl+Jh4GQsvW3kY6RVgBkAAGsiLtDo4E7cBWJLbPhxrQOB4+iL5rcr7vHPXd0XD53uMFiScSOXDO1+w1xUudq/SBYieMfnWy4qsQdhZFiA28EucJRSTRcXA/i3RWIArZPtOHEyUFQMnPji5BOSzxIb+L2FxchnA3e7EIf7GU5O/BQv4RoB4FpwTjTei8jRs54ZxPQHaDMhLcDu2d8FdWDCmi9sLV9dMvbHwdz77eoWFrcuwjB9SvvBw+aGCSCx2vn1vcjKRlSeMV8casemYvfSPn8GPhal8cPED/dk3Po64WDTXB0Wouan+s3+bO2CBFxN6RkabtekSo0vMrpy3INrfLjw8M6pAXXxevSgfvnKea0BONjfmqtLqZjKs8+iYisEAZlsH3Atv7tfk58T0LcqedTjQCxLBo2+DspWdiY5A0x7r/jsHomtQ9h0xsR+uPmcb47bY1G+0hx+dcO2rhGCiAwDYjLAacHz23WUlIPsX3Jh0EDwnyCUIHNcixUkDDi6yceFgUsB/JrWrTbbNTo7d74AmQLyOgXb3O6B/+qd/er3PBwyCP8axY3c+14DA0rb7dQxORB+D+LuKNp6c9I7JPl9iVPJxX85xxmPsuMCgOPAykDFg/Jjc6IM8crzMGT6uotTjGKf5wbG/RNRLgM5v55NxZgFzMcbx9Rf+cV5REDdmJuXmEd9bfNhmxk/75pVy6BMm7G9jbts9Xou9c9Rj8DHlGmMM33X29vZCOjuDztqpG6wY1UkQBmTNYz9s5D674r+I0CTixDXo6KtArqNNeFdf2FbRNbmatAAcIgBw991LXPTbduxDVzi1zcBqDPA7tlzAdz+tQkxS8ynJylgMmFZsV1sVudqHj8FFZ1uXGHkbNjxh0wUHPsWf4M0Cz7bZuf9bgtujeFiC49z9DmhPQpi9Lhbob+cO4xMgfgdkv28G9K1vfev1S3kIy0UcyW/ys7gbky46dt57uAIXtG9hQegYI4Jqu0zSl2iYjDiPcyw82Imf15eXRysMHOfYeZuLMPOI49k4Ox7OI4sPXAK+nMecQ3HmOCIa+Nu+oogwlzXvGJsFFnEwl4IJ4okf8YdjUH95/C4UGjf64Ikf9ZvHVgyDB3OFi6VPcTjPgivpuQEHy53XyRznionOcYYd6CBwDm12YAaoA9+g+nwnn9t32zveywIEsgQHYW47iQVYaM/gaxLj37ZvIe35Fh6LXQEwe5hNAXb6w0YvETzZYCIzUPjs2BXcjgPHIYYlExLes1b3YSxepEdCmhyJia//mez4TN8WMpJmx/RZcBUgfgeE7RDPzt22CZBvQqAfngU3AWqSeuyIZitvV90lJJMJ/sL3rcpL0M1HhGLbr6XKEogFwuPq9orEZXPz8olr8A24b56TN+YM2+MCu/xhXBTT7LPYPHERRej1I/JynL8/8e7EAMG2XS0wjEeLkn1RnnEbLm7gDBfH5fFyQ8dSfsNfb1yDAHngnQEASleUPsZg4jPrzK2QPCjaNQG4QrN42QaO9zIRTuR97vu9hqthALht3NFW5zRJLKhOrp2/60S1g4phQTCZrx8H2d+bABa1kgCAasVb0TWBcyy2un372m0Q5yeRcfv2oXFAvPAFwk1iUukjHPja13BMGk4MYmzhhyz3Q9Dhwono5DOJNJm2j5sQ+igeZkDM5CE5+uVVINwF1zei/vVf//Xrldy7C67ESNFgYQEX7sfi4NgRU4jVRE7b+PsijB3P9UxygNwqXiwKJjLiV+Exr1xxKDE657yvx7n4YEwuGl0Eu0DbsX5tS3MTTHC+l+/AIP1ZiHbc/nP92MJkIXB7LUSwBR+4n3Kh4wBGXPCVd6+CwFiouNoGf+Ycx7uYMD9cXPFR7HoTQgMLgdgBAA+gV4B2Tqf3NpJE8q3NJsCLDHGohQ/A2SkkUAOA/a2QcZATnWNN2k0GJ+j2+bsrMI/FAkfANwZuvwaoJIEBfvnPCWEypZ3LBwadhWaflzz41+3hIye4ydDLRgacsdP2+O4kq48L9s5ePBbw5grLsz5sMcEwfhM4j+Lpw0gnQD/84Q/fXkhHbHpHVG/DJs5+Iyo2eIbLWJhZOcFN9P3sAuOJdLChpII4OY/8Q+uLIEtaJlr3Dw7IJfzVJS3bVM6AV4zJCp15ydxlPNguY6qFtnmM4yic9t03BPB9f2kHASLPOcZi6ILNPmrRcOWaMbLZEMWcMV/xcgFADCooYMh8Q25YuMpl5STz2yVgbPuo8PVt2O6s4PP3K1Co94LgZL8AAzE8Adzk5GM6AJwL+e+7Z1gGsMWS9mkbAcExgM5VQWcdFZP6xCL9NGNxkFy9uOrElwCSxOpMqeAglthhYQBo2GwSA+T2kf1uwXAyOYGcPCWRq1i5wGoM0F4LH8a8/S4AXO17rBXBCvDseE+AfvCDH7wEyERn/659noa9u+DsE25C2F1013hLFDtmbftmF7aZfNjW3HXf3ce4yVn8aP+6UncsXCRdBPpZYmE8NzbE2bab4DnXgtLPJUH207bJz8Lg3Heu2HfFu3OBmNhG+4rP1xidE/OJhZiY4CsKxWucfb1G+Y+C1eNw++Vtc6+XY9/DL1gyjzhHsIlLBm+3YTOgz1o/vYjGyWOAYWiNZzuJ3CAbxHaWq0OSwlUsT6i9lBknIC4WHyci/ZkAAMV1QbKVUIWItunvEg76bPVrAeR8bMB3BNqCY+BfwmQibkWN/Y4NAg2xl3gMOu9zHDwWtl+FCP4BA45HiXB9AeR9ZmkFIcBXxI9jOzawvz53DYebEJxEvJBu13Aosoqbfd8S4K4BXY/i2RIcT1JogQKBQRImN/w+gmHVwNXsRSxg4BKmYoLvnc1ZoN0OolBslwdMYM4Lf77I3jl/4akkZxHy2LzUVsIGAy3oXEDjY+MU0Vo/PJjWS/o+1gIAn1w5bU41WfPZvHAVj84R4l6MX3goTxiTbhO+dk7a583ZJ8zZpjcM8CQEk5IVztO7nwY4JjCC4UrOSVsic+XaQZgM9tmiZhL2cQY3DnV17sraFZ9BSBs+FhHz4z46lisIJAFgxM/8xTdXoLGfC7AldFdWBuGTHw16igb7qDOni7RNgtfSioHp/rrUYjBfGHMcPU4+X1XX2vESb+Pr5S+TCo/i8TWgtfXNb37z7WGk4BlBY5z7zgyIV3Lj0y3Bffe73/2wGdCO55wSsOPLzM5Ezpg963dbfDYRl6CMCZOQfU+8L9IobvGfc79xvGJUUr4K1Stn4Cr8glAaD4zLxeza7wv3XIC5PY/f47qw6ocgt/LH/pK7Y2pfEX/acexcvF587f3GVYtU84OLRMf14i9zZ7nV4/G5cAtFi/3wOmfXgApak6kHalC3Gi2hWWieRIEB2wlXdVbyqx1r521K98knL/MZsMm9jvEY6kAnjP2z7QMJz4DjOESrFwTxi5PUYtakp5r1kgBTaxLtPaAwRtopwbUAKAAvcqkPsc3Je5FcK+iSGd+bbCbFYoe+HS/iiD0UMsYkfrD4MXZis2P6LDja4GnY3Hxi0fLSB8+C4yYE7PQ1IAs9vqXKNTmY7Cwyxr/j3LzA9lbV2P7Up+NGkVESK64cw5I0493f/4+yd9m5ZbuqrM8pA0LKZ0hRAAkDSmUFEAYkLvkoYJCS+yuAhCVsXoVbSpbBNlRAkJnFzEfIChVToMKv/sltqe3mEev439LWt1bEjHkZo4/ex5wxV0Rn0caWEy/7/eIEiN14tQA1USnOK1rUY79aeKiP8+YEEgqWS504UC9+Mq8wRpPylbThA/6CEdvO9iruXd6CsOtbZ8/b743xK0mxdhgHjlfX8yFAJq0r4K8BmcxLLNTRtcxd400AGLBCUIK1mGCgghxgO+MxgGjD5OayNnRBUrCt7bW3LbnO2vh8ER9GJ8PB+QSS+8oxCIK/iJ+vNREYaBx3UO+YyZI+MfaVJXhMGiaACqYDuzZ0vbMh4zDBVYR+ENBiHxOrMec6G9DN4myDneOHqNcbUf/u7/7uYwZD/8moWfpdv3gfUJ+EwLPg2IbtILQPKwr4vCRcDNgvJYFi66rLZVi6Ak9Onkwk5oAvOk5/nRyYwJwM+H4o9TrxMD+YOyB5ZrtdOnMCRx3dCAXXrG/MMo0ZxyCCajtZ+DrLBa/mE8cnxztbwjYWogqq+cXCZLu5ny6DjT37sjh6TBePXn0xr8HZThBeNkCATJqfKNT3ZhRVPwdNBcOOoXNeMjA5FuSXYTjmQDC50TcDxeBzoNgIT0702DyzAnwmuIkQ6/fOqkwQOMDiZxLotPQiecp0PdiBb3HGZgav2wRInnGxpFgyoA0LTIXC+PDMaNewPZ1xOej4bGGmffpo/7kOPq89/L1rnrJsyIX+NbD23ZsQ7Ic9CYFNCA5q/1hv9W8XnN+ISh1sQuCHqCVR39vDziYVJwclrcar7WIs7zgkdsUZ+LzExHHjvrsv5QjjpbFmrNrfFk+Ly4WBCycWNXiIMTf5aOxUUBmbMcpnx+z6QRLi7ey2cWPn8ov9znknWbWBid1i5/v4rhP/cKx9sjDCX9jTbdevF8fUlk/fP2ZArrCGLXBMbAwIwDtgneXuGgSowoURTTaX2JkU3QdARTa6jObKKky+u/66sWihcyCsP84Kd4527fgGEgFvMPnaOtXTdGzJch9ZoW1TX1xBWqJx9g7p1+e1/1MGRACbkOiD/d/MzXbyEgACwdif6i/pkZisLpZBuPbyjzGIYNHmdQ9o5fkdEEtwnQGDp3dPQvj617/+MYNqIuLvFoESWP1L2SvuHJO254WRxrgFDJ8YayVP+584bvZPGa8YWAybHZsP3D+P1UR61V8/F0+NV9rErv29me2NXYgdfhvYOtZmZzzwgrFfcWhMuW2SYrikM6YrHp+O+bgTR/ptG19+qI0bux679eI1XgToCTBt1E6z8hWUdoTPeZCoazPmp4AxuVWFDWAICnGrijN4l3N9kIkFYeedpQNmhG91dnkB5zI+j9OZjQnfZA0IIHODxQRzZSSXmO2YZwqddVxCBMgL4AaaBb64MCkhFviygmqSMFm6fc9ASirMFCqi7i/2qv93fALyla985bNuQmAX3Ga81O2kClLZEtyXv/zlj9cxmCx5GCnvA6LfDVjqsT3XTxIQ2w//OeOlXvxfG1ZIvORnvznuK1DGG/XZ3sWChcZ+B1tca3w+EVsJEfsRI06WLv9iS2Oy+MTG5jrPUNc3J7DlSLgAn3nMV+LqsRLzPuY4NV5oB+7mr8VsxywCcCI4wZ4uY97CFo0n272YKldc44eTPx5GWvBcSn8B2UF0BbwV7wKGg+UiNI51ACU4ByXXWHwMJAePs2WTBXUAOmfc1OWnHmAvX0c7l5hS3uRZABiIBd2Tg3scJ9ef7lvBalJwEFQoLpEpuXCNkwPb2SJcknsiaOOkQUR7ZNn1m4kR2zBe+vhDP/RDHwL0y7/8yy/Ir+w2IXz729/+uO9Hv3k8igl2SzEToN/5nd/5uB5b+x5QbUkfTCRPhFB8XwLgYxc5+FiTqpY3ORcP9ZHty5jaP+x+ZcaurzFr/jFmjXnbxvdvKHPN5Mtrq8MJzhW/FSwvi1/xZC66+ttEt5MBfORVhbXj+LGdL/t4HOZA6mxdToSxm/1Tvrww7TK1y8u/7IIrAVQ8LvDVef7ebNtOMCEZHPtcUqoxa4yCy2IE8TIz8c18k1X74CDxrIXxrY0txbChwsAweHBAHUG/TJA91szFwLWdLqGjPfpSIqat+s9jNUjxHQA0OVwB6mCg7WbB1EkwP5HbE8E0oEx+lwCZVOpTk87uAe1p2AgQ7SBA/SHqrmWZdH3ldQxsw6b/fR3D1X9sAiF1Rsp5E+lFLPi32Kh4uxz9NPHYLsSLbWdcF0slJPPJO9J/IkpjztcXixeejFuPuRi/riWGek/Z12I7jpnUd86cxfgoQyzDOY4125wxIKyd7ThOyjsXT7cf9pf7UFtfoufYql0uTvmkLR7FY3C/A5kbcEUGGHV5uYeBdAAGhwOmgujgsbPcnxnCYvBkPK6hTtpCqNzHLn0grM563KaXQ0z0brPHDULs4QwRknNwPgU/dTeQLbKIm21MGw7Cq8+9pgLhYPxBRKe4uZKB+ri42zXznftr35c8fH0Tli3B7YV0W4KzDfc7oO2C41lfYLBkv+t/4Rd+4bMJEP9WBgHqPaCLHCxAFhtv/WcMXX6z+D/Fqvvl9p9mJVcfwUGJq+TnuC0HmLAvvBZrtFWecF8gQ46ZHItV26dcQBy6Xz4GpowDi5WX3xyrlF9dLkN/4U6PHTzYb7Z7OcN2vvpfOzTReYpJx3Y/X342pzTZfvE+7wMqyEo+NsgFlieQQkIdFIauAHlgbseZNHWaPFafMw3qpV9P7RnUHaOvWT2r3xlIs3v6a+I1QRnAFiEDwmCgTR/bdZ5leZyXsFW0OqZ39nkSsYLPdbg/9r2DAr9dmHCw2i7Ue2WT+N4YNPGwgcT9vPy+Y34lt+v76le/+tk3v/nN13P7jEHq2jGehu3fAa2e//E//sfHw0h5pfeFc9dT4qAvvmfTOmxPk5UJ2sef2rhi+SKcq9wT4bldx/zVB5Pxu7IVJJMcn32MPjghMd6cwLruXddZM/XydIqVJxngqdUVdNtwY/SPYhtrtOdYbyzbNoiUx1OOKf7rE8bcuHMSZPF3HNOXp3G0X6++92nY7VQziILuIimTkBtuRuwBXwOwgS+FLUjo22UY2nbWVcHCYc6i3GdPrd2fXcc1vm8E2WMDl8PJnkrb8XU0tlh5Z70udwGqvnDWd81GbdOn2WoBemWSDZZ9Z/eO/UN7zZCwb21Sn+28MYrNTUDun/FLXSY8/xDVttsS3N4HxCYEEwP3EueXS4A2Ru4B8SgesEbfIJD21Zhs4lHBuci8pMJYL9xhc86B96fs9kpKTXq+zmVtV5O0fVMRMnmWK7CZ22A1AzzQF4/RwuzzjiNjy/GLrX0fEIxzfQXIXLj2iOPGE/d86LvH7pjcZ5abK1ROjsvZTxxe/NgHl5gWL/XxxROUeY3RP0S9APzU+TrP5SpKOK4BYzLBsCZ/O8yga1ZjAO7zdd6OM9iuDKkObzbl336sXosbROLlPIOjRGthuRxGxksbtGdxNnmVsBvgJj5sYv9YcK8E4Z342G72tUWhfjbZmYzJRq/2jAX6XsECn8ZYCbPCtfNPM6DtgmMJzthf//18Np6GzQ9RwfAEaI/i8Q9R6buJyP01mTe5KOGYrEw+9u1TjDbGHSsX6ZqYmmgUf7ZVRaT4umK8YkP91/K+x4EdEdGdqyg1UXVMud/e3eoEk/7b9sZhfdT4cBJgv/teNURNXK5NfyZmVncTFPuinPzEE1fMP7VHHcUDNmib5ptX3Poe0DtycaUGKE7ztTOmf3zozKBZAN89cJOHDeuBNphMWIDOBigRuQ1nehWEy5g4hHEyPoMDYHS2gp3qHDIiO8ljpD7aqPNNNLbllblYHFy2gl/CeOrPk/A4oL10dGVKtbsTkZLQJTb2gROSp2TFfePzynYGhH0mQJsB7R5ON7UYbzyM1E/DXn+8CcG+N76v5MR48LgQp9ZVfxYLtn0Jy6RbLJhsG3v2T31rXJZfzB3FVsXk4ibKvMjs888/2fruGFm/rhmv44r6ECbjmnFx38bLeF3Sc52Ik2POY3MbTiSpA/87MfTSnW1wCVD5xHxm7FyJqvFwzYYtfk8xXZ5yfz/8jwD1hJ1aggH8BVADxJlYxcMAf0d8NoKJp05EgDxTuMTDxFajGTiAsOpf8cUW7qefjts9/Hba5RwDxuvL9o/bLAFBaBx3llebX+QF0J5mDvXHVYdJr+Xrt4uwKjj7XlIo6WE3b0bguotMaxewwjbsPYrH11mAqHf+meAYc1v/3yYEfgeEv5kBbQmuSUH92e/Gpclu9TDuEulFeBaDlfdSj5+CYcxXGCDU4tgc8X0k8z1hwNer//odzYXlzlLf1V2OYRyID/HWpOQSsKcEiLjYNdi+ZUk67YMvEiAL7MUp4BORevJv7cN399V9p13qtb2bdBS3LnuJqv3pON91r8S8mxC4aH899bwExEQDIbSTANXEVvDbaBjaHb6ExGIH6XLzr5kOhmIDAXVbICGV/SVbN9gqtgWMiZZ1WcrYptSJndoGNvV5+uQArnP9HQA3sC4BKqHYzyUE+6EBcAlJCcdEXRK47HuJl4nvChYnDu6v8WK7mJRWpo/ioQ/8EHUCYiJvEC752OsYmAHRLjOgbeMGrw1aJzdORLA1+DVB+RrjrNi7sOz4bVbd+LIviosSVePZ/XLsgT3HRGO3uOp348ZcQ8xwf85YLG7gOYto/WoxW13Yy2K647sOMbdYgEsvt9r/+JRj5izwZtww1svnl/1tt3IP343rxgt48vFytDkRvxhjTnheXPQTP/ET//H0q95WaKCZCKq6T842WOiMM21EoGAnq/UUsyCyYLZO1wcQajwbyp9XzoZj3M4Sdx6gFxDvbMM5k41tZJJveyWvJgNPYKCtgrD1XYF+EU+FxNdVeBsY7uPlD4vJO3LgHML/JDbtP7aGOPb3B3kSAtdBMFy/4+sDAmSbbhccj+LxuAn6azZTHzqL7Rbea2wmFser48GkRnuewc8HJI9OYBzjtqP7Uf/7HDa7+l1B63W7lv/0ueSJrfitngm0/OIy5iDHH761He1/7Oh4aAytPq4xnq84YMxwT/nJ2LKf7SOXQeDWp86GKn62peuw6NUHToQ8NvNW8fNxDW9E5aJmIBfp1LBVV39vJkF9bqcAKxkCcF9rkWGQnrH1GoxK39x+SZOy9IP663RnNe3PE4FfthvILK5ut2RagXNAFHCXHX29x3mNsWC+yKLk4/o9EySw3/WRsVyzo/oE25uALEAmqOKTPjjzJcnZJgIexePxsgTHs+AIZI9/nzcL38NI90I6kx4PI/3ud7/7QZ6cc2bd3U8X8ZNxI0AmphIZmHJfr7gwsey8Bajl+Y4N276P91zjjLoYp4nLtqtg+jr3r8uTiBy7L21r28o+BHvgxyLjWLRNu83fdXt2xzUWg5WlXxeHeBbFeOxXMOpyHs/VZtunv447Y7+c7Riuby7eKw99IkSbAVkkSnhVPUB1qaEB5wwbw/q8O16iu0ja5QGHjeQdLjiVcpeRGPNFdg1kB4ZnKwQOALLaN6ivIKJeT8spt7oANksv19ry5dxLKGwzi12zHfv3skPHRfu2o2e3lH8iLPu6Ab6+lDRKHGDL21H3uWJkQmOMDnj6wS44fohKn7YNe7vgtg3bY8JP4ILXMewekP994xvf+OzP/uzPPnbBdYZuEnKGbBI08dMWiQvl3B4kY4LmOkipmGxmXGzZV++SRmfDxovJnXE6aSy3MC6uq23KK+Ux24wx2/YIlrmKMdr2++xdrat39ZAEkAw5lkzy5je/DuWKXYuLsc5tAXB9LWddwmQBLM82JsobFzfYpk0KnzBh3ncfPnCye0AzsAdU4jEx9BwV8tdOdWDsvJ14qb2db9I3YZjcrkzjCsYSGwCqklvpMXQBAVlsLBsDvwtp9uXA5zNB8EkG8L0btJCtncX4yHoBtWcrtr+FpWPjO2Woy0FrQJmkLgDZPwUl5X0d9dX2FTyTILa+fEr74OgidRNDx8tYqZu/1y64tbUZ0N/+7d9+8g4oPy0ZP2wG9PM///MfmxD8r4/iqVjYPx2L+74Z2M47+akwNJ5Nhm4XW1+kB56N1RKUMdJYdx+MA7B8iVsFsbzj87Rn3qFOlsQtuMSSE6Xi6hIf6nJfrvFgY/OA76s57tp384L75ITTcQJXGCe033KM6RIn86eThgo7dZvHjEn7pe1b5C7MfyzBEaiorB1nMrlItQTijnHOWezTvZ8C0oMtwW3AVnY71PeL3DeXsZMBlonYjik4nI093XOw02s/xkngQCQuBzkCNPrrjNd9vAjfZOGAeQKqfUt7BqU/11cmc4sGfeAva+21qUnJdikhWfRcrsc9K2K81NWNKCadXWcBst38LLjawv7md0DXLrjdA9oMCMwV15AE8UKWXcxwfW9oM27I38Hv8Td+7CeLdknX/bVgXkTOtZ5dgOfryRTU7WTram/HWFLr+bXJOQtoNxlg34sfVqe5wGXxO4kHAkM9cJvH4rjyD5adLJZvPS587JgkxuCOfe+9ImOs8br21mfbyOMkZvyyviv2GPeV/FV43B+P90OAGhAmawewA62EbtJ0wJhE3FEDnQ4RCK7b5ajXCo0hAd+VzbVdEwhtEbRklzZgyzuQcNz+GlReEiLgSxxcYyGz7SwikNGOkSiYPC1W9pltCvAIMvoLEFcfO3g8/vbjKcCKGxOd+2zCK3k5uAx6f8aODhT6a0Hn3VCXkNKux746EKA9jBT77jiP4uFZO6GjjQAAIABJREFUcNTZpZktwfEsOBM4mxB6DwhRtpgUwxvTtevK/nRf6/8mI44fEy5YxgcWGdvJ48LuV8JDOQidMfLdMWcxcF30z+PrWIkf+oJPiBl83VmjYx9Mc8xiAgfZPvCdl+Fodxgx7xWvjq36ovb0GOwPc/aVqDjuqbOi8CRMF/+XFy2S5qxypdt0n1/+RoBKSnWyv7vjHahBR9A4SOsYvhNMDLTCR4ctdHy2wfbZWZBBb5AbcM14DK4rGwKcZHL0GUHhGgDfqTTnSxTrOxmgM5+VszDYyfUF9q+oM16EiqDacZPfzvsmdMkGfxE4T4AjWBtAXEfgrj5nWl7CwD721T7jXxNZxR8fUt7nPWawycx527B/8zd/87P9DsjBsxnQngW3H6J6Jsf4eFDoZkC8jsEB50fxUO8nmeD3dnbtmFcJ/L3Yd+AXByZx+5A6mjB5rJctiR23SdyZ4NwPx7r5xXFoUbDIuYzrMd80OV05462JJ/FlQQAfPsd1nql1LPTV/QfH1A/GzX88ugebsarBWNwPPm/MxCi/O2vygc9snyvRw66dPT/FGuWdFFHWHFJxM/6Mnc5QP//Sl770H+48ht7fvqKZikqgJfYqqxUakDRATGQ9BwEBDP6asDEARGDjUJ+vq2jRR4PFJGZRWhlex2CwOSB2vOJnwll/m+lWNACe+wSxF1yXmGETA6ZTdfvOYDN5lsAqCE8iiA3oP/5y+fqkZIafKoQFvNfqjWELnrGHHakXTPdRPNTlXXAE/+y1ez74ct8nQL/0S7/02X//7//9JWD7wC64/Y7IYzRJYhcnLLMdP0j2DeySKf20f42REhN4t/1XhrH1VSPFrjFwYZH+IDwlPK4nrsw1xl5J7sKlcc5saH5hDODff1evExjbp3i/Ep2V6VKgidYiZ7yYI2w3JyXYzGPFfggfS8n4jOuNJ4+XOosJYsKYc/vul31q/rTt7AvHrnnLvPd6IZ0HZoMbKBfR2NAmbILS2bSzWxvsImOLhgnFBvQaJmUgO4OBMWzgBqU/uw07nnqa6XqJjXFjZAcn4LOdTEDUbyAVFBfZ0t/L+a0fv5m06D8gNfldQt8xuQ2D0SB1vx3UncH1GvuLYDD2LBrYHvuxPk/bFm9wvXPMziEE/vZ3QPhnr2PYTjaWVxgzS4v4wfeA6PPOXZsQjJeVIVYQGvrr2SL+sv9pG1t5BmP/Oj47Iyx5WnCaKBVzFxYbfyamnfMMYtf3Xgd1ViBtU3wAXkyyJKJwy/xiOxpj2MWEaVsVY07AHUd8RpjMYWuvKyHmPbios+LVMTzsOLN07GXeoS7sTqzXD8aKOZgZMdzjcrTHuPcXXutkpIl/62F81PEhQHTeJFxHmwBMRh1gle4CiQeOoVy/AW7issiU9P2G0hrWhMrAV8ZiRfsIDYHrH6mRjTINNlHQ5/6l7TriIhJPqxFLL71V7LE9Y+pM1uUtPp5pWTzwq0nVADPRlHQscvTrKXAtXrNps/EGiTFgsjG2PCYC1Thy0DTI+L66J0B7IZ1fyb3jLMHNH66XmRcZ6fDSH6KuPK9j4EkIjInxWCgYC6TDudrTJFP7l2Btt8a2cWORpn4nDI6fEjZ+BRvMxiDmYsZtPRGnfWOBaTzRVy/x2MbmBGxhbHdmUmJ124yb8fk7y3ZOtllmYyyQPdzQ2bg5xGOgT/jDT1ww/s1ljPviJZ/DNztGclbO9+zqXfyXy8vnn8TwluBWABAaYHaCA8WkdSksgeKOQKiQmwPEg2+g1AFWUBOZBcVlLFQmLDuf3SkNfI/ZpOwbx2RaJkkDyplFx+mApVzHVNI3Wfj6CtrOOcu1EFLWBID4dR1+ZS+hvkBlErXtrozJAW3yNA4bPMadye+VTX1vS7uzsJXzcoXH7uwaIZwA/cZv/MbHPSD7a0tweyX3BGQ+5/dAxuvq9sNI7Z/NgPgdkHFIG/tLEmXMrA7PDsD5ypDR237FD/GJXSt8XOvz9h24cD/d3pVYGbNNRogNt1FucZ0VBseZ/YNNEW0LEhhwIup+0f7KgfVij3r5S9JkW9CfLqFiwyZWtr3J3XVzTUXK/WOs2MYx1JikTfM29rFtqwm2dW1nnDtG7deOHV5+7YKjY63s6nArbschrYsUSzYNxmug7gPEhUMwRsFlUFGnnehALbGVHDlPwHvprkBwf3aOWZLtaxtbIHccsNJ/j9NgrJ0sCLYX15MZdqnDgmYbmihq/47FwX8RC+OynZv9uo2da6aNXUugJqgmOS5L/V0GLv64B9RdcAjQNiF4xkYWjO2enobNLjieJUe79JFYIQkymeBrJxEbT5fmrvE2ro0TZ/DFFrjkr8dsX7k+E5MJrglCfenM3kmvfVPMEaOOJbBnvK2+d7Oiy2Y7BgYZ3zXOq08cI4no0loTAvNQSdrYQGQojz98K8Djt/C4HpcxlzrR4Fp8Qdu+5WEfvrOD7Wtsg+nX07AtIi5oB3PRJSwdsIkIIz0Rl+szSSFkJUBIp0rPGJzZcq3B/FLfPL7dhq+olvAtEA1yB1FtVTs7UAvyzmAASYmjQWRf0M+VcWbmjIv+m/RtI4sUwXn5+yI7E35t6mByILrP/XwRAn0Ct+578WQ/Fhsb/9M2bL8PCIIjgG3/3WvwK7nxL/eA9jsg+9mERV99w5mZN8stJnln1sWnY9WfbSPX5TF4xmryeZGGHiVUMXGdJbuWpU0nWZ69mnssvh1b456lcu6pGYO+Z+N6nBAxfkTIPjKvPZEw+OvGC2MR3zWpKPkXa8Qi1zO2YgG/ub/Gu2O14oM9L5waJx6P+bDXuT5i9eVbfojqgVuJ7aQqLAFIZRegnd1YBJoV2TgewBVIJk+LDY7Had4mTeCZ0Bq0VvwCoUG5epx9sMxTYQIwGN7AoI2LVBmDAWrSr3B5LJ1FuU0TveuoLQzQAreYuITHZMXnLoVx3MJXUaCPJgj32+O5AoJjDRyuK+H5adgO3gnQ3//933+8UnvtOxt0G7yO4Xd+53c+MSGP4ukuOPqFLZx02M6OCfwLcRdj9j+YufzrOHf95QJf+4SLcoa/c40TM465f+YH277tG1v2I/YA78TchfMeM74u0jY30KYTsx2DbxiHiZ3x2lfGru1R2+wab9rgPqTtAo7se/vqKb6xlXEHvn27pIlFfdr4WnlPZMxdvif42oRwCQCOwFBPQKRzJaYqoZ3uLKPgt0hUjBwcDJoBecMATjNIIHNIh7r9vbMnl1ldBrkFD8EowAqIAoExOGAhamc7lw8uUnUm1CBuQLwjpZJFfetrL3HHHpdQYrdmox7PhSkCw7g0VkqOJgTs6zrqv13/wz/8wx8PI90SnH3Cs+B4GKkJZf1mLOyC+93f/d1Xd3Z+M6Cvfe1rrzeiNqNfGWa2Jib3G0xDGiaIi+xK7v7uep/i7xKbJwEyaV5YIW58fdu1CPwgoueYwK/1Kd9p690SrMtUELA5G1x8/618Ynz2PUuXby2YFSXO1b7Y08QO6T8JT4WNGL0E3XFLXJqrek3H0D7Qz/rn+wSITjUzbMDV+QUPxiAb6IAu8vQx108ddQ5tWlgg7QKFOtyfjvESA8+2SooIBURgIi4w7ER/ZkzYizZMFt4AcYGgdnGdDWSIquu51zifyMbEUUKxrypMton94Uzpqs+2KM4IRGPh+v0apOCZ94UJluCuXXC8kttJBn1fvfPTZlB7Ftzv/d7vfWI+dsFtBlQbEZResilx1qcWEGLWxGdMNK5MFiYGym1MbMxZPd3tVXL2QC2sHC+BefweF/Fosbp4womBccv4d43xDTauGZLbMoauMdou+J243b2/bUzxj5SdsNK3XtcYa8zYt9jKyaH9d/GAfcB547cxaf4pni5+hF/M7/5sHmcs3tT0+h3QTnpgBRKggcAux9eYDiIP7Ak0BZsBQ+ep0wrcAPN0teJg0lmdCBVOscHWlm/eEyA7tkyYaw2CffYvogGhbWNRcNCbGJwNk/nSRwegQeHjFfwCvzMcwOYMxdf4vIH5JColSAc0AHTwGytOEi5Sraia0DyzdpvYw9jbdftuUdobUXkSgu3pp2HbttxvwJ6eARmX/BB194CahTs2iC/jBf9DdsaJCbyE/3TOdRMfxiG4d/+fiMmE+c5XxSO4se1bpjizwFAWW/ic8UH92JxzTnqoi3i+cGMRNff4aS9XAnrFkEnbPvOmEvuD5MYCzbip/+KGxqz9fnGz+2obYh+fL4fXN46d6sIntuwbUZsJ20AViJLM0/kC8+pQlbSicpE2oukB2RCXwagHwmi7FmITpIUX0rnG2ywLErANHDQmCR8HIBaiEorFx+0UaE8A2HEHogPvusbn2/Y1M6FP9c8TeClPoF1ZVds1GVCvBcl290zS2DFmeCX3nmZg7LMJYVku14IJJzz8DmgzIGPLAmRb2aeQZYPXIs9SnzeU1Ffv/FifXDHscV99KZabENlH9X3JzInu04aVd1jknIUGMva9Bsd1Y9IYKnYYm8fhZMY/TL782oSitrE/2i8SDscB47TgXDxQkXMdFyf5WMW5fcT/l8h4tmmcFOevmON1DAainVBwPYG9oMcAJuQri6rQ/CBgA1gmEbdT9bYBDTZn4g46O7Rlds6/WKcspNmHeV5gB1jOaGx/27wC5Prs1Kcxv/OXycA2fbrmEg4HaMnNAHTGahzYH1cwNkHwOOszBLz4eAoYJyH4cUto+yEqz4KjDe+CIznwUh9j2iaE/RB1T8O+BIhNCCWIziSMAQRof02qnbX7e+u3T0tYkGTJF7td9dr2jn3qMMYvEqdOY6oZvrnBfi/RwwNwwNXeyhDLjpsXEX5vZ59tUPHkO0vv4M246zHHq3F/fTZn2kcWD1Zf2jcLUmPS+C/PX3zyFP9PIubVlOLu4iVj5PU+IEBeh7jRizjc2UsROV/yMvE8AeYShQLfoCU76GYEGwiw+u9l8IsYPRYHZZdISqQO0LZ12cyicwlQ66OOLgGUvC+BePKZhfUSGfDigK0fS/wOGn82roq/2sukZB8a6JCAz7OU2plahXEC9Nu//dvf9zDSP/mTP/l4IZ3fiMoz2oxJvw/oEqD9jqgEWAK3bfl8rUzYd+Cx9mn8ri3P7BEKxO3yhdsxMT753n7vrO7iE/vcBF67tL2K0up+t7JhPFz4pR/uD7FtHPqeGBjApn6AqVdg2p7tXsw7jp0c0P9u7wZPTUgaE/TBXO8xOxa8WoBdn5KkKyG4OLA88uFPz4BaoGT/RDA0dhG5jWsgA8wfBMQFhvtlQBOkDda2gWi5npWhT5dTHLglbU9Z+Vxncb1ttDZ7g9eZjJ3Y4w5UPjdTvfxpezkLrdBdAuS+XwFlu5mETI4dfzO5nq8v2gZBaVK98GJ7EVAOUOrxJgTbbwK0JyH4CQg8uQA/DT+8EZVNCLTBJgQL0FOCADkZj44X+mVysl8dj8Wqcej2TT74oMLDceOmglSM2MYX8XGeGG1/e/07Lqg/PT4nILX7Ffuf3CjX755KrL2H5rgBk/ip4nvxpTHHdY2JK86vsvbjO3w8CdWVzFzc6lh3sn9hj7II+2sXXBsziA2OAuK67iKVkqHXfj2oJyBe5EY7A8EyT4hl9XkpzEJDPQXhrnGf3F+TlwmvJLvrvyhzsFMugajQeFkBYiopQ07OuOyXEk2Bf/nQNntHCiUrt4U9nojWmzie6rG/6IczLgIL33tsXnK5xux+0c71NOzVzQvpeBKCicjitwx4r2OYALlv3AOyALVPJokvuscDJp/w1Gy4MWAxKAGRjJS0iimuc1uXncslFbaLU9rfkvC788XA+uffBBorjPHioNXDkif2cl/xe3G0sgiece1Y9nHzjm1l+1vMOvaKj3HX2L1Ewfz2xAXX+Cv45Yxis+L0wfW8D+hSu8vJCASGelK5qzO9yVhihwS6XHcFqutaH/wU5DkEh1Wxmf3YGB6TicXtotj+S13ORJuV4rhOUys+FhfOXU6HmOp8ri/ZG8Qug78vkrGQNTDbb9uLuvAr/vQ4sPXG0aeRl5gsPq7rwqVJBUG+sl7j/Fo64B5QH8WzGdB3vvOdjx+igj0H+hKgLc/1SQj0lfcBWYCwc2PJvikeuabXmrhK+K6/ZFlitzDZ5uUHx8yTAF3Y8djssyfcFufXd2P4Ok9faa84pZ9c676wHR1sXmMF78NAf/fTrfUre80SzIXmkEu8OW/8OmnAb1/E0U+x3Dgsx79LGC7sFcOf+IslOIBhYNsRT05umUudqds3UEveFR/qbX8whrPnldnShw3lJSUTxa6jbQPOgefAaKbiZReAPeJpndTn7MTAd+BTtjOwkgwgrag4wCxe7jufEdB9v0isYm/wNFNrsNv3HjeC0JkLxwlKB7frLjmVGJ9m0D2+62iTzw7WffaTENwuz4JjCa5ijgDxJAReyU39PIoHAWKs9JHvJkl8VAIwXnxdfXddx7jBUBOm4t2xU1sVXxf5d5zFPdcYW8bzO7JzOcYF17gdYrPcdJEldbqsBWr2ePpdHvzm8o4DbOHlvYoAuLLdy1/erg1eVneT03Kzec1JJjajfFdx7PeWrZg7NhuntffHtRYgk3YdfznvAqAN+kVE+Q5oJivKQcAX2AwcjNQAdJ37zHdmSzaQAWyj956NAX+RPyRScXF/ndG4zxBNBcr9LGH1+ouUbJ9+dpDQbsWgdqWNBh79tNAYlBamtUEAQRged/t5Za0NOC/BXYGD/41DluD8Q9T1gxfS+R4Q/XMy5F1wjH/18yQEfohq2xZDnLvIGtubQCwmV3ZdkrCdqKfE7WuuuCj5PwmLyZNrnhKNCpxxx7lLYHwOjsD3Lm8M+LN5asfNE+9E12NzskPMmzOd7CFUFids4xkTY4GfzK3Ut7/syr1mW+VofzcOWs6J2lMdXH/5qRhumZfPfvInf/LjjahrkO2FGNANVFiqdE/fe5yBFeAXgGm/mbPBf5EV4yn4LmBRxmJUQjXRzEY4vYFto9vgFWIDtwLRWcmVKV+EZTC9A5b90X4ZaOCBgHwqa5Ex4faz60Y0SwImEpMe2HMmW2ya3OxLZrzuD4GPcJhk2ITQ1zH88R//8cez4PY6BvptXFDnrt+TEDYD8j9vQiguXY5M1thirE5+GuDgpL6/kggnEBYgE90XxbuXwO0rPiMA7jPjdJv2i5O0Ev9FYI1nE345Y+fMFVf9xdnahNSvn35UEMyfiAdYt7+Ircs39MszUwu2483X87ntuB/lGmNl19n/jv/rOmPIdrM/nzjDfv54GrZJ7yKOp4BxJ+xQ6nM2dhHfk8C5Pdfb4846LFYeuEkOQ/b3ACY+X7vjT07xfQBA5hvHECL2tK1MYB1Tlw5LLFewV9AayCXz+tPXkyBsfH4FtAnxye8lLfsXW5ZYW5dnJQQF/imB1G+u29fg947BJIW/LEAOvAnQ7gEhQI4TJ3Bbwvu5n/u5z/7gD/7gdfna9RIcpGBsm0ycGdd3jTP3sQFf2zYGe+0Vo/apyzd5KJnhK+O5WbVx6OSimHcs0YerfY6B//ID9TTGLx5ZOxwvP3KO444V+udEG67wuPaZ712Ss0Dhk5Xlnmb7f4nBVeayq/mJaxiXfV8ebZvY1tjGTvvbRORVN5sQINFmJw7eC4A9dn13nd62+BQ8Ja4SB8bAcZ3xVPh8vmTm7MJBtDoAAuQJkDhu4BgodupFGLRjR2N/HGMwGAhP5ESweAwGHHVc2eflM2d/Bp/rNxlc5NYAfvKrydz1t90KjIPddqst7AMHBcGyv2Bmmwj2O6AtwTnItgT3t3/7ty9RNmnZ33uh3TUD6j2gioP7/yQUJcIrqI2tiyQunHLM9mBMHptJBl8Yt02sLu4okdn3xZP9bfForFSgLEDMSmrv+s+84H54TN7ZZqLtjrdd798DOb5s185sXM6+Nmd2ZmQOumZK5ZHayj43HzHuSw/qe+PVPne80zcnfR917x4QDoVoL2dfxFPDXgYs4J6UlPodDAXnVZcHv/NMlZ+yP8p7d4uNbfEqSLHLjm/jgV82dRkesFgoDe4KkEFtIjHR+pXQl+OpY+O3Xw1E12fQ2mb2h/1QPxmgtOkxWvic5bpv2N/4qRDZvtTDdfisBO1dcFcSw7gcFOyC6z0gPw2bvnknH7HDs+D8MNKVZxv2d7/73U/etMq4ruBfv3jW2PpPIsU1145IY9lEUds2qXHMPxHm5Z939RoPfO5zEteu7d8ko2M2Bxg31GM8MgtpQlJyNedgB7iEfjuZ82fHg8eIv64koKLg9ukryQVtES98Z5zmuyYxFrunGDau6BdlH2ct3/tdlH1Pv8shFjjX/+II/xAVh13C8kRIV9kqJI7BuSXrgu4iVo45qwa4npE4kHzcAWcCfmrLBjVxlihK4LRf4BQcFgiDYNft/0WeCNpFLBYvA4/+9P7BJYSQKHUxbgf1JRZP/izJ4S8LxyVgFif7weRQ4gO7JignECWoi0zXF56EUAH60z/908++9a1vfWzDXr1gC6IiS90mhC3B+R7Qyvhp2LUX9vZ9BuxiHFVESzDG8pNdS9rUee0ara9NIE7ULv8XXxaBi5QqgE/9ZMz4wPFnjmK1orzl+Ow5jwm8eGzGDNj2stjOz/+7Fjx40wp9L9G7H+ZgY9lvViY+uM680P5WAJ2sGS9PPnGSY5+0D042Wq+vA5eveN0SnAkZ41TRPNh3AvFObJyRmBxMzrRjR1hoTGoOyGY+dXbrLZk506rg+IYrgbq/AxsOcvtrGwDWVgYE2e1lCwOJ834r5pPwF3AGN8JmwGJb95c6/D6dJ59fdsYvzhRNQPYb7QLoArk3u+03izj9uIjMfXd9Fjqu3z0gluBsuz6MdOUrevvOEhzvA2KsvJJ727BJOCA5AhQMzSYVGycdJjB86b5CJo4rbMC5kimCaj/gM2LjEh3abQybB4wHYqtE6/hzH+3vipIFmDa89IV9qds2NV6uezC2D3GDDS2CThCMPezY805gHatO9jqzXTlvcDAW6FMTlR6/kgTfx0Y0V7cTIdvJNql4G5Mel2PvFFc2ITgYMUbJrJ0p6Ewynb4BKsrQGYPCALucjQGaMfg4YGnwYVjXW7IiwEwuAIaxA1aPB+c7a3Ww2rYXYHfMZE3wQs5NBtyn9QsSspDZJtiCQGxbBqvrwD6u30FfELpNkyA+BlcQrG1kXDTA8EfxZ/IjaIxB9//aeGJSxkdPmxA2A/rmN7/5sfTahMFLrFuCYwYEnvd394D+/M///PVGVceW+zlb81szxmfSKpGAHRNYRYZ66A9tV/wtZu3fFXutz+O1kDkWnxIRylR8GNdFeCVExzPi4/hw8uGyTjjBBMmh66GPxio29GsZKiD2Y4WpvnFsOrl17PSpDvBFecDxceHG58v1jNt2sE+JSdq20Ni29itJzicc7CW4dwJQALqsCcMGdeCs8WsXh0HbgLv6c4EMp3mAJRxPyWsUEzz1W3AsMAYQToIE9t1ZhcFvsjPhm9ARCAiIdgueLqddgtJrbEuXp48ei21M/+rj+sYAvuxpXFzE52ssWBfJmNAoC7a4t8cYmDWS8Oy8g4px0z9+iLonIdiGX/3qV18PI0VA1yb3ArHjBOzaBceTEHYPyPgr/nfOQkAfwBi/tme8Txhx7DFGyALbGLf2b33ZWKdsEwJjuclI/WgMmghJII0X+4GkxdeUN2ab+Xg/TmfmQGxhX8e5Y5O6HKMeP+dJeByztOdM33aor7jWPOFx9XFiYNdt1xeXkFx+se8Y3yVgfrKDbeM6L55+pwmfcCgzoBJuM0kHxRrEeDRuQ9i5zeYAAArqYHAw1kAGMAPwMWc3AKDBTfmVLdBMCgQqRImYsey2a32T0DZw4HPD1YHfGQZru9gX4O8vGZD73WU4+8HlDUT8tWMjMIjHgb3PXopYP7d+3QzU9Tq4noAPUTpo/Aie+vICOfb1DBW8mVyxPWMx+VhoGjCri0c5bQltL6TrG1H3KJ79DmhLaO4PtmScI6Ff+IVf+NiG7SD0+4BKeMYHODCO7CfsRd2UcxJG7HDMtvLYS4izl7Nrx1dJrKJUkq6oeJbBOS8rGffYoz6uqIG5YvKa0Vz9pR/8JUl2+8aUsUp98zdit3gx3zE+6jNW1hZPVocTiD9vPDEvwZl+Lby52AmFMUbCdPFmsUecls8pV/6y7TkHhs0njZkXR//4j//4f3hZyUFjEWBAdMQCUnAaGAjDOgX5ofgWH0BD/YiEVZk2V8bZg6fEgMkBWWEz8BwoHmOJfW38yq/8ymdf+tKXXrvf5tj/+T//58cOJ/41i6hwmkwsXBeBc75EYnIyUGx3bOtjXGeBrgjZBg749rvX2Y4IdHFV//kek4nVS49up8Rim2ErRH/X8bnC1eTJIvu0BDcB2iYEHkZ6Edrq3Qxq7wPyLrj1kxmQn4TgJRYv49HfXWdR2HevIuArkiET9kXOkJVxVx9jG2MOv5nUipMmqPbNzo2o98/3t65YsC+MV3OGY6oc5RmSk59yFGPyfVjzhHlrY/Gu2bWx65ak/PRP//Rr1WP9HR/sfh++wua0vzL2dbnM54kDC5nrwd/mQiehxHn5+OLfxlITIIQJvz/xRn1jPiYJdOLzyesYqJzGmylSmTtRoNuJVtcZw0TQF7dBQF2KAZD8ReWdrZjwLKAdMKTczKcgBnD0n7+//uu//iFAnhEBOJOanYexr6DvNc4yPE6ABDgHMtf7Dgz4x06nPvubYyxfmOztx4q5BbCEYqEjmIyh9qNBAGHZbyZnE6rr9fZ4iAB80UcnPOBkZXYP5ytf+cpHsmEs+YV02M1+oT7eB8QPUanDj+J5GqeTLsa+eiEVlmBM/sZBg939rw8tGPaDyckER93E51PiZs4wVtxP2nNdF8bso54HE02m3K+LCyBSJ2jYF9HZ3wo9uCH2930C9FM/9VOvVQIS0gmQl8kvfjHHWpgZs9u3H+iHhdN8g02xN+f4a/wkrxOSAAAgAElEQVSbG8y7FhELKGUQb7BiPD4JkBMAbP9hI36IWlFxcFf1PAg6gZFqAAbJcZwMITgYGZjJkmOuxwN2vb7OhHNd6zFhEDuJ8dgOv/Zrv/YCHKD5l3/5l4+Mx+LqLNIixlio0300UOjvynUd2MKEH5plWQhowyRjwHK+WdYFJJPARR7YoAEBRnbcvwOpbw1ok0/xZ/KoHy9CarBzDWTljHRLcH4hHSS6TQh7Id2ehGDMIgr0d9+3BMc2bMqyBLcZkLGF7yAcyLBlWNpByAloC0lxYFG274wvYsZjom3sVPLC/iUVvoOpJl3gA3Iuj3C9+31xj8XHfQA/Xo538mKOwm7uA+36r+27ek3UTwI0X5vcnRhUmBxnXGP74FPw5dkuPNN4x+6Ow/rm8jfljTEnFI2b+t+4McY6Rvv3Q4Ba8ScK9fnnn9w0NemZSJ158NlZrwdyDcpESYZPPQB3350Bl3w66JXtFPsCNM61EFUY55z/9t/+2/cJEDMgZ8MeXwPfdmpfVrbT7gZrM17qNxieyIQA3XkyQTJsj70Z6iUAJovayoLvAL4IpkHvuizqBrFxQBDuun1mFmESLMkzHhMSY64AUdZvRKVfExs/HXvHLwFa+9cmhNVtobWt+AwpWFidHZdkTHa1GViBRMEadjBWTULOfC/8Vmhcxgmp/WmywofliIqDE4kKtPsOlsESggQO6n/8UG4zsdtX4LgCtP4tId1sl4TOpF6CxvcklbQBlms71+kklxi+YtljdfuNX2MAO11+tE/gk+LMeLDYVDA//DQBcjZLIQ/eg7icV0fRAQeNP3uw7rwd4o4bbHYSRuRldBU2C1CJzt89fhNgjccMyOvDXvPlWsivAdPvCAFPN6iNSuS2c8Fc0XFZk5LrLIC8zlvRsZ8qOE++sj2wifvl5ZBrbJc4eQkE/xurCBAk1GCogO+8Z+V+Gjb9Xxm2YXvTCALkPvl1DLaZl+DodwmncebZCeSNyPr+0eXr+shtUr4zG+o2mRvLJmpjmbobp7TTuOy1FoyLpE2WrZNrffyJEMETeLF/neRSJ4Re7NL/X/3VX30tyWMzVkTqy53HZ9ijRA8WzQdP98wu8ke4Vg/joV+24cVT9Je+OU44V79dvG/bX202Zl9vRC2InfVcDV1qCkBr4CcyuwTD4Hc9JS6X2zlPu2t8g7RkacOb8EzUfCbj8ZLNBOhv/uZvPnm3zmUvwGaydHAznopQk4POKBr8bduBYDD6uIHVoDAOSmolHPuz9VDWJOexehw7TvCDqQqn+29CwTfMEuxv1+VEizJrg23Y3QXHEtxmPLajhWH1XI/iWXkEiF10Hi848A1kE6pnI53xefZg0rgECNK6Ygz/XMT1RDRX4mFSd+LjGCyGfc7XlxTt88aq++8ZQcXIXFS82uZg0HZ0QjB87T4h94CwKXzgeCdpeRIFEzXXgVXviOt9qYtTPIbGe/1u/1Q4jLPytNvodfbR07io78NnPAtuX0ziVyMXqBvgBV2FisbtDHfU7RpkDgITBuTjDMZGcYBSxiC8hIb+eEawa6813//1v/7XS4DcLm15zdf2MzgckHZ27e0AKND4/m7WBQHxt/Zo/3z+i3xfMaL8Zd+Wtf/pv2clxZiJqb6kz5CQMQTRQfgNll2zGRDbsI1dngXnp2HTV2Jnvt712wW3JyEYpwjQBIzxXrMIr/Ej0LYhGKCO3lOwrcCVx1m/mMSKPRPFFZcVGxMctituqNOi03i9zlXAjE2uh6D984cmprZlceVzxZhjhnFuBoQAcb4rItjX2MN35jTHRIXDcet6OkvB30+2v8TCsdf4v3i5Pi+2fhCx+kT4ESAHcj+74w5Kd+YaXM8XfDW0RekJhK3ThLU+WJBWtoTsGQVtOMvvDIU+D8h7R8y2XXLd6p4A/fVf//XrGG3aMWT9zfzaN9pyOQTUf00iJY3LP/ZnMxva8iyiIDPoW79J1gFd4rFvDOwnEnjyv3HmMvvcdXf7rjbj3MZNH/Z594C2C+56Id02IfSeT0lr241/9md/9uN3QMY7T8PeJgQTkLEEHkw4JpOSWAXG4lSSKzGUvGjz8udFKrb9RZifkMz3Hl7pOOj1jheL3SUExqBJnNmvfetx2h+XgBUT2ILja9eJjWdA4G8CNF9jk6e44rzLXdxjHxNDTnw8/ivhcPvlAY/r8jEYIhFyrNo29AFbP82ii60PP+6HqBihAe3jVUODriRChz0AnMffXWODMeVtEBk0/owxKQ/4LCbuF0ThXUsG+sr6BvbqNVmvXgQI0hrhbc13S3DO2Almj9nGN2hwFqCi3SuL8azqOl9xMDny2cs57ocBWAFyOdrAfyVF+8h93LjYHn0RhIPDpFwftZz7CsF588vOOwt2/413gru/A6K8t2E70CAkcDcB2usY+CEq/WUG9G//9m+vZMVCA4GZiLETwlrxBSuNJdvM9nE8O84ubNq/jv2Ssvt04cl4sN2wq31jAabf+MWJo8+V1BxPfnIAtoZnLhGj/9SxuuGyJosrywwI7pmfPAMCj7W7if+ybTHtJJHyxJO/X8nkJSzFRHm67WMD/+Ua8ApeHJ/wn2fp9vFH/PV9QG7cQHaDFp+LIAxKO8HGKOgNDBMXny8AOhgADYRgofOYOttp0HjZzSDddV6C27mNbYDbDKg38A062+4pYB1UBGoDjTpbt51fkqIO29Rjdt9sGxNhQWUSd7kC2ySGEDjgCmK38wRoRKPJhTc00I9u+W4CU0ztO/eAlmy4r34dAwLHL+D3l40w68eW4PwkhNXT3wG5/yZHfG/C8261Ysn+rW1r32LAy30r68SR78VaOcHfjdcSfGciXOdsmYTvIjfHesXTtnRC5B8lP/EU10Le+z4fOus3V3Gfbuc3A9qKiBNSluQ7Bo+/sc64n+J4dRkDcCp4diL/FF/l7/JvsWFfgE+E1phj7NRfvxev9PkVe9fTsCECgsAgAZA+RvmqrYmKz55VmCyp7woiQFVSRGQYjMWKekqqFaPOQEpsBi6/fPbY//mf//ljBtSA/SIycBDhYAePRYi1bTvZ47BdTBgNLhNuRa72Lwbs44vYCrT6ysBrJuxgNyYqdP7ezLeEvu/O2Fwe29ke2N4CZBtvE8JeSLcluJHBZjp7JIqXfTYufoj6h3/4hx7K63UMfpRP48P+bcYNOfm4MWRSo+ErUeGYy3zSUX15SgLAeq+7BKh+AReOj15nLLp8MeXYJPEkESGhZQxXcnX1pYS6Mt505Az+6R7Q+ODiQtveY3zy6ZN/L6EuN5RLLj/AO7ajhdL2rmD5mnJRRcjf8cfrL0twgKrE6OMmNIvCE9mUDHFKnXOBrOCmbbdLJoAhKXPNctq26yk4n0C/bdg/+ZM/+QkgJ0A8esP1PGWOdoazroLQQUlQUd7nOq5mh5dYXGRlQnoCK3ZxmwY+x68sqDatmFyCaJw8kZLBv89eDmFW0rabWHlcuwf0W7/1W993D4j3AW0TArhr4O34dsH1jagbB+8DYhMD+LiC1yRHksV2XGe/+1x/m0BMeLZl8WOMNO6aLJh4XGcTgmLM8fvUPphwglcsPmHCxAYOsN1FpIzZbSFatYcTXMbPDGibEOASluAQIMriT/yFyJUfLQj2HfbCPvwouQK6801c3vkWmzUBaJw/cQPjrmgV077eyebHeBAgk8dFNAXU5VwG247ZUE9K+o7cqK9KalCXZGp47j+4HQuXxaMgZ+wIEADymq/FmX4aOCVln6tIPIEGEirwTAoG4VUvAC34HSQl+5KSSeFKJlr+6of7zHgM5NbrhOGJUHYc3zQ5MSmBXY+DMfceEP2YAH3729/+eJ2CyatizD2gPQvO9ft9QA5IxwyYaOZLds/f1UsgF0e2TQnQGCzpGLPud8XQMfdOgNy2Y+665sLHUznjxjPYkjR4qYCBkdqd8pf42VbYfYnO05L8fnTcZJHrak9j0f5nltMJQePi8mMFs7bx2G371nXZ7uKCJ25rQo7tzUGfbEJwYJBJPpGhhcSgvDL5S0BKQE8k52tLPDa0swpAZGcbeCbwAhJA4AwbsVNuBIhdL+vr9cOxtdFM0gFfoaJNQHiRzJO4OZGgjG14Zcg+30SjIn+Jy5PgmJybPFSkCdBLmOiTMekgqpAgrl6zri3BiIlqZfxKbtti94AmQDyMlPsn3eAwAdo9oD2Kx2OeAPE+oMbUO//WHv1N0IWjdyRV8QOz9VVjpCJhmxtnxYLPtVzrKJG5DyVDRPgiTcp2ZYPj16YU2raoUd6c5n5YgLDPVkTGB3wHi+0Lx+1fxtKNQvTNm1GapDRuW//F42AfsTQ2wEMFuf68cEA95md4FS7EB9+3C+4irZJQB2tj2/kEqY1soqm4GLw2gIPDwdXPnt4BXspAQAhVwY3D2hbldv215rubjiMXA6JT0sv5HmtnJRdBuV873xvIO39NhU1QZNAOdJP7U7YFeN4RDcDCpx5fxaYEYXBe2Kov20Zts/KA3zMFY+rCwdpGgLYJwePladi8ouLJx/wQFQGi7yzBTcBKOo05lmo4blxDQiarkvNTfNpH9Q+Ywy6+6W3/XUJwcUbJ7ML0i4S+t0376tM7X1/kt/6XB0qIXMe4XI+xBPlevLRjbMP2DliehEA8llfAQ4Wp5Z084fM+wNk2fhKcxrrH3Li0j+iPhbPc2Bh4t4LRfrx8798BdUZhIFstG/AX4BnAE4Au5zswMYbJqsB5MiblLmJy9uO+UVczIMZmAfJ9BgSI4L4CrYFlZ/Scs62CytddM5kn4rFQ97qL3BFr7PhOUF13febr7ZMf1I/0rfUiMFdArK+79+NrTJCIXfsNcT29jsGv5L6u5Zifhu0A9y44E15tayIycbLuvzp9jbNX27WigQ04Th3FjG+41+4VGmO9dr3ar92KiQu/TiaM1caZid2rIW7DyYgxZN6xDS8BIs537ul1DJ4B0U/b7vJZx+O+Eo9NELG5fWkb1ufuw2U/j839hifhI8+KrhgtTsxj5f1PtmGbnK2udryN8AQoGqTjV2C44yVhzhlIBoPBjRMMVAupjWcwlsSeQEi5jdsZD87id0CXwwo07IXIGAQVic4UXb/B2aC9AFghsW8r1hfJ2D/084ksrrovkDIeg7ngpC5ntPWhy4A7L9XZjrV3Mbjrrjeirk0LUPFl+/h3QG6Ph5Hud0AVxMtmjTOy4PWFrcAObNfxRb4Bu8SO45VZcpOHK46ox4JqW+Bb8G7cN94QXmfcV0xiU/pDjMEV9IVxeCaxc50Rm6M6jqdxgdPNkn/mZ37m9dy1+WUJ6QRo7fAIHuMAm9lfjgHzgP1S8bEdjINrVmJbPcVy49qcXd9fHGBbgT/73zz6Sd0/8RM/8R+XUDg4DZwC0+XcsRJoB/Qu26HOa1AMxOoO+Dx7aQbGGCxkjNtgoH4Cgu/7yw9RnSUiQB772kbMa7uK80DrNV+Tk5cwHTgG95XV1LbuW8Fo0qdvFnXOlww8jgvUDTr7zf2zoDwJEHU1UH0ce5tA7V/aJEBX3sFO3SzB+ZXcK+ddcOBz/vFL9VY394D8Q9SV/8Y3vvHZ17/+9c94JbfbNpm4bseW7emMGJuZoIx9Y9sx6Pos8CU9J4Huj8Wr8dN+r2+zt9/me/ny8hftmHfKD0/JKYJDLPc7YgAW2u9LgMwL736ISjnbk7F09nn5xfhoouHxmAefOLVlHHNu29eDsca5k69yx2UvY9v9fh3nd0CQpsmkF3OuyzhPQmEjetAdnLOed+vC1AdQrbT0v32D+CDzazccRma7M3W5vdXjh5FyDY9fB8wGtR1/BRDZm+2EGO2Y38deEL0DW0XjEgMTlu2Pb7Ax2bb9ZwJYWx5HScR9YZw+9k50LHpXOWxg8eHYF2FldXc5dsd4HcP1Su7vfOc7H7/9wRb77B+7IkBf/vKXX29EpT+bAW0TAjMgE5mDGvzQf/umZLbv9Y99XXLpdwjRMU/CRFudWVyzmOLr8jmJAdjhO/WDeyeuLuu+O/6b4FGO5ID4N+esjG1uzNoWPc64Vtf8vhUR/yxjbY4P9sN0EhOL2sVNbq9CY7vWV51V+tqKxiVA5ux9ZvPU02yMvvi8++S4KwbNb/jhpS27B+TKL2Krsj2RX0XGJOAO4lgc4gzGpMNnt1dQ+DsCYvI2wDEYAKzAVCR2LbONnfMmBJzGlBvioK+efkLQgPEpiD1ewM403oDmehN6gezvrtcEYxJov7GV+4rYENSXoJgcIFlshS8A4TVjvfptQDsA+Hz5cX31zWFsz7j465nq6uMeUAXIDyOl3W1I2IwHspuvtgmBF9Lhw/31Epxn45CFy2InfF9yqZBcNis28IXH75h0++/qM6G+SESbCKjHPtl4ndhQB0mhRdZk5bbMLW3DnGHbmA8c+y5T7JhUzS22H9jidQzmGO4J22e04eQS21mUOObYu+L6yVdemjVn0xfbls8WfHDcxNhxbHvZPtc4LqzQ91fs7ndANFBAXc4xUbljvhZAmezojIFkAbJRbaiKUw3rDI067DSDDeI0GCtuNpqXwPaZF9Lxfvj1389+2rUsNTSTdL1tk/E6q0HQLieakP2ZsTabuco7E2kGbl8WMJ452RdXP4wVZ+oE8Opi+YPHzjswTCwW3ZIU5UgY8JsJiLaMudVjUVw9vA9oy61ux69jYKzMfqhzf/kh6h/90R99sg3bz4IDJ6sfX+HnBj9jw5aepYORContVvGinQpfYwa/OwF58rcFwfF2CZyJ3AR2iQrnjcF9vhK4le0GCt8LdP3wgDFlzF/9ArOOSz+KZ8eHYfjgKb4u/5q3zMXGNZg20fuz/fmOMype74TqHa7s5+LCWLp43fz78ToGVLCGeEcql5pS/inzdGB4htBM1u0247WaG6CAClKxsleYLgHiOgPHW51XX59+u7LcA3KdgMzBXuKu/SAjBygAKBm0/gpMCQiAuA8WwRJ9lycugSphFSuMD7tYkD12BMi25hr3qwTh9l3O5AEG/LfB4lnYzvVp2Nip7wMiW9x5v5huu+B+7ud+7rM+iocZ0H7IeiUK2MTJg/0OAULAFizb+iKNkoVJwfHERgfjzvFXXBnfxUMTBvvfMx735WqLBMHjunjJfkckECDs4w0JCHkFme/wgTnGY5jPl6TsSQjwHUtwPBmFdp1E296rryJC/LvdXe8NDbatuQ0bUWdj3HHnGHM/rAXl5SZvxh38y/guETTng8mPXXBehmiG5U5YvQ3qCzglz5a3AdzpDtrXeVAMfn/fPXTSDgfMANjgrpjRf+yxsW/KzcMHATlLcH6LoUnXYytpOmgAge2/8zxvDGG0iJiU6U/FljYNRsp0ScDgb92+viRuW5kgAbMD0eMgyOm7xaCE5uCpGGHjXe8smPZ3jLHim+KK2ZPfB2TbbRfct771rY96/FbULcF5zPvuJTgw29cxNJM1FrwphbGa/PbZMWsxKrGYuBnzFyUw9bWJ5kUcWnbDp8WPhaKEtGu8gWNtvpux2BeOfRNfeYg6OyO2kHK9hYfzxq8xx8Nne094Y+J1DObK1s1qQH1LHGAbCyn1GRvYvbFdznmKV/vHiUDLG3u1XcdG29RXXmVML4Hnd0AOfotHndrOGfx8vsjKJGRRuAZ+tXEBxODBGTyCnXqdbTkTMdir5BfBDXS//uu//rHt0sHfXXBc26zncjbHbI/1xZmop94Q6dU/LxeavE1ABFRFjPIG9IUHkw/2NZF6PPiG8TTQfZPY5GIBvZIW46BlTUwX8bZ8k6197zZs6tw9oD2MdAkBY9mPSlce/80WmwFtE8J+iGo/IUDbhOCYsv0Y72yDyHQW7p1krt8xZ3/athexGBOeITgmwMKTvX3cn43DC7PXdfah+9vjiD62XN/32QRdm3hlhnEXl/SZZIbEcse7XOxdcPTH7wMyfhFnE7STBccTY8L3nm0bax6POdsi4VkL5E8M2ScInGdAl/0tLBa6Co0TRs555vb6vHtABnvXUVuxG3Ug2ZgmMpSODJ9ZBx0A3CVsD9RB1BkS9Y0YFvyMBcObtMlyWzd1+hoAZWf1adgrvxnQX/3VX73W+23kZmqX4AAKA3PHlkmvLk+9DWL8wrGKypOI4weLydozyA2eioqvK1hLpiZU+gtJ2AcGqAWGtk1kxskVIFzDfbr2Ye3unAnW2PWjeIy7zYD+4R/+4eNZcB23yWMY/KVf+qWPXXAWQc+A3G9nyu3TRSQmVTBK+062wFN9+eRP2hrePDO5ZgHE3FMbJt6SnX1pLJUzKliuB9Eo6ZqPiHv4jL/MPpxgUbft5/YtwJD++j4++NKXvvR6Fcv6wz0g+9I2t7gU68Yb1xAv8Ip5lOvrB383LxBnbgfsXAJG2+Zw24VrardyD23YDvjn8y996UsfAmSg2uA2koPliShMpJ1S1+ketMHDgB3YF9nsmAFhcBuwFjsHj8W1YmHH0B8DDuHgHfCQgQnSyz7037a2PbAtNqFcA9YC0kB3ckD/sA/10KfWz/EXML63xILAPQVLCcagpA0yOezo7eUeH0JwiacFy4Rr3+46PzGgvqZ+yI6/tLfyvgdksvfvgCjPrjfa3DgnQDwLzv7Z74B4FpyFo+Jhv7hcl2ZNLLabY+oSK4s9eMFOYMZYhYRcxsR3CYp9xXknJzu/8ZBcIXJuwyTatitGl+CB26vfHpNjhhmO7ekEhuPUud+KTYC8KYmEFH+Vkxz/tolFwcSPT7wqwtjsp/quPjAv+3qP3xxoAbXAWCdc/hIjjtHPq98fz4IjEBkEGYaNUgK9CPtJlKivAUEdT1ltydrOtEgSVAUWgOr6f9tzXRYSAsMCxDvgKccL6Ri7CYR2CDQ7rwBdfdyAvmZtzIa8/Nd+Yx/6bXBx7MkXBNfOQ6j2jwmhosG1l39pj2Cz6JoAbb8mIzvnuvGHg+wSe8YMDoxPBJ/fhSGSP/IjP/LxOgb/EHXtfPWrX/24B7QfkvKaB8btsa1vW4LbD1H9zw8jtS35DB4IUs8ILJjY0/cRLiJz7GIn29B+aTJS3FCXE4MKimMKfxkX+4ytPX4TXckNrBfnFlGwYMGhrYq0k9WV97L12ijR2kbGJKsFW4Lb74AQpB2fAPE0bNrH/sS1n+lGvx2XPbZ67W/7w7h3nNT2T0JjkTAO6IP5xnUaC/ZbkwPj0P1+idJmQN0Cu4KoOqToBttI1bJGATCQNoRgBzlb7UB9zmJpAgIg7efK+82IXFOS23eEwmurjG3Huu1y4/SaLyBZG11vdl8BgwUWAQKIgBVbEhz44xqHA9ukCDAhXYKt/UV4XM6+LpHZ1ia3JgeroyRnMHosDggfv8ZD3xwkFqengMHGFgiuYxMC27Cx3QSIe0D0ccu+mzGxbAXxbRPC7/7u737f6xi+9rWvfcb7hMAIuPNsDHLE92AQ4vN9IfqCrWzXErBF3lghLokT4g2/uW7j2ORCjFt8LPi0cZW7Ynd9hycqUk0kGjP4nXLtM7g1l7hO27DixzL/ru3DSHdsfNDXMZTYKwbYxIJojjBOvULheonZKyYdm8UJ/rKNaY/6LczGTUWI7y5jUcRP5rSPXXBuAMKmEhNp1czX2Ui+1sFjoHEcpbVhHAAGk43lrINAGThsFACG0wzEiiZ1u+3ORHgUD+Ne/fzwzKRggGOLjn3XQhD0k2m2bWIwXLMmO/gCkQndQmBytviWVDxjsWiX3Cr8FS7jyL4m+Cx69I3xNLsu1uwPCIJ6IXP33X1rosDvgK4fon7zm998zVJNIuBkf/d/S3Bsw8b+3APaxgWTsZfW1kdwYf9Q3iRpbHKNCcAkagIyoeLD+s7LPSvvJdSWLbkZj7Y59TBexnphwcJREXtqn6Rq9bEU6r7VHtRDP3a+T0khXtZnz5TpMwmpBeTahOBYN3Ybu45PsL9jV0JvzqhP6V/FwpitOBN/K7PxVjgcM+6bOQd7N6Eox5s7Pt+z4Er4buwykoXgAr3Po6IWHJxOR53dWiTsLF/vNv3ZTwvYtSZPru80/GrDmYXJZYDbmi9gZ8r9F3/xF584DUfgTDvXzjMIaNPgMbDop4XOtr2AbYGrADR5IOPsWnP9YfA4qCtcJpZdM2Fg6eGJ+OzLK7kx+ViUSkoEp4/z2cnBPlMPQdenYeNLluCYwRS7kJDvAVn8vQmh2SoB6j5CpFfgM3NtHEAw9pnxVN+5HCTn2LVPL1EoD5jwGPvsar8T+9ge3BUTFuB3frSNLZYmwSYfJXqfp1+OF+xN3K/MxtQno+wYP8swzhoL2M3HbUt4g9UO+mt/GH8Xd1QkqMOi3DIWOvPtkwbAscazBalxabu/cPDjP/7jnwiQL7JzS3A2oon+ItCqrYPKqnwN2iRR8jbIAWyD0kENebO8SNsmM4sh1zI+CxDG9C+f3T+usZg5QG0DHGgQFgyAvmRlQBmgBX199AQqE8ElAsZB8XH5xzb0OjaEfWGjgVns2ce2o2eIHq/bgFhKntT5Qz/0Qx/3gLaTzXVvE8KW4Pb4HbC28yVunoTAPSDGwvuA+CGq8doEBQF9Egz7fJ8/ySg///yTHX4ew3UfwTFgQTIOiluIp8dLbrR9JS341DjgeuOuOCHuHLPmHOz6VAeJBnHp+IRrSpwel5d7eRQPs6PVBR+sfd/7tS2orzhirBwHF8YD4/byeTnXRO+2Lg53bHQJsFxqnz1xjcs4ji8ffbS9GRAXYdwrO76ykEugSoj77qAveE0EFSYc4gzlIkWDcXVARM6EW8dFpBxbWYie+jaOpx+e9YV0tkszO2dGJmyuoc/YxXXx2Rnw6vASicnMti6YXI7xXmRUUnGGc2WW2M1kYpBfJHeRSUnAiUQDyVm1z7kO9xVMVmyHG+4BbROCr2cXHEtoiM+ucf8RoG3Dxof76xlQbXPNaBy8FbrOoNxOieGJKC5c2XaeTVz12x/GtOutzcGBMWs8FFtPGDCeyh/wA5imLDOttW/4dS0AACAASURBVOd7a42RCzPXEuTq8ZNRVo8FyPFLnxircUd7Tg6Mz5WFE4wbfqB+CYxj9uJjC52F4fJzY63+vbBoHq9/vk+Udg/IHaJBExZZQon+qhyHumNr1KReMqH+As6Ardi1L854S+zNhn0tZS+Cc3Ds8/XwwT4N221DxgaQx0hQAEiDCQIwQBjHlcnaXwb/dbzH8HmzQfvXgvzOT1zTukp4xtxFNE/CR1mTm21u/FpYO0YvxVZANgNasuF+8UPUZbX2F2XIgvf7rT2KZwJkO18vpLuI2ySzz2DEItUZD+VMpj6GrZu4lLyc/Jh4ipfre/1l7JR0qJvEwYR1CVhxWH/DL/y1QK2sk1badFnXv/PlFvOAxYOE1Bu2fA/I4u82EBX89UTynuX09oJ9VxFrQlcRstCY/4w387fvU7ouL1OCsatu85HH/GFXb8P+PnX6/PNPHqhogxYEFymtfNW7hF/CaFCYcErG1I+BPBUGeBC5xcyA5PiTCK5NDP1rv/Zrr8ev4yx+B9SbwjjkXYbgZbaKkAMFm3HMQWCid+BdWRbAxzZcWzDjM/vKAtSAKfH5uqf+FYits20XJ/h+f/GPl8MYY8mtwmcc7zP3gJbd+h/PgkOAPC7HDY/iYQZEHX4SQpOpCop95xhyJr46+p9YuYSt8Yk/wbFnDsbsFSsmlBKPxQmSb2yZ0B3TJS/3mXbKO/aRy5irEBVzUcXKs6K2C1btpx3zLrhdM2z87//9vz9ex+D2609j122Z3PEt47UtjR/Hrn3p69yXxoM5w7asz64xuC630TFdnP9ateB1DAbtU/CXJAqeggEjmpw9GzEQTUgMtjMXk1CJg/576cBE62wL0noC9QXyHfMS3OoYaP00bNvQji1wv8jpBVUDotN1AhdSebITAGXcFQfX84OA6wJ5MVIwvoCnzLSCV/tcfrpI4qnPHH9HaLSxbdXMgBxU24Twd3/3dx+P4rHdqBOfLAnid0AmCmZAXsLDft74cSWBCE/bdYZ82Qyicz88y2ly5LZdX8mauC5eGs98b79J6uifRc79c/2Ob/p2JW0uZ0K/uOQiSo6BB+rwjJu6fE945eGD+dpiwGYC6q4Al7ypy7ECRjxmiwLtOfYrYu/iw+M0TzBW13VhzRgzL1gjvOrwssFmQG7cA4TA7Uh/rgOpFBHoVNAdvzIrEyOCdLXRpRW+1yFu/yIfhMgB5bqcBViAetPxb/7mb14zPYLqEiAccwlcbUyfAKGBUJL3TOYpUyGYTTJcZ3FGxOyf2s59pV6D2wLa4562O6jdhgXjIpESHVhxXzhm35bEXAas8yQE/w5o5XgY6XbBmUg24/F7e9gFxxtR8bWfhl37QPDta5daKXftVrpwxzHb1rOAS0A4hv/BEzfviz2TZ4mpvjf2fDOfciZcx4ixiA2uGII/zCOOOfDmY+1jcei443qO+WnYFaB992O03E5nz/WDv4OJS8Sd2F4cbf6qgFgYLtHqDMi+feKxinZ5ouc/6vQMyE51JmLgNMhNFhUAAwHgGOA1fMXGxGLgu9wlcjyQtIAjiAqyGqrESPnrHfAswdlBzgZsr9rHICggmqnim2aIJgBA1iThSRB6Lfa+Zkb1zZOvTKIXwT0lBRdZuSx9ww62F33xX8+qrgA3bv25r2OgTpbgNoOxTydAfkvqNiHsHlBfyV0BMkbqe/vPyUUx0DrqZ/pZwd73q96S+mVj++nyWcnMmDKPNAF1OfvjEpzG1yUoHsslKiXUChU2GmfsnGMXoWQG5DJ+Ftz/HwFyLNI3x2F3kK6MBajXe3bbmDGX1sfY1svZ5uxLuDhmsbb96+tP+GkzIHceZ5WU3enrM9fZUa4LIDUYnoBwgczgdh+cOe2zv3dsiGJB2eBjJuQg9sNIyXD4IarLMQMkqADLOyE3eQB4B0Vnpu9ExuCz86/My2SKL2w/++EKagTn8nXrNmFVIIyD4svCYhu6PzvuXZwmsRIxY0LgIJDVNwH5yle+8rHc6rbYhr0ZkLFcwt31PAvOPurrGBy0Xkq7RMBtGAe1fYnlIov6qcR1+dv2cpvEkrFrH2P3CxsXxhuT9O2KxSYd5hWw0Cy+3y8uaELL9/La2mBTkmdzFx8gZh7fRdbYxLNU8MASHMux9pPj3dcaf+UeuMl4Ms4uAXIdre+JT5946hWfbEKwsw1czwZMKJdQeSnHBNDBuNy7ZRgHlAcIcC7yZJZjQDYbMPAaXAY2gKAffSEda75bgmO817T4shUkRlDQx9qYcVQ8OkuhnHc6GaT+jCBeAlECefJBietpjE9Ewfhtt4uAKj4lpZIKY2J7tAPFwWZS8+fOgGhvS3Df/va3P2MG1N8csc7v9wHZdt4Fd42h/jThQfr2Dcc8k3knHhaDixSM2woLbTTRK35arwnN52yXq4zj2+fdXnmp10Dc+PZqHxEwdr1KUg6pXS4+4GGk7V+FA1uWyC0gjlMEw4/L4pi5w/Fg3DzFMX4vd9decKHHdc1sbPe2j53dx4+nYWMcO9tkQGdKYgDCjrJ4uUEDgU6W7Hy8wXYBjPJr09lv678CY2WelgFw7K4zIJgBAdJuQsCJXFNyuEiacUJgDvKV79QbIFwCZH9cQd5jJR2fd2DQpn1QMJngiov6uaRjcD9ho0RkH10i9XTPAt9c2NsxP4rHNviTP/mTz77zne98PMsNvFEXftpxZkDeBbfz/R0QtuwN6tqOIF55XoRmv/HZWKsfSz6O4yZAJmX8gq3wTbnBuHZiUUw4Pq4tvCXjxqfbwX4mM/e9+H3CVUXbGKeOzoqw5/WzjAnQX/7lX75+i2iRwB62Q3GI/ehXY7S+90zKWLk470lUjA/jyONGDHuM/sOVtZ/HUx98lGUTgkmGDhkAT+LzpKwWIsp4P/m7DIa2CkCuMYnYqZxvoGAEqz0k8mRY10WGwbOf/Fwo1nwZ4zUDMZABicFCHy7RYCwGnusoOWCPBr+PvyvTIL/6VCw4ETDITAL48pPs53vb/BvofG+9FqGLUNhtSRCUKAl8cFhB3Xe2YXcJzjMgsOOtu/R5M6Cf//mff72Qjj5fS3D1UbPXnffuJydDJqjivVgpybUeY8wEc3GCCaexb8EqbowrSNmbKRzr9tvTZ5MpfbYAYQMnpr3mIuRiwrYr7vtD1I2HF1Q2kSRmsYsJG3vAA8a2ucH+aH0Xh1SQihO3Ayb8wkNsX981Lq9E3tjGbo7zV/LGEpw7R0EvMzwRUYnApGNyX4PXDb0qtUFkcXG9bQOQGIgOwgZgHbHz9K39wfgDFwLkNd8Bbk9CAHC+/qqLftkpvvYSgB1D2N6Ri0HZth081GEg4V8nBraTP9e2JaKrbbf1LotqBu66qdeJiIOkAUObF7kRAM1u9yie3QO6dsGxBLd+7DovLdM2T0LYG1GNU/8OqAmAs1gT4K732r/JH183FkqqJSGXLw4ae01aGkfGVLFk21/CCZl6a65Jy8LT4xa6Cgbtwje0TTtwUpfaGJvbbRJaMfLvgHZu5M0PUSsiJBMkGe8EGt71bMS8YbzQp4sXnkTAsW7OANONdesA+LnGV5/x/eLilwB5F5yBgipfgC4Qr4HaMCUVB0VnQhYTsoQKTIkIQqDP9KfGAqxr00TvoHzqz8pcS3D//M///CFAZN840XYrARJAHsdsz1Io50tyzMRKygVDSaeBc/nUswKC9EmALn/bng2uCtQTudgPLuO6n0BuAjFB4WuTJfbZOf5zjFdyP23D3j2gigTj23HuAe11DBYMdsHtldzti8tRF7boVmwTvf3s6/rZ7UFqJD340gmixe2K9fYXe9COha1igT/A8s47Piqotq19XOLkOpPlVip4ZI3H0Vm4/Vmswi2MyX29fojqZ8GZv1avV0c8Lvrufrm88Uqdjk3botxnLNi2tbP7YN7Bp+aMd/h3+cZt+/xRz54F1xv3BqyFpGCg0ybAC0Acu5zJYKqSnmWsjNf0S6C0b7Jh8CVni1BBcH230a41X7Zhtx3fV7M9r/EaQA5itpMjbgUTZUuy1yzLxH0RYEVt3x1s9b370hnJBcIru7aQUR9JkEnOPnA/GggGvAmJtk2+DmrGunLsgqsA7VE8mwHtYaK71hn1PnNzeJ/3PiDPgFZ+ArT3AU2AaM/jWt/qN4uNlxd3PWPxu7yw5yVGtY19ewkGwmHcVEwsPOUA+mK/e9bJzK4EV9KycMAflyiZi7w0ahyZUzhO7LTdzkotDlyzB9b+9E//9IubvCmp9m38OXaN/XLF6sQ/nhldAmL/VzB6zv2xaJGIXHzg2PT5i1ueuNT+/LApz4K7RMcOtwOcvZRQTfw27I436yopGcQltWaqBWbJyFNsAhanUTd11Bk+bkcjQB7zBGg3HS2SkBsBW0I2sVRMLUYmHR83YOqjZlEWf9r11B4f4ZuL7A22J5sZE0/lsYdBXtxdgfXkL/vNs3fGsOt8sxvit388/l339CSE3QPyJoTV7TfH0uaShm3D9u+Ado6nYTODMibIOK+gp5yTEIvDznc2UXxc/sAGl/1LLuDliueKqIXAdqac/eHEoMnOxSMmNYufMWPbVFzMKRZdyr0jVfMLOOKHqFyPAO1RPOY6uGF4cTyC2eLYPsGGq3s/ct6MzrYi/uvP+vwSoIpUJwGXiFAPtqy/uaZjKK+8zvdRPBCMHXQBiY7UMRizxEi97winglQyct0751mRyaViRIAjgjaanQlornZ3rO//MODom+vw54K7QPTYTKa2PbYzIbgehLYCegGaQF3Z3uuz754IygQBCZoUDF4H4yV49PsJS5ftCHra9piNI7/BkvqNbeoGSxUg7DsB4lE8BJMxDbZWzzYh+HUMK+cfokLC7IAzsVMnx1bGb/S1rb5IaEw6JjmOXziz3xzjT7G4ep+WllqXx9kZgv1pX5rQPAaLieMZHjCu8Tttelmz94Ioa8Is/9E/XslNHat3S/LzNX4ifnqvi6TBImB7X761uNYuV32XzxmX/WlewX6N+264MfaNWdffPjqRfNXHDKjAN3hdEeU6Q7mASx1VyyfVbB9sQEjRRN3yzkQgHtpysGFkG8QO8SzCjkCADDjvgjOYAAR2aRZPWQgUkDdwWMrzOGo/E6IJ+QKJ2ymR+h6UgdhrLmIpYB0s7m+XMjq+BqGJoAHV8a2dkbWTgQoUfW/QgJ3rd0CrY9uwv/Wtb71ersZ4La77vP/8ENX93Qzo61//+sfviJpomRC9M8zEQJLQpMZZq21O0lVcG4/YtjNiY81JRZMO+6Yc8cQPtZtttH74XV0lM/uVz8QZ1/U4Pmm7+LtJicsb09jZQvn0O6D5GgG6ls9sG+Js/ej7g6gD23pZ/ym5Nb7LR44XsAIW8TlLo/an6yknN46KA3OF+eY1+/MSnKfHV7CXZCxSLc8ADXgAdhEaArPyBGRnOAYRA7cha4z2l+AGRHaWCdeOwtHryzYh8EbUtcsM6K/+6q9eswjGYWEBcIAdu9mxLm/ArV2Ll4XN19sXHH8SBQfTFWS2rQFVwfJ3C4eJk8fIA3RnviZH1+V7kk8YMxnajyzvcd4YYtwWxBLUu23YmwFxz4U6PNa1ycNIeR0D55kB8TuizhpM+k6WSjQWGeOoszqTt2OL2HN82g/+7Hgq1kp0xqhJp/0ywdmGxkXx577us0XACY3FhM+Ud7nihfqcKF9jx6YkA96URPzyJIQria0gFENwENd6S/QVUxUDuIHj7/ga7IAvr6o4tpzg+BrHpe1ZTnBd2Mj+fT0L7gkMrvAdOO38qqoDnsbtID77ugqChYzBAwSDjExoZXAIAPO2WYO4dXNtM5XNgLjpiDF5H5AduHOs2QOC1gUpQAi0aeA7My1htHz9VOJ2OxfAyJhNHhUIk5rbw2/tb0XCGPH4GQvni7MC/Kq3QkoyhcBAfBZfi+s+7xqW4LwJYXXzO6AJCKKKUKwN1uZ3/fU7oOtZcM5oTZgmILBkIqC9i4CawVc4+v0pGTG+jMmnuKwgFcezrTHMGPFTCQ18MUYL1EVqO+/ExYmjMV0StQ98vdu3nRnX7Pj0w/RtuW8ckXA40TD+8L8TDhM2dsduxTO2NY+XE65ztIvYmZ8dl/SrmLsSj/IG3FO/fbS1GVCdYgUtcfZ7ScMkZLASrAYmJHRlbwY017QtCxufMRTXeO3VgmQguR6TJMKGAQFcX0DFTUfsaEe7bpMIY981ZNXOfAsEE7YzeY+D9u0/H/N1T7MqhNmEYNBZhEpM9hltmWC4FrG76nWdJSEDG3u4fgf9ldG9Ixj6+8M//MOvZ8GZIHgaNvdtnMlzn2bl1wZLcPbNBOjP//zPP3bRNRunTpOICYd+YDfI2OTpvtoPV+Jhsea87VW/EhNu40oSTDSOVePaSabvbTV5YfzFQPFHPy4cUEc5gbh24uAx2hb01+dp62kX3JbgsLE5zhy1+vxyQ4uFx1wcW3gQKGLZs+r63RxL3Nnml/3dj4t/GqvFneOx3PSqm00IDhYCwbOEZk4laiu7lc6zmy8SGl9HH0yEzqJc1mDluv3tdL83AlvHxgCZUA+zrLXBmi+Bs/Hwy2fIDZGjfRx3EbdtWoDsO3V5aRRgOSMBgACyGYe/WxwNoIqmBeryPceamdIHi2DxYLIwIT0B2kJlEnTWey3bepeax1e/g+X95VE8mwH5H9uw//3f//31IjhjlDrZBfeHf/iHLxJaPU+/A9o5J0YlleIZe0GekLsJ7EmALFwm1qfEqESIf0pMxF9xYtJinPjehFc8NFao31xQvuIa4xa/th/GkH1vnFEP50kSTPZbEfmZn/mZ14/Y/UPUCof9atG3kHvcxTxY5lrHtP3XOqjnKlN7ti++plzhssab494C1PIv/O1JCDWySfcJ2HTe5EewmJSctTUwOv02YOwAA94DNJh5PI7b6PTQ17qPvs9SUTDg9kbUn/qpn3qtQXMPaA8j5Tr6gZiZYF03YyUw+WtSa2ADOgOn2bQJraDhOvv0EhKT09Wm6/X4Wi/fm52aEC5hcPDbLg4mkiOEmDpnj/lgx/0bGd//qx9ob3/5Ieov//Ivf0CJshOgb37zm59NgNYPrsHfPKdtY+V1DCa6vpDOWPcYfY2D1ps1iCmXNe7d7+KJ8djvJSJEjWVkY6wEg93ftQ+GnKR1ZQJMQXr410JTomMM2BIsro7OduE0Y9vjNo5XttxEkkAfdt6bEMCbX1BpjrwEyNgHx76GNh2DFtr6stxl31iwGkdOmo1FrrEvrnrqO2O7s1/sB4Y/+R1QxeRyvgft8iU3ANDgAtTUvc5691WdAgk32CABB2bv/xSEq6PZVoPVIK6ALSvuD8+YATnz4DqCCZsV1CYYgwDn1BbcZ4BUDDj67eUcC7d92Rvg2LYC0kTC4MNuHkMxsPoIfMoZ/BZhB57rMWBNpu4r7ZAl+l6fMeDZQtsgCfHrGFyGbdhbQkN0HJiQ9HZfcg/IZM0PUb/73e++BAyCWDnW4MGMZwjrh312JRAmY2PasyvXSd827uHKxNo+mJwbj1dcWtyueG5mbWFx/Z5FXEmR+YfYwifmlNU5v+xY64SfuM7kaf+AfR97ekMy94CwA31xwoxdnEB1JmrhwS7lCfrveHSd9k+TBTBAHcSH/17+sE+bSDWO/d2JCGP92ITgrAOiMiisYu50ydtkdBGyA8eEWDJx2xaB1W8nYhwI27MgZwp2mrNXrr/I0c6C+AY4ptyQwna97B4Q7dGWt5My1gIMonTAX/ann4iLAYCtbMMrwOsPB6IJu321iF2+v3zuPrm+lWX50tc5qI0126JiVey1Tb67vaeZmMfIDMgPI13/eCEd6/YmWX5gOBzyNOynF9JtGzb+QZwRF4/X2GDsvfEMcWC/4mLfHdtPCURJYtd4FaR++KKkw76hrsY7ZRiTxcR9BnP2v8dRArToM4bGPNh3nVznc2DIHAS5rxwrIuakvqASH1EXuDHH4T/XjY2bNDgR4Zzf0Izt2g7ffdw293Hs68QDW8FvjiXzAvXYDx57y36yCw4id7bRTjwZ0hU7oClPFoCRDawCokQHKZGlYCAEifMGOecMLPoy47W/9MFgKuldr+CdAPl9QAYc/eRYyfwih42R3wM0KC0aFXMC2uJjEHhm5wC+ZqS7juUrE7vbdN9sY/ukpFFfXG3jQwumkwEDnPqNW66jfw2E2sQks3Nsw+YeEETg3wH5tQjD9bJr/nkG5FjZjeltQuB9QiZpPjO2ZqCcn72Y5SF6xav9ZQG6sGB8YmPHUvFmbD/51mPxDNqEi9/5a4Ew+fkaf27bxkfjxzNg+mOi5zx/O+bGrH3Kk1F8T5glOCeV10wZ35Tr7Kd9hvA9q3EM2G/mRWLCyUNFrxzi5M9JBv0w/z75pm24fde/zx+/2fPrGJohmQwwqA1mZ7VDFjHXW4LyQA3Yi2ArCBYx6u0YPGiuB/AEb/tX4l/5Ec0yHmZAAIj3f1C3AeFgnn08FSeYL6dj6+5ywlYAsH8JfvvIoPFvWGx3+rKyThDIwuuLJ1IHqKvPNrQAG5AWCcZSkjOumoBYbPChf5BoMmvQGkteLr62Ya8Pf/zHf/zZ3//937+eBcdWbM8UVueu3y64PYzU/uJp2PwOyP1x1so1FmDsar/alxUd1009jtWSvIWK5Ky/QbGNLFwm6PbdZN1+4HuL65VguU5wVay4rpKkMQ0pry+d4VmA1g5LsowVuyAIO+4lOOruDKgJob8TC9Tp+L1inT5eu+dc3p8dq435q336AA/Ayb62Imk/F4uO0fr34zsCtC8M0ETy1OkroOk8AzNBGhhVfQudB1PweTAOSsjEY9i13gUHeC+D2mgNdmejCBCAZxPCyGXluu5sO5bEcUbb8/eLmABr6yOgDGYDumTtegzEipeD3T6vr/3dRMEY7H/AbZxc7RZ7lPHYi6WOs0RztQlJ7e9mQL/5m7/52TYhuB1eSOc3okLcKwcB7Xr/DogxDCPMgCC1y7YIsEmkSyyccya/Yx2r7Xe15fjELo6PnXdSeCUWbaPkRPxc+PfsxIkJ/bKwGF/0C7uXHJ34LSb3hHKPFVvteoTWyWjFEX6xT1ZmmxD6w3RWRMCDxwgnub/wAHZ2vIAv/oIDbAy/kSiyRF/+dZ3gy3FDH/j7jtttC/vMfodPn/QALHzUtXtADMBOcCEqKvDdqEFhcjUJ41gT6yU+FQQTqQfn4KDv7nedWyA52Pa5S0I4iyk2j+KhHgToG9/4xgfAAYDrtaAybgLHtnFmZTA6E8EOvmdgMbRgQ3IN7JI64KZN2w9idl3+7LHZZyYq9xX7Nku9MFKgX8JhzBkX+wwZN9CwFz7gOsa/Gcxv//Zvf7wPyITDJgSTAoFq4t8S3J6GzRtRsad/iOp4KuFjC/yOHYwdZ9FXwuHAvxIufFghd4ZanNi+tqmFjfqMQ9dZW3usFy7BCXF48cKFE+PM+DfGOW6uclls6D6AZY7xu0DH62ZA8/XqtRBi84pP7Ypvr4QSUTPvOQmx3x2bxjG+s6/Mr/bnhaNipj5vHLbu77ueF9IVqBfIfIzPvilmMXlSUROJFddT3CeRsfEqNN6ZdJFq+w4BOTO6SJg+rn9Mualr55hyG2zuvx365FyPZZ+dyQCeS7SbsZjY6ugCkqAuUVsMruC+AObARRQ6w0KU3GfXz3UGrAmngVp/Nrlx3SYk49KYJ1N99zTsvY6B3wEViyRxy7avbdgI0HbBdVzGEzgyLu0r7IMdO+v2dRUtbHIRFX43Ri2CPX6RVhMvMAhxXvyB3+0XYxfcFNvmGteLbTd2OKXtXuJaf142siixJH+9jmGzXTiI/vMdHzgxM/ZXvkvv7gs4s6jMvn7StkXBdrXPXKZJkG1re1ZszFu1l8+1Dy772oQAAPlLQD+RQAPkEgcbtqAqgBGEC9gluJU1qcwp18MIcfYF/IIWhzo7N1BXnik3ZMUMyL8Dwl5X5ump7hMJONCoy2BzJtXM5nK023H5HjcRuO+eMdC2fWRhKFbab3x0iZPrKVEWG+7rRS7037NiCAki6CyM7xYg958fol6vU2CL7/qyMW4Jbj9EtZ38RtQSoEX5EmInJBbaa3ZRvxZD/k4/ED2LX+P1nUA4Pp/aQwzNKz8oSe0axNBtlQAv4nRcY1uPrZ+vOo1rYmD9uZ4Fx6O5Kjgm7/qgfbStqMf3Y51YMCZjxLHUso4XfOpEY9c6Pis6jf3W57Fc3ONjHzG3GdATSRH4dLRk806Ero5CAibZDv4CgEFLm87cESCMcRGxSY3PzTYNYE9zAR3bLrmeXz5vh1OB7DHaTpfDbFcAtb452/E0/8kftfnln4oQ15jMLvH08qzxcgkQdizRmjzejcG+2jUm3YqT22Kp1DbmWtvVdTYRuZ6EsDI8imebCExIxRBLcN2GjQDxQjv67dkBOCsxGEv0F5IoORonxZVxbxL0ZxI72nFMXeRlnzb+Ll5pfRU6x+Aleo7LcoWTip0z+bpeznk81HWJnTHk8T79DsgJacdr3NvfxWF9hxDNP30J4cq+S26vmDdubA8LJ2M1N1w8Z965/PkU6x943D0gO7JZ1TvDMIhrWeUipmYglyCVYPbdoCtAMR7Acbs2rAFm41vcGIfr5Lr13U9CwFH8EBUhNVhty4oQbZRs2oeCZ9c1Iy6o3ed3AkGA1mYVrqdZoftakBlTPtegh8Dbz8tf7+oxLuwLMPe0VMXYPAP6yle+8rEJwWTDNuwJkDHjjS7r834H9LM/+7Ov9wERnBYgByx1dUnGsdJzEI7rKVnPrpd/K574o2RNfSR69OfJB9gKvFog33FIY7tCYRGzPxwX1A8HjKCvJ6N0Q4BxDZZZtvM44CRwxTm/knt9m5/YhNDYQGwuQbLv7Ft8Ve7od655Eo/6xj50stn2zCPY4PJ/++96ikt//7AjAlTSMmjaqI1ogJhMcRJEa2DZIBfxuM5mHxiM467fx2pk6nQmD9jcBwLt2APiqgAAIABJREFUmrpegJsA7YeonpEZqHaG7QYgd94ZPoSMPyAfxBoBuuxucuG8A/UCwyUcT0EP0AvGK6hKjtiks5R3AmTCqY8qUIzz8kNndE5MsD1kxO+A2AVHuxOg3QNiBtQ6aP9JgLwJAXJ20mSxwCdO7C4/XgJEf6/6XP76fNV3bcxp/F9+or+t07xwxQZ+JS5Kgviyx6nL/OA+rLzFdN8dd4wBHPDdPECbHPMPUVceAVqy0SUx48VjvOpn5eMpxiuOcElFzhxQbniKJ+PnXeJgn9fXnGt/PG7q/ngUT5dXCihXVEEwiDxIBwzk4wG9OvD5568tkh2wBc0GA0wmz2sJCRA32CDQOsUkBoAw2oiTR/E4a+2zn2qPijffbR/3rzNQbG+iBrTNJi4xse+urNSgsD3aD9v/IpyOu/XyveRlMXv6fOGqhLPv67Pvx9DWJUAkGh0LS3BbXvE/BIhNCCYsyGftbRPC9UbUpxmQSab4965Kb/Yx+V4k9UREtaPxg/3chxJ44+jC2yVOT7g0UTWhND/YD559euzGQ7HapNW80vGa38wTtfnauF5Q6fcBuR3Hve1RG++7Ew/G4hn8xSlcd/m4XFMfuQ/4pDttW0fj5ikhKMbMCx91egnOjqtA0IE2dDnGnSPQO8VvGTu74lWDFYQ+v8/ObDzttnMKcPq38rvewc8Y/st/+S+f/ef//J9fv5faNf/3//7fz/7xH//xJaKAvWRvAJY8TfbNXOmn7wcVoCZYO3zXOtsuSPHBJd4InvtNO8XJJWKUcd0VoZUhObFvGkRtjyzVdiC7dTIFFjwGixx+ddbrN6K6vyzB8TBSX4vP5iM/iod+r+z1PiDjlvp2DF+v3msWVH/bxohPSb+EgeCUrOujJiKXD0tgF1ld7ds+ndk4PivMxYPHii+xZ8naouXXqphTaM+iaLvS1//6X//rZz/2Yz/2yf3f//N//s9n//RP//T6WUZ51GOugF5xBLaIx/2F0/CNE9KKm211+ekSs+8Tie9NEirOru+LBOiauX5ggtcxuNESOkRmILhxnOPAcIM29JNDIIanoKQO9xNH0L9OvwE9JOc+tyyO8LJcg/g//af/9PFDRfo6x29J5v/9v//XOH49st+B1yzGTvO+f5MyY2P87dMFuItE7IMC0f2weNtXBbLHZZ81qCi3NhGH4qHJibFQ8YBYqMM73WjL4y82GuS0tXHv/wRoP0T1DGhtsglhAsS/3mfYQz03A/rFX/zFz37/93//k5k9T8P2JoSCxjNrznnmcwmz7XNhgWP1kXHVeIfYart3Pseu+LIzml1bbJW0rj5aUC6S8zgqGP1uXBRH4MD9vBIufLBxjg9+9Ed/9OMQGwO2zf5f//VfP/ld4M4Xp3DmJUI+ZpGh/xaClSXJvJKO8vQVx/arE2COI37GH589juLZsWbtMJe9nob9RYXdyTZkkDdjqrEugaFDF/GUTG0EymNkj8HHLsMUXFzbm5AY2G0BXnbfOVO103AcdXtt98mGZDjOfBx4DoDruIFBX7DFBRbGdf32gLrqwwrYO1BjK4PYNnV/nbSsX05oXM5kAZ4uLEBOiJ/t5YyXPu4YT0LoEhw/RJ3IGO+7xrPTidKXv/zlDwEyrrdT8mtf+9pHwlJRdVbLOfvfxFKSdl1u74mMjImWv+wDxvFZ46oCZ/JsX3fOccd5C1793Kz7HfcYFx5b67i47sKU8QeGbFf6DQbWph9+u7KXINeWtRn1dWbrMTlpexKzyxc71j5ZdPCv2wafxIl9/iRAjkv7t+U/BIiM2yrVCkz8JRCXNdnZYHw2GBz4Fa62Z4IhiPh79dskyWeDn9lTA7JC4340EyhAroAzCErcDgQ/e8szNl8DoRpEtsUFRNumfnPdjO0aU8n6/2vsbHJlSYpuS7W/odCgjxCCBkyGohrQqDFAD6qYDoKiYESIBq2nnXrraN2FRd660tXJjB93c7Nte5t7REZ8jnQaS8b57m/jW7IyljwmjvP5ThjiRyVt2zjHCbKnYf/2t799Xe/zP17JPQFyxYktYGszoD0Lbk9CsJ0ToG+++eb1MNIS7kXAPJC2+OmF9JJHce8xXPsuoXqXe8VQBcE5YEHr0qixYEI0f1RQGnfjsBxEDnlptv0Y1x6z2yLn4Cq+9y/js2gxRuJbX1++NyeQ5/TNHZeOefHxJAjmCfBrPuQ85wnnVLDe5X+5+cIL+fnyC6/k/iEkXgJt0C7DqtQY2GrXSVgHQzIFOyDzM5J2LlVIk89T8oKsZIxAeQlkx1wEwIMpnyr22m2/ATLAdYnIJeoG7yUyJWzaLQGXlAC7Ra5E0MR/SiwTvAXFSca5js2Fo/rMPvXSnrdblBybYs/HVYDwD0twCJCLBNs+LEyA9jsg/2MJ7j//+c/HI35asNAOBNEYuEgoUb8jN++zb0tWxtElCj+kSDQhevwmO7YznmLO8fkhHFPS8zlriyeIX/xRUStOnUfYie8tLLTjPLYAI1i2rTlZ8mc//bbYMG7dlv1RDDEe+7xc4n6rC+y7xJuxlVOak/Doa9VlAoSj/CM0VygXqExKBb+dXDF5Iv4mRkn1qRq67NydUE7iktfOMWkQMEACiOgTEcJxTJE7m7OfbFfHxnElFMTN+93OBcCSNd8bE9rxUhvjNZhcCKwNfzdhOh4XMQFC+nCyNB4mImJhEDfGnZGxnwQm6eizSWSbHPt9/r//+78f7XdAPAsOW/ckhL///e+vJbSdP4xtNvN6pPwXX7wOm283A9qz4PxD1O3nYaS7RmDxaHI6iRkHZOGlPu9zXOy3K29NQPa1SQuSqd8dN5OrSdrjMckZaya4He/ViI7fsbOIGU/llMunFAw+thjzONw+Bc5VvLmapxBlGzFqPtM2HEWu+oYp+8hC53HAR+Rp+cG+dLzsAx/ziTDo7uTGxFi58rr9Gmf/w/Pchs0gfaHcHb0DxlMSmQggdRtjgBtoF6maXNxGRbNJ5aRp5dvxdQZDQFgeI1moqBAij8O/Uq6zS8omCEDrN2NyfgnaiWIyM8jqwycwejvj8QzS7TRG9FfyapuNif1gofT24qQYM+mCAQtTydOCWUGyP/1COvfZmxDW12ZDfvHg4oQAcQ2INrgLbjOgkrfHwmfy0aQCRiiIIKOryIPAjLGSr89zLCti9pd90iKnRFPx8OwAuxCpCkpzh7Yv4XGOb7+FGlJvbtsX5NdVlL4rriwctvep+PWtzfRpjqxIEh8L1fAG/5QX2q/jWDx0BsN+F9ecbwGsr4kf518cUUw79h93wW2jlxUKuh8CwgKuybP9VyVytc2g66gmkWcNFwEx2N66CJCr4BapzlD84ikv+5hAPGMwcNzPlbgXmEgmk6crI/fr5MfvJuF9NpAMmAoCtlxEeZHlJ4BK5YQ/L8Cb9Oz3CpHHU6zsWM9C8Pm1ROA7kSApfEv//BD1eiPqd9999/EwUueKMeiHkXp8fiV3K3kLIJ+NhxIAsbTfK/KNXQsJfHoVABWtxrxtt5CjTcex+Cs2W2Bcwkk/xgoE3n30DQ4gbhOmfcZxFSGPhSLYOe4CcNv5HZqFhbE558oTHi92mQN9KcDFiXFoWy5MWTwum56wwLEWY/zUcyx6F68bh69xchPCRYoGhTvssU40g447aFyRNPlo64mgroFWxHyBs+B0+9hmMdoYPfV12wZxrwXZNwaMt1ss1i5tAw6qDScCiWrg2z5XOT7GJGDCNtBIisvXtsEgKrkYxAZkgdUKz3GpcF4EZtGlzys229eiofGEdDxGi6yLkae74Hglt5+E4DxgTCOgXQPiNmxyAwHyDAjbS1Zrt0WEv5d0TDyNnbHpGIHNkt1VqLRYs73OfZPoRT7NEx9z8YC55CLPC0ctSO0P4wK7W0i46CNn14YLFuLmVZ3mosUGfzVHETQv8dsPLuAbV2ZBG9Nm4vZ9uan77Pcrh4vr6+cjYOIat9t3seLxEqdPZkBXQK/BtPMeQ8L7tmMC4qAWvBdove0Sl4J4BOCLjgTRQoYjeu5s9HrvxvU008HxXq7yjKfrxiVoQAHgPbvCn/PfzvM1rRKHfQ95uLqiH5PUEyArXI2Pz3MyP2GkiUt76+cDgHsg4f+/hnIVMm7bdxp5XJAIf7GNdsENuCRO29+K1w8jxZ795S64/Q7IxMANMIjGfojK+4Acc27DngC5ALCNi/faNik4gV0RM37bwrYWiyYJk4sJET97ZmQ7LQa2qbFr++4DfELg5gR/bmzJ12L/wo23uW8TuGNeoeAcbIXrWOZ1O+zDd97XGY650P6raIMjYxYBY9v+wnEcf7Vpfmtuw3WdCTOGa4aGb2qb88T5ShvGjnno5T/eB+RGnDh2qh0NKLzNjTNA1NOEU4LsAC4husC0Pkzc+4xzqHCvhPNSTMFzJQn2QGAlcLeBnRBJk9gVV31uv7AP/wG0AqQAbjyeSMZjAuAQg2cHTtCeUyKpLx0ffLe//W0JiUzsOiYXEfZZhceJ4Tsjad9jMT62f5jYXz8JwePZDOhvf/vbx3Wf3YCwwsDkvv55FI+vAe2YvbRwvwPiLriLyBxj/AXZzF7GZNHpTSXFJni+8oB9FAS01TjY55f4uG1/5lg//89EeOG9XGDxsQCXcM0ZxNN9XaRJfC0k9OcixfvB0M4dZvzgU3DtIgK7sN2kTN6BBa/kGKvlYMffnOvt+Kf9XdwK1myj+yTPwFbb8Hfib3/TPjaZIz+ZAVUYnioIq9wlUCYw2sR4g9sDe6q22n6rWWyhH8DuagF7LrHxWGwDSQkpbN8IZ9NdqhmqIvxUMvBYAVsB4WDgI4s32wC7ge94GbA+xwTp5MGvFhX7qWLjqtp2up2SB2OrbRVehOwSU+zHHtvF59nGcghjwPcdx757n2O0fbsLzq/kxiZ+iMqsdMe6CsU/i9OehPD73//+42aDHev3ARlnvjCNIBjTHGsRBpMXCXu5xITkWOy83lHnmDonep5JhNiXbCDsiuwlTuSF41uisr9sJ/30L1ggPld7JkX85HyiT85FHLhJqPgy53EjEri3iNa3FiETPPYRJ+Pb+5wzFiPnpf1+HW/hMUfCb41nxcl4dPvl9GL51S7PggO4FowLFFY7EsaDddWB4a6scCQkS+DqJBxhG57I6CIUOwVRoloxcVWULkIFJMzi1t/+s/ZK9UzlA0A4z7NA9lmIqLZ8HonPmw67pFfyMbArNAVdK1yOZ3y+RlbCd/w/JxiNVytYkyBYAjMeb8Wv9pPgfbYX/ZU0iJ/Fmf4+9zDSzXxcBOw8E/DO3+sY/CieHc81oD2Kxz69xJmcgMhKusasScfbwR446j5swEcWrgrh5zBgHNBPhR2Ml5R8fDFg/Fw8cBUZYIF2zS/bR5zB3rbZNuPbROs47XMLXWPCucln+5A+baPHWi50e8YsMWZc8JGPp6/mrY9poUK75km4ydxCrl7xL6/Wrx864RfSWRSseldjNsTk189tx0H1vm6/+rycWAHzNRsA6oDbaf6ME135EKTO4pwotdMJNQJxVVUycKJv/L7QiZi5avCszED0OEgmxlP/2x4Dj9jT7nXhEfttdxPMBYhjunMdj4pTE8uE47i7b+LqpYvrR8GIBL5ZG14SZlyzgR+iPt0Fx6N0GDcFlQVsT8P+3e9+94IC47IAsX3nMLMl/sahsY0vjT0XLiWDHX/h1mOFVK7i00XJk5gZz09CaALEZ8a0c5PtFnRjrvnj3Ns5xMLY96NxjBPnEnjgPPxy2UE/3sc2LzWaHx07k3s5lNi2YOU4hA+hIb4u1jwGczG+NyYdB/sS35iP2P85TJkPrhyvIH5yFxwghkTsuCfCcIetcDmfSs7VyVURFdAG35WAkKaTdvbUsQU544SEPBth30V0tF3y7++CmrAc7+Bb3AAzhNO/a5+bK9x222s1534LfItPicGJYeBaFAzYK27FToXQY0ac2OYZs8mkJEuMiDfi4zhVtDkW+93mPvM7IF5Ix3G7BrTbsJkBmbwteruG9LOf/ezjWXDYz++Adj7iYDHYZx6/w4y6M0SOZ1ZcwnSsihP3ZWybWJxvLVSITfHgthxjC5Jx4wLFeUvfjNm2GGvY0ZwHs85/YoSNxoexU7zwvTMVz5pYOmVZfvb0Nzr185XztvviUouqCyhyG65gadj4rsBxDjzsNvAV8anAggfHrzldPsK2cgX5/tIFbsN20mM4gwFMbcjbARnHGFAs6ayP/sjRM46STYnbZGECwY6rLUTGdhGAEipB2LEEFNtdYVk8LUb07+sETRiDzARi0a//S0TEyuC9gsz48E9B5P4Zp/3k9luAXGRVcqEtz0or3hXN+sdEyD4TC2PwTGI3AlgAu7yE7T4XX01A+iy4teUfotI2a+TGDbdh91E8uwvuL3/5y0vASgzghcScLRCci6T6zpjxmBxDx9iFmf1s8rLfWgg5P01UV38lUwuYj/csr8eYUyp8tgW/4VffgNIZqjGKb03M5hX4Zud0xmSBrS98XsdAXNcP7XKM+bZ5yDjgUGI2O8pxxpcxU242LxgnCHUxhaA6tsZLY3J9Z6wfcdg1IAbRxLAjm7QVA5Lmyfn0ARnYOCfwpaoGH3ZYxQ0GqhfsgVgtUp5Gela2Y7yPfi1svuvFdpnkPKMyoBkz20yu7huBg1Tpx0sIbqtVi8dQ4XAVhS/pm/YBmgF7iTs+5Tjws78uNJpYFmVsqM3GwVV4cJ5FFjKzrSa4K57YjhBOgL766qvX6xhMHtyEsNuwwcza9jLFjp8Pdxv2rgE5UXkWXAXIlSZ+L54hKo5lSZElXsfYOWx8+hi2l5wqBhYgx8A+Nwbomxz09/nZ1bwxVnwbT4jLxT9X8WI87bOLH8fTYmy8mItK2M25nbeCA0z4XIsa+eWiwkWkfWFskav2QbnDImJxc4zMyXCF28TWcvKO9RKm/ee4e7vbMP4riujB/7yQrkBtEJ6qXJzIYPfXT3i2wU8zKzvtUt9rG/1SjdJ2SY/+m0glpS7/VMUhV0CFY0uq+A1QdGzbb6G6gtVZl8WjJOI4Vejom7FBLD6u1aera3zpPi7SMxA9HqpHSAjiMFFdCeFYGXdOKNooQXk8+NlLWxcOdtx1DWhtMwPyNaD5c7Otrcmvv/3/3G3YexbcO2IrCZhgjHFwdQm34+qigDFDlGDYpF0yuXBbX1/icOVNScskbfHzcRf5vos1xObirm0wborT4ra4M8YsAIyR2FMoDAN89pKiY2neoB1zlPPPuXYVVD2fvj2OHoMPadt/Lw2oSDofG6/ytHmuHPJagqMyqcFPJFeQXsQEyZA0BrL78WCvxLwSwMRFMnGcycnVTwPHcSVXnAmBGUAElke/0IbJwMK3z7w/pgRPkNaGH71vnyM4bhPgcpyB1ErGfewz7RkwT1UvsXCbBZaJzvs8hvqz7TqWJYK2z7kmUj7bHyacbXfliR84pjO7PoqHPvcw0n/84x+vh5GaeEqcvI7hWoL705/+9KPdBWfCIp7OE8fYPnH1amHBxz3PxzR29ov3eekZnxZrVww5xoLYmFx+KxG6kHvHM1c+eTbp/VcBRb9dniU2jNEz3KciyONCAHcex3epz743bzm+xj7k32PJTRemxNwxbQ6bZ+1/r06VO1qsPHHBu5gbpx9jmQBB4gzaA30yvmRRJcUQLsy56oV0PDugPZNjB2Oy6UyMfb6W0cA5OHawAeqkazLRBw+hJPBdg2UstbGzIexrFcuMwbcPd53+qnxNOCUN+iLGxNxx89j5TEKZuPED47lmtG6LAscAdNISi/rrqRLzue4HG3lyBHYSp+33Nb0K3MbR3wFhw2ZA33///cc1HPDM2Fku9W3Yts0vpOt4nX+zlVgX7yZnE4Lbay47p50PnM84SrgmJuy4sOLYm9iKP8fSAmYeKWmahyp667f7S/Q7x7mNDZzrvK0Q2S7aIC7GFwWIsWuu86oDfrSfzK/EhDbLI45li5HGuUWJ97tP2qHPiql5oHY7Bo7v02dz0Af/+nUMdlDVvgMocOoAyMlriAWDRcfJhXEEEme6qnH/JF0ryyZXVftyoIXJxMWsB5AA3ooc4mES6ezL43LiG3BOlh3Ta0z2t2125VUgrP317bXitoOwXfG1/zxug9SkYMFvvEyU4IK+La4eG76iLeLHOPG9E7hE2ASDpLCBGZBfx7A2WILjLjiLA2OZX3f+7oLzC+m2nych8Epu24WfwHfJkLveSvYmIYsE7VkAe6yLFfukeKio7PsTRpzPFRly+OrL+8wDxozJq0Tu/LdImkfY7rwtnny8x0J/8IF5xdxEnprnXHRyrAs3xtvZD7FrUdbjnOMtXCxCbsfbGTP78SXHVIDYbsEq9oyZ+rg4+ORJCBUZK3kJpGRuRxTEFRcb8Q7w7p+BPAEUMio4SlJOfCc05GwA05b79Dp8H4tehTcB218lgxJvycEVmAXkEnDb35gxEykYAdOVWO9iabAa1BYntrvaxEb3V7IxeRrE+KpkTFssu/LXRYsJxIRk7PqFdMYpt2FbQCy22Ph0DcivY3B/TXQIfttdzFz5Z3yZlEvC7s9EUxG8SLdkddnuHGvxgF/eFTZP+xw7bHXcbZuLyR07rK9oLO6MPY7zqokLEuezi0bjwhzB8dxF5jwuN9AP8bbf6mPv68v1jIFysIuAixe6rbixz22DcVMdsPjYHnPCJ595EgIH2+iS/TVAQGtS5TwnOQPooE007q/Gt3IigARg5wJCr2Vuf5fIcJodbBWvuvt4QGtiNimuv154NMkUcAUb300UvpOPKsvkd/nWfikJsK8CZmA8EYmJEL84CYyf+tdj6x139r8/2/fGgHFjHyLQ1wXmi7ArfH4YqceHAO2Op8YeLK6tLc/sh6h9FlwFqH6sD4m/sbttvkV251hUm/zNaeOgcbq+Xz424VxiVNyZH8onxVhJyuOxGLEd+8hx5xm+Ipe3z7MN4+/CtPsu16wtngPIeO0LLwViE3lrTDn/bGfHwXfH09vKGVeMzBEWENtQDDYe13n1k3HkOD2d+/FGVBtCx50B2cnt2I7mODvy+mxQEOSSKWRkp3pgfG4VZhEsgdMW1RT7SWaTnkm0INr5flzKRQDvgm2fmxzY7qUyJ4lnMMQKUnQhUP+aOGvrldT2uQWPdkpAjdGVMI6XMeM2ibkJsIlrvzZe/o4NrmC9Hwwwvv4OiO1/+MMfXjch+Eeg28d1OghtT8OeAG0Jzv7eNaBvvvnmdROCc2HHdEaKsGAbuFt/XFP1efWNSdEkjV8p0CpQze8LPxeGGqfP8cT2+0ehxUGxVq4xJzDWCopt32fvpz9zhre5P3y189evb9JwziF45hZf/1n7Xnq7+NK+Ja8rPo4nx5s7fki7T/kL/yGg7/i/MWuMbJu5y/n48hXXgAxiE0lB+o5k2OeE2jaqUgJug0gkV0cMpkTEdg/eFwQZtB0HEBtct409XZ6wcLEcwjGtRg0YwN72LsExWTSIJRIDrQVDQWVf9bMTGMHn72XjBS4ngpdFuuRF7N2u/QoZPSWFsWDsVYDo10tv9H0RNNvwBWPgadi7BuS+//jHP75eyc0t1y5WnLBdggOr3IQwAbrGQZ6BV+PsIqaST3HeHLzy+MJMCa+rGc7dEstFNPah23a7FpxLMD3+xrL4II4XB5DDFUjbbSyT0+2DcZQ3KBDARotpz/gaDxdILhQ8XuchYuj9LWSc97YZXvG4sdmxqJ/6nb47LnxYDDqO4PV1Dagguxz+tK2AqZMsFg0uAzL5/RCA25lO/sthFjZXu56OX31um89lirzx2bHYDoAKupJHgWci27GNRSuaHW9/lTAucJncGo+K5JVcBqWJ7wmQF9E4GQxQ/Gzc2MYmYAXSMfW+bd//zlAtvvjb8WcJbo/iAdv7u9uw//rXv3786ND5wB1w689LcLaHp2H7UT4e28ZsLOFbX8TuXZT2qfFpjD751TG6sI1tF8naX8YDvi0GK6rvRATSf8rJYusSJzDVpXD6dY5RFF/85vwnHtdyPjjiupOLB+eIidqxu/Lefr3iCd8UA2C24sPYvd347uzM7bfNp/gbM+W54vAjbpsBtWK/gm9HujJoJWOA1NAS2TVD8DkGgAFSWwC4HdCK3kFuojg47KvtgJlgUE1REVPV9/oTyeix2H8NVAWH/izWPqcCVFIreJ5mOm6zJI9PHGsT5hXnK0Y+ruJVPzzFwbHqOZ5ZQUKQa5PfWHQi+mnYjgVPQvDTsEkiX5fpDIi2dw3o22+//ViCM0mXsLGZ7WCfYoUbYRyny58/lAQYp7G2bfCCSauETR/FrQnHvvbxJUWLSTnoylnw6PhxnNuCTDne30vILpKbsx2T7/Tdvt5des1Cm48WGsfQeU2uPRXwHGvhKw+YP2sDOCsOGnf79BKUxvMJn59wzfVK7qqfnVSyebevBkAKT0738SVB36lisONMbOZ2aQjHyUz/Pt+i1bFYbEhIql0HmGB0xtSE6hT5IohOhU1CJgjPtJycT75lO+21ksOWzsDcdmNiwBqsBmfFvWMmqVytviMvE0yToOTB9x1nf5lEOwZuw/71r3/9yTC2BLdrQLsJgUrX7YIzfojKNaAKEC+kM7ZKpPalSQn8NMYWMMYGji5hcAwsCCZm9+UcMdm3neLDXNGcK5ldvMIxxPFJECq+vcGF13QQrxZh9I3vaqtxZV9wPbC/C6of8Ksx2Lj4mOL2EgYXutiEAIIH2+1YuX2LT23yONqWi4rm/pNGlKde31mC84AMsqvxizirfu/IqSC+DO42D/idgJhYOw5ExAk8x14BuQQGGwASlejOLyBccfs8s1qX0uzXi2w4F3JpRWSRcdxMSha49UdS1xYT/VO8KxQWSM7vzIPYOYYmluLmwhHjnP+fiqUKlfsDI8YYtk+A9iy4XQPy/s2A9kZUv2LDuEGURnZ7FtxeSOecYAmOmxDY1zjbhy4GLDIlfn/3uIlzXQKFAAAgAElEQVR14+RCiM+OCz59ysFLTJovPcb2X8L0JGw+Fn83bog/AoPfiDMCZLLFT9cYTZTOnRZT/t2NY2Uhp09sexcLjnFe1m/+KUX3+YkqVzzou7l9+cV4sD0uHK788fjAJbGt/159+IeonOyKzGS9zxc43VHJ/cmIzkzqsEtwGIgJi/M4vpW927lIFoDZmZ2FmOS2jwprwN4SHN8rIAay/WJQetwOusECsEzq+M/BbR8F3Nr3MgHAukSCWJsQ3d6TrcVCAWm7S0QFqM+tn4hb73BcmyTpUzIYwzve5LEnIfA0bMfTDyPFNxQv62//VwkPEz//+c8/3oiKDb4Lrn40HmYPouACw0WHK+kKiH1oYvH25sG7HH8ionci0rjxvdhgrLRlorvyv3lvPmoRWfzal8WZxc98wtibH+ZHix9FaDmyAllOdDzNcS4gbAs/7nfxgi9dXFz4b2yMcX92TK6cxp76zlhqDN3Ohw8nQBjlAF8Au0TCyeMgX+Tm5DKZ0tcFIo4zEbKN4xEFSMDi5mQ3kNrGu2Cx7NY18ZK/g9/ANrglcPyILwAfs6wGvMcTeAOnAN0xFVcDCBttm2PyROgeWxPYdpZwXNE2cYy/S/hstwnB10cYx/ZTrSJc9qdxyw9R+z4gHsXDw0ivIm197/8EqG9E3QzIz4KrL4uH+cNEY6xd2LkSH99bcDiubRC35ogxAamXQNleITMm7W/b01wlL801JUMTm3Gwz76ebQ7q23IdP+OkOW3eoT0w5Fu0uR0fu1lSLv67TOacsMhQSDdOngHVRzvWooUvzdGXAHmMzTXbtONcrDkO5R/3Y943Dl72+5XcFSAc7oqhIGt1YLBcwlYDDOb2Y2e0XV8TcrLizOsCah3W7+4fOz3eAo/zDSoTtsHg5PUsAP+1krVQVLxMItc+t1XA+dyKBccS97bdGJTYPgc6J0xjS18WpcvWC4ssxZlwHD8EiBiYZJjF0NfTK7n9O6An27e9P0RlXLwRddeATAzGl8nUMXSOXMVVRcKFh2N4iY5jbvF2IXTNPLyfzxb32lRM7TskWzHHJ09YgAjrOwsQZHy1wfn2JbaXSG13+bAc4XF4pcFFpP3iuFb4jP2KoHOg+5yTjb3t9TgRKITCS9Qu7smfy+/bdhWRxZzH/8qDvZL7CZgAqyRWYvL5JqmKjQmIaWrB7T59vgnKgcO2As3JfJ2LLZ5FAUzb4ADz2cAtabRf+8p+vLZ3BsX4LVKuJhof9rkocNJUmNpWibkANvEWhNfYSjpX/CFjADzwXxhy8nTcLgxceBgTT5htMn9OgDYDesLa/LvfEflJCPTru+A6M23iOu4l0t6sUfIwXi0uxMtL1CXQYp2YPM2CjYfmeokGIsPeFhLgwONxwWCfXYVEc9Z5aKy2X4uGBbTH+Tu2+JE75hG4zTZdRQHbWviXzPHJE5cQB2b55etLMIobn1MOawHXXLJvys2d7dYnrxkQRHFVV9dgGpyCpgTh9g00Ew2fL9G7BOFdOyYhEzAC0+QAMBwLmOzMfna1iN8gB6bmTYIKA9/p3+cZnFRT78jFYlJb7T+PnX4vonFM6/8Sm4nINpqUnmZLjiN+tFBVILwPG33X05M4kOQmwosEdw3oyy+/fN2EYD9uBvTPf/7zdRdcq0z7dALmJyHgmy3B8UbUne8ktp9M0CUeH9dreVeeuuCw0NO3/e0cNR4ukXKh4ng4lpDelbvOA+LSnLswRV/tf9tZEXHemNgZ32W7bWUMFwdwLvGDA1gq7fjXLs9uc7ycI9jYXCk+8IfFr79x6/IeQm1MVSyeuKE8zNLfxYmNizkX31aYPnzODAgHmJQMvs8FzqR0JdTadSVlEBI4AltxucTpqlbapgdN/55N0IbJ2zZ6zCV4gw7hqLCV4FyJ8NljRsAMdMbusbhQAIS21QAoWbpf+5XjiB1/KwpX8VFBqs2cQx++acMYu8TGiehlV293svgYJ4ZtbFz93XfBmQT3Q9TdBcf7nTYWXv2Mv/d3j+LZ07D3PiDbyLPg/ENUiKH+Yrtz0YmM/7gNuGRxiZGx11mUya2CYRHr7NRtNkc7NpOu89tj5JgrPh5TxWF9dcl9x/PYoi2LeszvMGcerF+3rxU94oeffA1q+1xUmrMQix5/ceDacX66YDUGW+BW1MgH85QF0PnXotexecIX/rq4/cL6CwcToCs5bZgJzcmxBhpYG+fzOi216PicS5E59qoWcAygZLrovw0EJPV0eyZgml2u0BChJik+KRGbNCxsFaJWF+vfldz685O3CzQDq5WGSbBiZCGzTa0c179nEMTDBO3E+RxAmwhN9BLRtd/HEBfiSrwvUgIXnLPvPs8PI3Uf/A5oAmT/V1y5C+7rr7/+RIB8G3bxbtG3H719NnILOFhyVW3yKL7Ap7HgfLQ4VFQsjhYZ50j7vviEXDKZGj9whXHf/Z8rVrAdweG7cWAsvxM69+XZ1cVbzQ371n7C/+zfvmIWkWPs5Cg824LQb512Xx4bPjcffy53KxjlGBcRbgufGzfGR/Xji5/85Ccfb0TdADZQVNWJYvUukZmACTDO4LvvCilBVWBM3AaunUDQsdVkin2ulEyaT5/tPJKbmQ52mLgIrAHFcdhQUDRxGxzExyTTcVxt1GcmARNZgWcBv0SkvnLssZVjnJyAvX+JU0Wedl0sGCcWVrBYkcYHiEyJx/svbG/b7oLbEhx3wZFIvA9oS3BU1vTv2fD63F1wmwE5Cfc+oD0J4d///vdLwIgpeDK2sY3q2fv8OH7OvcTgwohxcBWSFXpj2Tht/lYY/J02L2yBjavgqfCVUI1LF3cWsh0D73jWDX6cv/aN97foNY9xPY34w51rtw+trfg4P/GzSb+FI23OHnMx57RwMWdc8bL4PfEJWCvn2TbziePuYzi/WvDCFAJ0KbuDVgB0UACU42yMCYGkIrAe3JWMGO2AGXw4iQuCFxhNgrWrU+ACjmD7At/OgYQ8VZ2N10ViCyJAAUicQzslV5PMVVW0wsL/+Migtq0cdxG/wePEMYFTqV3E4BhwDvho/F2VuS8Tl5OFdtyHi51rCQ4fsIR0FQfEg6dh/+pXv/oE4hOgPQlhS2jYdl3r25MQ9kNUXscA3pgB8SSECg5+cFwgHYiOv/iJGLRAwfCSvknWeYd/HPdLFEw2xNX5jh0uUiB5YxdfX/4zfp845iJvC+TGQawZE2LkpyJYcOmXYtKcUTFEMFi54HFcFgaTrvHmdu0bFyS06wKPWPqciy99buNlf7oIsn1XPoMb5+TFx87fcoj15ROO8hIc0zkHowrnxHnqpEB2peqKxBVeAWSRcTBNrGuXR++Y2Ex6BiBihiMNQJwMAG0PQd8x9DeArxp2lQ0hONFNFh4TAPBrtwECY7n8+474PdaLfC4AUhzgM0jOiYifWrVb3AzcK2EbkwqFCe3CQkkHEjBx22baoFDAvouYHBe/jsH42BLcd99997oGhDCsPy/37Hhuw94MyDb7jahO5PoQrBXPJiDnQMXDyc05Jj0XWPgILFo4yNkSpuPcfY2bibo2Ywd/W+xehQptFF/GgMdfDBvH5KhtbrvliYuot20xhwvAA7nIOZdvnK+OI7xGTpgPZtMwuL++/lNe7uzZWLSg0K+xUFs5/hrLNa6LC8o9H7GcALnhCo5VzSRRYjfRDkwVlyeQoPKuHuxMPhsMTtqdR38mT85zlYX9jHcBfFqmcWA8KzE4mrgA3rYy61h7zKKusSKynpHgs22bUHm5cWOh2in4DCYnGoTAkxUYO4BB3EqqbqMiV1H12BE3A9JAZPs167tIpmPZMZxrgjO5XdWkicz43va+kA57EaD5bm3OR/3x4eLEbdg8iodY7EkIW4LbDMgzNvsIDPC38TKhM24/foVxV6zAvcnCNqw/58n2OYdLWCb5tm0sYa8JzBxS8nfxdwlEOQeMmCOcE+4LrJT0jd+SqXFpHxAzzzxpd23gOxfe5VXy1/2X6OFGxuH+6itzW+NVPvU49/nCC7ZjtwuXxr8+bPHgsbuvl399F5xB52S4BOECCIOxczqjcPAg8DrMBH2B3cTlcz1QguVEQwRGHoiVwWv7nVhU615eA/x+TM4TsZh0DZR9RlRc5ViE7HuIon6zILsQuPx6FQYID7MDksPf6aMigEg6se3TVuEVLNqtKDvZIDL7ER/5PGzYMljtdXHgOBZrTzch7I2oex/QluD8hAJmWGtnlemuIe0a0B5GauxuCc5Pw4ZcLNjFCQXLhRH8w12QlzibRFpk4o+nuELkLh5cFFykWMLHJjDigo2YmnQhObftbT6nAopo+qK+c9i51pxy3u98OMrYrh/sb3LKlwHAvQsjbLTPbaP9a1/ZRywhVpzATvOQXLYd5fbaAFYYw/xhHq8eFHv4E9E3L1uoXzbxNGw7mA6q4CXGi2gwtk7GCCspSVQDbUsJ5l3Fwj6DFidcgHVV5Gpqtnt2YPIiKIBt53kN2EFjXCYCxgy54ENADEhtL35HgPBPg2khavKZsBEcEwS+42+F2yC7xKYJYMLD7quwYPz+a+HsWImt44rN8yHiQF9r18UG5GLsmjh5FE8fRrrbsLcENwEyedMPQrDbsHkUj8c0Afrzn//8eh2DE9g55WWo5t588rQ02/Yq3h5fMbJ9nsm5uIHMTabEufF6Ihn3TYFrQXqKQ/Pc7V+8Ax7Ah1cMmsv4wLa5EGgxtONc0DIDNsYpaogRT8jucxwh5+Zn+QeRaF41D80N5lyLp/Pc/ZLH5Ae51mKF7S1AaOvCWwXbebz+Pi73+EkIBdGlpgZgQdiBVjVxSkmn53l/Ae9AmUwgHirS3r1mQjUh0T7CaadyDvaVvLwUYzFgnA6cwWHhQwxKIm7DFYkrI5KUvp1YTi5AbwDZtrZpW1qBmsAKyM99v0jKpOtEv8Du8y2UTgDGBYnQToXdcfc5T0twE6DNgPYkhLUFzpglQkAjHu6Cc7LzKB5+B+TxGf+OJTY2PhyDMDQnHb+LcNhvfHspuv2CUYtCsX3FHhK1fy2sLtY41gVsc9/8gU+cA7T9tLrR2VGJFfyRn2vPM0HyyMUNhQGkat7B98TXNjs/zU3rG9HyeLbdb+O1IJrs3adj79yxX40Bi3evlboweTeJqGaYF52zfP54GjZBq8J2cBWdJ/B7u4HjBDNxmOgKlBIXYEfgONfnQZQ+xgCrIjtZqGK8JAnpGCy0B/kARpLIBGGhYT+zIJNkx0SbFQ+LSknrAoFB4/6IzdNFS44lBhc+KnYGnWPnao1xmnicoBa62g5B+BjGYawZqxVVj4d9izfvA/IrubefGdAEyESEsFFxP92EwAzI59sm44/trp4tCk3qYrJ4MNbBrKtcC2Dz1n4iX0tsl/hcmGjOGQ+2pwWFMcjYwERFxGKHDSxhuiC+8AWudp5vbnK8nSflNd+R2+LVMds+i4ttAQf2HzzyxMV92oKPc7425sYf/cF5xUkx5ry2rcXmE29QzL8exWNydSKb5EqArjxMeAazjyH4bt/gsdOeSM/CUzsv0EJoviiG013FNFnsbC/ruH+279x9hohcKVgEm7QWKwOQ9nrdCRBWXEwYri7pj7YdF4s9fsRuQHqJiEHXpCmhG8AeOz70X/sMzDBex+kJI1ebjmnxVBztO/7eTQS/+c1vXo/i8Xh3DWhLcFtCw0ZjGn/t/D0JgduwsblLcMUrfnfRUuG4ktnkRFwdQ+wypktQnv34+lgFnphaBGyjya6YtihipwWNvAQLxrV5hOMuAlwfVO47h9kL2y3oLlZp3+TPWF0oGUc+ls/OzS43wqXmpG3zMqd94PY/yPqLL17DJpYcj6+d8+XrK5acj6/sW4uVY1Eew3fNcfffc4yj1++AOMAD8+DeAeAiRIPIpAhASxhVTYO6QWef26DdAhpRuGyE2EpqbpcZys73j3PdHue7Mmp1/5RMO8cgsMh4Rkp8DESDrmTbfQXABS7HxgRW8r5AbxAyVrfRazBPwnz1Zf+4b/pBQIup4sZFCPscJz5fr+ReH5sB8TsgEqhFB4XcfgfEo3joi9cxXEtwTnzi4GuEjm9j51iDRYuSsVdyd1HiuNkvEF79y/H2c9uDRBE42+688wyXHC6BNp5XgUSbnh0RK/e3bV1i6nhcAK09MGwh/4RIv/ji48kXYJLC1PG1sFyEf8WTGLjAKJc65hb7CoOxZB67cOUiqTcvXfl2FR3WDhcoH3bwOgY2uJEn8umg6lQCvEG5CrFAYBgBrUOdOATapGMhMlhb2XQ9+OoHWzwOt1kS9C+Et6/BWR8/ZEnL1aYrYI/TpDGbfLPCRciOo33kmOED2nZyGrxN+uLBoC8ReQxUg4g+YzXxeCzvyM4kS9zcLvG+4o5NLj7wC9hEgPYkBPvFd8GVeMA7s+Jf/OIX/3MX3G7D3k0ILMGVCBjzfIN/iPUVH/vXmN7nz+VUydt48L71S9FDfDp7Nom2XfKJdto23xE8t9X8NyZo1wRZ4YK0Oa8YuYTOJFyeIAa2Gfw5luRofUr/tQu+LTnDK/ibYtVLZOAQzNRnT99dKOBL948fzB+enFhUzI0dy4Xb/9GAzYAsOu7IlYTVsgLkgUJqJbnLGSW0AtCAreG0Z4BRkVoUdp4rBx/v8eFUSNUJXjvdHgnqZQwH0P50mxdouZDp/lq1Qkpdi+45gBPAO36NJQTQ6s5xpj36MYiv5Ok24+KH4Mrk4kS3UBkDJaUrSexzcMGYIYgJ0Jbg/CSEjYUZkJfg6NM27RbwX/7yl683otoHPAlhM6DOUCogLjK2z9ciSxQltArbU2zw3cbdW7ktHMZK86D7zCNX/m8bsQdzzjvb3tjax7bjcxxSoWlBZ/HDvs7YXRzALRS64Ka/07vEuNsaS747Hzmn+WbMgIHmq0XTecs4fZ73V2yuuLwTu+K5XPdJ/Hgdgzd2cAbDkxAV+ACmAe/5Vsl3n00oBi12+/bbOrYiZTFjbK7KOd8khW1OoN5E4KDQB2Ryge8CToGCXxE6J7bjwmeDugC8xJU4XYAqwTbZ3X7PZ5/95vacULbBSfiO/DjHmCGxiNGOceXpGDAW+3vH9lE82MNNCPshKeQz0tlNB078CdBex3AtwXEb9g/NIRcEkLvHVvzZF8ZDCWTHeXZlXNgvFpQKwrXPGLDYOJ84Bjy/w1SFhrw37q7C9MpVbCB29Y+LIhc/LV7BsI8Bi2BtY2f1p+MjFsWAMUR7Fp/OzoyHtlkuLu79nTjRPu26MLOtF78Udx3zxflMFj7ugvNJXSJpkpPYHbhBR+Au4jWxm3BKmCWZK8F2jJfdDDAnicdnsAHqJjjC6YSnDd+YcAXfbVqA6QOfUOkAWI/FwkV7nWobJCSUSasCccXCgKqINR6duVz+/Vx7LCWYODjHonUlLr4m0S0e3mdyaDsVp5LzdRv22vCjeEwMtMcs5Xoh3c5/uguuMXEMuhTS1YmnAgh/Gm8lb19/hJzficyVm+Qn578TrxLXRbjwSnF1EdglqtvG7/MYS++MhXuw3bNRfGQ/tB9/3/F+Sn3F7VouN188idMTZxADi4VvYsBvxtA1Fvv+Ka6XALVdC/21r3xi333k/GZAHOi/iEm3GXTvBurOrN4FKe05GPRdQupylgFjUqdNk02Bs+N7vYgEAJQmXECxPvnscXVZhfEYLBWECrsJ9UpCSOPye4Fdf7aKMUk5GW3TVV2aMNumseJ2KshNdAtQE6bJ0nMvgsBuqqyL/K4Kdm1dNyFs+wTo+++//3gYaUmRYmIzIJ6EYH9YgIyD5oYxDs7s84sYmhcWyCsvXMg4Tu9I5DrOcTVeSzw9t6R35fGFkYsrjHPOufKqs5rmWmfKF84uDjFPwileHocXOO4pVk9c4OPhHhcm9nU5iH3G2MXnzjF8fOX2VVxaD65iqjz0P7zAD1Hb8ZPQFHQ9zoB/qu7clw30rMkAMKGU5BiQ/yIktEEQLWwcA3FcRHYlDiCwH3YuwaddC8JFogZO/VShaVtXrFzt1gb77LKrY7EglGgvP5VwnoDacT4lee0FI9fx2+Zf8ls0F5MtkWGPE/GJcN4twe0uOK4B2UcmBH6Iukfx+J/vgqNvkwu+uYosk3uJ4SI0k6ttKwm6OJpNnRU1DiWbkssTFzQ3jcHtIwe72uB89bif+qUfF46MoQWHH6fUWdGVrxZ1rvea6xCd3vziO+GuVaHyJbEmhx0T23DldLFAPLrq0D78naLtaqt57bxsTO1D7GhB9coDv5IbcmVwDnSDYqNNDE7MGmGnte2LNGn3sstk1iUZEgvQeb0bwAPuCxRP4zbxVyyvKqM3CnC+E9JVi4US+/wXf1rsLJL4viRlu0tmTYCKrrFgn9dHLQQaH383Rmxr+7r6qFjuu/3cWduFofrW+LUA2TZmQLuLzUTuJNx2HsUzAfKY/Tsgj6F+AQM+Bvw3NjvXImL/cU5JwznYZV5wRT6Z8C6y8bYL/x3bJQwtXso9jXd5wlhCyLbN72i62jC2jJFup30TsjHm/ftsAar/iJ9z8BIS56Rzvflh7qBN57p9e32GCz1Le+J+c7BxeGHZPixnNN8/BMjGXEZcDbkxOn0HeBuLGjYAF+nUnos0Te4QdZOYBHDF1f57LvYQJH4/4KA1sUhGVx4G3ROhFGwE2rcxU1EZBPZ5iaekVdCafB1j/HkliPddArL9JiRsKEb8/ervAvq7Iob2nipgCHttUMV6/NveJTj62/uA/vWvf72W4BYD35nm35SM+LwEh00IkF/JbUKinxZL16zEhcqFX5ONBQ1sP51jQbv8XGLhu8fRYyzWjkvzvLY1LrXnwk5nH+aNi1eaG3AgtrQ4tdhZbMg5MNXCEx94jNcMgxzwTMGxxl7PVmkbfjEXWADdt3mR7Zz3uaLhOs5460yzfsfOj/z78Y9//LoG5IA38U3KJooL3CWZHQ/hXwG38W67pEU7BNtO5DM3BzhAOMR2ce3HbTVA9QmOoz2P3VWQ2yyhO4kq1E+k0mlrj/O4DA4LgxPHy3sVLo/jXSzap33lxLpwVD+bNIwFYoqQlZBsu4nNY3X/TQyq/PZ5CdDa8Q9RWzwZ3zyKZ09CcPJ1BmTicOFhzFwECLbX9ueWzK6ZMjYVVyYi4tniwuNpLpsjSoLY7JlV85vvn+sTHihRFq8mc+e77Wwu7zs+d65ayK4VE8bb9naeC75iH04xBhkX/RAn/6VdzvOx9Y/7uHKjIvU0k23+2N+N2ROne/tHAbenYVckLpJ3h01af2+ACvgG9iKaJxBWuU18Fgg7i/47pgtoV/sQ5EWEXsLourDJfOf6hocL3AUKBGUAA0J+t+GkbUIX3BZp949fSuImyM/FvvG6hNeidSW0E8exrEj6XMTuXZHRuJXgG/N3d8FxE4LjCalArpsBcRu2CYcX0u027sbKST/7iLlnaddt01cR5FhUgCwsJZ6nqrrCbwI3juxXC1VJ1+dfRUTbaVvO5/bPPgoC48I+t2CANY/zElrOISYWAdtkniGuzkW3XXHqrIgio+NiBs75jNMrLtjxZAP7HR/GBBeAib74Dm54ir/51zEu77zwuB+iYmRnNJeafk75WpnUmN6qeBl1kb2FyuJhYrtmNj527fb3Qh0PQDV4SX4HxMswjNnLMgQWQvEyjYNOsnAc/dsv68tJ1QuTBNl/61dsfJqhmNidlN7u5GmcWwx4/MUA302Il0B5P9XpVaFZ/E0Ql7hacJxoHLtrOF999dWPfv3rX39cw9k+XsnN6xSItftee9yE4FdybxwToG+++eb1QjqLlokMv1+E5VkXWHkiALZXZJzP3XcR0iU+xUAFvILjQqbifxUXHjvxv4rFVuQ7z/lPzjhv6M9i9NS2/WE/mHwdLwqQ2VyB6LhL+vSFzcZ983X7fNPNJSDEqAXKxQn2d/2D3fi6+tCcxTdXLpubPsl/HsVjAryAV2B14CZyBkrS1CBXCdd510AMdLe3z67e1x7kQDsVLIPIYwWY7MfhgHv7eSS67eY4X6sp4VtoDAS3AxhcEKxN/9bAvrVYOZkLWpMGcbuEyIlCPyb0Et5FIAW5cWLxsNAbnE+idAkQccG3xZKJxpgzWTjpdv4E6Le//e2HANEGS3D+IWqJZePbTQxcA7J/WILzDMhjcuwtIMTfYopP3T+fjYkeV/EgL9y3c8lt2rfto3i2/Re+nbPd77ax13GkbZNYsWpS5biO68p7bME+Ey4YMw9dcehNCDt+wmIscF6Fjf6dm53BUARXFGxL87jfPzcG8yDjcQwuUSzHOO+LzU8Kvy3B1REVjHek8m5fq4snwlwbFYkC08dgb6tCD2zHEzwTTpNlbXX5rABsInKtCaDb+dhk8bLgdZptAmSfjzG5OrEMuPq5xHSBFT/UXnxrwLXfgs14YTydxT4JHlUrdnA+Y3IMr9hZsDxOyN3n2CbG5OM2jr2Q7ssvv3w9DdtxZwa0mwiaH8bjBGgPI/UruWcDz4JjBlXh43uv62y7SYi+fFwrU8fW/rEvGie3Qeyv/KKNS+hM4DvX/quwgGvH5IqvfQsHWOCIxSVIFjALEGNt4Uobja8LJC+l73i/CsG80bG7qHR+2sZLOIg/Y6dPOOUqXOpHuJD24UO+89c56GMtmMXQ1Vc1ofyJPa9Vod2EgEGoq8kfB13J+yQ+V3JVQNbeRfyXkgJeA6R90J5tv5LK7bs6KqgNhgLVielxeJ1+5/d7RdVJ2WW1EjL+L7kUNGvTx1aMAFPJ+hqvE4/PPt8iZUG8cAHoWoleAgJWILEmDO27sHDC+DO+cGXK2D1mlkh5HxAPI6UvvxF1Pzb13YgeAz9ErQDxQjoEyMLqcfomkfqM8e74HgcRFWOOGzHyXxc4zT2w7eKB9iso9F9hal/to6Rr7FzxZf9VBEHK5IBXJOw7x78FV9tnXOYK55jzfJ/Bmf1aAnesLn96v3PQthGTiojJvjxQIaDtFjg9r3ExBkYAAAaKSURBVOKOn9v3FfuneH34hFdycyDrkK0CngJjwNvRrspLihdxAQQD1tWBA9VjOPdJNAyiS/0rSr7mg7M9zv7wkX57+2V9ZjGvoK9N92Xg4cttMzieAGY/OI4Wq/qwRHAVAiUTj69i1WRxEdFiAQJ2n419cebvFE4mFgQFO54wgN342C+ks+/2NOy//e1vP/rvf//78XpmBALSWfw3g9pNCL0GZAFqorYiN7nMPj9ehlwyUV+FDrEqFkpuztOLLLC15PWObJ5Ez8XHdb3DvNC4eLzlAvaB7xY5fOcvsxiu1bTtfd+xiEgLFvLO13q2jR89k8fcLARO9tczKBM/vMRynbnAnOw2LQDGqoXlGptz1dyM/662zO1XYU9MHHtj5mrzxdsswdGAyQFiaPIblAZNP7tyajDtGJzgQDsABVwFrAJSu303kQFgcjLhmdhN/hBNk9GVYqtFJwN2O4CA0+J1HWdQ9fwGl2NLEpCPgQtRM2a3XUG3vxwThNFVZm2wz4iz7WO//e2YXILUc1x1EvPGzO91cv8c77vgnExbgtsL6SZAJvFXEulFYbuGNAH6+uuvP1mC8u+AnD/2HWM3Flw0MF62NWbOKceuhUJFmTFYpG1DixXOv8SrgmficqFg8qb/J7G7KnDnvPFfkjen0D+Y33lss+84x+OrCG2cfQI2wmVBNP7oz7mwGF65X0GiTYpfYtWxu3h58lH5e9+xAd41tozxi1taTNsm+mpe088XexSPCRcnmvAKqg7gqXKyY/voCyc3IMXpJboL8Dvf0919pwKhPfowyOjDTjUwTEoWEwsiYHx3c4ArAichn1ttUPlsOyRZ8nHlZdKw/2tzxQkgNOZOCsZqQirQrwTwDQsUAd5GzNzuBWiLzUXQLV5MbBYlsHxV24zR5DZbeSNqX8eAAPFWTezGPpZ7JmAToD6KZzOgb7/99nUXnLE/PxFnC5CP2Xaw5jh5GXA+c0XNcfWvfQ9WLNz2X4XOJFJ8t9hpcUcfHasLmRZWxjVxAlfg3wVeBdgETOFpLrGw2q++8G4RAr/43YWt/c+YvFLifL9uSjBHIAjl1T2FwzN72vQ4vDTr8RcPjt+Vy+UU4sc4sYNziwfH1Ta5nVcMeRZcBYEGPDiCXhA4eCWqnV+FNCnRj5PhXd8lRSqpiggONKhN2ggRthnIDogTyxVTCduC5imzwXaRuMdPcG27CdLBhvjsKyd97WtyFtwXQI2JEswF7tptnzi+8wkFie03EbrirN9MChUrYoQoITTg2HHe514bmgD5JgTGPQHqEtzORZDA087/6U9/+lqC49z93U0Iuw17NzHga2yySJQUXTw1/iY9Y4d+3U99CMld5HNV/iUs48nYYCwVnBKU49bcLzZte7nGOY1AlJ/cHmMzvjpLGTabS4yRYsD2D8+79tdXfhfzYHF/IWXb4XxjnC4CHCsXp9hCMePcLH8zLjiqmPK41w5cbR5lHO63fV58w1jh7Nd4vQRXESKpDGRX2Db2IhIDB6LvRTonKWAyca1dZlJ2xpUk9GdScTJ6f/sgUHWqE2qfB05fB0BgLKoORiuEEoztwLcWMAQcP5hYIVv6cPws+o2Zv7sicQw7Q3oCWwneZOokcbxMCD5m2wGpSa04w077zsm9Nlwxmzywr6SPGDED4i44xu1rQMbRsOBrNMyAuAmBY3khHTchENdWsTuebV5BwF6Tq4uGxsHxunBxEawFsSLvXDZOTDSOq20rOXmMjMcV9SVA5iDj5Iqjl/csSs4X99E8Mg91rOYr9z0cYFexx3gZqzmAz2DWwrPj4RVvZ7btfbTNcc03x4N9FjTwAzc0T2wnbZW7GyP206Znlh8ithkQAeBCON8N9qegryHIyobhvCvBnlQZxwIAJw6fmUrvGBKUAHt9n363j4Gb7Ax49wcwsZ+2cdh8NJIa4DgPUXgKHoHAP4xzffG5a7AIThPMvrZtJggH3snP8QZT26M/+/YpCZvEtFvxWpteVoQUON+C2zF5XCSp/eykb2IQ4ysBiC82g5POgLCRu+D2OzD8yz5EnHHud0B7IZ2P2xLcZkDXXXBgGWKYbfiQz+DeY1l/13KO8Waf0A9Ydn6BNzBtjCCW4MBt9riSK/ExvompsWnyugrfYvDKC4ifY13sOhaM37Ev51w2mtSZwXAcGGC8JnzGbuIHO/a7OZbtxgEYYOzsc1ydL+Yyj8ei79gyu7NfyNUnQbr6K06wwzEj//4flg5cF/7Yvp8AAAAASUVORK5CYII=;" vertex="1" parent="1">
                    <mxGeometry x="159" y="100" width="510" height="637.5" as="geometry"/>
                </mxCell>
                <mxCell id="9" value="" style="shape=image;imageAspect=0;aspect=fixed;verticalLabelPosition=bottom;verticalAlign=top;fontSize=11;fontColor=#FFFFFF;image=data:image/png,iVBORw0KGgoAAAANSUhEUgAAAEcAAACDCAMAAADoF/aPAAAABGdBTUEAALGPC/xhBQAAAVZQTFRFMSsrNzMzNzMzOjMzOTQ0OikpODMzNzQ0IiIiNzQ0NjAwOjMzODMzODIyOTU1AAAAqKamXlpaa2dnVlRUg4CAwb+/fnt7iIWFVFJSSkdH4ODgwMDAkI2NgH5+np2dYmBg0M/P+/v75OPj8/PzdnR09fX13d3dzMvLsrGxeHZ27+/vQT092tnZRkFBk5KS5OTkzczMnJqa5uXlcW9vvLu7xsXF8PDwioiIlJKS8vLy+Pj4/f39mZiY+fn5/Pz8j46OwsHBQDw8uLe3RUFBo6Kit7a2ZmRknJubb21tR0NDTUpKPDc3SUVF9PT0Pjk5XFpa29vb6urqe3l5Z2Vl+vr6UE1NUU5OU1BQVVJSW1lZ1tbWV1VVSUZGycnJWFZW9vb2rq2tWlhYREBAUk9PhYSEgX9/Qj4+VFFRVlNTPzo6paSkS0hIWVdX////7u7uOjU1T0xMXVtbAgtaRwAAABB0Uk5TL69v788f348PT1+fv38/AMnRFfMAAAZgSURBVGje7ZpXY+I6EIVJp+f2ur3X9L676Z2EhJYAXgzEEBwgwfr/L1eSJUsC4Vhm9z7teUiCkb7Y0mhGM1ZgUqpYLBIVFYMKx6HkHQL8h2A8HBuKdu5XdAgyx+SceGSko6ihcA8nMNrxo5GQyAl3fX/UshqiWlBX19fXW10tIzyHYH5+MDs7MzN3m9oA/bWRup2bmflp9sEvPAhzQvjCb3O3WKcV4K7Kqd1wbhb3m6Cc4Dj89PF3+8vbzQxtf9Zut3WTl97GX2Q2SdsPHxFojHBi6MMH+5tiGpzpZt4wLLkMo2HqBZAucqCozRlDmD/w5dSGbuYsD8prcJiQ/kSd45iDbidZraXgwGieIFg5DQ7T6UY1aQ815KDRseBD72bylorymQocSgvdUBByAvB3ooqGr22pCQ96NQH7hyAHPdYVnoZLRc4l7nWFpz4widblMb5iqQr3OsYzFsDDY/p5LPJgJlpmkIPGCQzAAXigA3H4c2sgDlq5ccy5HohzjTloqR/hz1VlDrYWcAQJ4QCa9hYYYL5ACxJi34NzoYi56MMxFDlGH46/ddHLMRU55vfinNgXdEWOznOYPfvzPwCcdHNEg4YOXWufsWgDQ0fDkJgzWRdsnTqGmIMhoW/wapv5nGCGhBN0/AbhGL8W7omDBd286OFMcpwL61LjngRkarwyAku7JOYMkjZnhPpDOEC0Vbq2XSyS6MvptFjcrqUdFPmNboT45wb7RxCRunVXioOJHLJSwPzmfQyHtTlP+lD/PMEMGtyqiPRpkHgRG5BjSDhFBUwRsGWB4mCYGTR4rcB5zXFikMMtDFBR4NBdG4rL4S7OrgJnlzdnyEHbqAS5VlPg1EifLcLhF8Y833A9m10rM61ls+v81/O8GVJOgZv4T9kv5dPVpTuZllZPy1+yn7hpLwgcssDAq3J59e5+rZbLr0iPvxxOlDOg0p1Xlbhpjzqcr8RHNj1zmsStfRU5ZMUfeOYckNXVxbFs/1X3zKnbW36LcSLwrx1Lw9ffeua8xe01a8fOMMg+/IoGWc8cGsqv8PJiHOK1zz1izmlk6OG0lSa+RCNnD8c2xQr9f6VSaa8pag9eo/dboTuCHo7to5enS82pen2/f/Sq15ebpfMDumNiHOTI3rOwpiLY68bJm5ADuoFXCsqYgpSjK3N0KcdU5phSTkNos78M54e3pnM4f8vi+DekHINrcdhv4TcPuVaGlJNjDaZcLHCKNctJOWzi96ddONP7/LS7cuoePMb/wGkrcto/OL44Z4qcs/vm/dCVc+jZfsC/Lpg94J0DDpr9dAD6cYaJXzWU/Y+43omfp5FQQZdSzqD+kHI0ZY5GOCGB01bmIEPsiYM+4xfj2PsWWmVQ0gXPsfdRVt4HJy/haD44moRT8MGBgZntx2yOn+FBA8T2h2gjfcyGJ12pfE67dE1/rlQqbIBEjlMcoLlccbuy25Vq12qQUBRyQViC6OKwYOop2XFuOOdwcPmZPVZGKWkC+WOaX9jux3msmlISBx9M4LDH+qyUVMIHoxz0suCGGaG3FHWTmbRd6bfz7h1WHSkqJd3QFG9IXok4f7PZ/cdbWYJ1eE84E04dGyv71APmaZZ1OCL5u1hvgaHr3fO1dRfG+trzd3wQa0k5NJQuvaT5rCOU/75c6t0EkfoGemHlWI/nxLLJNq2Ew6XvXJ5yn5gB6aSOxJUTlPMmrh4V5Mob6nkcq7PFRY5iXinWIVsed6ryXSs2oEBI4LSthwseIAsPuajJ6r2WECEfP1p0hSw+eixEX2xAmNMQOCgVW3nzRMp48mZFF4q91IACURkH68XKwuIzh/BscWHlRW/RmBQQO5gDpBxPxWdqQPg97rfgdH5wXDnjXJXNH6fqzHtjIE4Dc4YEN++Hc+ysi6OBOGi9R/B6Tzj+uWoYXt6CXRgGc+nohe6w7Z/FPW9VM40+L84N49LUq+LeFwfmAN72JqvyfbYgeRvsVsdJPZy+cfIh5MVwHRu/GO5YPjH4qUaCNI+Dd1T1Qame4L7D9vmECP6QOFFNnPRWwjl5gc9dOEdaklfouEej4Z51wTMh8EBIknYaDTrnQCI9B05gw+uTVpdO+O7igRJyLiUU7fhTNN513iYeUT8pMzoRl57/mYyH0HGhqPvNjUcjsVD3gaKA/HjRJDp5NBzrFrzYp8N/u5BEQg8L9qwAAAAASUVORK5CYII=;" vertex="1" parent="1">
                    <mxGeometry x="360" y="550" width="71" height="131" as="geometry"/>
                </mxCell>
                <mxCell id="10" value="" style="shape=image;imageAspect=0;aspect=fixed;verticalLabelPosition=bottom;verticalAlign=top;fontSize=11;fontColor=#FFFFFF;image=data:image/png,iVBORw0KGgoAAAANSUhEUgAAAEcAAACDCAMAAADoF/aPAAAABGdBTUEAALGPC/xhBQAAAXpQTFRFFlyIFmCMFV6MFGCNFGCMCFqEFmCLFGCLAFV3EF6LE16MFWCLFGCMFGCNEF2KAAAAG26dmbrNQX+jUImqY5y9bZy4cKPAts3bInuuH3iq2Ov2stLkJ4W7e6a/K47HJ4rCJYO5ZqvSQZnLi73aHXKjydvm9fX11Ofzvt3w8/PzpMnfNZPI+/v77+/v4efrUqXVWqXQ9PT00+HpJGuV4ujsdrbbxNfiirDG4evwIHqtSaLVmsfgsM/hvNXk+fn58PDwarDZfbzh8vLy/f39f7fX+Pj4/Pz8cLbesdftHXGiJH6zGmuapNDqisPkOprRpszigrvdRqDTH3Wm8vj8KovDF2WSK5DJIHiqGWiWLpTP1uLq5fH5JYG3VqjYPJvSLZHL+vr6KY7HKo/JK5DKLpTOKo7HLZLMy+TzLJLMJIK4LZPOvtfml8rn9vb2H3eqKo/IY6/bXqvXHG6eKIi/LJHLGmycjsHfInuvLZPN////7u7uFmKOKY3GL5XQDbfA0AAAABB0Uk5TL69v788f348PT1+fv38/AMnRFfMAAAZ4SURBVGje7ZrnY9o6EMDJZuft2d3XvdusZjSj2XtDBisQcBk1BAdIwP/7k2TJkkA4lnl9n3ofkiB0v1jS6U53lmtQKIGAz89LAIg3CESs4GI/uIPeQJe/frP4uwCzT8wJ+nrqktLlbeG4eutOpMfDc7xN3+9WT8u8VIGsXFxcrDX19LEcjPnp9ujoyMjY1cmS3l6WTq7GRkZ+HL39MwtCHA9q+HXsCsleXreW/J7RcWwU6Q0QjrsffPrwu/Hl1XKU9D+q1WppjZV0DX0RXcZ933+AoD7MCcAP741vMhH9KK0lVbUhFlU91NIpPZJhQH6D0wcxv6Dmk6W0lmjYkKQCpgnKb1A5iDjwccKx4gmYGMUWBElCAdO0txQLG1MNOHB2TsGgN6LJhowko3kwlafwgdyA4wK/D2Jw+moNOUGTHjsA+h7AgcNaQctwJsk5Q1oraOldg3BfrqKWhqwgrVW0Yi40PftOhoUHtg+3GeDAedI74Ohool1B8HOtIw7cuUHEueiIc4E4cKvvos9ZaU4W6e0CgtcFl72qd7BeehUQAt+Ccy6JOW/DUSU5ahuOs33RytEkOdq34oSMhrQkJ81yqD078z+6Hmrm8AYNHLpSO6LRBoSOQ1Vgznhf0H1qGmIChIS2waumJROcGWKO2/QbmKNqqRviYCqtnbdwBhnOeeNMYUaiR4usRDmWcobNWQ8bnB7iD8EEkV6R4nomg6MvI3uZzHoxYqLwb/gg2D+X6T8CiJMrazlhYDznFm4aX76JYbKWx7EO8c8D1KD1KxnBOmUcLwIdcm4JOBkJTEan2wLGQS81aP2pBOcpwwkADrMx9LwEh5zaYFz2NnE2JDgbrDkDDjxGHeC2ogSniHXWMIfdGONsx8V4fKFAZSEeX2S/HmfNkHBSzMJ/jn8qvJubvhbJ9Ny7wqf4Z2bZUxwHu0j9SaEwd32zzBUKT8jeNjlwY9zDrblru5LDGveMAyvmfME+smKbU8Fu7QvPOTSat21ztg2FwyZOw/BfJducknHkb1COD/z1saGg9je2OW9Qf6Xx0cgw8Dn8KwmytjkklH9F24tysNc+tok5JpGhhVOTWvgciZwtHMMUJ8j/y+VyWxVetkAbed4JciJo4RinmZmhXGW4VNpsH71KpZlK7nibnJgoBzqyf2hYkxGgdWnmTdABXYKWlDQmJeSkpTlpIUeT5mhCziHXZ3MGrA9rTcdg/Wb4+T8UclSmx067jV/ZYXqpQk6Cdhi2sMBh2i0h5NCF3xyy4AxtsstuySnZ8Bj/A6cmyal95zjiHElyjm5a9x1Lzo5t+9H/tsBs6fY5+nalnWzr7Tjd2K+q0v6H3+/Yz5NIKCFnQk6n/pBwFGmOgjkejlOT5kBDbImDDuMX5RjnFlJlkJJzlmOcoxpJB5ykgKM44CgCTsoBBwRmeh4zOE6mB04QPR/Cg/RdOj2RfH42YqEamc3n83SCeI5ZHCC5XGY9v9GUaheLgJDhckFQgmji0GBqK9kxHzhhclD5mQ4rKpU06cm7JL8w3I85rKJUEgcGxnHosGalkkowMMKBLwsuqRHaS1GXqUkblX4j7/6TVkcyUkk3MMVLnFdCzh90df+yV5agCj9gzoBZx0YSf2kD8zJOFXZx/s7XW0DoevVsYdGCsbjw7BUbxKpCDgml049JPmsKzH8fT7ccgk5xfQO+sIqZrRW5tJKptzDpO5On3CQTpsYdXEdiygnSeRNTj3Iz5Q35PI7W2YI8RzKv5OuQVZsnVfGpFRmQy8Nxao37kzYgk/eZqEnrvadchHzwcMoSMvXwARd9kQEhTpnjAHkx//yRkPHo+fwLrthLDMjlF3GQvJ2fnHptEl5PTc6/bS0a4wJiHXF0IcdW8ZkYEHqP+19w6t85lpx+WsZ2yImZ617uiFNGnC7OzTvhrJr7YrcjDtzvPrTfD0z/nFVVO2/BzlXVPBDo8IVut+GfT7mTUlbR1DYvzlX1TEtnud7oBXOfCx17wzHxOZuTrPh8Bt1qP66HkzdODgR6MVTHRi+Gm0ZmX9CoetwkjwNPFHNAiYWQbrdxP8GHPhyE9iUpd6oH5s0LdO/CvNISXoHXPcplS/V9cCcEXAgJE6Vet3kPxNdy4QR0vAhVmyTEqvMXSvC9FI+/7kz8wab7NkGf/E2Z3oGg8P7PYNADrwv5rR+u3+8LeJovFLnE14sG4c2j7kCzgMY2Cv8CziDEH1400IcAAAAASUVORK5CYII=;" vertex="1" parent="1">
                    <mxGeometry x="440" y="120" width="71" height="131" as="geometry"/>
                </mxCell>
                <mxCell id="11" value="countdown timer" style="text;html=1;strokeColor=none;fillColor=none;align=center;verticalAlign=middle;whiteSpace=wrap;rounded=0;fontSize=11;fontColor=#FFFFFF;" vertex="1" parent="1">
                    <mxGeometry x="180" y="130" width="60" height="30" as="geometry"/>
                </mxCell>
            </root>
        </mxGraphModel>
    </diagram>
</mxfile>